%TF.GenerationSoftware,KiCad,Pcbnew,8.0.0*%
%TF.CreationDate,2024-02-24T11:24:54-08:00*%
%TF.ProjectId,JumperlessProbe,4a756d70-6572-46c6-9573-7350726f6265,rev?*%
%TF.SameCoordinates,Original*%
%TF.FileFunction,Copper,L1,Top*%
%TF.FilePolarity,Positive*%
%FSLAX46Y46*%
G04 Gerber Fmt 4.6, Leading zero omitted, Abs format (unit mm)*
G04 Created by KiCad (PCBNEW 8.0.0) date 2024-02-24 11:24:54*
%MOMM*%
%LPD*%
G01*
G04 APERTURE LIST*
G04 Aperture macros list*
%AMRoundRect*
0 Rectangle with rounded corners*
0 $1 Rounding radius*
0 $2 $3 $4 $5 $6 $7 $8 $9 X,Y pos of 4 corners*
0 Add a 4 corners polygon primitive as box body*
4,1,4,$2,$3,$4,$5,$6,$7,$8,$9,$2,$3,0*
0 Add four circle primitives for the rounded corners*
1,1,$1+$1,$2,$3*
1,1,$1+$1,$4,$5*
1,1,$1+$1,$6,$7*
1,1,$1+$1,$8,$9*
0 Add four rect primitives between the rounded corners*
20,1,$1+$1,$2,$3,$4,$5,0*
20,1,$1+$1,$4,$5,$6,$7,0*
20,1,$1+$1,$6,$7,$8,$9,0*
20,1,$1+$1,$8,$9,$2,$3,0*%
%AMFreePoly0*
4,1,61,-1.004046,3.703271,-0.272051,3.705999,0.029798,3.689124,0.327885,3.638709,0.618495,3.555382,0.898007,3.440182,1.162936,3.294544,1.409980,3.120284,1.636062,2.919574,1.838363,2.694914,2.014362,2.449105,2.161865,2.185210,2.279034,1.906519,2.364410,1.616504,2.416927,1.318780,2.435931,1.017057,2.433136,1.004402,2.436000,-5.334000,2.418517,-5.556137,2.366500,-5.772804,
2.281229,-5.978667,2.164804,-6.168655,2.020092,-6.338092,1.850655,-6.482804,1.660667,-6.599229,1.454804,-6.684500,1.238137,-6.736517,1.016000,-6.754000,1.003628,-6.751176,-1.016000,-6.754000,-1.238137,-6.736518,-1.454804,-6.684501,-1.660667,-6.599230,-1.850655,-6.482804,-2.020092,-6.338092,-2.164804,-6.168655,-2.281230,-5.978667,-2.366501,-5.772804,-2.418518,-5.556137,-2.436000,-5.334000,
-2.433133,-5.321442,-2.433245,-5.024200,-2.001600,-5.024200,2.077800,-5.024200,2.077800,-4.272301,0.812800,-4.297600,-2.001600,-4.297600,-2.001600,-5.024200,-2.433245,-5.024200,-2.436000,2.286000,-2.418518,2.508137,-2.366501,2.724804,-2.281230,2.930667,-2.164804,3.120655,-2.020092,3.290092,-1.850655,3.434804,-1.660667,3.551230,-1.454804,3.636501,-1.238137,3.688518,-1.016000,3.706000,
-1.004046,3.703271,-1.004046,3.703271,$1*%
%AMFreePoly1*
4,1,63,1.238137,3.688517,1.454804,3.636500,1.660667,3.551229,1.850655,3.434804,2.020092,3.290092,2.164804,3.120655,2.281229,2.930667,2.366500,2.724804,2.418517,2.508137,2.436000,2.286000,2.433133,2.273442,2.436000,-5.334000,2.418517,-5.556137,2.366500,-5.772804,2.281229,-5.978667,2.164804,-6.168655,2.020092,-6.338092,1.850655,-6.482804,1.660667,-6.599229,1.454804,-6.684500,
1.238137,-6.736517,1.016000,-6.754000,1.003628,-6.751176,-1.016000,-6.754000,-1.238137,-6.736518,-1.454804,-6.684501,-1.660667,-6.599230,-1.850655,-6.482804,-2.020092,-6.338092,-2.164804,-6.168655,-2.281230,-5.978667,-2.366501,-5.772804,-2.418518,-5.556137,-2.436000,-5.334000,-2.433136,-5.321456,-2.433270,-5.024200,-2.077651,-5.024200,2.103200,-5.024200,2.103200,-4.196000,-0.762098,-4.195999,
-2.052547,-4.170696,-2.077651,-5.024200,-2.433270,-5.024200,-2.436000,1.016000,-2.435906,1.016947,-2.435931,1.017057,-2.416926,1.318780,-2.364409,1.616504,-2.279034,1.906519,-2.161864,2.185210,-2.014361,2.449105,-1.838362,2.694913,-1.636061,2.919573,-1.409980,3.120284,-1.162935,3.294543,-0.898006,3.440181,-0.618495,3.555381,-0.327885,3.638708,-0.029798,3.689123,0.272051,3.705999,
0.284004,3.703270,1.016000,3.706000,1.238137,3.688517,1.238137,3.688517,$1*%
%AMFreePoly2*
4,1,18,-0.635000,0.635000,0.000000,0.635000,0.099336,0.627182,0.252189,0.582774,0.389196,0.501748,0.501748,0.389196,0.582774,0.252189,0.627182,0.099336,0.635000,0.000000,0.627182,-0.099336,0.582774,-0.252189,0.501748,-0.389196,0.389196,-0.501748,0.252189,-0.582774,0.099336,-0.627182,0.000000,-0.635000,-0.635000,-0.635000,-0.635000,0.635000,-0.635000,0.635000,$1*%
%AMFreePoly3*
4,1,455,0.024171,7.214759,0.028568,7.214610,0.049870,7.203443,0.071873,7.193755,0.074730,7.190412,0.078627,7.188368,0.339196,6.944885,0.577199,6.679300,0.790769,6.393699,0.978232,6.090321,1.138115,5.771545,1.269166,5.439874,1.368949,5.102659,1.413084,5.026138,1.499315,4.928888,1.603325,4.850942,1.720873,4.795480,1.847167,4.764763,1.912112,4.762416,1.966722,4.747846,
2.009603,4.711025,2.032261,4.659245,2.030208,4.602762,2.003851,4.552763,1.958411,4.519151,1.902888,4.508584,1.746033,4.528264,1.595093,4.575253,1.454783,4.648082,1.439982,4.659468,1.429602,4.627521,1.379602,4.591194,1.348700,4.586300,1.265000,4.586300,1.265000,3.800538,1.287735,3.818315,1.471283,3.914377,1.669152,3.975742,1.874846,4.000395,1.962121,3.987565,
2.039744,3.945658,2.098354,3.879730,2.130879,3.797732,2.133399,3.709554,2.105608,3.625833,2.050858,3.556666,1.975754,3.510396,1.889354,3.492602,1.813630,3.490607,1.667450,3.450806,1.534721,3.377761,1.422879,3.275565,1.338191,3.149944,1.285403,3.007936,1.267472,2.857500,1.285403,2.707064,1.338191,2.565056,1.422879,2.439435,1.534721,2.337239,1.667450,2.264194,
1.813630,2.224393,1.889354,2.222397,1.975754,2.204604,2.050858,2.158334,2.105608,2.089167,2.133399,2.005446,2.130879,1.917268,2.098354,1.835270,2.039744,1.769342,1.962121,1.727435,1.874846,1.714605,1.669152,1.739258,1.471283,1.800623,1.287735,1.896685,1.265000,1.914461,1.265000,1.260540,1.287734,1.278316,1.471283,1.374378,1.669152,1.435743,1.874846,1.460396,
1.874846,1.460394,1.962121,1.447564,2.039744,1.405657,2.098354,1.339729,2.130879,1.257731,2.133399,1.169553,2.105608,1.085832,2.050858,1.016665,1.975754,0.970395,1.889354,0.952603,1.813629,0.950608,1.667449,0.910807,1.534720,0.837762,1.422878,0.735565,1.338190,0.609944,1.285402,0.467937,1.267471,0.317500,1.285402,0.167063,1.338190,0.025056,1.422878,-0.100565,
1.534720,-0.202762,1.667450,-0.275807,1.813630,-0.315608,1.889354,-0.317604,1.975754,-0.335397,2.050858,-0.381667,2.105608,-0.450834,2.133399,-0.534555,2.130879,-0.622733,2.098354,-0.704731,2.039744,-0.770659,1.962121,-0.812566,1.874846,-0.825396,1.669152,-0.800743,1.471283,-0.739378,1.287734,-0.643316,1.265000,-0.625540,1.265000,-1.279461,1.287736,-1.261684,1.471284,-1.165623,
1.669153,-1.104258,1.874847,-1.079605,1.962122,-1.092435,2.039746,-1.134342,2.098355,-1.200271,2.130881,-1.282269,2.133400,-1.370446,2.105609,-1.454167,2.050859,-1.523334,1.975755,-1.569605,1.889355,-1.587398,1.813630,-1.589393,1.667450,-1.629194,1.534721,-1.702239,1.422879,-1.804435,1.338191,-1.930056,1.285403,-2.072063,1.267472,-2.222500,1.285403,-2.372937,1.338191,-2.514944,
1.422879,-2.640565,1.534721,-2.742761,1.667450,-2.815806,1.813630,-2.855607,1.889355,-2.857603,1.975755,-2.875395,2.050859,-2.921666,2.105609,-2.990833,2.133400,-3.074554,2.130881,-3.162731,2.098355,-3.244729,2.039746,-3.310658,1.962122,-3.352565,1.874847,-3.365395,1.669153,-3.340742,1.471284,-3.279377,1.287736,-3.183316,1.265000,-3.165538,1.265000,-3.819461,1.287736,-3.801684,
1.471284,-3.705623,1.669153,-3.644258,1.874847,-3.619605,1.962122,-3.632435,2.039746,-3.674342,2.098355,-3.740271,2.130881,-3.822269,2.133400,-3.910446,2.105609,-3.994167,2.050859,-4.063334,1.975755,-4.109605,1.889355,-4.127398,1.813630,-4.129393,1.667450,-4.169194,1.534721,-4.242239,1.422879,-4.344435,1.338191,-4.470056,1.285403,-4.612063,1.267472,-4.762500,1.285403,-4.912937,
1.338191,-5.054944,1.422879,-5.180565,1.534721,-5.282761,1.667450,-5.355806,1.813630,-5.395607,1.889355,-5.397603,1.975755,-5.415395,2.050859,-5.461666,2.105609,-5.530833,2.133400,-5.614554,2.130881,-5.702731,2.098355,-5.784729,2.039746,-5.850658,1.962122,-5.892565,1.874847,-5.905395,1.669153,-5.880742,1.471284,-5.819377,1.287736,-5.723316,1.265000,-5.705538,1.265000,-6.431214,
1.267204,-6.431816,1.309887,-6.468867,1.332267,-6.520767,1.329912,-6.577238,1.303291,-6.627092,1.265000,-6.655102,1.265000,-6.692500,0.921172,-6.692500,0.759542,-6.740312,0.597129,-6.819214,0.449842,-6.923666,0.321665,-7.050843,0.216062,-7.197307,0.135891,-7.359097,0.109635,-7.445477,0.099973,-7.462357,0.092800,-7.480436,0.086091,-7.486613,0.081562,-7.494528,0.065531,-7.505546,
0.051224,-7.518723,0.042497,-7.521378,0.034979,-7.526546,0.015758,-7.529517,-0.002849,-7.535180,-0.011862,-7.533786,-0.020877,-7.535180,-0.039482,-7.529517,-0.058705,-7.526546,-0.066221,-7.521379,-0.074949,-7.518723,-0.089256,-7.505547,-0.105285,-7.494531,-0.109815,-7.486615,-0.116526,-7.480436,-0.123699,-7.462357,-0.133362,-7.445478,-0.159618,-7.359098,-0.239789,-7.197309,-0.345392,-7.050845,
-0.473570,-6.923668,-0.620857,-6.819216,-0.783270,-6.740314,-0.944906,-6.692500,-1.280000,-6.692500,-1.280000,-6.660720,-1.281400,-6.660462,-1.327018,-6.627092,-1.353639,-6.577234,-1.355992,-6.520762,-1.333610,-6.468863,-1.290926,-6.431814,-1.280000,-6.428836,-1.280000,-5.694486,-1.322499,-5.727716,-1.506047,-5.823777,-1.703916,-5.885142,-1.909610,-5.909795,-1.996885,-5.896965,-2.074509,-5.855058,
-2.133118,-5.789129,-2.165644,-5.707131,-2.168163,-5.618954,-2.140372,-5.535233,-2.085622,-5.466066,-2.010518,-5.419795,-1.924118,-5.402002,-1.848393,-5.400007,-1.702213,-5.360206,-1.569484,-5.287161,-1.457642,-5.184965,-1.372954,-5.059344,-1.320166,-4.917337,-1.302235,-4.766900,-1.320166,-4.616463,-1.372954,-4.474456,-1.457642,-4.348835,-1.569484,-4.246639,-1.702213,-4.173594,-1.848393,-4.133793,
-1.924118,-4.131797,-2.010518,-4.114005,-2.085622,-4.067734,-2.140372,-3.998567,-2.168163,-3.914846,-2.165644,-3.826669,-2.133118,-3.744671,-2.074509,-3.678742,-1.996885,-3.636835,-1.909610,-3.624005,-1.703916,-3.648658,-1.506047,-3.710023,-1.322499,-3.806084,-1.280000,-3.839313,-1.280000,-3.154486,-1.322499,-3.187716,-1.506047,-3.283777,-1.703916,-3.345142,-1.909610,-3.369795,-1.996885,-3.356965,
-2.074509,-3.315058,-2.133118,-3.249129,-2.165644,-3.167131,-2.168163,-3.078954,-2.140372,-2.995233,-2.085622,-2.926066,-2.010518,-2.879795,-1.924118,-2.862002,-1.848393,-2.860007,-1.702213,-2.820206,-1.569484,-2.747161,-1.457642,-2.644965,-1.372954,-2.519344,-1.320166,-2.377337,-1.302235,-2.226900,-1.320166,-2.076463,-1.372954,-1.934456,-1.457642,-1.808835,-1.569484,-1.706639,-1.702213,-1.633594,
-1.848393,-1.593793,-1.924118,-1.591797,-2.010518,-1.574005,-2.085622,-1.527734,-2.140372,-1.458567,-2.168163,-1.374846,-2.165644,-1.286669,-2.133118,-1.204671,-2.074509,-1.138742,-1.996885,-1.096835,-1.909610,-1.084005,-1.703916,-1.108658,-1.506047,-1.170023,-1.322499,-1.266084,-1.280000,-1.299313,-1.280000,-0.621318,-1.308135,-0.643317,-1.491683,-0.739378,-1.689552,-0.800743,-1.895246,-0.825396,
-1.982521,-0.812566,-2.060145,-0.770659,-2.118754,-0.704730,-2.151280,-0.622732,-2.153799,-0.534555,-2.126008,-0.450834,-2.071258,-0.381667,-1.996154,-0.335396,-1.909754,-0.317603,-1.834029,-0.315608,-1.687849,-0.275807,-1.555120,-0.202762,-1.443278,-0.100566,-1.358590,0.025055,-1.305802,0.167062,-1.287871,0.317499,-1.305802,0.467936,-1.358590,0.609943,-1.443278,0.735564,-1.555120,0.837760,
-1.687849,0.910805,-1.834029,0.950606,-1.909754,0.952602,-1.996154,0.970394,-2.071258,1.016665,-2.126008,1.085832,-2.153799,1.169553,-2.151280,1.257730,-2.118754,1.339728,-2.060145,1.405657,-1.982521,1.447564,-1.895246,1.460394,-1.689552,1.435741,-1.491683,1.374376,-1.308135,1.278315,-1.280000,1.256316,-1.280000,1.925512,-1.322498,1.892284,-1.506046,1.796223,-1.703915,1.734858,
-1.909609,1.710205,-1.996884,1.723035,-2.074508,1.764942,-2.133117,1.830871,-2.165643,1.912869,-2.168162,2.001046,-2.140371,2.084767,-2.085621,2.153934,-2.010517,2.200205,-1.924117,2.217998,-1.848392,2.219993,-1.702212,2.259794,-1.569483,2.332839,-1.457641,2.435035,-1.372953,2.560656,-1.320165,2.702663,-1.302234,2.853100,-1.320165,3.003537,-1.372953,3.145544,-1.457641,3.271165,
-1.569483,3.373361,-1.702212,3.446406,-1.848392,3.486207,-1.924117,3.488203,-2.010517,3.505995,-2.085621,3.552266,-2.140371,3.621433,-2.168162,3.705154,-2.165643,3.793331,-2.133117,3.875329,-2.074508,3.941258,-1.996884,3.983165,-1.909609,3.995995,-1.703915,3.971342,-1.506046,3.909977,-1.322498,3.813916,-1.280000,3.780687,-1.280000,4.586300,-1.369100,4.586300,-1.427879,4.605398,
-1.458988,4.648216,-1.459163,4.648082,-1.599472,4.575253,-1.750412,4.528264,-1.907267,4.508584,-1.962790,4.519151,-2.008230,4.552763,-2.034587,4.602762,-2.036640,4.659245,-2.013982,4.711025,-1.971101,4.747846,-1.916491,4.762416,-1.851546,4.764763,-1.725253,4.795480,-1.607705,4.850942,-1.503696,4.928888,-1.417465,5.026138,-1.378201,5.094216,-1.378131,5.097907,-1.276941,5.439874,
-1.145891,5.771546,-0.986008,6.090322,-0.798545,6.393700,-0.584975,6.679302,-0.346971,6.944886,-0.086401,7.188369,-0.082504,7.190411,-0.079647,7.193755,-0.057642,7.203444,-0.036342,7.214610,-0.031945,7.214759,-0.027920,7.216532,-0.003887,7.215714,0.020146,7.216532,0.024171,7.214759,0.024171,7.214759,$1*%
%AMFreePoly4*
4,1,13,0.500000,-0.500000,0.000000,-0.500000,-0.095671,-0.480970,-0.176777,-0.426777,-0.230970,-0.345671,-0.250000,-0.250000,-0.250000,0.250000,-0.230970,0.345671,-0.176777,0.426777,-0.095671,0.480970,0.000000,0.500000,0.500000,0.500000,0.500000,-0.500000,0.500000,-0.500000,$1*%
G04 Aperture macros list end*
%ADD10C,0.150000*%
%TA.AperFunction,NonConductor*%
%ADD11C,0.150000*%
%TD*%
%TA.AperFunction,EtchedComponent*%
%ADD12C,0.001000*%
%TD*%
%TA.AperFunction,EtchedComponent*%
%ADD13C,0.010000*%
%TD*%
%TA.AperFunction,EtchedComponent*%
%ADD14C,0.000000*%
%TD*%
%TA.AperFunction,EtchedComponent*%
%ADD15C,0.200000*%
%TD*%
%TA.AperFunction,ComponentPad*%
%ADD16FreePoly0,270.000000*%
%TD*%
%TA.AperFunction,ComponentPad*%
%ADD17FreePoly1,270.000000*%
%TD*%
%TA.AperFunction,ComponentPad*%
%ADD18RoundRect,0.300000X-0.450000X0.450000X-0.450000X-0.450000X0.450000X-0.450000X0.450000X0.450000X0*%
%TD*%
%TA.AperFunction,ComponentPad*%
%ADD19RoundRect,0.300000X-0.450000X-0.450000X0.450000X-0.450000X0.450000X0.450000X-0.450000X0.450000X0*%
%TD*%
%TA.AperFunction,ComponentPad*%
%ADD20RoundRect,0.300000X0.450000X-0.450000X0.450000X0.450000X-0.450000X0.450000X-0.450000X-0.450000X0*%
%TD*%
%TA.AperFunction,ComponentPad*%
%ADD21FreePoly2,90.000000*%
%TD*%
%TA.AperFunction,ComponentPad*%
%ADD22FreePoly2,270.000000*%
%TD*%
%TA.AperFunction,SMDPad,CuDef*%
%ADD23FreePoly3,90.000000*%
%TD*%
%TA.AperFunction,ComponentPad*%
%ADD24RoundRect,0.080000X-0.720000X0.720000X-0.720000X-0.720000X0.720000X-0.720000X0.720000X0.720000X0*%
%TD*%
%TA.AperFunction,ComponentPad*%
%ADD25RoundRect,0.640000X-0.160000X0.160000X-0.160000X-0.160000X0.160000X-0.160000X0.160000X0.160000X0*%
%TD*%
%TA.AperFunction,ComponentPad*%
%ADD26C,1.200000*%
%TD*%
%TA.AperFunction,ComponentPad*%
%ADD27C,0.900000*%
%TD*%
%TA.AperFunction,ComponentPad*%
%ADD28RoundRect,0.450000X0.450000X0.450000X-0.450000X0.450000X-0.450000X-0.450000X0.450000X-0.450000X0*%
%TD*%
%TA.AperFunction,SMDPad,CuDef*%
%ADD29FreePoly4,270.000000*%
%TD*%
%TA.AperFunction,SMDPad,CuDef*%
%ADD30FreePoly4,90.000000*%
%TD*%
%TA.AperFunction,ComponentPad*%
%ADD31RoundRect,0.085000X-0.765000X-0.765000X0.765000X-0.765000X0.765000X0.765000X-0.765000X0.765000X0*%
%TD*%
%TA.AperFunction,ComponentPad*%
%ADD32RoundRect,0.110000X-0.990000X-0.990000X0.990000X-0.990000X0.990000X0.990000X-0.990000X0.990000X0*%
%TD*%
%TA.AperFunction,ComponentPad*%
%ADD33RoundRect,0.080000X-0.720000X-2.220000X0.720000X-2.220000X0.720000X2.220000X-0.720000X2.220000X0*%
%TD*%
%TA.AperFunction,ComponentPad*%
%ADD34RoundRect,0.680000X-0.170000X-0.170000X0.170000X-0.170000X0.170000X0.170000X-0.170000X0.170000X0*%
%TD*%
%TA.AperFunction,ComponentPad*%
%ADD35RoundRect,0.880000X-0.220000X-0.220000X0.220000X-0.220000X0.220000X0.220000X-0.220000X0.220000X0*%
%TD*%
%TA.AperFunction,ComponentPad*%
%ADD36RoundRect,0.720000X-0.080000X-1.580000X0.080000X-1.580000X0.080000X1.580000X-0.080000X1.580000X0*%
%TD*%
%TA.AperFunction,ComponentPad*%
%ADD37RoundRect,0.550000X-0.550000X-0.550000X0.550000X-0.550000X0.550000X0.550000X-0.550000X0.550000X0*%
%TD*%
%TA.AperFunction,ComponentPad*%
%ADD38RoundRect,0.400000X-0.400000X-1.900000X0.400000X-1.900000X0.400000X1.900000X-0.400000X1.900000X0*%
%TD*%
%TA.AperFunction,Conductor*%
%ADD39C,0.350000*%
%TD*%
G04 APERTURE END LIST*
D10*
D11*
G36*
X96503423Y-42727775D02*
G01*
X96450375Y-42724459D01*
X96393566Y-42711728D01*
X96344227Y-42689449D01*
X96296107Y-42651388D01*
X96253563Y-42591976D01*
X96222254Y-42509483D01*
X96202197Y-42413359D01*
X96190456Y-42313181D01*
X96183747Y-42196586D01*
X96182000Y-42086882D01*
X96182000Y-41854362D01*
X96182000Y-41804048D01*
X96182000Y-41700901D01*
X96182000Y-41596440D01*
X96182000Y-41490665D01*
X96182000Y-41431334D01*
X96185249Y-41332592D01*
X96196919Y-41235429D01*
X96220193Y-41146119D01*
X96249899Y-41084509D01*
X96293019Y-41033032D01*
X96339620Y-41001418D01*
X96394006Y-40983115D01*
X96447980Y-40978019D01*
X96522230Y-40980950D01*
X96522230Y-41199303D01*
X96495363Y-41196372D01*
X96444316Y-41198920D01*
X96390705Y-41209683D01*
X96340261Y-41237138D01*
X96328789Y-41249617D01*
X96298810Y-41331549D01*
X96283864Y-41433349D01*
X96275789Y-41540755D01*
X96275789Y-41904676D01*
X96275789Y-41949617D01*
X96275789Y-41988696D01*
X96275789Y-42019471D01*
X96276862Y-42118360D01*
X96277010Y-42124495D01*
X96282872Y-42218284D01*
X96293784Y-42317941D01*
X96318531Y-42407328D01*
X96357877Y-42465450D01*
X96386431Y-42484020D01*
X96436062Y-42497845D01*
X96480220Y-42501117D01*
X96499759Y-42501117D01*
X97119892Y-42501117D01*
X97119892Y-42727775D01*
X96503423Y-42727775D01*
G37*
G36*
X96307052Y-44588905D02*
G01*
X96263617Y-44534562D01*
X96230964Y-44460499D01*
X96215217Y-44406700D01*
X96197700Y-44309213D01*
X96188357Y-44209104D01*
X96183589Y-44105380D01*
X96182032Y-44004492D01*
X96182000Y-43986602D01*
X96183011Y-43872037D01*
X96186045Y-43767700D01*
X96192682Y-43651661D01*
X96202479Y-43551602D01*
X96218407Y-43452627D01*
X96242742Y-43366240D01*
X96246724Y-43356456D01*
X96282948Y-43290419D01*
X96326897Y-43243249D01*
X96378569Y-43214948D01*
X96430119Y-43205661D01*
X96437966Y-43205514D01*
X96458727Y-43205514D01*
X96838524Y-43205514D01*
X96838524Y-43401885D01*
X96489990Y-43401885D01*
X96434660Y-43407635D01*
X96382732Y-43428289D01*
X96334780Y-43475229D01*
X96312425Y-43522053D01*
X96293105Y-43617279D01*
X96282801Y-43719357D01*
X96277542Y-43827559D01*
X96275825Y-43934331D01*
X96275789Y-43953385D01*
X96277077Y-44067353D01*
X96280941Y-44170021D01*
X96288705Y-44275518D01*
X96301871Y-44377253D01*
X96312425Y-44430636D01*
X96345508Y-44514098D01*
X96392698Y-44562785D01*
X96440808Y-44583341D01*
X96489990Y-44588905D01*
X96838524Y-44588905D01*
X96838524Y-44784788D01*
X96182000Y-44784788D01*
X96182000Y-44588905D01*
X96307052Y-44588905D01*
G37*
G36*
X96734965Y-45425193D02*
G01*
X96779228Y-45482321D01*
X96809222Y-45567182D01*
X96818252Y-45615702D01*
X96829794Y-45718326D01*
X96836129Y-45825945D01*
X96838445Y-45934468D01*
X96838524Y-45960085D01*
X96838524Y-46002094D01*
X96837678Y-46106806D01*
X96834873Y-46209656D01*
X96833395Y-46243895D01*
X96826678Y-46344523D01*
X96816787Y-46430496D01*
X96798192Y-46521868D01*
X96766526Y-46596925D01*
X96721790Y-46655667D01*
X96711274Y-46665458D01*
X96756874Y-46720413D01*
X96793535Y-46798494D01*
X96816054Y-46895046D01*
X96827904Y-47000805D01*
X96834223Y-47099220D01*
X96837734Y-47209908D01*
X96838524Y-47300978D01*
X96837278Y-47411040D01*
X96833539Y-47511943D01*
X96825763Y-47620936D01*
X96814397Y-47716740D01*
X96796600Y-47811842D01*
X96787478Y-47847105D01*
X96754932Y-47925537D01*
X96708099Y-47981561D01*
X96655398Y-48012198D01*
X96601520Y-48024803D01*
X96571567Y-48026379D01*
X96182000Y-48026379D01*
X96182000Y-47830496D01*
X96565705Y-47830496D01*
X96616446Y-47822864D01*
X96666306Y-47791856D01*
X96706240Y-47723163D01*
X96710785Y-47708375D01*
X96730114Y-47608359D01*
X96739961Y-47502142D01*
X96743906Y-47404356D01*
X96744735Y-47326379D01*
X96744735Y-47258968D01*
X96743138Y-47145825D01*
X96738347Y-47047828D01*
X96726989Y-46940727D01*
X96704807Y-46844719D01*
X96699306Y-46830566D01*
X96659223Y-46765674D01*
X96611921Y-46732500D01*
X96565705Y-46724076D01*
X96182000Y-46724076D01*
X96182000Y-46528193D01*
X96565705Y-46528193D01*
X96617339Y-46519034D01*
X96663999Y-46487802D01*
X96700039Y-46434404D01*
X96725486Y-46340313D01*
X96737358Y-46234686D01*
X96742596Y-46134909D01*
X96744691Y-46017512D01*
X96744735Y-45996233D01*
X96743525Y-45890481D01*
X96738876Y-45779793D01*
X96729047Y-45673013D01*
X96712004Y-45580461D01*
X96695154Y-45531683D01*
X96655203Y-45471054D01*
X96608415Y-45437776D01*
X96557781Y-45425609D01*
X96545433Y-45425193D01*
X96182000Y-45425193D01*
X96182000Y-45229310D01*
X96839990Y-45229310D01*
X96839990Y-45425193D01*
X96734965Y-45425193D01*
G37*
G36*
X96839990Y-48668738D02*
G01*
X96734965Y-48668738D01*
X96775952Y-48726715D01*
X96807022Y-48806268D01*
X96818008Y-48856316D01*
X96830510Y-48954983D01*
X96836901Y-49059789D01*
X96838524Y-49155758D01*
X96838524Y-49363364D01*
X96837605Y-49472411D01*
X96834845Y-49572894D01*
X96828810Y-49686455D01*
X96819900Y-49786635D01*
X96805414Y-49889189D01*
X96783283Y-49984481D01*
X96779662Y-49995953D01*
X96740888Y-50074386D01*
X96691434Y-50124632D01*
X96637510Y-50154044D01*
X96584439Y-50168925D01*
X96523975Y-50175053D01*
X96510995Y-50175228D01*
X96459135Y-50172425D01*
X96403058Y-50161663D01*
X96353696Y-50142830D01*
X96304594Y-50110656D01*
X96259669Y-50060434D01*
X96225688Y-49989023D01*
X96201417Y-49889586D01*
X96188143Y-49779587D01*
X96182682Y-49668224D01*
X96182000Y-49606630D01*
X96182000Y-49365807D01*
X96182000Y-49363364D01*
X96275789Y-49363364D01*
X96276713Y-49471103D01*
X96280262Y-49584585D01*
X96287767Y-49695187D01*
X96300781Y-49792854D01*
X96313646Y-49845988D01*
X96353584Y-49913848D01*
X96400105Y-49945508D01*
X96452882Y-49960989D01*
X96507087Y-49965179D01*
X96564311Y-49961195D01*
X96619678Y-49946475D01*
X96667927Y-49916372D01*
X96708099Y-49851850D01*
X96727419Y-49755164D01*
X96736685Y-49656716D01*
X96741837Y-49552165D01*
X96744163Y-49450819D01*
X96744735Y-49360434D01*
X96744735Y-49293023D01*
X96744735Y-49192791D01*
X96744735Y-49179694D01*
X96744735Y-49080531D01*
X96742048Y-48993581D01*
X96731963Y-48896978D01*
X96730325Y-48884648D01*
X96709659Y-48789093D01*
X96670104Y-48723162D01*
X96663402Y-48716609D01*
X96614057Y-48689224D01*
X96565276Y-48676057D01*
X96515417Y-48671713D01*
X96509529Y-48671669D01*
X96460314Y-48675151D01*
X96409962Y-48688523D01*
X96357599Y-48721954D01*
X96315887Y-48788816D01*
X96308517Y-48814307D01*
X96292696Y-48915603D01*
X96283971Y-49023134D01*
X96278985Y-49135322D01*
X96276588Y-49242927D01*
X96275789Y-49363364D01*
X96182000Y-49363364D01*
X96182000Y-49082974D01*
X96184164Y-48978692D01*
X96191463Y-48881388D01*
X96200318Y-48819680D01*
X96226146Y-48736396D01*
X96268825Y-48675224D01*
X96275789Y-48668738D01*
X95900632Y-48668738D01*
X95900632Y-48472855D01*
X96839990Y-48472855D01*
X96839990Y-48668738D01*
G37*
G36*
X96565705Y-50551246D02*
G01*
X96616996Y-50562624D01*
X96670485Y-50586288D01*
X96721776Y-50627702D01*
X96765740Y-50693235D01*
X96770136Y-50702792D01*
X96800056Y-50796490D01*
X96819223Y-50904371D01*
X96830443Y-51016078D01*
X96836120Y-51122732D01*
X96838457Y-51241716D01*
X96838524Y-51266993D01*
X96838524Y-51401815D01*
X96838034Y-51503274D01*
X96836379Y-51604081D01*
X96834372Y-51672925D01*
X96829245Y-51776530D01*
X96820450Y-51877600D01*
X96804861Y-51971138D01*
X96776031Y-52059483D01*
X96739204Y-52126573D01*
X96734965Y-52132590D01*
X96689945Y-52178636D01*
X96639158Y-52206915D01*
X96586405Y-52221891D01*
X96535011Y-52227472D01*
X96516612Y-52227845D01*
X96478999Y-52224914D01*
X96478999Y-50749198D01*
X96572788Y-50749198D01*
X96572788Y-52023169D01*
X96621956Y-52015088D01*
X96642397Y-52006072D01*
X96686279Y-51959549D01*
X96696375Y-51939150D01*
X96720627Y-51853168D01*
X96731790Y-51779415D01*
X96739319Y-51680811D01*
X96740827Y-51651920D01*
X96744090Y-51553923D01*
X96744735Y-51482904D01*
X96744735Y-51328542D01*
X96743900Y-51228117D01*
X96741053Y-51127566D01*
X96736187Y-51037405D01*
X96726022Y-50941755D01*
X96704435Y-50854223D01*
X96666654Y-50788001D01*
X96645817Y-50768738D01*
X96611867Y-50754572D01*
X96572788Y-50749198D01*
X96478999Y-50749198D01*
X96478999Y-50743825D01*
X96428953Y-50748882D01*
X96379036Y-50768299D01*
X96345886Y-50795605D01*
X96310911Y-50864193D01*
X96290234Y-50960043D01*
X96283116Y-51020796D01*
X96275789Y-51163923D01*
X96275789Y-51395953D01*
X96275789Y-51502443D01*
X96275789Y-51536149D01*
X96276486Y-51640219D01*
X96278964Y-51737405D01*
X96286607Y-51837112D01*
X96293130Y-51883462D01*
X96318161Y-51970497D01*
X96322683Y-51978717D01*
X96367817Y-52017255D01*
X96369578Y-52017796D01*
X96369578Y-52224914D01*
X96316379Y-52211877D01*
X96268609Y-52166046D01*
X96233629Y-52087216D01*
X96217415Y-52016330D01*
X96203615Y-51919231D01*
X96193205Y-51810445D01*
X96186980Y-51707897D01*
X96183245Y-51596763D01*
X96182034Y-51497592D01*
X96182000Y-51477042D01*
X96182375Y-51365706D01*
X96183502Y-51264341D01*
X96185846Y-51155863D01*
X96189949Y-51047450D01*
X96196440Y-50947479D01*
X96197387Y-50936777D01*
X96212309Y-50837334D01*
X96237534Y-50749053D01*
X96273064Y-50671936D01*
X96281406Y-50657852D01*
X96327004Y-50604485D01*
X96379504Y-50571711D01*
X96434684Y-50554354D01*
X96488846Y-50547885D01*
X96508308Y-50547454D01*
X96565705Y-50551246D01*
G37*
G36*
X96723730Y-52834544D02*
G01*
X96768832Y-52887495D01*
X96801823Y-52966355D01*
X96807750Y-52986951D01*
X96825271Y-53081950D01*
X96834197Y-53185093D01*
X96838043Y-53295980D01*
X96838524Y-53358200D01*
X96837421Y-53469927D01*
X96834112Y-53570635D01*
X96827228Y-53676937D01*
X96815182Y-53780902D01*
X96796119Y-53873271D01*
X96793339Y-53882834D01*
X96758284Y-53955327D01*
X96710710Y-53999848D01*
X96656411Y-54023426D01*
X96600454Y-54032213D01*
X96579871Y-54032799D01*
X96550318Y-54029868D01*
X96550318Y-53836916D01*
X96602631Y-53832093D01*
X96655101Y-53812496D01*
X96699110Y-53769082D01*
X96704435Y-53759736D01*
X96730528Y-53668481D01*
X96740799Y-53571396D01*
X96744578Y-53461807D01*
X96744735Y-53430985D01*
X96744735Y-53363574D01*
X96743378Y-53262331D01*
X96738366Y-53158714D01*
X96728116Y-53059414D01*
X96708519Y-52963969D01*
X96706145Y-52956177D01*
X96668935Y-52886927D01*
X96622606Y-52851648D01*
X96569422Y-52836444D01*
X96538594Y-52834544D01*
X96182000Y-52834544D01*
X96182000Y-52638661D01*
X96839990Y-52638661D01*
X96839990Y-52834544D01*
X96723730Y-52834544D01*
G37*
G36*
X96182000Y-54509073D02*
G01*
X96182000Y-54313190D01*
X97119892Y-54313190D01*
X97119892Y-54509073D01*
X96182000Y-54509073D01*
G37*
G36*
X96565705Y-54920262D02*
G01*
X96616996Y-54931640D01*
X96670485Y-54955304D01*
X96721776Y-54996718D01*
X96765740Y-55062251D01*
X96770136Y-55071808D01*
X96800056Y-55165506D01*
X96819223Y-55273387D01*
X96830443Y-55385094D01*
X96836120Y-55491748D01*
X96838457Y-55610733D01*
X96838524Y-55636009D01*
X96838524Y-55770831D01*
X96838034Y-55872290D01*
X96836379Y-55973097D01*
X96834372Y-56041941D01*
X96829245Y-56145546D01*
X96820450Y-56246616D01*
X96804861Y-56340154D01*
X96776031Y-56428499D01*
X96739204Y-56495590D01*
X96734965Y-56501606D01*
X96689945Y-56547652D01*
X96639158Y-56575931D01*
X96586405Y-56590907D01*
X96535011Y-56596489D01*
X96516612Y-56596861D01*
X96478999Y-56593930D01*
X96478999Y-55118214D01*
X96572788Y-55118214D01*
X96572788Y-56392185D01*
X96621956Y-56384104D01*
X96642397Y-56375088D01*
X96686279Y-56328565D01*
X96696375Y-56308166D01*
X96720627Y-56222184D01*
X96731790Y-56148431D01*
X96739319Y-56049827D01*
X96740827Y-56020936D01*
X96744090Y-55922939D01*
X96744735Y-55851920D01*
X96744735Y-55697558D01*
X96743900Y-55597133D01*
X96741053Y-55496582D01*
X96736187Y-55406421D01*
X96726022Y-55310771D01*
X96704435Y-55223239D01*
X96666654Y-55157017D01*
X96645817Y-55137754D01*
X96611867Y-55123588D01*
X96572788Y-55118214D01*
X96478999Y-55118214D01*
X96478999Y-55112841D01*
X96428953Y-55117898D01*
X96379036Y-55137315D01*
X96345886Y-55164621D01*
X96310911Y-55233209D01*
X96290234Y-55329059D01*
X96283116Y-55389812D01*
X96275789Y-55532939D01*
X96275789Y-55764969D01*
X96275789Y-55871459D01*
X96275789Y-55905165D01*
X96276486Y-56009235D01*
X96278964Y-56106421D01*
X96286607Y-56206128D01*
X96293130Y-56252478D01*
X96318161Y-56339513D01*
X96322683Y-56347733D01*
X96367817Y-56386271D01*
X96369578Y-56386812D01*
X96369578Y-56593930D01*
X96316379Y-56580893D01*
X96268609Y-56535062D01*
X96233629Y-56456232D01*
X96217415Y-56385346D01*
X96203615Y-56288247D01*
X96193205Y-56179461D01*
X96186980Y-56076913D01*
X96183245Y-55965779D01*
X96182034Y-55866608D01*
X96182000Y-55846058D01*
X96182375Y-55734722D01*
X96183502Y-55633357D01*
X96185846Y-55524879D01*
X96189949Y-55416466D01*
X96196440Y-55316495D01*
X96197387Y-55305793D01*
X96212309Y-55206350D01*
X96237534Y-55118069D01*
X96273064Y-55040952D01*
X96281406Y-55026868D01*
X96327004Y-54973502D01*
X96379504Y-54940727D01*
X96434684Y-54923370D01*
X96488846Y-54916901D01*
X96508308Y-54916470D01*
X96565705Y-54920262D01*
G37*
G36*
X96744735Y-58152688D02*
G01*
X96744735Y-57766295D01*
X96744735Y-57564551D01*
X96741873Y-57464220D01*
X96737408Y-57395046D01*
X96725919Y-57298532D01*
X96712495Y-57239708D01*
X96671371Y-57184753D01*
X96650946Y-57181090D01*
X96601392Y-57197633D01*
X96574498Y-57239708D01*
X96560018Y-57337976D01*
X96557157Y-57430217D01*
X96541525Y-57769226D01*
X96541525Y-58136079D01*
X96539807Y-58237572D01*
X96533636Y-58338338D01*
X96519611Y-58441454D01*
X96505621Y-58498535D01*
X96469054Y-58569381D01*
X96418274Y-58605599D01*
X96364449Y-58614795D01*
X96309525Y-58606124D01*
X96261238Y-58575642D01*
X96221636Y-58508580D01*
X96212530Y-58476065D01*
X96196430Y-58374971D01*
X96187843Y-58272939D01*
X96183460Y-58168233D01*
X96182029Y-58067025D01*
X96182000Y-58049129D01*
X96182000Y-57682276D01*
X96182000Y-57567482D01*
X96182000Y-57489324D01*
X96182000Y-57424844D01*
X96185175Y-57325926D01*
X96193162Y-57223744D01*
X96194700Y-57207956D01*
X96210058Y-57115008D01*
X96240301Y-57034208D01*
X96250632Y-57017447D01*
X96295405Y-56974370D01*
X96344497Y-56956648D01*
X96372753Y-56954432D01*
X96400841Y-56956875D01*
X96404505Y-57155688D01*
X96389117Y-57158619D01*
X96338167Y-57168811D01*
X96297526Y-57211864D01*
X96275939Y-57300977D01*
X96266309Y-57401670D01*
X96265775Y-57410678D01*
X96260157Y-57755060D01*
X96260157Y-57813678D01*
X96258936Y-57864481D01*
X96258936Y-57906491D01*
X96258936Y-57942639D01*
X96258936Y-57973413D01*
X96260009Y-58071960D01*
X96260157Y-58078438D01*
X96266019Y-58175158D01*
X96274922Y-58274334D01*
X96291176Y-58355409D01*
X96336292Y-58402385D01*
X96355656Y-58404746D01*
X96404366Y-58393379D01*
X96446775Y-58344210D01*
X96450178Y-58335870D01*
X96470379Y-58239909D01*
X96475967Y-58135085D01*
X96476068Y-58116540D01*
X96477289Y-57760922D01*
X96477289Y-57421913D01*
X96479411Y-57317927D01*
X96486871Y-57216853D01*
X96503282Y-57116197D01*
X96511239Y-57085835D01*
X96546914Y-57015882D01*
X96597236Y-56980121D01*
X96650946Y-56971041D01*
X96700959Y-56979773D01*
X96751276Y-57014165D01*
X96789703Y-57074646D01*
X96792607Y-57081438D01*
X96818749Y-57168409D01*
X96833098Y-57266106D01*
X96838345Y-57369206D01*
X96838524Y-57394069D01*
X96838524Y-57766295D01*
X96838524Y-57968040D01*
X96838524Y-58068790D01*
X96838524Y-58097000D01*
X96838524Y-58189324D01*
X96834757Y-58293686D01*
X96821734Y-58388254D01*
X96793827Y-58472014D01*
X96790897Y-58477531D01*
X96747895Y-58530516D01*
X96695683Y-58557603D01*
X96643863Y-58564481D01*
X96643863Y-58368110D01*
X96692120Y-58351263D01*
X96718113Y-58314865D01*
X96738462Y-58222678D01*
X96744735Y-58152688D01*
G37*
G36*
X96744735Y-60147663D02*
G01*
X96744735Y-59761271D01*
X96744735Y-59559526D01*
X96741873Y-59459196D01*
X96737408Y-59390022D01*
X96725919Y-59293508D01*
X96712495Y-59234683D01*
X96671371Y-59179729D01*
X96650946Y-59176065D01*
X96601392Y-59192609D01*
X96574498Y-59234683D01*
X96560018Y-59332952D01*
X96557157Y-59425193D01*
X96541525Y-59764202D01*
X96541525Y-60131055D01*
X96539807Y-60232548D01*
X96533636Y-60333313D01*
X96519611Y-60436430D01*
X96505621Y-60493511D01*
X96469054Y-60564357D01*
X96418274Y-60600574D01*
X96364449Y-60609771D01*
X96309525Y-60601100D01*
X96261238Y-60570617D01*
X96221636Y-60503556D01*
X96212530Y-60471041D01*
X96196430Y-60369947D01*
X96187843Y-60267915D01*
X96183460Y-60163209D01*
X96182029Y-60062001D01*
X96182000Y-60044104D01*
X96182000Y-59677251D01*
X96182000Y-59562457D01*
X96182000Y-59484300D01*
X96182000Y-59419819D01*
X96185175Y-59320901D01*
X96193162Y-59218720D01*
X96194700Y-59202932D01*
X96210058Y-59109984D01*
X96240301Y-59029184D01*
X96250632Y-59012422D01*
X96295405Y-58969346D01*
X96344497Y-58951623D01*
X96372753Y-58949408D01*
X96400841Y-58951850D01*
X96404505Y-59150664D01*
X96389117Y-59153595D01*
X96338167Y-59163786D01*
X96297526Y-59206840D01*
X96275939Y-59295952D01*
X96266309Y-59396645D01*
X96265775Y-59405653D01*
X96260157Y-59750036D01*
X96260157Y-59808654D01*
X96258936Y-59859457D01*
X96258936Y-59901466D01*
X96258936Y-59937614D01*
X96258936Y-59968389D01*
X96260009Y-60066935D01*
X96260157Y-60073413D01*
X96266019Y-60170133D01*
X96274922Y-60269309D01*
X96291176Y-60350385D01*
X96336292Y-60397361D01*
X96355656Y-60399722D01*
X96404366Y-60388354D01*
X96446775Y-60339186D01*
X96450178Y-60330845D01*
X96470379Y-60234884D01*
X96475967Y-60130060D01*
X96476068Y-60111515D01*
X96477289Y-59755898D01*
X96477289Y-59416889D01*
X96479411Y-59312902D01*
X96486871Y-59211829D01*
X96503282Y-59111173D01*
X96511239Y-59080810D01*
X96546914Y-59010858D01*
X96597236Y-58975097D01*
X96650946Y-58966016D01*
X96700959Y-58974749D01*
X96751276Y-59009140D01*
X96789703Y-59069622D01*
X96792607Y-59076414D01*
X96818749Y-59163385D01*
X96833098Y-59261082D01*
X96838345Y-59364182D01*
X96838524Y-59389045D01*
X96838524Y-59761271D01*
X96838524Y-59963016D01*
X96838524Y-60063766D01*
X96838524Y-60091976D01*
X96838524Y-60184300D01*
X96834757Y-60288662D01*
X96821734Y-60383230D01*
X96793827Y-60466990D01*
X96790897Y-60472506D01*
X96747895Y-60525492D01*
X96695683Y-60552579D01*
X96643863Y-60559457D01*
X96643863Y-60363085D01*
X96692120Y-60346238D01*
X96718113Y-60309840D01*
X96738462Y-60217654D01*
X96744735Y-60147663D01*
G37*
D12*
%TO.C,J4*%
X138048000Y-58125011D02*
X138488000Y-58125011D01*
X138698000Y-58135011D02*
X139138000Y-58135011D01*
D13*
X138498000Y-60975011D02*
X138938000Y-60975011D01*
D14*
%TA.AperFunction,EtchedComponent*%
G36*
X138852473Y-58568626D02*
G01*
X138851764Y-58590851D01*
X138846779Y-58624823D01*
X138832298Y-58657017D01*
X138821541Y-58667010D01*
X138788443Y-58679633D01*
X138751600Y-58682663D01*
X138732748Y-58681966D01*
X138695846Y-58674605D01*
X138666286Y-58654111D01*
X138653055Y-58627047D01*
X138646291Y-58592311D01*
X138644573Y-58556829D01*
X138644573Y-58120172D01*
X138852473Y-58120172D01*
X138852473Y-58568626D01*
G37*
%TD.AperFunction*%
%TA.AperFunction,EtchedComponent*%
G36*
X138567979Y-58561616D02*
G01*
X138567979Y-58572216D01*
X138564046Y-58625559D01*
X138561386Y-58638371D01*
X138549172Y-58671550D01*
X138541810Y-58681274D01*
X138511388Y-58698905D01*
X138480441Y-58703708D01*
X138444880Y-58705060D01*
X138422891Y-58703870D01*
X138387388Y-58694349D01*
X138360250Y-58671208D01*
X138357579Y-58666820D01*
X138345173Y-58633930D01*
X138339574Y-58597926D01*
X138338195Y-58563497D01*
X138338195Y-58120172D01*
X138567979Y-58120172D01*
X138567979Y-58561616D01*
G37*
%TD.AperFunction*%
%TA.AperFunction,EtchedComponent*%
G36*
X138528550Y-60749110D02*
G01*
X138565302Y-60753680D01*
X138601543Y-60765085D01*
X138629015Y-60787474D01*
X138630645Y-60790001D01*
X138644103Y-60822973D01*
X138651142Y-60859424D01*
X138654584Y-60898665D01*
X138655515Y-60937756D01*
X138655515Y-60958273D01*
X138655515Y-61030593D01*
X138648164Y-61112487D01*
X138644929Y-61126946D01*
X138628743Y-61157351D01*
X138598753Y-61178482D01*
X138584839Y-61183506D01*
X138551427Y-61190999D01*
X138514989Y-61194831D01*
X138477536Y-61195921D01*
X138448583Y-61194710D01*
X138414528Y-61188948D01*
X138381851Y-61174568D01*
X138358882Y-61146340D01*
X138358163Y-61144595D01*
X138348021Y-61110744D01*
X138342640Y-61076926D01*
X138342367Y-61074303D01*
X138339762Y-61038768D01*
X138338547Y-61003425D01*
X138338195Y-60967163D01*
X138338195Y-60940663D01*
X138338225Y-60933744D01*
X138339651Y-60895164D01*
X138344020Y-60856504D01*
X138352579Y-60820696D01*
X138368628Y-60788499D01*
X138394383Y-60767222D01*
X138428898Y-60754810D01*
X138463167Y-60749569D01*
X138497710Y-60748150D01*
X138528550Y-60749110D01*
G37*
%TD.AperFunction*%
%TA.AperFunction,EtchedComponent*%
G36*
X138929067Y-57942400D02*
G01*
X139016567Y-57942400D01*
X139016567Y-62062189D01*
X138174100Y-62062189D01*
X138174100Y-61974689D01*
X138261600Y-61974689D01*
X138539769Y-61974689D01*
X138554461Y-61974451D01*
X138590162Y-61971606D01*
X138624570Y-61964944D01*
X138633647Y-61962126D01*
X138664928Y-61943991D01*
X138688513Y-61918611D01*
X138701528Y-61899591D01*
X138716001Y-61868015D01*
X138724416Y-61832784D01*
X138726219Y-61821388D01*
X138729939Y-61784483D01*
X138731629Y-61748218D01*
X138732110Y-61711395D01*
X138732110Y-61702676D01*
X138731284Y-61665325D01*
X138728316Y-61626606D01*
X138723189Y-61592118D01*
X138714842Y-61558377D01*
X138712497Y-61551643D01*
X138692939Y-61519883D01*
X138665377Y-61498759D01*
X138632605Y-61486057D01*
X138733136Y-61491528D01*
X138733136Y-61412027D01*
X138261600Y-61412027D01*
X138261600Y-61491528D01*
X138518568Y-61491528D01*
X138545425Y-61492859D01*
X138581433Y-61500529D01*
X138611698Y-61517306D01*
X138632605Y-61546067D01*
X138639205Y-61564529D01*
X138647439Y-61599746D01*
X138652294Y-61636294D01*
X138654710Y-61671879D01*
X138655515Y-61711395D01*
X138654686Y-61745420D01*
X138651621Y-61780526D01*
X138644364Y-61818403D01*
X138631922Y-61850907D01*
X138627008Y-61858790D01*
X138600609Y-61881060D01*
X138565179Y-61892260D01*
X138528998Y-61895017D01*
X138261600Y-61895017D01*
X138261600Y-61974689D01*
X138174100Y-61974689D01*
X138174100Y-60966137D01*
X138261600Y-60966137D01*
X138261763Y-60988768D01*
X138263067Y-61031201D01*
X138265674Y-61069861D01*
X138269585Y-61104750D01*
X138276307Y-61143056D01*
X138287062Y-61181244D01*
X138303317Y-61215069D01*
X138323150Y-61236916D01*
X138356879Y-61256691D01*
X138394866Y-61268745D01*
X138432923Y-61275336D01*
X138467558Y-61278350D01*
X138505917Y-61279354D01*
X138519003Y-61279210D01*
X138555519Y-61277046D01*
X138592926Y-61271240D01*
X138628824Y-61260276D01*
X138660473Y-61242425D01*
X138666357Y-61237718D01*
X138691489Y-61211458D01*
X138709474Y-61180656D01*
X138720313Y-61145314D01*
X138725474Y-61111675D01*
X138728781Y-61076281D01*
X138730716Y-61041516D01*
X138731822Y-61002663D01*
X138732110Y-60967163D01*
X138732110Y-60895527D01*
X138731776Y-60881822D01*
X138728691Y-60846971D01*
X138726890Y-60831961D01*
X138722536Y-60797903D01*
X138719565Y-60780894D01*
X138707411Y-60747019D01*
X138685025Y-60716518D01*
X138656883Y-60695492D01*
X138637963Y-60686330D01*
X138602551Y-60674902D01*
X138566376Y-60668163D01*
X138531514Y-60664809D01*
X138497710Y-60663825D01*
X138493094Y-60663691D01*
X138474655Y-60663959D01*
X138432339Y-60666972D01*
X138395425Y-60673332D01*
X138358257Y-60685384D01*
X138324724Y-60705536D01*
X138301778Y-60732250D01*
X138299307Y-60736640D01*
X138284201Y-60772642D01*
X138274313Y-60810846D01*
X138268231Y-60847861D01*
X138264112Y-60889585D01*
X138262228Y-60926355D01*
X138261600Y-60966137D01*
X138174100Y-60966137D01*
X138174100Y-60389797D01*
X138261600Y-60389797D01*
X138262250Y-60421747D01*
X138264887Y-60457177D01*
X138270729Y-60493081D01*
X138281237Y-60525852D01*
X138303146Y-60555638D01*
X138333644Y-60571010D01*
X138367089Y-60579489D01*
X138402528Y-60584333D01*
X138436835Y-60586662D01*
X138475484Y-60587439D01*
X138475484Y-60512554D01*
X138422141Y-60513751D01*
X138415602Y-60513630D01*
X138380387Y-60506989D01*
X138353411Y-60482976D01*
X138344139Y-60454421D01*
X138339399Y-60418404D01*
X138338195Y-60381933D01*
X138339552Y-60347781D01*
X138345065Y-60313628D01*
X138359908Y-60281744D01*
X138381288Y-60267727D01*
X138416915Y-60259072D01*
X138452061Y-60257125D01*
X138493094Y-60257125D01*
X138655515Y-60257125D01*
X138655515Y-60575642D01*
X138732110Y-60575642D01*
X138732110Y-60257125D01*
X138733136Y-60257125D01*
X138841531Y-60257125D01*
X138841531Y-60177624D01*
X138732110Y-60177624D01*
X138732110Y-60065809D01*
X138655515Y-60065809D01*
X138655515Y-60177624D01*
X138447445Y-60177624D01*
X138416328Y-60177624D01*
X138381817Y-60179451D01*
X138347829Y-60186201D01*
X138314060Y-60202190D01*
X138289640Y-60229598D01*
X138281562Y-60247259D01*
X138271485Y-60281194D01*
X138265543Y-60316619D01*
X138262586Y-60351243D01*
X138261600Y-60389797D01*
X138174100Y-60389797D01*
X138174100Y-59869366D01*
X138261600Y-59869366D01*
X138262250Y-59901316D01*
X138264887Y-59936745D01*
X138270729Y-59972648D01*
X138281237Y-60005419D01*
X138303146Y-60035206D01*
X138333644Y-60050578D01*
X138367089Y-60059056D01*
X138402528Y-60063900D01*
X138436835Y-60066230D01*
X138475484Y-60067006D01*
X138475484Y-59992121D01*
X138422141Y-59993318D01*
X138415602Y-59993198D01*
X138380387Y-59986556D01*
X138353411Y-59962544D01*
X138344139Y-59933990D01*
X138339399Y-59897972D01*
X138338195Y-59861501D01*
X138339552Y-59827350D01*
X138345065Y-59793196D01*
X138359908Y-59761313D01*
X138381288Y-59747296D01*
X138416915Y-59738640D01*
X138452061Y-59736693D01*
X138655515Y-59736693D01*
X138655515Y-60055209D01*
X138732110Y-60055209D01*
X138732110Y-59736693D01*
X138841531Y-59736693D01*
X138841531Y-59657192D01*
X138732110Y-59657192D01*
X138732110Y-59545378D01*
X138655515Y-59545378D01*
X138655515Y-59657192D01*
X138447445Y-59657192D01*
X138416328Y-59657192D01*
X138381817Y-59659019D01*
X138347829Y-59665770D01*
X138314060Y-59681758D01*
X138289640Y-59709167D01*
X138281562Y-59726827D01*
X138271485Y-59760762D01*
X138265543Y-59796188D01*
X138262586Y-59830811D01*
X138261600Y-59869366D01*
X138174100Y-59869366D01*
X138174100Y-59492035D01*
X138261600Y-59492035D01*
X138655515Y-59492035D01*
X138732110Y-59492035D01*
X138732110Y-59412534D01*
X138482665Y-59412534D01*
X138454629Y-59411232D01*
X138416944Y-59403730D01*
X138385098Y-59387321D01*
X138362815Y-59359191D01*
X138355722Y-59341177D01*
X138346874Y-59306537D01*
X138341657Y-59270354D01*
X138339061Y-59234977D01*
X138338195Y-59195573D01*
X138338219Y-59189000D01*
X138339381Y-59152199D01*
X138342940Y-59114977D01*
X138349913Y-59079970D01*
X138362986Y-59047513D01*
X138377829Y-59032124D01*
X138410046Y-59016697D01*
X138445148Y-59009909D01*
X138482665Y-59008019D01*
X138732110Y-59008019D01*
X138732110Y-58928347D01*
X138460781Y-58928347D01*
X138446248Y-58928347D01*
X138440596Y-58928400D01*
X138403452Y-58931756D01*
X138366191Y-58941982D01*
X138334466Y-58959025D01*
X138308275Y-58982886D01*
X138305404Y-58986418D01*
X138287855Y-59017422D01*
X138276369Y-59052749D01*
X138269304Y-59088359D01*
X138264518Y-59129579D01*
X138262330Y-59166594D01*
X138261600Y-59207199D01*
X138261624Y-59213546D01*
X138262746Y-59249378D01*
X138266182Y-59286304D01*
X138272914Y-59322074D01*
X138285536Y-59357140D01*
X138302799Y-59387209D01*
X138327937Y-59412534D01*
X138261600Y-59412534D01*
X138261600Y-59492035D01*
X138174100Y-59492035D01*
X138174100Y-58579226D01*
X138261600Y-58579226D01*
X138262287Y-58607161D01*
X138265891Y-58645307D01*
X138274001Y-58684112D01*
X138286316Y-58716782D01*
X138305540Y-58746606D01*
X138317510Y-58758747D01*
X138347366Y-58778174D01*
X138379959Y-58789860D01*
X138418589Y-58796588D01*
X138456506Y-58798410D01*
X138477709Y-58797886D01*
X138515259Y-58793697D01*
X138549761Y-58783978D01*
X138580801Y-58764900D01*
X138589251Y-58755779D01*
X138605738Y-58722599D01*
X138611865Y-58686617D01*
X138611747Y-58647956D01*
X138612385Y-58652860D01*
X138618813Y-58688224D01*
X138630153Y-58722752D01*
X138650386Y-58751564D01*
X138652241Y-58753057D01*
X138685159Y-58768160D01*
X138721617Y-58774324D01*
X138732110Y-58774765D01*
X138757755Y-58775842D01*
X138790079Y-58774123D01*
X138827623Y-58766482D01*
X138862273Y-58750581D01*
X138888889Y-58726944D01*
X138908311Y-58696263D01*
X138920239Y-58663495D01*
X138927145Y-58625556D01*
X138929067Y-58588117D01*
X138929067Y-58029900D01*
X138852473Y-58029900D01*
X138567979Y-58029900D01*
X138261600Y-58029900D01*
X138261600Y-58579226D01*
X138174100Y-58579226D01*
X138174100Y-57942400D01*
X138929067Y-57942400D01*
G37*
%TD.AperFunction*%
D12*
%TO.C,J3*%
X139228512Y-40074698D02*
X138818512Y-40074698D01*
X138916200Y-41630600D02*
X138506200Y-41630600D01*
X138939843Y-42509287D02*
X138529843Y-42509287D01*
X139003737Y-43327012D02*
X138593737Y-43327012D01*
D14*
%TA.AperFunction,EtchedComponent*%
G36*
X138936294Y-40273782D02*
G01*
X138935250Y-40300442D01*
X138927912Y-40340505D01*
X138906594Y-40376755D01*
X138883719Y-40391180D01*
X138844885Y-40401439D01*
X138803035Y-40404110D01*
X138790558Y-40403967D01*
X138746588Y-40400542D01*
X138708479Y-40391229D01*
X138674661Y-40367571D01*
X138664535Y-40348126D01*
X138654384Y-40308345D01*
X138649917Y-40266354D01*
X138648674Y-40222198D01*
X138648674Y-39760286D01*
X138936294Y-39760286D01*
X138936294Y-40273782D01*
G37*
%TD.AperFunction*%
%TA.AperFunction,EtchedComponent*%
G36*
X138610181Y-43074367D02*
G01*
X138636559Y-43079838D01*
X138650513Y-43086165D01*
X138680132Y-43111883D01*
X138695881Y-43143189D01*
X138704557Y-43182811D01*
X138708339Y-43218162D01*
X138710551Y-43257853D01*
X138711200Y-43297703D01*
X138711200Y-43359447D01*
X138710760Y-43385450D01*
X138708074Y-43426468D01*
X138706874Y-43437878D01*
X138701039Y-43476684D01*
X138693292Y-43502929D01*
X138674270Y-43537647D01*
X138668894Y-43543260D01*
X138633433Y-43562853D01*
X138625942Y-43564710D01*
X138586148Y-43569301D01*
X138586148Y-43072218D01*
X138610181Y-43074367D01*
G37*
%TD.AperFunction*%
%TA.AperFunction,EtchedComponent*%
G36*
X138566096Y-41391557D02*
G01*
X138608099Y-41396780D01*
X138649518Y-41409815D01*
X138680914Y-41435401D01*
X138682777Y-41438290D01*
X138698157Y-41475972D01*
X138706202Y-41517630D01*
X138710135Y-41562477D01*
X138711200Y-41607153D01*
X138711200Y-41630600D01*
X138711200Y-41713251D01*
X138702798Y-41806844D01*
X138699101Y-41823369D01*
X138680603Y-41858117D01*
X138646329Y-41882267D01*
X138630427Y-41888008D01*
X138592242Y-41896572D01*
X138550598Y-41900951D01*
X138507794Y-41902197D01*
X138474705Y-41900813D01*
X138435786Y-41894228D01*
X138398440Y-41877794D01*
X138372191Y-41845533D01*
X138371368Y-41843539D01*
X138359778Y-41804852D01*
X138353628Y-41766202D01*
X138353316Y-41763205D01*
X138350339Y-41722594D01*
X138348950Y-41682202D01*
X138348548Y-41640759D01*
X138348548Y-41610474D01*
X138348582Y-41602567D01*
X138350212Y-41558475D01*
X138355205Y-41514293D01*
X138364987Y-41473370D01*
X138383328Y-41436573D01*
X138412763Y-41412256D01*
X138452209Y-41398071D01*
X138491373Y-41392081D01*
X138530851Y-41390460D01*
X138566096Y-41391557D01*
G37*
%TD.AperFunction*%
%TA.AperFunction,EtchedComponent*%
G36*
X138549998Y-42241374D02*
G01*
X138591647Y-42243469D01*
X138631204Y-42248686D01*
X138671926Y-42260355D01*
X138682651Y-42265682D01*
X138712049Y-42295286D01*
X138723705Y-42333237D01*
X138725015Y-42341868D01*
X138730935Y-42382281D01*
X138731249Y-42384876D01*
X138732693Y-42424486D01*
X138732826Y-42425816D01*
X138734843Y-42465714D01*
X138734843Y-42469517D01*
X138734843Y-42509287D01*
X138733670Y-42579824D01*
X138733668Y-42580987D01*
X138731326Y-42620075D01*
X138730625Y-42626920D01*
X138725854Y-42666189D01*
X138725308Y-42669077D01*
X138709002Y-42705121D01*
X138674857Y-42728519D01*
X138662919Y-42732870D01*
X138622346Y-42741843D01*
X138580701Y-42745922D01*
X138537299Y-42747082D01*
X138514829Y-42747082D01*
X138500534Y-42746905D01*
X138458379Y-42743883D01*
X138417913Y-42735749D01*
X138390701Y-42723378D01*
X138365547Y-42693348D01*
X138355562Y-42665080D01*
X138348548Y-42625547D01*
X138348548Y-42531562D01*
X138348548Y-42512609D01*
X138348548Y-42389510D01*
X138348885Y-42376586D01*
X138355582Y-42337145D01*
X138368283Y-42302364D01*
X138388963Y-42273390D01*
X138424752Y-42253320D01*
X138434129Y-42250648D01*
X138473014Y-42243355D01*
X138492322Y-42242046D01*
X138532805Y-42241206D01*
X138549998Y-42241374D01*
G37*
%TD.AperFunction*%
%TA.AperFunction,EtchedComponent*%
G36*
X139023831Y-39557118D02*
G01*
X139123831Y-39557118D01*
X139123831Y-43763676D01*
X138161011Y-43763676D01*
X138161011Y-43357103D01*
X138261011Y-43357103D01*
X138261040Y-43365385D01*
X138262042Y-43405412D01*
X138265133Y-43450397D01*
X138270285Y-43492058D01*
X138278900Y-43536459D01*
X138290321Y-43576335D01*
X138292225Y-43581636D01*
X138312711Y-43617989D01*
X138342527Y-43643570D01*
X138381673Y-43658381D01*
X138423580Y-43662504D01*
X138423580Y-43567933D01*
X138420356Y-43567439D01*
X138383719Y-43552888D01*
X138382054Y-43551443D01*
X138362030Y-43517131D01*
X138357035Y-43499327D01*
X138351088Y-43460466D01*
X138349106Y-43422104D01*
X138348548Y-43380745D01*
X138348548Y-43367263D01*
X138348548Y-43324667D01*
X138348548Y-43232246D01*
X138354410Y-43175581D01*
X138358820Y-43156017D01*
X138373996Y-43118327D01*
X138402086Y-43089608D01*
X138416255Y-43082968D01*
X138456369Y-43072816D01*
X138498611Y-43070068D01*
X138498611Y-43662309D01*
X138534759Y-43663676D01*
X138549745Y-43663522D01*
X138591643Y-43661209D01*
X138634725Y-43655004D01*
X138676313Y-43643286D01*
X138713349Y-43624207D01*
X138720289Y-43619192D01*
X138749949Y-43590959D01*
X138771213Y-43557460D01*
X138784082Y-43518694D01*
X138785065Y-43514249D01*
X138791611Y-43475232D01*
X138795415Y-43436042D01*
X138797021Y-43408300D01*
X138798344Y-43367753D01*
X138798737Y-43327012D01*
X138798737Y-43273083D01*
X138798516Y-43252767D01*
X138796034Y-43205444D01*
X138790796Y-43163073D01*
X138780869Y-43118764D01*
X138764271Y-43076081D01*
X138742268Y-43043104D01*
X138730792Y-43031651D01*
X138697109Y-43009307D01*
X138660544Y-42995037D01*
X138616876Y-42985273D01*
X138586148Y-42981824D01*
X138575060Y-42980579D01*
X138528311Y-42979015D01*
X138512474Y-42979193D01*
X138468361Y-42981872D01*
X138423339Y-42989061D01*
X138380380Y-43002635D01*
X138342882Y-43024737D01*
X138335994Y-43030542D01*
X138306685Y-43062244D01*
X138285924Y-43098411D01*
X138273712Y-43139043D01*
X138272931Y-43143408D01*
X138267573Y-43184020D01*
X138264187Y-43227849D01*
X138262252Y-43271580D01*
X138261322Y-43312366D01*
X138261011Y-43357103D01*
X138161011Y-43357103D01*
X138161011Y-42509287D01*
X138261011Y-42509287D01*
X138261059Y-42520983D01*
X138262204Y-42565494D01*
X138264875Y-42606373D01*
X138270361Y-42652362D01*
X138278233Y-42692675D01*
X138290826Y-42733556D01*
X138309860Y-42770920D01*
X138328244Y-42791860D01*
X138364256Y-42815213D01*
X138404664Y-42829694D01*
X138445064Y-42837857D01*
X138491580Y-42842471D01*
X138528311Y-42843474D01*
X138533196Y-42843607D01*
X138565187Y-42842952D01*
X138604331Y-42840044D01*
X138647620Y-42833138D01*
X138691293Y-42820052D01*
X138730837Y-42798169D01*
X138758095Y-42769161D01*
X138761076Y-42764399D01*
X138779295Y-42724929D01*
X138791220Y-42682554D01*
X138798555Y-42641218D01*
X138803524Y-42594406D01*
X138805795Y-42553012D01*
X138806552Y-42508115D01*
X138806552Y-42448715D01*
X138806394Y-42433240D01*
X138804024Y-42389721D01*
X138798811Y-42350561D01*
X138788576Y-42308617D01*
X138787452Y-42305155D01*
X138770475Y-42267889D01*
X138739727Y-42240034D01*
X139023831Y-42240034D01*
X139023831Y-42149175D01*
X138532805Y-42149175D01*
X138261011Y-42149175D01*
X138261011Y-42240034D01*
X138322365Y-42240034D01*
X138318241Y-42243053D01*
X138290801Y-42273583D01*
X138274884Y-42309594D01*
X138271633Y-42321776D01*
X138264927Y-42361509D01*
X138261879Y-42400819D01*
X138261011Y-42440899D01*
X138261011Y-42509287D01*
X138161011Y-42509287D01*
X138161011Y-41639587D01*
X138261011Y-41639587D01*
X138261198Y-41665451D01*
X138262688Y-41713945D01*
X138265667Y-41758129D01*
X138270137Y-41798001D01*
X138277819Y-41841780D01*
X138290111Y-41885423D01*
X138308688Y-41924081D01*
X138331354Y-41949049D01*
X138369901Y-41971649D01*
X138413315Y-41985424D01*
X138456809Y-41992958D01*
X138496391Y-41996401D01*
X138540230Y-41997549D01*
X138555185Y-41997384D01*
X138596919Y-41994911D01*
X138639669Y-41988276D01*
X138680696Y-41975746D01*
X138716866Y-41955344D01*
X138723591Y-41949965D01*
X138752312Y-41919953D01*
X138772867Y-41884752D01*
X138785254Y-41844360D01*
X138791153Y-41805916D01*
X138794932Y-41765466D01*
X138797143Y-41725734D01*
X138798407Y-41681330D01*
X138798737Y-41640759D01*
X138798737Y-41558890D01*
X138798355Y-41543228D01*
X138794829Y-41503398D01*
X138792771Y-41486244D01*
X138787794Y-41447320D01*
X138784399Y-41427881D01*
X138770510Y-41389168D01*
X138744925Y-41354309D01*
X138712763Y-41330279D01*
X138691140Y-41319809D01*
X138650669Y-41306748D01*
X138609326Y-41299046D01*
X138569484Y-41295213D01*
X138530851Y-41294089D01*
X138525575Y-41293936D01*
X138504503Y-41294242D01*
X138456141Y-41297685D01*
X138413953Y-41304954D01*
X138371476Y-41318727D01*
X138333153Y-41341758D01*
X138306929Y-41372289D01*
X138304104Y-41377306D01*
X138286840Y-41418451D01*
X138275540Y-41462112D01*
X138268590Y-41504416D01*
X138263881Y-41552100D01*
X138261729Y-41594122D01*
X138261011Y-41639587D01*
X138161011Y-41639587D01*
X138161011Y-40730809D01*
X138261011Y-40730809D01*
X138525575Y-40730809D01*
X138552540Y-40730809D01*
X138564722Y-40730991D01*
X138607971Y-40735351D01*
X138649703Y-40748975D01*
X138681695Y-40777313D01*
X138683511Y-40780284D01*
X138698493Y-40817065D01*
X138706331Y-40855750D01*
X138710163Y-40896352D01*
X138711200Y-40936169D01*
X138711200Y-40963133D01*
X138711170Y-40969196D01*
X138708789Y-41012836D01*
X138700454Y-41055227D01*
X138680718Y-41090139D01*
X138674473Y-41095342D01*
X138638157Y-41111036D01*
X138599019Y-41117433D01*
X138555666Y-41119253D01*
X138555666Y-41208548D01*
X138585366Y-41210111D01*
X138602287Y-41209869D01*
X138648307Y-41206228D01*
X138693003Y-41196459D01*
X138732222Y-41178012D01*
X138761221Y-41147976D01*
X138763529Y-41144005D01*
X138779356Y-41105931D01*
X138789358Y-41063419D01*
X138795073Y-41020149D01*
X138797821Y-40979274D01*
X138798737Y-40934019D01*
X138798112Y-40902698D01*
X138795137Y-40863577D01*
X138787713Y-40821383D01*
X138773140Y-40782198D01*
X138766451Y-40770996D01*
X138737701Y-40740783D01*
X138700649Y-40724557D01*
X138799909Y-40730809D01*
X138799909Y-40639951D01*
X138261011Y-40639951D01*
X138261011Y-40730809D01*
X138161011Y-40730809D01*
X138161011Y-39760286D01*
X138261011Y-39760286D01*
X138561137Y-39760286D01*
X138561137Y-40277104D01*
X138561955Y-40313936D01*
X138565752Y-40356922D01*
X138574229Y-40396294D01*
X138591277Y-40434103D01*
X138615848Y-40465464D01*
X138619495Y-40468902D01*
X138654556Y-40490750D01*
X138693810Y-40501612D01*
X138727454Y-40506840D01*
X138766593Y-40509898D01*
X138799909Y-40510639D01*
X138806943Y-40510795D01*
X138822219Y-40510593D01*
X138864365Y-40507559D01*
X138906554Y-40499418D01*
X138945566Y-40484046D01*
X138977718Y-40459016D01*
X138991002Y-40441060D01*
X139007574Y-40404949D01*
X139017346Y-40365898D01*
X139022210Y-40326890D01*
X139023831Y-40282770D01*
X139023831Y-39657118D01*
X138936294Y-39657118D01*
X138261011Y-39657118D01*
X138261011Y-39760286D01*
X138161011Y-39760286D01*
X138161011Y-39557118D01*
X139023831Y-39557118D01*
G37*
%TD.AperFunction*%
D15*
%TO.C,R1*%
X44852800Y-50876694D02*
X43679000Y-51175494D01*
X44852800Y-50876694D02*
X46453000Y-50419494D01*
X45056000Y-48006494D02*
X45056000Y-46228494D01*
X45056000Y-48514494D02*
X46453000Y-48895494D01*
X45056000Y-49276494D02*
X43659000Y-49657494D01*
X45056000Y-49276494D02*
X46453000Y-48895494D01*
X45056000Y-50038494D02*
X43659000Y-49657494D01*
X45056000Y-50038494D02*
X46453000Y-50419494D01*
X45076000Y-51556494D02*
X43679000Y-51175494D01*
X45076000Y-51556494D02*
X46473000Y-51937494D01*
X45076000Y-52318494D02*
X43679000Y-52699494D01*
X45076000Y-52318494D02*
X46473000Y-51937494D01*
X45076000Y-53080494D02*
X43679000Y-52699494D01*
X45076000Y-53594494D02*
X45076000Y-55366494D01*
%TD*%
D16*
%TO.P,J4,1,Pin_1*%
%TO.N,Net-(J1-Pin_2)*%
X143256000Y-59944000D03*
%TD*%
D17*
%TO.P,J3,1,Pin_1*%
%TO.N,Net-(J1-Pin_1)*%
X143256000Y-41656000D03*
%TD*%
D18*
%TO.P,REF\u002A\u002A,1*%
%TO.N,N/C*%
X114300000Y-41910000D03*
X111760000Y-41910000D03*
X114300000Y-44450000D03*
X111760000Y-44450000D03*
X114300000Y-46990000D03*
X111760000Y-46990000D03*
X114300000Y-49530000D03*
X111760000Y-49530000D03*
X114300000Y-52070000D03*
X111760000Y-52070000D03*
X114300000Y-54610000D03*
X111760000Y-54610000D03*
X114300000Y-57150000D03*
X111760000Y-57150000D03*
X114300000Y-59690000D03*
X111760000Y-59690000D03*
%TD*%
D19*
%TO.P,REF\u002A\u002A,1*%
%TO.N,N/C*%
X99060000Y-44450000D03*
X99060000Y-46990000D03*
X101600000Y-44450000D03*
X101600000Y-46990000D03*
X104140000Y-44450000D03*
X104140000Y-46990000D03*
X106680000Y-44450000D03*
X106680000Y-46990000D03*
X109220000Y-44450000D03*
X109220000Y-46990000D03*
X111760000Y-44450000D03*
X111760000Y-46990000D03*
X114300000Y-44450000D03*
X114300000Y-46990000D03*
X116840000Y-44450000D03*
X116840000Y-46990000D03*
%TD*%
D20*
%TO.P,REF\u002A\u002A,1*%
%TO.N,N/C*%
X106680000Y-59690000D03*
X109220000Y-59690000D03*
X106680000Y-57150000D03*
X109220000Y-57150000D03*
X106680000Y-54610000D03*
X109220000Y-54610000D03*
X106680000Y-52070000D03*
X109220000Y-52070000D03*
X106680000Y-49530000D03*
X109220000Y-49530000D03*
X106680000Y-46990000D03*
X109220000Y-46990000D03*
X106680000Y-44450000D03*
X109220000Y-44450000D03*
X106680000Y-41910000D03*
X109220000Y-41910000D03*
%TD*%
D18*
%TO.P,REF\u002A\u002A,1*%
%TO.N,N/C*%
X119380000Y-41910000D03*
X116840000Y-41910000D03*
X119380000Y-44450000D03*
X116840000Y-44450000D03*
X119380000Y-46990000D03*
X116840000Y-46990000D03*
X119380000Y-49530000D03*
X116840000Y-49530000D03*
X119380000Y-52070000D03*
X116840000Y-52070000D03*
X119380000Y-54610000D03*
X116840000Y-54610000D03*
X119380000Y-57150000D03*
X116840000Y-57150000D03*
X119380000Y-59690000D03*
X116840000Y-59690000D03*
%TD*%
D19*
%TO.P,REF\u002A\u002A,1*%
%TO.N,N/C*%
X114300000Y-44450000D03*
X114300000Y-46990000D03*
X116840000Y-44450000D03*
X116840000Y-46990000D03*
X119380000Y-44450000D03*
X119380000Y-46990000D03*
X121920000Y-44450000D03*
X121920000Y-46990000D03*
X124460000Y-44450000D03*
X124460000Y-46990000D03*
X127000000Y-44450000D03*
X127000000Y-46990000D03*
X129540000Y-44450000D03*
X129540000Y-46990000D03*
X132080000Y-44450000D03*
X132080000Y-46990000D03*
%TD*%
D18*
%TO.P,REF\u002A\u002A,1*%
%TO.N,N/C*%
X124460000Y-41910000D03*
X121920000Y-41910000D03*
X124460000Y-44450000D03*
X121920000Y-44450000D03*
X124460000Y-46990000D03*
X121920000Y-46990000D03*
X124460000Y-49530000D03*
X121920000Y-49530000D03*
X124460000Y-52070000D03*
X121920000Y-52070000D03*
X124460000Y-54610000D03*
X121920000Y-54610000D03*
X124460000Y-57150000D03*
X121920000Y-57150000D03*
X124460000Y-59690000D03*
X121920000Y-59690000D03*
%TD*%
D20*
%TO.P,REF\u002A\u002A,1*%
%TO.N,N/C*%
X101600000Y-59690000D03*
X104140000Y-59690000D03*
X101600000Y-57150000D03*
X104140000Y-57150000D03*
X101600000Y-54610000D03*
X104140000Y-54610000D03*
X101600000Y-52070000D03*
X104140000Y-52070000D03*
X101600000Y-49530000D03*
X104140000Y-49530000D03*
X101600000Y-46990000D03*
X104140000Y-46990000D03*
X101600000Y-44450000D03*
X104140000Y-44450000D03*
X101600000Y-41910000D03*
X104140000Y-41910000D03*
%TD*%
D21*
%TO.P,J2,1,Pin_1*%
%TO.N,Net-(J2-Pin_1)*%
X28201300Y-48892994D03*
X28201300Y-48892994D03*
D22*
X28201300Y-52702994D03*
X28201300Y-52702994D03*
D21*
X30741300Y-48892994D03*
X30741300Y-48892994D03*
D22*
X30741300Y-52702994D03*
X30741300Y-52702994D03*
D23*
X32321300Y-50787994D03*
D21*
X33281300Y-48892994D03*
X33281300Y-48892994D03*
D22*
X33281300Y-52702994D03*
X33281300Y-52702994D03*
D21*
X35821300Y-48892994D03*
X35821300Y-48892994D03*
D22*
X35821300Y-52702994D03*
X35821300Y-52702994D03*
D21*
X38361300Y-48892994D03*
X38361300Y-48892994D03*
D22*
X38361300Y-52702994D03*
X38361300Y-52702994D03*
%TD*%
D18*
%TO.P,REF\u002A\u002A,1*%
%TO.N,N/C*%
X129540000Y-41910000D03*
X127000000Y-41910000D03*
X129540000Y-44450000D03*
X127000000Y-44450000D03*
X129540000Y-46990000D03*
X127000000Y-46990000D03*
X129540000Y-49530000D03*
X127000000Y-49530000D03*
X129540000Y-52070000D03*
X127000000Y-52070000D03*
X129540000Y-54610000D03*
X127000000Y-54610000D03*
X129540000Y-57150000D03*
X127000000Y-57150000D03*
X129540000Y-59690000D03*
X127000000Y-59690000D03*
%TD*%
D24*
%TO.P,J1,1,Pin_1*%
%TO.N,Net-(J1-Pin_1)*%
X139344450Y-49655000D03*
D25*
%TO.P,J1,2,Pin_2*%
%TO.N,Net-(J1-Pin_2)*%
X139344450Y-52195000D03*
D26*
%TO.P,J1,3*%
%TO.N,N/C*%
X139344450Y-47115000D03*
D27*
X146964450Y-48385000D03*
X145694450Y-48385000D03*
X144424450Y-48385000D03*
X143154450Y-48385000D03*
X141884450Y-48385000D03*
X146964450Y-53465000D03*
X145694450Y-53465000D03*
X144424450Y-53465000D03*
X143154450Y-53465000D03*
X141884450Y-53465000D03*
D26*
X139344450Y-54735000D03*
%TD*%
D28*
%TO.P,R1,1*%
%TO.N,Net-(J2-Pin_1)*%
X45056000Y-55880494D03*
%TO.P,R1,2*%
%TO.N,Net-(J1-Pin_1)*%
X45056000Y-45720494D03*
%TD*%
D19*
%TO.P,REF\u002A\u002A,1*%
%TO.N,N/C*%
X99060000Y-49530000D03*
X99060000Y-52070000D03*
X101600000Y-49530000D03*
X101600000Y-52070000D03*
X104140000Y-49530000D03*
X104140000Y-52070000D03*
X106680000Y-49530000D03*
X106680000Y-52070000D03*
X109220000Y-49530000D03*
X109220000Y-52070000D03*
X111760000Y-49530000D03*
X111760000Y-52070000D03*
X114300000Y-49530000D03*
X114300000Y-52070000D03*
X116840000Y-49530000D03*
X116840000Y-52070000D03*
%TD*%
%TO.P,REF\u002A\u002A,1*%
%TO.N,N/C*%
X99060000Y-54610000D03*
X99060000Y-57150000D03*
X101600000Y-54610000D03*
X101600000Y-57150000D03*
X104140000Y-54610000D03*
X104140000Y-57150000D03*
X106680000Y-54610000D03*
X106680000Y-57150000D03*
X109220000Y-54610000D03*
X109220000Y-57150000D03*
X111760000Y-54610000D03*
X111760000Y-57150000D03*
X114300000Y-54610000D03*
X114300000Y-57150000D03*
X116840000Y-54610000D03*
X116840000Y-57150000D03*
%TD*%
%TO.P,REF\u002A\u002A,1*%
%TO.N,N/C*%
X114300000Y-54610000D03*
X114300000Y-57150000D03*
X116840000Y-54610000D03*
X116840000Y-57150000D03*
X119380000Y-54610000D03*
X119380000Y-57150000D03*
X121920000Y-54610000D03*
X121920000Y-57150000D03*
X124460000Y-54610000D03*
X124460000Y-57150000D03*
X127000000Y-54610000D03*
X127000000Y-57150000D03*
X129540000Y-54610000D03*
X129540000Y-57150000D03*
X132080000Y-54610000D03*
X132080000Y-57150000D03*
%TD*%
D29*
%TO.P,SW1,1*%
%TO.N,Net-(J1-Pin_1)*%
X48252700Y-44577494D03*
D30*
X48260000Y-45720494D03*
D31*
X48260000Y-46990494D03*
X48260000Y-49530494D03*
D29*
X50792700Y-40767494D03*
D30*
X50800000Y-41910494D03*
D31*
X50800000Y-43180494D03*
X50800000Y-45720494D03*
X50800000Y-48260494D03*
X50800000Y-50800494D03*
D29*
X53332700Y-39497494D03*
D30*
X53340000Y-40640494D03*
D31*
X53340000Y-41910494D03*
X53340000Y-44450494D03*
X53340000Y-46990494D03*
X53340000Y-49530494D03*
D29*
X55872700Y-40767494D03*
D30*
X55880000Y-41910494D03*
D31*
X55880000Y-43180494D03*
X55880000Y-45720494D03*
X55880000Y-48260494D03*
X55880000Y-50800494D03*
D29*
X58412700Y-39497494D03*
D30*
X58420000Y-40640494D03*
D31*
X58420000Y-41910494D03*
X58420000Y-44450494D03*
X58420000Y-46990494D03*
X58420000Y-49530494D03*
D29*
X60952700Y-40767494D03*
D30*
X60960000Y-41910494D03*
D31*
X60960000Y-43180494D03*
D32*
X61976000Y-45720494D03*
D33*
X61976000Y-50800494D03*
D32*
X61976000Y-55753494D03*
D29*
X63492700Y-39497494D03*
D30*
X63500000Y-40640494D03*
D31*
X63500000Y-41910494D03*
X64643000Y-49530494D03*
X64770000Y-44450494D03*
D29*
X66032700Y-39497494D03*
D30*
X66040000Y-40640494D03*
D31*
X66040000Y-41910494D03*
X68072000Y-45720494D03*
X68453000Y-49530494D03*
D29*
X68572700Y-39497494D03*
D30*
X68580000Y-40640494D03*
D31*
X68580000Y-41910494D03*
D29*
X71112700Y-39497494D03*
D30*
X71120000Y-40640494D03*
D31*
X71120000Y-41910494D03*
X73279000Y-49530494D03*
D29*
X73652700Y-39497494D03*
D30*
X73660000Y-40640494D03*
D31*
X73660000Y-41910494D03*
X74422000Y-45720494D03*
X75692000Y-49530494D03*
D29*
X76192700Y-39497494D03*
D30*
X76200000Y-40640494D03*
D31*
X76200000Y-41910494D03*
D29*
X78732700Y-39497494D03*
D30*
X78740000Y-40640494D03*
D31*
X78740000Y-41910494D03*
D29*
X81272700Y-39497494D03*
D30*
X81280000Y-40640494D03*
D31*
X81280000Y-41910494D03*
X81280000Y-44450494D03*
X81280000Y-46990494D03*
X81280000Y-49530494D03*
D29*
X83812700Y-40767494D03*
D30*
X83820000Y-41910494D03*
D31*
X83820000Y-43180494D03*
X83820000Y-45720494D03*
X83820000Y-48260494D03*
X83820000Y-50800494D03*
D29*
X86352700Y-39497494D03*
D30*
X86360000Y-40640494D03*
D31*
X86360000Y-41910494D03*
X86360000Y-44450494D03*
X86360000Y-46990494D03*
X86360000Y-49530494D03*
D29*
X88892700Y-40767494D03*
D30*
X88900000Y-41910494D03*
D31*
X88900000Y-43180494D03*
X88900000Y-45720494D03*
X88900000Y-48260494D03*
D29*
X91432700Y-39497494D03*
D30*
X91440000Y-40640494D03*
D31*
X91440000Y-41910494D03*
X91440000Y-44450494D03*
X91440000Y-46990494D03*
X91440000Y-49530494D03*
D29*
X93972700Y-40767494D03*
D30*
X93980000Y-41910494D03*
D31*
X93980000Y-43180494D03*
X93980000Y-45720494D03*
X93980000Y-48260494D03*
X93980000Y-50800494D03*
D34*
%TO.P,SW1,2*%
%TO.N,Net-(J1-Pin_2)*%
X48260000Y-52070494D03*
X48260000Y-54610494D03*
D29*
X48260000Y-55880494D03*
D30*
X48267300Y-57023494D03*
D34*
X50800000Y-53340494D03*
X50800000Y-55880494D03*
X50800000Y-58420494D03*
D29*
X50800000Y-59690494D03*
D30*
X50807300Y-60833494D03*
D34*
X53340000Y-52070494D03*
X53340000Y-54610494D03*
X53340000Y-57150494D03*
X53340000Y-59690494D03*
D29*
X53340000Y-60960494D03*
D30*
X53347300Y-62103494D03*
D34*
X55880000Y-53340494D03*
X55880000Y-55880494D03*
X55880000Y-58420494D03*
D29*
X55880000Y-59690494D03*
D30*
X55887300Y-60833494D03*
D34*
X58420000Y-52070494D03*
X58420000Y-54610494D03*
X58420000Y-57150494D03*
X58420000Y-59690494D03*
D29*
X58420000Y-60960494D03*
D30*
X58427300Y-62103494D03*
D34*
X60960000Y-58420494D03*
D29*
X60960000Y-59690494D03*
D30*
X60967300Y-60833494D03*
D34*
X63500000Y-59690494D03*
D29*
X63500000Y-60960494D03*
D30*
X63507300Y-62103494D03*
D34*
X64643000Y-52070494D03*
X64770000Y-57150494D03*
X66040000Y-59690494D03*
D29*
X66040000Y-60960494D03*
D30*
X66047300Y-62103494D03*
D34*
X68072000Y-55880494D03*
X68453000Y-52070494D03*
X68580000Y-59690494D03*
D29*
X68580000Y-60960494D03*
D30*
X68587300Y-62103494D03*
D35*
X70776000Y-45720494D03*
D36*
X70776000Y-50800494D03*
D35*
X70776000Y-55753494D03*
D34*
X71120000Y-59690494D03*
D29*
X71120000Y-60960494D03*
D30*
X71127300Y-62103494D03*
D34*
X73279000Y-52070494D03*
X73660000Y-59690494D03*
D29*
X73660000Y-60960494D03*
D30*
X73667300Y-62103494D03*
D34*
X74422000Y-55880494D03*
X75692000Y-52070494D03*
X76200000Y-59690494D03*
D29*
X76200000Y-60960494D03*
D30*
X76207300Y-62103494D03*
D34*
X78740000Y-59690494D03*
D29*
X78740000Y-60960494D03*
D30*
X78747300Y-62103494D03*
D34*
X81280000Y-52070494D03*
X81280000Y-54610494D03*
X81280000Y-57150494D03*
X81280000Y-59690494D03*
D29*
X81280000Y-60960494D03*
D30*
X81287300Y-62103494D03*
D34*
X83820000Y-53340494D03*
X83820000Y-55880494D03*
X83820000Y-58420494D03*
D29*
X83820000Y-59690494D03*
D30*
X83827300Y-60833494D03*
D34*
X86360000Y-52070494D03*
X86360000Y-54610494D03*
X86360000Y-57150494D03*
X86360000Y-59690494D03*
D29*
X86360000Y-60960494D03*
D30*
X86367300Y-62103494D03*
D34*
X88900000Y-50800494D03*
X88900000Y-53340494D03*
X88900000Y-55880494D03*
X88900000Y-58420494D03*
D29*
X88900000Y-59690494D03*
D30*
X88907300Y-60833494D03*
D34*
X91440000Y-52070494D03*
X91440000Y-54610494D03*
X91440000Y-57150494D03*
X91440000Y-59690494D03*
D29*
X91440000Y-60960494D03*
D30*
X91447300Y-62103494D03*
D34*
X93980000Y-53340494D03*
X93980000Y-55880494D03*
X93980000Y-58420494D03*
D29*
X93980000Y-59690494D03*
D30*
X93987300Y-60833494D03*
D37*
%TO.P,SW1,3*%
%TO.N,N/C*%
X78076000Y-45720494D03*
D38*
X78076000Y-50800494D03*
D37*
X78076000Y-55753494D03*
%TD*%
D19*
%TO.P,REF\u002A\u002A,1*%
%TO.N,N/C*%
X114300000Y-49530000D03*
X114300000Y-52070000D03*
X116840000Y-49530000D03*
X116840000Y-52070000D03*
X119380000Y-49530000D03*
X119380000Y-52070000D03*
X121920000Y-49530000D03*
X121920000Y-52070000D03*
X124460000Y-49530000D03*
X124460000Y-52070000D03*
X127000000Y-49530000D03*
X127000000Y-52070000D03*
X129540000Y-49530000D03*
X129540000Y-52070000D03*
X132080000Y-49530000D03*
X132080000Y-52070000D03*
%TD*%
D39*
%TO.N,Net-(J1-Pin_1)*%
X63500000Y-39245523D02*
X62474671Y-39245523D01*
X73645499Y-49163993D02*
X73323901Y-49485592D01*
X134652085Y-41656000D02*
X136144000Y-41656000D01*
X55499000Y-39243000D02*
X55501523Y-39245523D01*
X69314283Y-42644777D02*
X68580000Y-41910494D01*
X45056000Y-45720494D02*
X48729462Y-42047032D01*
X58420000Y-39245523D02*
X57394671Y-39245523D01*
X65175384Y-46002478D02*
X66056913Y-46884007D01*
X68072000Y-45720494D02*
X67066802Y-46725691D01*
X73660000Y-41870594D02*
X73660000Y-41950394D01*
X96520000Y-39245523D02*
X95494671Y-39245523D01*
X81280000Y-41910494D02*
X81280000Y-40640494D01*
X55501523Y-39245523D02*
X58420000Y-39245523D01*
X63500000Y-39245523D02*
X86360000Y-39245523D01*
X135890000Y-41656000D02*
X137381915Y-41656000D01*
X91440000Y-41910494D02*
X91440000Y-40640494D01*
X96520000Y-39245523D02*
X128145523Y-39245523D01*
X53340000Y-41910494D02*
X53340000Y-40640494D01*
X66040000Y-40640494D02*
X66040000Y-41910494D01*
X138555000Y-49655000D02*
X139344450Y-49655000D01*
X86360000Y-39245523D02*
X91440000Y-39245523D01*
X74012000Y-48279184D02*
X74012000Y-46420407D01*
X76704400Y-44066941D02*
X76704400Y-44183794D01*
X68072000Y-45720494D02*
X69314283Y-44478210D01*
X75929858Y-45326635D02*
X76443972Y-44812521D01*
X55880000Y-43180494D02*
X55880000Y-41910494D01*
X48252700Y-43198037D02*
X48252700Y-44577494D01*
X73660000Y-41870594D02*
X73660000Y-40640494D01*
X71120000Y-40640494D02*
X71120000Y-41910494D01*
X83820000Y-43180494D02*
X83820000Y-41910494D01*
X58420000Y-39245523D02*
X63500000Y-39245523D01*
X78740000Y-40640494D02*
X78740000Y-41910494D01*
X64643000Y-49477894D02*
X64643000Y-49530494D01*
X64770000Y-45023794D02*
X64770000Y-44450494D01*
X86360000Y-39245523D02*
X85334671Y-39245523D01*
X60960000Y-43180494D02*
X60960000Y-41910494D01*
X50800000Y-41910494D02*
X50800000Y-43180494D01*
X73279000Y-49466994D02*
X73279000Y-49403494D01*
X74979000Y-45720494D02*
X74711913Y-45720494D01*
X67066802Y-48144296D02*
X68453000Y-49530494D01*
X64680193Y-49388100D02*
X66056913Y-48011380D01*
X63500000Y-41910494D02*
X63500000Y-40640494D01*
X73688213Y-42018507D02*
X74698547Y-43028841D01*
X91440000Y-39245523D02*
X96520000Y-39245523D01*
X68580000Y-41910494D02*
X68580000Y-40640494D01*
X58420000Y-41910494D02*
X58420000Y-40640494D01*
X86360000Y-41910494D02*
X86360000Y-40640494D01*
X76200000Y-40640494D02*
X76200000Y-41910494D01*
X91440000Y-39245523D02*
X90414671Y-39245523D01*
X88900000Y-43180494D02*
X88900000Y-41910494D01*
X93980000Y-43180494D02*
X93980000Y-41910494D01*
X75692000Y-49530494D02*
X75692000Y-49178494D01*
X75739200Y-43459894D02*
X76097352Y-43459894D01*
X90414671Y-39245523D02*
G75*
G03*
X88892723Y-40767494I29J-1521977D01*
G01*
X73660000Y-41950394D02*
G75*
G03*
X73688216Y-42018504I96300J-6D01*
G01*
X74698547Y-43028841D02*
G75*
G03*
X75739200Y-43459897I1040653J1040641D01*
G01*
X57394671Y-39245523D02*
G75*
G03*
X55872723Y-40767494I29J-1521977D01*
G01*
X69314282Y-42644778D02*
G75*
G02*
X69694013Y-43561494I-916682J-916722D01*
G01*
X76526600Y-43637694D02*
G75*
G02*
X76704384Y-44066941I-429200J-429206D01*
G01*
X64770000Y-45023794D02*
G75*
G03*
X65175375Y-46002487I1384100J-6D01*
G01*
X85334671Y-39245523D02*
G75*
G03*
X83812723Y-40767494I29J-1521977D01*
G01*
X74012000Y-48279184D02*
G75*
G02*
X73645506Y-49164000I-1251300J-16D01*
G01*
X76704400Y-44183794D02*
G75*
G02*
X76443985Y-44812534I-889200J-6D01*
G01*
X75929858Y-45326635D02*
G75*
G02*
X74979000Y-45720500I-950858J950835D01*
G01*
X62474671Y-39245523D02*
G75*
G03*
X60952723Y-40767494I29J-1521977D01*
G01*
X76526600Y-43637694D02*
G75*
G03*
X76097352Y-43459916I-429200J-429206D01*
G01*
X74217000Y-45925494D02*
G75*
G03*
X74012002Y-46420407I494900J-494906D01*
G01*
X48729462Y-42047032D02*
G75*
G02*
X55499000Y-39243007I6769538J-6769568D01*
G01*
X66056913Y-46884007D02*
G75*
G02*
X66290396Y-47447694I-563713J-563693D01*
G01*
X69694000Y-43561494D02*
G75*
G02*
X69314280Y-44478207I-1296400J-6D01*
G01*
X73279000Y-49466994D02*
G75*
G03*
X73323901Y-49485592I26300J-6D01*
G01*
X132114928Y-40605072D02*
G75*
G03*
X134652085Y-41656003I2537172J2537172D01*
G01*
X48729462Y-42047032D02*
G75*
G03*
X48252736Y-43198037I1151038J-1150968D01*
G01*
X128145523Y-39245523D02*
G75*
G02*
X134619977Y-45720000I-23J-6474477D01*
G01*
X66290400Y-47447694D02*
G75*
G02*
X66056922Y-48011389I-797200J-6D01*
G01*
X95494671Y-39245523D02*
G75*
G03*
X93972723Y-40767494I29J-1521977D01*
G01*
X74711913Y-45720494D02*
G75*
G03*
X74216995Y-45925489I-13J-699906D01*
G01*
X64680193Y-49388100D02*
G75*
G03*
X64642999Y-49477894I89807J-89800D01*
G01*
X67066802Y-46725691D02*
G75*
G03*
X66772994Y-47434994I709298J-709309D01*
G01*
X134620000Y-45720000D02*
G75*
G03*
X138555000Y-49655000I3935000J0D01*
G01*
X66773000Y-47434994D02*
G75*
G03*
X67066800Y-48144298I1003100J-6D01*
G01*
%TO.N,Net-(J1-Pin_2)*%
X58420000Y-60960494D02*
X58420000Y-52070494D01*
X71120000Y-60325494D02*
X71120000Y-60960494D01*
X74217000Y-55675494D02*
X74422000Y-55880494D01*
X69948000Y-57292901D02*
X69948000Y-57770994D01*
X91440000Y-62230000D02*
X90303806Y-62230000D01*
X81280000Y-60960494D02*
X81280000Y-59690494D01*
X68580000Y-59831994D02*
X68580000Y-60960494D01*
X96520000Y-62230000D02*
X91440000Y-62230000D01*
X51283247Y-61746753D02*
X51116527Y-61580033D01*
X87630000Y-62230000D02*
X85223806Y-62230000D01*
X75505713Y-55062807D02*
X74858118Y-54415212D01*
X54610000Y-62230000D02*
X53473806Y-62230000D01*
X76200000Y-59052958D02*
X76200000Y-59441592D01*
X69009999Y-58977493D02*
X68680055Y-59307438D01*
X74012000Y-55180580D02*
X74012000Y-53623494D01*
X134532833Y-59944000D02*
X138009160Y-59944000D01*
X86360000Y-60960494D02*
X86360000Y-52070494D01*
X76200000Y-59939395D02*
X76200000Y-60960494D01*
X74988517Y-52773976D02*
X75636845Y-52125648D01*
X91440000Y-60960494D02*
X91440000Y-52070494D01*
X64400536Y-57519957D02*
X64135000Y-57785494D01*
X75614000Y-52070494D02*
X75536000Y-52070494D01*
X76376000Y-59514494D02*
X76552000Y-59338494D01*
X65940437Y-53367931D02*
X64643000Y-52070494D01*
X60960000Y-59690494D02*
X60960000Y-58420494D01*
X73645500Y-52436994D02*
X73279000Y-52070494D01*
X66040000Y-60960494D02*
X66040000Y-59690494D01*
X78740000Y-60960494D02*
X78740000Y-59690494D01*
X74621600Y-53659794D02*
X74621599Y-53844200D01*
X70138499Y-56832993D02*
X70172729Y-56798764D01*
X74012000Y-53321803D02*
X74012000Y-54737494D01*
X87630000Y-62230000D02*
X59690000Y-62230000D01*
X68413746Y-52080747D02*
X67087308Y-53407185D01*
X83820000Y-59690494D02*
X83820000Y-53340494D01*
X68580000Y-59548994D02*
X68580000Y-59831994D01*
X73660000Y-60960494D02*
X73660000Y-59690494D01*
X55880000Y-59690494D02*
X55880000Y-53340494D01*
X68086500Y-55880494D02*
X68184500Y-55880494D01*
X70629982Y-55899511D02*
X70485270Y-56044223D01*
X96520000Y-62230000D02*
X95383806Y-62230000D01*
X67087308Y-54924802D02*
X68032746Y-55870240D01*
X59690000Y-62230000D02*
X57283806Y-62230000D01*
X139344450Y-52195000D02*
X138305000Y-52195000D01*
X68086500Y-55880494D02*
X68057500Y-55880494D01*
X75972686Y-56190180D02*
X76255387Y-56472881D01*
X91440000Y-62230000D02*
X87630000Y-62230000D01*
X128270000Y-62230000D02*
X96520000Y-62230000D01*
X70670987Y-59241481D02*
X70476562Y-59047056D01*
X59690000Y-62230000D02*
X54610000Y-62230000D01*
X68438500Y-52070494D02*
X68453000Y-52070494D01*
X70776000Y-55959994D02*
X70776000Y-56166494D01*
X65940437Y-54935055D02*
X65139463Y-55736030D01*
X53340000Y-60960494D02*
X53340000Y-52070494D01*
X88900000Y-59690494D02*
X88900000Y-50800494D01*
X139344450Y-52195000D02*
X139344450Y-52349450D01*
X63500000Y-59318519D02*
X63500000Y-60960494D01*
X68901184Y-56484678D02*
X68376549Y-55960043D01*
X69440000Y-57939382D02*
X69440000Y-57785494D01*
X76704400Y-57835229D02*
X76704400Y-57556894D01*
X76200000Y-59939395D02*
X76200000Y-59441592D01*
X93980000Y-59690494D02*
X93980000Y-53340494D01*
X63507300Y-62103494D02*
X62237300Y-62103494D01*
X134620000Y-55880000D02*
G75*
G02*
X128270000Y-62230000I-6350000J0D01*
G01*
X66773000Y-54165994D02*
G75*
G03*
X67087309Y-54924801I1073100J-6D01*
G01*
X70670986Y-59241482D02*
G75*
G02*
X71120011Y-60325494I-1083986J-1084018D01*
G01*
X69440000Y-57939382D02*
G75*
G02*
X69010006Y-58977500I-1468100J-18D01*
G01*
X62237300Y-62103494D02*
G75*
G02*
X60967306Y-60833494I0J1269994D01*
G01*
X90303806Y-62230000D02*
G75*
G02*
X88907300Y-60833494I-6J1396500D01*
G01*
X53473806Y-62230000D02*
G75*
G02*
X48267300Y-57023494I-6J5206500D01*
G01*
X64135000Y-57785494D02*
G75*
G03*
X63500007Y-59318519I1533000J-1533006D01*
G01*
X74988517Y-52773976D02*
G75*
G03*
X74621585Y-53659794I885783J-885824D01*
G01*
X70776000Y-55959994D02*
G75*
G03*
X70630028Y-55899557I-85500J-6D01*
G01*
X95383806Y-62230000D02*
G75*
G02*
X93987300Y-60833494I-6J1396500D01*
G01*
X76200000Y-59441592D02*
G75*
G03*
X76376006Y-59514500I103100J-8D01*
G01*
X68680055Y-59307438D02*
G75*
G03*
X68579992Y-59548994I241545J-241562D01*
G01*
X69948000Y-57770994D02*
G75*
G03*
X70476564Y-59047054I1804600J-6D01*
G01*
X75636844Y-52125647D02*
G75*
G03*
X75614000Y-52070491I-22844J22847D01*
G01*
X65139464Y-55736031D02*
G75*
G03*
X64769988Y-56627994I891936J-891969D01*
G01*
X64770000Y-56627994D02*
G75*
G02*
X64400534Y-57519955I-1261400J-6D01*
G01*
X68032746Y-55870240D02*
G75*
G03*
X68057500Y-55880497I24754J24740D01*
G01*
X68376548Y-55960044D02*
G75*
G03*
X68184500Y-55880497I-192048J-192056D01*
G01*
X76255386Y-56472882D02*
G75*
G02*
X76704411Y-57556894I-1083986J-1084018D01*
G01*
X68438500Y-52070494D02*
G75*
G03*
X68413747Y-52080748I0J-35006D01*
G01*
X74012000Y-55180580D02*
G75*
G03*
X74216993Y-55675501I699900J-20D01*
G01*
X67087308Y-53407185D02*
G75*
G03*
X66772990Y-54165994I758792J-758815D01*
G01*
X76704400Y-57835229D02*
G75*
G02*
X76452193Y-58444087I-861100J29D01*
G01*
X70329000Y-56421494D02*
G75*
G02*
X70172724Y-56798759I-533500J-6D01*
G01*
X73645500Y-52436994D02*
G75*
G02*
X74012000Y-53321803I-884800J-884806D01*
G01*
X65940437Y-53367931D02*
G75*
G02*
X66265011Y-54151494I-783537J-783569D01*
G01*
X66265000Y-54151494D02*
G75*
G02*
X65940436Y-54935054I-1108100J-6D01*
G01*
X70138499Y-56832993D02*
G75*
G03*
X69947998Y-57292901I459901J-459907D01*
G01*
X57283806Y-62230000D02*
G75*
G02*
X55887300Y-60833494I-6J1396500D01*
G01*
X75739200Y-55626494D02*
G75*
G03*
X75972677Y-56190189I797200J-6D01*
G01*
X76376000Y-59514494D02*
G75*
G03*
X76199997Y-59939395I424900J-424906D01*
G01*
X138305000Y-52195000D02*
G75*
G03*
X134620000Y-55880000I0J-3685000D01*
G01*
X74621599Y-53844200D02*
G75*
G03*
X74858126Y-54415204I807501J0D01*
G01*
X75505713Y-55062807D02*
G75*
G02*
X75739196Y-55626494I-563713J-563693D01*
G01*
X85223806Y-62230000D02*
G75*
G02*
X83827300Y-60833494I-6J1396500D01*
G01*
X70485270Y-56044223D02*
G75*
G03*
X70328983Y-56421494I377230J-377277D01*
G01*
X132080000Y-60960000D02*
G75*
G02*
X134532833Y-59944017I2452800J-2452800D01*
G01*
X76452201Y-58444095D02*
G75*
G03*
X76199982Y-59052958I608899J-608905D01*
G01*
X68901184Y-56484678D02*
G75*
G02*
X69440013Y-57785494I-1300784J-1300822D01*
G01*
X51116527Y-61580033D02*
G75*
G02*
X50807315Y-60833494I746573J746533D01*
G01*
%TO.N,Net-(J2-Pin_1)*%
X44399527Y-55764568D02*
X44656693Y-55840079D01*
X32321300Y-50787994D02*
X40719964Y-50787994D01*
X43407270Y-54904770D02*
X43552174Y-55130246D01*
X45056000Y-55661670D02*
X45056000Y-55066039D01*
X43182277Y-54138506D02*
X43220420Y-54403801D01*
X43930250Y-55508322D02*
X44155725Y-55653227D01*
X43727691Y-55332804D02*
X43930250Y-55508322D01*
X44155725Y-55653227D02*
X44399527Y-55764568D01*
X45056000Y-55124030D02*
X45056000Y-55880494D01*
X43220420Y-54403801D02*
X43295930Y-54660967D01*
X43180000Y-54004494D02*
X43182277Y-54138506D01*
X43180000Y-53248030D02*
X43180000Y-54004494D01*
X44656693Y-55840079D02*
X44921988Y-55878223D01*
X43552174Y-55130246D02*
X43727691Y-55332804D01*
X43295930Y-54660967D02*
X43407270Y-54904770D01*
X45056000Y-55661670D02*
X45056000Y-55442847D01*
X40719964Y-50787994D02*
G75*
G02*
X43180006Y-53248030I36J-2460006D01*
G01*
X45056000Y-55661670D02*
X45056000Y-55661670D01*
%TD*%
M02*
