%TF.GenerationSoftware,KiCad,Pcbnew,8.0.0*%
%TF.CreationDate,2024-02-24T11:24:56-08:00*%
%TF.ProjectId,JumperlessProbe,4a756d70-6572-46c6-9573-7350726f6265,rev?*%
%TF.SameCoordinates,Original*%
%TF.FileFunction,Drillmap*%
%TF.FilePolarity,Positive*%
%FSLAX45Y45*%
G04 Gerber Fmt 4.5, Leading zero omitted, Abs format (unit mm)*
G04 Created by KiCad (PCBNEW 8.0.0) date 2024-02-24 11:24:56*
%MOMM*%
%LPD*%
G01*
G04 APERTURE LIST*
%ADD10C,0.100000*%
%ADD11C,0.120000*%
%ADD12C,0.200000*%
G04 APERTURE END LIST*
D10*
X4728686Y-4144913D02*
G75*
G02*
X3546245Y-4637980I-1299686J1452463D01*
G01*
X14315445Y-6350049D02*
X5588000Y-6350049D01*
X3546245Y-5522119D02*
G75*
G02*
X4728686Y-6015185I-117245J-1945531D01*
G01*
X3225778Y-5499469D02*
G75*
G02*
X2504445Y-5080099I100806J1003436D01*
G01*
X14823445Y-5842000D02*
G75*
G02*
X14315445Y-6350005I-508005J0D01*
G01*
X14315445Y-3810049D02*
G75*
G02*
X14823391Y-4318000I-5J-507951D01*
G01*
X4728686Y-4144913D02*
G75*
G02*
X5588000Y-3810050I859314J-935137D01*
G01*
X2504445Y-5080099D02*
G75*
G02*
X3225778Y-4660729I822143J-584072D01*
G01*
X3225778Y-4660729D02*
G75*
G02*
X3546245Y-4637980I574242J-5820821D01*
G01*
X5588000Y-6350049D02*
G75*
G02*
X4728686Y-6015185I0J1269999D01*
G01*
X5588000Y-3810049D02*
X14315445Y-3810049D01*
X3546245Y-5522119D02*
G75*
G02*
X3225778Y-5499370I253755J5843309D01*
G01*
X14823445Y-4318000D02*
X14823445Y-5842000D01*
D11*
X5943600Y-4749849D02*
X5943600Y-4991149D01*
X5943600Y-5410249D02*
X5943600Y-5168949D01*
X5994400Y-4787949D02*
X5994400Y-4991149D01*
X5994400Y-5372149D02*
X5994400Y-5168949D01*
X6565900Y-4724449D02*
X5969000Y-4724449D01*
X6565900Y-4775249D02*
X6007100Y-4775249D01*
X6565900Y-5384849D02*
X6007100Y-5384849D01*
X6565900Y-5435649D02*
X5969000Y-5435649D01*
X6629400Y-4406949D02*
X6629400Y-4648249D01*
X6629400Y-4838749D02*
X6629400Y-5321349D01*
X6629400Y-5753149D02*
X6629400Y-5511849D01*
X6680200Y-4445049D02*
X6680200Y-4648249D01*
X6680200Y-4838749D02*
X6680200Y-5321349D01*
X6680200Y-5715049D02*
X6680200Y-5511849D01*
X6743700Y-4724449D02*
X7340600Y-4724449D01*
X6743700Y-4775249D02*
X7340600Y-4775249D01*
X6743700Y-5384849D02*
X7340600Y-5384849D01*
X6743700Y-5435649D02*
X7340600Y-5435649D01*
X6883400Y-4381549D02*
X6654800Y-4381549D01*
X6883400Y-4432349D02*
X6692900Y-4432349D01*
X6883400Y-5727749D02*
X6692900Y-5727749D01*
X6883400Y-5778549D02*
X6654800Y-5778549D01*
X7061200Y-4381549D02*
X7594600Y-4381549D01*
X7061200Y-4432349D02*
X7594600Y-4432349D01*
X7061200Y-5727749D02*
X7594600Y-5727749D01*
X7061200Y-5778549D02*
X7594600Y-5778549D01*
X7531100Y-4724449D02*
X7912100Y-4724449D01*
X7531100Y-4775249D02*
X7912100Y-4775249D01*
X7531100Y-5384849D02*
X7912100Y-5384849D01*
X7531100Y-5435649D02*
X7912100Y-5435649D01*
X7772400Y-4381549D02*
X8001000Y-4381549D01*
X7772400Y-4432349D02*
X7962900Y-4432349D01*
X7772400Y-5727749D02*
X7962900Y-5727749D01*
X7772400Y-5778549D02*
X8001000Y-5778549D01*
X7975600Y-4445049D02*
X7975600Y-4660949D01*
X7975600Y-4838749D02*
X7975600Y-5321349D01*
X7975600Y-5715049D02*
X7975600Y-5499149D01*
X8026400Y-4406949D02*
X8026400Y-4660949D01*
X8026400Y-4838749D02*
X8026400Y-5321349D01*
X8026400Y-5753149D02*
X8026400Y-5499149D01*
X5943600Y-4749849D02*
G75*
G02*
X5969000Y-4724449I25400J0D01*
G01*
X5943600Y-5168949D02*
G75*
G02*
X5994400Y-5168949I25400J0D01*
G01*
X5969000Y-5435649D02*
G75*
G02*
X5943600Y-5410249I0J25400D01*
G01*
X5994400Y-4787949D02*
G75*
G02*
X6007100Y-4775249I12700J0D01*
G01*
X5994400Y-4991149D02*
G75*
G02*
X5943600Y-4991149I-25400J0D01*
G01*
X6007100Y-5384849D02*
G75*
G02*
X5994400Y-5372149I0J12700D01*
G01*
X6565900Y-4724449D02*
G75*
G02*
X6565900Y-4775249I0J-25400D01*
G01*
X6565900Y-5384849D02*
G75*
G02*
X6565900Y-5435649I0J-25400D01*
G01*
X6629400Y-4406949D02*
G75*
G02*
X6654800Y-4381549I25400J0D01*
G01*
X6629400Y-4838749D02*
G75*
G02*
X6680200Y-4838749I25400J0D01*
G01*
X6629400Y-5511849D02*
G75*
G02*
X6680200Y-5511849I25400J0D01*
G01*
X6654800Y-5778549D02*
G75*
G02*
X6629400Y-5753149I0J25400D01*
G01*
X6680200Y-4445049D02*
G75*
G02*
X6692900Y-4432349I12700J0D01*
G01*
X6680200Y-4648249D02*
G75*
G02*
X6629400Y-4648249I-25400J0D01*
G01*
X6680200Y-5321349D02*
G75*
G02*
X6629400Y-5321349I-25400J0D01*
G01*
X6692900Y-5727749D02*
G75*
G02*
X6680200Y-5715049I0J12700D01*
G01*
X6743700Y-4775249D02*
G75*
G02*
X6743700Y-4724449I0J25400D01*
G01*
X6743700Y-5435649D02*
G75*
G02*
X6743700Y-5384849I0J25400D01*
G01*
X6883400Y-4381549D02*
G75*
G02*
X6883400Y-4432349I0J-25400D01*
G01*
X6883400Y-5727749D02*
G75*
G02*
X6883400Y-5778549I0J-25400D01*
G01*
X7061200Y-4432349D02*
G75*
G02*
X7061200Y-4381549I0J25400D01*
G01*
X7061200Y-5778549D02*
G75*
G02*
X7061200Y-5727749I0J25400D01*
G01*
X7340600Y-4724449D02*
G75*
G02*
X7340600Y-4775249I0J-25400D01*
G01*
X7340600Y-5384849D02*
G75*
G02*
X7340600Y-5435649I0J-25400D01*
G01*
X7531100Y-4775249D02*
G75*
G02*
X7531100Y-4724449I0J25400D01*
G01*
X7531100Y-5435649D02*
G75*
G02*
X7531100Y-5384849I0J25400D01*
G01*
X7594600Y-4381549D02*
G75*
G02*
X7594600Y-4432349I0J-25400D01*
G01*
X7594600Y-5727749D02*
G75*
G02*
X7594600Y-5778549I0J-25400D01*
G01*
X7772400Y-4432349D02*
G75*
G02*
X7772400Y-4381549I0J25400D01*
G01*
X7772400Y-5778549D02*
G75*
G02*
X7772400Y-5727749I0J25400D01*
G01*
X7912100Y-4724449D02*
G75*
G02*
X7912100Y-4775249I0J-25400D01*
G01*
X7912100Y-5384849D02*
G75*
G02*
X7912100Y-5435649I0J-25400D01*
G01*
X7962900Y-4432349D02*
G75*
G02*
X7975600Y-4445049I0J-12700D01*
G01*
X7975600Y-4838749D02*
G75*
G02*
X8026400Y-4838749I25400J0D01*
G01*
X7975600Y-5499149D02*
G75*
G02*
X8026400Y-5499149I25400J0D01*
G01*
X7975600Y-5715049D02*
G75*
G02*
X7962900Y-5727749I-12700J0D01*
G01*
X8001000Y-4381549D02*
G75*
G02*
X8026400Y-4406949I0J-25400D01*
G01*
X8026400Y-4660949D02*
G75*
G02*
X7975600Y-4660949I-25400J0D01*
G01*
X8026400Y-5321349D02*
G75*
G02*
X7975600Y-5321349I-25400J0D01*
G01*
X8026400Y-5753149D02*
G75*
G02*
X8001000Y-5778549I-25400J0D01*
G01*
D12*
X2760222Y-6666533D02*
X2760222Y-6466533D01*
X2760222Y-6466533D02*
X2807841Y-6466533D01*
X2807841Y-6466533D02*
X2836412Y-6476057D01*
X2836412Y-6476057D02*
X2855460Y-6495105D01*
X2855460Y-6495105D02*
X2864984Y-6514152D01*
X2864984Y-6514152D02*
X2874507Y-6552247D01*
X2874507Y-6552247D02*
X2874507Y-6580819D01*
X2874507Y-6580819D02*
X2864984Y-6618914D01*
X2864984Y-6618914D02*
X2855460Y-6637962D01*
X2855460Y-6637962D02*
X2836412Y-6657009D01*
X2836412Y-6657009D02*
X2807841Y-6666533D01*
X2807841Y-6666533D02*
X2760222Y-6666533D01*
X2960222Y-6666533D02*
X2960222Y-6533200D01*
X2960222Y-6571295D02*
X2969746Y-6552247D01*
X2969746Y-6552247D02*
X2979269Y-6542724D01*
X2979269Y-6542724D02*
X2998317Y-6533200D01*
X2998317Y-6533200D02*
X3017365Y-6533200D01*
X3084031Y-6666533D02*
X3084031Y-6533200D01*
X3084031Y-6466533D02*
X3074507Y-6476057D01*
X3074507Y-6476057D02*
X3084031Y-6485581D01*
X3084031Y-6485581D02*
X3093555Y-6476057D01*
X3093555Y-6476057D02*
X3084031Y-6466533D01*
X3084031Y-6466533D02*
X3084031Y-6485581D01*
X3207841Y-6666533D02*
X3188793Y-6657009D01*
X3188793Y-6657009D02*
X3179269Y-6637962D01*
X3179269Y-6637962D02*
X3179269Y-6466533D01*
X3312603Y-6666533D02*
X3293555Y-6657009D01*
X3293555Y-6657009D02*
X3284031Y-6637962D01*
X3284031Y-6637962D02*
X3284031Y-6466533D01*
X3541174Y-6666533D02*
X3541174Y-6466533D01*
X3541174Y-6466533D02*
X3607841Y-6609390D01*
X3607841Y-6609390D02*
X3674507Y-6466533D01*
X3674507Y-6466533D02*
X3674507Y-6666533D01*
X3855460Y-6666533D02*
X3855460Y-6561771D01*
X3855460Y-6561771D02*
X3845936Y-6542724D01*
X3845936Y-6542724D02*
X3826888Y-6533200D01*
X3826888Y-6533200D02*
X3788793Y-6533200D01*
X3788793Y-6533200D02*
X3769746Y-6542724D01*
X3855460Y-6657009D02*
X3836412Y-6666533D01*
X3836412Y-6666533D02*
X3788793Y-6666533D01*
X3788793Y-6666533D02*
X3769746Y-6657009D01*
X3769746Y-6657009D02*
X3760222Y-6637962D01*
X3760222Y-6637962D02*
X3760222Y-6618914D01*
X3760222Y-6618914D02*
X3769746Y-6599866D01*
X3769746Y-6599866D02*
X3788793Y-6590343D01*
X3788793Y-6590343D02*
X3836412Y-6590343D01*
X3836412Y-6590343D02*
X3855460Y-6580819D01*
X3950698Y-6533200D02*
X3950698Y-6733200D01*
X3950698Y-6542724D02*
X3969746Y-6533200D01*
X3969746Y-6533200D02*
X4007841Y-6533200D01*
X4007841Y-6533200D02*
X4026888Y-6542724D01*
X4026888Y-6542724D02*
X4036412Y-6552247D01*
X4036412Y-6552247D02*
X4045936Y-6571295D01*
X4045936Y-6571295D02*
X4045936Y-6628438D01*
X4045936Y-6628438D02*
X4036412Y-6647485D01*
X4036412Y-6647485D02*
X4026888Y-6657009D01*
X4026888Y-6657009D02*
X4007841Y-6666533D01*
X4007841Y-6666533D02*
X3969746Y-6666533D01*
X3969746Y-6666533D02*
X3950698Y-6657009D01*
X4131650Y-6647485D02*
X4141174Y-6657009D01*
X4141174Y-6657009D02*
X4131650Y-6666533D01*
X4131650Y-6666533D02*
X4122127Y-6657009D01*
X4122127Y-6657009D02*
X4131650Y-6647485D01*
X4131650Y-6647485D02*
X4131650Y-6666533D01*
X4131650Y-6542724D02*
X4141174Y-6552247D01*
X4141174Y-6552247D02*
X4131650Y-6561771D01*
X4131650Y-6561771D02*
X4122127Y-6552247D01*
X4122127Y-6552247D02*
X4131650Y-6542724D01*
X4131650Y-6542724D02*
X4131650Y-6561771D01*
M02*
