%TF.GenerationSoftware,KiCad,Pcbnew,8.0.0*%
%TF.CreationDate,2024-02-24T11:24:54-08:00*%
%TF.ProjectId,JumperlessProbe,4a756d70-6572-46c6-9573-7350726f6265,rev?*%
%TF.SameCoordinates,Original*%
%TF.FileFunction,Copper,L2,Bot*%
%TF.FilePolarity,Positive*%
%FSLAX46Y46*%
G04 Gerber Fmt 4.6, Leading zero omitted, Abs format (unit mm)*
G04 Created by KiCad (PCBNEW 8.0.0) date 2024-02-24 11:24:54*
%MOMM*%
%LPD*%
G01*
G04 APERTURE LIST*
G04 Aperture macros list*
%AMRoundRect*
0 Rectangle with rounded corners*
0 $1 Rounding radius*
0 $2 $3 $4 $5 $6 $7 $8 $9 X,Y pos of 4 corners*
0 Add a 4 corners polygon primitive as box body*
4,1,4,$2,$3,$4,$5,$6,$7,$8,$9,$2,$3,0*
0 Add four circle primitives for the rounded corners*
1,1,$1+$1,$2,$3*
1,1,$1+$1,$4,$5*
1,1,$1+$1,$6,$7*
1,1,$1+$1,$8,$9*
0 Add four rect primitives between the rounded corners*
20,1,$1+$1,$2,$3,$4,$5,0*
20,1,$1+$1,$4,$5,$6,$7,0*
20,1,$1+$1,$6,$7,$8,$9,0*
20,1,$1+$1,$8,$9,$2,$3,0*%
%AMFreePoly0*
4,1,61,-1.004046,3.703271,-0.272051,3.705999,0.029798,3.689124,0.327885,3.638709,0.618495,3.555382,0.898007,3.440182,1.162936,3.294544,1.409980,3.120284,1.636062,2.919574,1.838363,2.694914,2.014362,2.449105,2.161865,2.185210,2.279034,1.906519,2.364410,1.616504,2.416927,1.318780,2.435931,1.017057,2.433136,1.004402,2.436000,-5.334000,2.418517,-5.556137,2.366500,-5.772804,
2.281229,-5.978667,2.164804,-6.168655,2.020092,-6.338092,1.850655,-6.482804,1.660667,-6.599229,1.454804,-6.684500,1.238137,-6.736517,1.016000,-6.754000,1.003628,-6.751176,-1.016000,-6.754000,-1.238137,-6.736518,-1.454804,-6.684501,-1.660667,-6.599230,-1.850655,-6.482804,-2.020092,-6.338092,-2.164804,-6.168655,-2.281230,-5.978667,-2.366501,-5.772804,-2.418518,-5.556137,-2.436000,-5.334000,
-2.433133,-5.321442,-2.433245,-5.024200,-2.001600,-5.024200,2.077800,-5.024200,2.077800,-4.272301,0.812800,-4.297600,-2.001600,-4.297600,-2.001600,-5.024200,-2.433245,-5.024200,-2.436000,2.286000,-2.418518,2.508137,-2.366501,2.724804,-2.281230,2.930667,-2.164804,3.120655,-2.020092,3.290092,-1.850655,3.434804,-1.660667,3.551230,-1.454804,3.636501,-1.238137,3.688518,-1.016000,3.706000,
-1.004046,3.703271,-1.004046,3.703271,$1*%
%AMFreePoly1*
4,1,63,1.238137,3.688517,1.454804,3.636500,1.660667,3.551229,1.850655,3.434804,2.020092,3.290092,2.164804,3.120655,2.281229,2.930667,2.366500,2.724804,2.418517,2.508137,2.436000,2.286000,2.433133,2.273442,2.436000,-5.334000,2.418517,-5.556137,2.366500,-5.772804,2.281229,-5.978667,2.164804,-6.168655,2.020092,-6.338092,1.850655,-6.482804,1.660667,-6.599229,1.454804,-6.684500,
1.238137,-6.736517,1.016000,-6.754000,1.003628,-6.751176,-1.016000,-6.754000,-1.238137,-6.736518,-1.454804,-6.684501,-1.660667,-6.599230,-1.850655,-6.482804,-2.020092,-6.338092,-2.164804,-6.168655,-2.281230,-5.978667,-2.366501,-5.772804,-2.418518,-5.556137,-2.436000,-5.334000,-2.433136,-5.321456,-2.433270,-5.024200,-2.077651,-5.024200,2.103200,-5.024200,2.103200,-4.196000,-0.762098,-4.195999,
-2.052547,-4.170696,-2.077651,-5.024200,-2.433270,-5.024200,-2.436000,1.016000,-2.435906,1.016947,-2.435931,1.017057,-2.416926,1.318780,-2.364409,1.616504,-2.279034,1.906519,-2.161864,2.185210,-2.014361,2.449105,-1.838362,2.694913,-1.636061,2.919573,-1.409980,3.120284,-1.162935,3.294543,-0.898006,3.440181,-0.618495,3.555381,-0.327885,3.638708,-0.029798,3.689123,0.272051,3.705999,
0.284004,3.703270,1.016000,3.706000,1.238137,3.688517,1.238137,3.688517,$1*%
%AMFreePoly2*
4,1,18,-0.635000,0.635000,0.000000,0.635000,0.099336,0.627182,0.252189,0.582774,0.389196,0.501748,0.501748,0.389196,0.582774,0.252189,0.627182,0.099336,0.635000,0.000000,0.627182,-0.099336,0.582774,-0.252189,0.501748,-0.389196,0.389196,-0.501748,0.252189,-0.582774,0.099336,-0.627182,0.000000,-0.635000,-0.635000,-0.635000,-0.635000,0.635000,-0.635000,0.635000,$1*%
%AMFreePoly3*
4,1,455,0.024171,7.214759,0.028568,7.214610,0.049870,7.203443,0.071873,7.193755,0.074730,7.190412,0.078627,7.188368,0.339196,6.944885,0.577199,6.679300,0.790769,6.393699,0.978232,6.090321,1.138115,5.771545,1.269166,5.439874,1.368949,5.102659,1.413084,5.026138,1.499315,4.928888,1.603325,4.850942,1.720873,4.795480,1.847167,4.764763,1.912112,4.762416,1.966722,4.747846,
2.009603,4.711025,2.032261,4.659245,2.030208,4.602762,2.003851,4.552763,1.958411,4.519151,1.902888,4.508584,1.746033,4.528264,1.595093,4.575253,1.454783,4.648082,1.439982,4.659468,1.429602,4.627521,1.379602,4.591194,1.348700,4.586300,1.265000,4.586300,1.265000,3.800538,1.287735,3.818315,1.471283,3.914377,1.669152,3.975742,1.874846,4.000395,1.962121,3.987565,
2.039744,3.945658,2.098354,3.879730,2.130879,3.797732,2.133399,3.709554,2.105608,3.625833,2.050858,3.556666,1.975754,3.510396,1.889354,3.492602,1.813630,3.490607,1.667450,3.450806,1.534721,3.377761,1.422879,3.275565,1.338191,3.149944,1.285403,3.007936,1.267472,2.857500,1.285403,2.707064,1.338191,2.565056,1.422879,2.439435,1.534721,2.337239,1.667450,2.264194,
1.813630,2.224393,1.889354,2.222397,1.975754,2.204604,2.050858,2.158334,2.105608,2.089167,2.133399,2.005446,2.130879,1.917268,2.098354,1.835270,2.039744,1.769342,1.962121,1.727435,1.874846,1.714605,1.669152,1.739258,1.471283,1.800623,1.287735,1.896685,1.265000,1.914461,1.265000,1.260540,1.287734,1.278316,1.471283,1.374378,1.669152,1.435743,1.874846,1.460396,
1.874846,1.460394,1.962121,1.447564,2.039744,1.405657,2.098354,1.339729,2.130879,1.257731,2.133399,1.169553,2.105608,1.085832,2.050858,1.016665,1.975754,0.970395,1.889354,0.952603,1.813629,0.950608,1.667449,0.910807,1.534720,0.837762,1.422878,0.735565,1.338190,0.609944,1.285402,0.467937,1.267471,0.317500,1.285402,0.167063,1.338190,0.025056,1.422878,-0.100565,
1.534720,-0.202762,1.667450,-0.275807,1.813630,-0.315608,1.889354,-0.317604,1.975754,-0.335397,2.050858,-0.381667,2.105608,-0.450834,2.133399,-0.534555,2.130879,-0.622733,2.098354,-0.704731,2.039744,-0.770659,1.962121,-0.812566,1.874846,-0.825396,1.669152,-0.800743,1.471283,-0.739378,1.287734,-0.643316,1.265000,-0.625540,1.265000,-1.279461,1.287736,-1.261684,1.471284,-1.165623,
1.669153,-1.104258,1.874847,-1.079605,1.962122,-1.092435,2.039746,-1.134342,2.098355,-1.200271,2.130881,-1.282269,2.133400,-1.370446,2.105609,-1.454167,2.050859,-1.523334,1.975755,-1.569605,1.889355,-1.587398,1.813630,-1.589393,1.667450,-1.629194,1.534721,-1.702239,1.422879,-1.804435,1.338191,-1.930056,1.285403,-2.072063,1.267472,-2.222500,1.285403,-2.372937,1.338191,-2.514944,
1.422879,-2.640565,1.534721,-2.742761,1.667450,-2.815806,1.813630,-2.855607,1.889355,-2.857603,1.975755,-2.875395,2.050859,-2.921666,2.105609,-2.990833,2.133400,-3.074554,2.130881,-3.162731,2.098355,-3.244729,2.039746,-3.310658,1.962122,-3.352565,1.874847,-3.365395,1.669153,-3.340742,1.471284,-3.279377,1.287736,-3.183316,1.265000,-3.165538,1.265000,-3.819461,1.287736,-3.801684,
1.471284,-3.705623,1.669153,-3.644258,1.874847,-3.619605,1.962122,-3.632435,2.039746,-3.674342,2.098355,-3.740271,2.130881,-3.822269,2.133400,-3.910446,2.105609,-3.994167,2.050859,-4.063334,1.975755,-4.109605,1.889355,-4.127398,1.813630,-4.129393,1.667450,-4.169194,1.534721,-4.242239,1.422879,-4.344435,1.338191,-4.470056,1.285403,-4.612063,1.267472,-4.762500,1.285403,-4.912937,
1.338191,-5.054944,1.422879,-5.180565,1.534721,-5.282761,1.667450,-5.355806,1.813630,-5.395607,1.889355,-5.397603,1.975755,-5.415395,2.050859,-5.461666,2.105609,-5.530833,2.133400,-5.614554,2.130881,-5.702731,2.098355,-5.784729,2.039746,-5.850658,1.962122,-5.892565,1.874847,-5.905395,1.669153,-5.880742,1.471284,-5.819377,1.287736,-5.723316,1.265000,-5.705538,1.265000,-6.431214,
1.267204,-6.431816,1.309887,-6.468867,1.332267,-6.520767,1.329912,-6.577238,1.303291,-6.627092,1.265000,-6.655102,1.265000,-6.692500,0.921172,-6.692500,0.759542,-6.740312,0.597129,-6.819214,0.449842,-6.923666,0.321665,-7.050843,0.216062,-7.197307,0.135891,-7.359097,0.109635,-7.445477,0.099973,-7.462357,0.092800,-7.480436,0.086091,-7.486613,0.081562,-7.494528,0.065531,-7.505546,
0.051224,-7.518723,0.042497,-7.521378,0.034979,-7.526546,0.015758,-7.529517,-0.002849,-7.535180,-0.011862,-7.533786,-0.020877,-7.535180,-0.039482,-7.529517,-0.058705,-7.526546,-0.066221,-7.521379,-0.074949,-7.518723,-0.089256,-7.505547,-0.105285,-7.494531,-0.109815,-7.486615,-0.116526,-7.480436,-0.123699,-7.462357,-0.133362,-7.445478,-0.159618,-7.359098,-0.239789,-7.197309,-0.345392,-7.050845,
-0.473570,-6.923668,-0.620857,-6.819216,-0.783270,-6.740314,-0.944906,-6.692500,-1.280000,-6.692500,-1.280000,-6.660720,-1.281400,-6.660462,-1.327018,-6.627092,-1.353639,-6.577234,-1.355992,-6.520762,-1.333610,-6.468863,-1.290926,-6.431814,-1.280000,-6.428836,-1.280000,-5.694486,-1.322499,-5.727716,-1.506047,-5.823777,-1.703916,-5.885142,-1.909610,-5.909795,-1.996885,-5.896965,-2.074509,-5.855058,
-2.133118,-5.789129,-2.165644,-5.707131,-2.168163,-5.618954,-2.140372,-5.535233,-2.085622,-5.466066,-2.010518,-5.419795,-1.924118,-5.402002,-1.848393,-5.400007,-1.702213,-5.360206,-1.569484,-5.287161,-1.457642,-5.184965,-1.372954,-5.059344,-1.320166,-4.917337,-1.302235,-4.766900,-1.320166,-4.616463,-1.372954,-4.474456,-1.457642,-4.348835,-1.569484,-4.246639,-1.702213,-4.173594,-1.848393,-4.133793,
-1.924118,-4.131797,-2.010518,-4.114005,-2.085622,-4.067734,-2.140372,-3.998567,-2.168163,-3.914846,-2.165644,-3.826669,-2.133118,-3.744671,-2.074509,-3.678742,-1.996885,-3.636835,-1.909610,-3.624005,-1.703916,-3.648658,-1.506047,-3.710023,-1.322499,-3.806084,-1.280000,-3.839313,-1.280000,-3.154486,-1.322499,-3.187716,-1.506047,-3.283777,-1.703916,-3.345142,-1.909610,-3.369795,-1.996885,-3.356965,
-2.074509,-3.315058,-2.133118,-3.249129,-2.165644,-3.167131,-2.168163,-3.078954,-2.140372,-2.995233,-2.085622,-2.926066,-2.010518,-2.879795,-1.924118,-2.862002,-1.848393,-2.860007,-1.702213,-2.820206,-1.569484,-2.747161,-1.457642,-2.644965,-1.372954,-2.519344,-1.320166,-2.377337,-1.302235,-2.226900,-1.320166,-2.076463,-1.372954,-1.934456,-1.457642,-1.808835,-1.569484,-1.706639,-1.702213,-1.633594,
-1.848393,-1.593793,-1.924118,-1.591797,-2.010518,-1.574005,-2.085622,-1.527734,-2.140372,-1.458567,-2.168163,-1.374846,-2.165644,-1.286669,-2.133118,-1.204671,-2.074509,-1.138742,-1.996885,-1.096835,-1.909610,-1.084005,-1.703916,-1.108658,-1.506047,-1.170023,-1.322499,-1.266084,-1.280000,-1.299313,-1.280000,-0.621318,-1.308135,-0.643317,-1.491683,-0.739378,-1.689552,-0.800743,-1.895246,-0.825396,
-1.982521,-0.812566,-2.060145,-0.770659,-2.118754,-0.704730,-2.151280,-0.622732,-2.153799,-0.534555,-2.126008,-0.450834,-2.071258,-0.381667,-1.996154,-0.335396,-1.909754,-0.317603,-1.834029,-0.315608,-1.687849,-0.275807,-1.555120,-0.202762,-1.443278,-0.100566,-1.358590,0.025055,-1.305802,0.167062,-1.287871,0.317499,-1.305802,0.467936,-1.358590,0.609943,-1.443278,0.735564,-1.555120,0.837760,
-1.687849,0.910805,-1.834029,0.950606,-1.909754,0.952602,-1.996154,0.970394,-2.071258,1.016665,-2.126008,1.085832,-2.153799,1.169553,-2.151280,1.257730,-2.118754,1.339728,-2.060145,1.405657,-1.982521,1.447564,-1.895246,1.460394,-1.689552,1.435741,-1.491683,1.374376,-1.308135,1.278315,-1.280000,1.256316,-1.280000,1.925512,-1.322498,1.892284,-1.506046,1.796223,-1.703915,1.734858,
-1.909609,1.710205,-1.996884,1.723035,-2.074508,1.764942,-2.133117,1.830871,-2.165643,1.912869,-2.168162,2.001046,-2.140371,2.084767,-2.085621,2.153934,-2.010517,2.200205,-1.924117,2.217998,-1.848392,2.219993,-1.702212,2.259794,-1.569483,2.332839,-1.457641,2.435035,-1.372953,2.560656,-1.320165,2.702663,-1.302234,2.853100,-1.320165,3.003537,-1.372953,3.145544,-1.457641,3.271165,
-1.569483,3.373361,-1.702212,3.446406,-1.848392,3.486207,-1.924117,3.488203,-2.010517,3.505995,-2.085621,3.552266,-2.140371,3.621433,-2.168162,3.705154,-2.165643,3.793331,-2.133117,3.875329,-2.074508,3.941258,-1.996884,3.983165,-1.909609,3.995995,-1.703915,3.971342,-1.506046,3.909977,-1.322498,3.813916,-1.280000,3.780687,-1.280000,4.586300,-1.369100,4.586300,-1.427879,4.605398,
-1.458988,4.648216,-1.459163,4.648082,-1.599472,4.575253,-1.750412,4.528264,-1.907267,4.508584,-1.962790,4.519151,-2.008230,4.552763,-2.034587,4.602762,-2.036640,4.659245,-2.013982,4.711025,-1.971101,4.747846,-1.916491,4.762416,-1.851546,4.764763,-1.725253,4.795480,-1.607705,4.850942,-1.503696,4.928888,-1.417465,5.026138,-1.378201,5.094216,-1.378131,5.097907,-1.276941,5.439874,
-1.145891,5.771546,-0.986008,6.090322,-0.798545,6.393700,-0.584975,6.679302,-0.346971,6.944886,-0.086401,7.188369,-0.082504,7.190411,-0.079647,7.193755,-0.057642,7.203444,-0.036342,7.214610,-0.031945,7.214759,-0.027920,7.216532,-0.003887,7.215714,0.020146,7.216532,0.024171,7.214759,0.024171,7.214759,$1*%
G04 Aperture macros list end*
%ADD10C,0.150000*%
%TA.AperFunction,NonConductor*%
%ADD11C,0.150000*%
%TD*%
%ADD12C,0.200000*%
%TA.AperFunction,NonConductor*%
%ADD13C,0.200000*%
%TD*%
%TA.AperFunction,EtchedComponent*%
%ADD14C,0.001000*%
%TD*%
%TA.AperFunction,EtchedComponent*%
%ADD15C,0.000000*%
%TD*%
%TA.AperFunction,ComponentPad*%
%ADD16FreePoly0,270.000000*%
%TD*%
%TA.AperFunction,ComponentPad*%
%ADD17FreePoly1,270.000000*%
%TD*%
%TA.AperFunction,ComponentPad*%
%ADD18RoundRect,0.300000X-0.450000X0.450000X-0.450000X-0.450000X0.450000X-0.450000X0.450000X0.450000X0*%
%TD*%
%TA.AperFunction,ComponentPad*%
%ADD19RoundRect,0.300000X-0.450000X-0.450000X0.450000X-0.450000X0.450000X0.450000X-0.450000X0.450000X0*%
%TD*%
%TA.AperFunction,ComponentPad*%
%ADD20RoundRect,0.300000X0.450000X-0.450000X0.450000X0.450000X-0.450000X0.450000X-0.450000X-0.450000X0*%
%TD*%
%TA.AperFunction,ComponentPad*%
%ADD21FreePoly2,90.000000*%
%TD*%
%TA.AperFunction,ComponentPad*%
%ADD22FreePoly2,270.000000*%
%TD*%
%TA.AperFunction,SMDPad,CuDef*%
%ADD23FreePoly3,90.000000*%
%TD*%
%TA.AperFunction,ComponentPad*%
%ADD24RoundRect,0.080000X-0.720000X0.720000X-0.720000X-0.720000X0.720000X-0.720000X0.720000X0.720000X0*%
%TD*%
%TA.AperFunction,ComponentPad*%
%ADD25RoundRect,0.640000X-0.160000X0.160000X-0.160000X-0.160000X0.160000X-0.160000X0.160000X0.160000X0*%
%TD*%
%TA.AperFunction,ComponentPad*%
%ADD26C,1.200000*%
%TD*%
%TA.AperFunction,ComponentPad*%
%ADD27C,0.900000*%
%TD*%
%TA.AperFunction,ComponentPad*%
%ADD28RoundRect,0.450000X0.450000X0.450000X-0.450000X0.450000X-0.450000X-0.450000X0.450000X-0.450000X0*%
%TD*%
%TA.AperFunction,SMDPad,CuDef*%
%ADD29RoundRect,0.250000X0.450000X-0.350000X0.450000X0.350000X-0.450000X0.350000X-0.450000X-0.350000X0*%
%TD*%
%TA.AperFunction,ComponentPad*%
%ADD30RoundRect,0.085000X-0.765000X-0.765000X0.765000X-0.765000X0.765000X0.765000X-0.765000X0.765000X0*%
%TD*%
%TA.AperFunction,ComponentPad*%
%ADD31RoundRect,0.110000X-0.990000X-0.990000X0.990000X-0.990000X0.990000X0.990000X-0.990000X0.990000X0*%
%TD*%
%TA.AperFunction,ComponentPad*%
%ADD32RoundRect,0.080000X-0.720000X-2.220000X0.720000X-2.220000X0.720000X2.220000X-0.720000X2.220000X0*%
%TD*%
%TA.AperFunction,ComponentPad*%
%ADD33RoundRect,0.680000X-0.170000X-0.170000X0.170000X-0.170000X0.170000X0.170000X-0.170000X0.170000X0*%
%TD*%
%TA.AperFunction,ComponentPad*%
%ADD34RoundRect,0.880000X-0.220000X-0.220000X0.220000X-0.220000X0.220000X0.220000X-0.220000X0.220000X0*%
%TD*%
%TA.AperFunction,ComponentPad*%
%ADD35RoundRect,0.720000X-0.080000X-1.580000X0.080000X-1.580000X0.080000X1.580000X-0.080000X1.580000X0*%
%TD*%
%TA.AperFunction,ComponentPad*%
%ADD36RoundRect,0.550000X-0.550000X-0.550000X0.550000X-0.550000X0.550000X0.550000X-0.550000X0.550000X0*%
%TD*%
%TA.AperFunction,ComponentPad*%
%ADD37RoundRect,0.400000X-0.400000X-1.900000X0.400000X-1.900000X0.400000X1.900000X-0.400000X1.900000X0*%
%TD*%
%TA.AperFunction,Conductor*%
%ADD38C,0.350000*%
%TD*%
G04 APERTURE END LIST*
D10*
D11*
G36*
X96503423Y-58872224D02*
G01*
X96450375Y-58875540D01*
X96393566Y-58888271D01*
X96344227Y-58910550D01*
X96296107Y-58948611D01*
X96253563Y-59008023D01*
X96222254Y-59090516D01*
X96202197Y-59186640D01*
X96190456Y-59286818D01*
X96183747Y-59403413D01*
X96182000Y-59513117D01*
X96182000Y-59745637D01*
X96182000Y-59795951D01*
X96182000Y-59899098D01*
X96182000Y-60003559D01*
X96182000Y-60109334D01*
X96182000Y-60168665D01*
X96185249Y-60267407D01*
X96196919Y-60364570D01*
X96220193Y-60453880D01*
X96249899Y-60515490D01*
X96293019Y-60566967D01*
X96339620Y-60598581D01*
X96394006Y-60616884D01*
X96447980Y-60621980D01*
X96522230Y-60619049D01*
X96522230Y-60400696D01*
X96495363Y-60403627D01*
X96444316Y-60401079D01*
X96390705Y-60390316D01*
X96340261Y-60362861D01*
X96328789Y-60350382D01*
X96298810Y-60268450D01*
X96283864Y-60166650D01*
X96275789Y-60059244D01*
X96275789Y-59695323D01*
X96275789Y-59650382D01*
X96275789Y-59611303D01*
X96275789Y-59580528D01*
X96276862Y-59481639D01*
X96277010Y-59475504D01*
X96282872Y-59381715D01*
X96293784Y-59282058D01*
X96318531Y-59192671D01*
X96357877Y-59134549D01*
X96386431Y-59115979D01*
X96436062Y-59102154D01*
X96480220Y-59098882D01*
X96499759Y-59098882D01*
X97119892Y-59098882D01*
X97119892Y-58872224D01*
X96503423Y-58872224D01*
G37*
G36*
X96307052Y-57011094D02*
G01*
X96263617Y-57065437D01*
X96230964Y-57139500D01*
X96215217Y-57193299D01*
X96197700Y-57290786D01*
X96188357Y-57390895D01*
X96183589Y-57494619D01*
X96182032Y-57595507D01*
X96182000Y-57613397D01*
X96183011Y-57727962D01*
X96186045Y-57832299D01*
X96192682Y-57948338D01*
X96202479Y-58048397D01*
X96218407Y-58147372D01*
X96242742Y-58233759D01*
X96246724Y-58243543D01*
X96282948Y-58309580D01*
X96326897Y-58356750D01*
X96378569Y-58385051D01*
X96430119Y-58394338D01*
X96437966Y-58394485D01*
X96458727Y-58394485D01*
X96838524Y-58394485D01*
X96838524Y-58198114D01*
X96489990Y-58198114D01*
X96434660Y-58192364D01*
X96382732Y-58171710D01*
X96334780Y-58124770D01*
X96312425Y-58077946D01*
X96293105Y-57982720D01*
X96282801Y-57880642D01*
X96277542Y-57772440D01*
X96275825Y-57665668D01*
X96275789Y-57646614D01*
X96277077Y-57532646D01*
X96280941Y-57429978D01*
X96288705Y-57324481D01*
X96301871Y-57222746D01*
X96312425Y-57169363D01*
X96345508Y-57085901D01*
X96392698Y-57037214D01*
X96440808Y-57016658D01*
X96489990Y-57011094D01*
X96838524Y-57011094D01*
X96838524Y-56815211D01*
X96182000Y-56815211D01*
X96182000Y-57011094D01*
X96307052Y-57011094D01*
G37*
G36*
X96734965Y-56174806D02*
G01*
X96779228Y-56117678D01*
X96809222Y-56032817D01*
X96818252Y-55984297D01*
X96829794Y-55881673D01*
X96836129Y-55774054D01*
X96838445Y-55665531D01*
X96838524Y-55639914D01*
X96838524Y-55597905D01*
X96837678Y-55493193D01*
X96834873Y-55390343D01*
X96833395Y-55356104D01*
X96826678Y-55255476D01*
X96816787Y-55169503D01*
X96798192Y-55078131D01*
X96766526Y-55003074D01*
X96721790Y-54944332D01*
X96711274Y-54934541D01*
X96756874Y-54879586D01*
X96793535Y-54801505D01*
X96816054Y-54704953D01*
X96827904Y-54599194D01*
X96834223Y-54500779D01*
X96837734Y-54390091D01*
X96838524Y-54299021D01*
X96837278Y-54188959D01*
X96833539Y-54088056D01*
X96825763Y-53979063D01*
X96814397Y-53883259D01*
X96796600Y-53788157D01*
X96787478Y-53752894D01*
X96754932Y-53674462D01*
X96708099Y-53618438D01*
X96655398Y-53587801D01*
X96601520Y-53575196D01*
X96571567Y-53573620D01*
X96182000Y-53573620D01*
X96182000Y-53769503D01*
X96565705Y-53769503D01*
X96616446Y-53777135D01*
X96666306Y-53808143D01*
X96706240Y-53876836D01*
X96710785Y-53891624D01*
X96730114Y-53991640D01*
X96739961Y-54097857D01*
X96743906Y-54195643D01*
X96744735Y-54273620D01*
X96744735Y-54341031D01*
X96743138Y-54454174D01*
X96738347Y-54552171D01*
X96726989Y-54659272D01*
X96704807Y-54755280D01*
X96699306Y-54769433D01*
X96659223Y-54834325D01*
X96611921Y-54867499D01*
X96565705Y-54875923D01*
X96182000Y-54875923D01*
X96182000Y-55071806D01*
X96565705Y-55071806D01*
X96617339Y-55080965D01*
X96663999Y-55112197D01*
X96700039Y-55165595D01*
X96725486Y-55259686D01*
X96737358Y-55365313D01*
X96742596Y-55465090D01*
X96744691Y-55582487D01*
X96744735Y-55603766D01*
X96743525Y-55709518D01*
X96738876Y-55820206D01*
X96729047Y-55926986D01*
X96712004Y-56019538D01*
X96695154Y-56068316D01*
X96655203Y-56128945D01*
X96608415Y-56162223D01*
X96557781Y-56174390D01*
X96545433Y-56174806D01*
X96182000Y-56174806D01*
X96182000Y-56370689D01*
X96839990Y-56370689D01*
X96839990Y-56174806D01*
X96734965Y-56174806D01*
G37*
G36*
X96523975Y-51424946D02*
G01*
X96584439Y-51431074D01*
X96637510Y-51445955D01*
X96691434Y-51475367D01*
X96740888Y-51525613D01*
X96779662Y-51604046D01*
X96783283Y-51615518D01*
X96805414Y-51710810D01*
X96819900Y-51813364D01*
X96828810Y-51913544D01*
X96834845Y-52027105D01*
X96837605Y-52127588D01*
X96838524Y-52236635D01*
X96838524Y-52444241D01*
X96836901Y-52540210D01*
X96830510Y-52645016D01*
X96818008Y-52743683D01*
X96807022Y-52793731D01*
X96775952Y-52873284D01*
X96734965Y-52931261D01*
X96839990Y-52931261D01*
X96839990Y-53127144D01*
X95900632Y-53127144D01*
X95900632Y-52931261D01*
X96275789Y-52931261D01*
X96268825Y-52924775D01*
X96226146Y-52863603D01*
X96200318Y-52780319D01*
X96191463Y-52718611D01*
X96184164Y-52621307D01*
X96182000Y-52517025D01*
X96182000Y-52236635D01*
X96275789Y-52236635D01*
X96276588Y-52357072D01*
X96278985Y-52464677D01*
X96283971Y-52576865D01*
X96292696Y-52684396D01*
X96308517Y-52785692D01*
X96315887Y-52811183D01*
X96357599Y-52878045D01*
X96409962Y-52911476D01*
X96460314Y-52924848D01*
X96509529Y-52928330D01*
X96515417Y-52928286D01*
X96565276Y-52923942D01*
X96614057Y-52910775D01*
X96663402Y-52883390D01*
X96670104Y-52876837D01*
X96709659Y-52810906D01*
X96730325Y-52715351D01*
X96731963Y-52703021D01*
X96742048Y-52606418D01*
X96744735Y-52519468D01*
X96744735Y-52420305D01*
X96744735Y-52407208D01*
X96744735Y-52306976D01*
X96744735Y-52239565D01*
X96744163Y-52149180D01*
X96741837Y-52047834D01*
X96736685Y-51943283D01*
X96727419Y-51844835D01*
X96708099Y-51748149D01*
X96667927Y-51683627D01*
X96619678Y-51653524D01*
X96564311Y-51638804D01*
X96507087Y-51634820D01*
X96452882Y-51639010D01*
X96400105Y-51654491D01*
X96353584Y-51686151D01*
X96313646Y-51754011D01*
X96300781Y-51807145D01*
X96287767Y-51904812D01*
X96280262Y-52015414D01*
X96276713Y-52128896D01*
X96275789Y-52236635D01*
X96182000Y-52236635D01*
X96182000Y-52234192D01*
X96182000Y-51993369D01*
X96182682Y-51931775D01*
X96188143Y-51820412D01*
X96201417Y-51710413D01*
X96225688Y-51610976D01*
X96259669Y-51539565D01*
X96304594Y-51489343D01*
X96353696Y-51457169D01*
X96403058Y-51438336D01*
X96459135Y-51427574D01*
X96510995Y-51424771D01*
X96523975Y-51424946D01*
G37*
G36*
X96535011Y-49372527D02*
G01*
X96586405Y-49378108D01*
X96639158Y-49393084D01*
X96689945Y-49421363D01*
X96734965Y-49467409D01*
X96739204Y-49473426D01*
X96776031Y-49540516D01*
X96804861Y-49628861D01*
X96820450Y-49722399D01*
X96829245Y-49823469D01*
X96834372Y-49927074D01*
X96836379Y-49995918D01*
X96838034Y-50096725D01*
X96838524Y-50198184D01*
X96838524Y-50333006D01*
X96838457Y-50358283D01*
X96836120Y-50477267D01*
X96830443Y-50583921D01*
X96819223Y-50695628D01*
X96800056Y-50803509D01*
X96770136Y-50897207D01*
X96765740Y-50906764D01*
X96721776Y-50972297D01*
X96670485Y-51013711D01*
X96616996Y-51037375D01*
X96565705Y-51048753D01*
X96508308Y-51052545D01*
X96488846Y-51052114D01*
X96434684Y-51045645D01*
X96379504Y-51028288D01*
X96327004Y-50995514D01*
X96281406Y-50942147D01*
X96273064Y-50928063D01*
X96237534Y-50850946D01*
X96212309Y-50762665D01*
X96197387Y-50663222D01*
X96196440Y-50652520D01*
X96189949Y-50552549D01*
X96185846Y-50444136D01*
X96183502Y-50335658D01*
X96182375Y-50234293D01*
X96182000Y-50122957D01*
X96182034Y-50102407D01*
X96183245Y-50003236D01*
X96186980Y-49892102D01*
X96193205Y-49789554D01*
X96203615Y-49680768D01*
X96217415Y-49583669D01*
X96233629Y-49512783D01*
X96268609Y-49433953D01*
X96316379Y-49388122D01*
X96369578Y-49375085D01*
X96369578Y-49582203D01*
X96367817Y-49582744D01*
X96322683Y-49621282D01*
X96318161Y-49629502D01*
X96293130Y-49716537D01*
X96286607Y-49762887D01*
X96278964Y-49862594D01*
X96276486Y-49959780D01*
X96275789Y-50063850D01*
X96275789Y-50097556D01*
X96275789Y-50204046D01*
X96275789Y-50436076D01*
X96283116Y-50579203D01*
X96290234Y-50639956D01*
X96310911Y-50735806D01*
X96345886Y-50804394D01*
X96379036Y-50831700D01*
X96428953Y-50851117D01*
X96478999Y-50856174D01*
X96478999Y-49576830D01*
X96572788Y-49576830D01*
X96572788Y-50850801D01*
X96611867Y-50845427D01*
X96645817Y-50831261D01*
X96666654Y-50811998D01*
X96704435Y-50745776D01*
X96726022Y-50658244D01*
X96736187Y-50562594D01*
X96741053Y-50472433D01*
X96743900Y-50371882D01*
X96744735Y-50271457D01*
X96744735Y-50117095D01*
X96744090Y-50046076D01*
X96740827Y-49948079D01*
X96739319Y-49919188D01*
X96731790Y-49820584D01*
X96720627Y-49746831D01*
X96696375Y-49660849D01*
X96686279Y-49640450D01*
X96642397Y-49593927D01*
X96621956Y-49584911D01*
X96572788Y-49576830D01*
X96478999Y-49576830D01*
X96478999Y-49375085D01*
X96516612Y-49372154D01*
X96535011Y-49372527D01*
G37*
G36*
X96723730Y-48765455D02*
G01*
X96768832Y-48712504D01*
X96801823Y-48633644D01*
X96807750Y-48613048D01*
X96825271Y-48518049D01*
X96834197Y-48414906D01*
X96838043Y-48304019D01*
X96838524Y-48241799D01*
X96837421Y-48130072D01*
X96834112Y-48029364D01*
X96827228Y-47923062D01*
X96815182Y-47819097D01*
X96796119Y-47726728D01*
X96793339Y-47717165D01*
X96758284Y-47644672D01*
X96710710Y-47600151D01*
X96656411Y-47576573D01*
X96600454Y-47567786D01*
X96579871Y-47567200D01*
X96550318Y-47570131D01*
X96550318Y-47763083D01*
X96602631Y-47767906D01*
X96655101Y-47787503D01*
X96699110Y-47830917D01*
X96704435Y-47840263D01*
X96730528Y-47931518D01*
X96740799Y-48028603D01*
X96744578Y-48138192D01*
X96744735Y-48169014D01*
X96744735Y-48236425D01*
X96743378Y-48337668D01*
X96738366Y-48441285D01*
X96728116Y-48540585D01*
X96708519Y-48636030D01*
X96706145Y-48643822D01*
X96668935Y-48713072D01*
X96622606Y-48748351D01*
X96569422Y-48763555D01*
X96538594Y-48765455D01*
X96182000Y-48765455D01*
X96182000Y-48961338D01*
X96839990Y-48961338D01*
X96839990Y-48765455D01*
X96723730Y-48765455D01*
G37*
G36*
X96182000Y-47090926D02*
G01*
X96182000Y-47286809D01*
X97119892Y-47286809D01*
X97119892Y-47090926D01*
X96182000Y-47090926D01*
G37*
G36*
X96535011Y-45003510D02*
G01*
X96586405Y-45009092D01*
X96639158Y-45024068D01*
X96689945Y-45052347D01*
X96734965Y-45098393D01*
X96739204Y-45104409D01*
X96776031Y-45171500D01*
X96804861Y-45259845D01*
X96820450Y-45353383D01*
X96829245Y-45454453D01*
X96834372Y-45558058D01*
X96836379Y-45626902D01*
X96838034Y-45727709D01*
X96838524Y-45829168D01*
X96838524Y-45963990D01*
X96838457Y-45989266D01*
X96836120Y-46108251D01*
X96830443Y-46214905D01*
X96819223Y-46326612D01*
X96800056Y-46434493D01*
X96770136Y-46528191D01*
X96765740Y-46537748D01*
X96721776Y-46603281D01*
X96670485Y-46644695D01*
X96616996Y-46668359D01*
X96565705Y-46679737D01*
X96508308Y-46683529D01*
X96488846Y-46683098D01*
X96434684Y-46676629D01*
X96379504Y-46659272D01*
X96327004Y-46626497D01*
X96281406Y-46573131D01*
X96273064Y-46559047D01*
X96237534Y-46481930D01*
X96212309Y-46393649D01*
X96197387Y-46294206D01*
X96196440Y-46283504D01*
X96189949Y-46183533D01*
X96185846Y-46075120D01*
X96183502Y-45966642D01*
X96182375Y-45865277D01*
X96182000Y-45753941D01*
X96182034Y-45733391D01*
X96183245Y-45634220D01*
X96186980Y-45523086D01*
X96193205Y-45420538D01*
X96203615Y-45311752D01*
X96217415Y-45214653D01*
X96233629Y-45143767D01*
X96268609Y-45064937D01*
X96316379Y-45019106D01*
X96369578Y-45006069D01*
X96369578Y-45213187D01*
X96367817Y-45213728D01*
X96322683Y-45252266D01*
X96318161Y-45260486D01*
X96293130Y-45347521D01*
X96286607Y-45393871D01*
X96278964Y-45493578D01*
X96276486Y-45590764D01*
X96275789Y-45694834D01*
X96275789Y-45728540D01*
X96275789Y-45835030D01*
X96275789Y-46067060D01*
X96283116Y-46210187D01*
X96290234Y-46270940D01*
X96310911Y-46366790D01*
X96345886Y-46435378D01*
X96379036Y-46462684D01*
X96428953Y-46482101D01*
X96478999Y-46487158D01*
X96478999Y-45207814D01*
X96572788Y-45207814D01*
X96572788Y-46481785D01*
X96611867Y-46476411D01*
X96645817Y-46462245D01*
X96666654Y-46442982D01*
X96704435Y-46376760D01*
X96726022Y-46289228D01*
X96736187Y-46193578D01*
X96741053Y-46103417D01*
X96743900Y-46002866D01*
X96744735Y-45902441D01*
X96744735Y-45748079D01*
X96744090Y-45677060D01*
X96740827Y-45579063D01*
X96739319Y-45550172D01*
X96731790Y-45451568D01*
X96720627Y-45377815D01*
X96696375Y-45291833D01*
X96686279Y-45271434D01*
X96642397Y-45224911D01*
X96621956Y-45215895D01*
X96572788Y-45207814D01*
X96478999Y-45207814D01*
X96478999Y-45006069D01*
X96516612Y-45003138D01*
X96535011Y-45003510D01*
G37*
G36*
X96744735Y-43447311D02*
G01*
X96744735Y-43833704D01*
X96744735Y-44035448D01*
X96741873Y-44135779D01*
X96737408Y-44204953D01*
X96725919Y-44301467D01*
X96712495Y-44360291D01*
X96671371Y-44415246D01*
X96650946Y-44418909D01*
X96601392Y-44402366D01*
X96574498Y-44360291D01*
X96560018Y-44262023D01*
X96557157Y-44169782D01*
X96541525Y-43830773D01*
X96541525Y-43463920D01*
X96539807Y-43362427D01*
X96533636Y-43261661D01*
X96519611Y-43158545D01*
X96505621Y-43101464D01*
X96469054Y-43030618D01*
X96418274Y-42994400D01*
X96364449Y-42985204D01*
X96309525Y-42993875D01*
X96261238Y-43024357D01*
X96221636Y-43091419D01*
X96212530Y-43123934D01*
X96196430Y-43225028D01*
X96187843Y-43327060D01*
X96183460Y-43431766D01*
X96182029Y-43532974D01*
X96182000Y-43550870D01*
X96182000Y-43917723D01*
X96182000Y-44032517D01*
X96182000Y-44110675D01*
X96182000Y-44175155D01*
X96185175Y-44274073D01*
X96193162Y-44376255D01*
X96194700Y-44392043D01*
X96210058Y-44484991D01*
X96240301Y-44565791D01*
X96250632Y-44582552D01*
X96295405Y-44625629D01*
X96344497Y-44643351D01*
X96372753Y-44645567D01*
X96400841Y-44643124D01*
X96404505Y-44444311D01*
X96389117Y-44441380D01*
X96338167Y-44431188D01*
X96297526Y-44388135D01*
X96275939Y-44299022D01*
X96266309Y-44198329D01*
X96265775Y-44189321D01*
X96260157Y-43844939D01*
X96260157Y-43786321D01*
X96258936Y-43735518D01*
X96258936Y-43693508D01*
X96258936Y-43657360D01*
X96258936Y-43626586D01*
X96260009Y-43528039D01*
X96260157Y-43521561D01*
X96266019Y-43424841D01*
X96274922Y-43325665D01*
X96291176Y-43244590D01*
X96336292Y-43197614D01*
X96355656Y-43195253D01*
X96404366Y-43206620D01*
X96446775Y-43255789D01*
X96450178Y-43264129D01*
X96470379Y-43360090D01*
X96475967Y-43464914D01*
X96476068Y-43483459D01*
X96477289Y-43839077D01*
X96477289Y-44178086D01*
X96479411Y-44282072D01*
X96486871Y-44383146D01*
X96503282Y-44483802D01*
X96511239Y-44514164D01*
X96546914Y-44584117D01*
X96597236Y-44619878D01*
X96650946Y-44628958D01*
X96700959Y-44620226D01*
X96751276Y-44585834D01*
X96789703Y-44525353D01*
X96792607Y-44518561D01*
X96818749Y-44431590D01*
X96833098Y-44333893D01*
X96838345Y-44230793D01*
X96838524Y-44205930D01*
X96838524Y-43833704D01*
X96838524Y-43631959D01*
X96838524Y-43531209D01*
X96838524Y-43502999D01*
X96838524Y-43410675D01*
X96834757Y-43306313D01*
X96821734Y-43211745D01*
X96793827Y-43127985D01*
X96790897Y-43122468D01*
X96747895Y-43069483D01*
X96695683Y-43042396D01*
X96643863Y-43035518D01*
X96643863Y-43231889D01*
X96692120Y-43248736D01*
X96718113Y-43285134D01*
X96738462Y-43377321D01*
X96744735Y-43447311D01*
G37*
G36*
X96744735Y-41452336D02*
G01*
X96744735Y-41838728D01*
X96744735Y-42040473D01*
X96741873Y-42140803D01*
X96737408Y-42209977D01*
X96725919Y-42306491D01*
X96712495Y-42365316D01*
X96671371Y-42420270D01*
X96650946Y-42423934D01*
X96601392Y-42407390D01*
X96574498Y-42365316D01*
X96560018Y-42267047D01*
X96557157Y-42174806D01*
X96541525Y-41835797D01*
X96541525Y-41468944D01*
X96539807Y-41367451D01*
X96533636Y-41266686D01*
X96519611Y-41163569D01*
X96505621Y-41106488D01*
X96469054Y-41035642D01*
X96418274Y-40999425D01*
X96364449Y-40990228D01*
X96309525Y-40998899D01*
X96261238Y-41029382D01*
X96221636Y-41096443D01*
X96212530Y-41128958D01*
X96196430Y-41230052D01*
X96187843Y-41332084D01*
X96183460Y-41436790D01*
X96182029Y-41537998D01*
X96182000Y-41555895D01*
X96182000Y-41922748D01*
X96182000Y-42037542D01*
X96182000Y-42115699D01*
X96182000Y-42180180D01*
X96185175Y-42279098D01*
X96193162Y-42381279D01*
X96194700Y-42397067D01*
X96210058Y-42490015D01*
X96240301Y-42570815D01*
X96250632Y-42587577D01*
X96295405Y-42630653D01*
X96344497Y-42648376D01*
X96372753Y-42650591D01*
X96400841Y-42648149D01*
X96404505Y-42449335D01*
X96389117Y-42446404D01*
X96338167Y-42436213D01*
X96297526Y-42393159D01*
X96275939Y-42304047D01*
X96266309Y-42203354D01*
X96265775Y-42194346D01*
X96260157Y-41849963D01*
X96260157Y-41791345D01*
X96258936Y-41740542D01*
X96258936Y-41698533D01*
X96258936Y-41662385D01*
X96258936Y-41631610D01*
X96260009Y-41533064D01*
X96260157Y-41526586D01*
X96266019Y-41429866D01*
X96274922Y-41330690D01*
X96291176Y-41249614D01*
X96336292Y-41202638D01*
X96355656Y-41200277D01*
X96404366Y-41211645D01*
X96446775Y-41260813D01*
X96450178Y-41269154D01*
X96470379Y-41365115D01*
X96475967Y-41469939D01*
X96476068Y-41488484D01*
X96477289Y-41844101D01*
X96477289Y-42183110D01*
X96479411Y-42287097D01*
X96486871Y-42388170D01*
X96503282Y-42488826D01*
X96511239Y-42519189D01*
X96546914Y-42589141D01*
X96597236Y-42624902D01*
X96650946Y-42633983D01*
X96700959Y-42625250D01*
X96751276Y-42590859D01*
X96789703Y-42530377D01*
X96792607Y-42523585D01*
X96818749Y-42436614D01*
X96833098Y-42338917D01*
X96838345Y-42235817D01*
X96838524Y-42210954D01*
X96838524Y-41838728D01*
X96838524Y-41636983D01*
X96838524Y-41536233D01*
X96838524Y-41508023D01*
X96838524Y-41415699D01*
X96834757Y-41311337D01*
X96821734Y-41216769D01*
X96793827Y-41133009D01*
X96790897Y-41127493D01*
X96747895Y-41074507D01*
X96695683Y-41047420D01*
X96643863Y-41040542D01*
X96643863Y-41236914D01*
X96692120Y-41253761D01*
X96718113Y-41290159D01*
X96738462Y-41382345D01*
X96744735Y-41452336D01*
G37*
D12*
D13*
G36*
X46819219Y-51460588D02*
G01*
X46819219Y-52378331D01*
X46768612Y-52378331D01*
X46719022Y-52377225D01*
X46677797Y-52372805D01*
X46634270Y-52358904D01*
X46595218Y-52323148D01*
X46569300Y-52259835D01*
X46555196Y-52184204D01*
X46547070Y-52110339D01*
X46540037Y-52019945D01*
X46535507Y-51949685D01*
X46528790Y-51853347D01*
X46520844Y-51769553D01*
X46511017Y-51697634D01*
X46493861Y-51619056D01*
X46470655Y-51558808D01*
X46430788Y-51506854D01*
X46388322Y-51482041D01*
X46349290Y-51472160D01*
X46303378Y-51469015D01*
X46284425Y-51469015D01*
X46240840Y-51471478D01*
X46192437Y-51483622D01*
X46154181Y-51508035D01*
X46119048Y-51559369D01*
X46096123Y-51638101D01*
X46085211Y-51723882D01*
X46080680Y-51803052D01*
X46078792Y-51896034D01*
X46078675Y-51930267D01*
X46078675Y-51957378D01*
X46079802Y-52056060D01*
X46083551Y-52140141D01*
X46093580Y-52231385D01*
X46110554Y-52301107D01*
X46143525Y-52361852D01*
X46180897Y-52392410D01*
X46229455Y-52409678D01*
X46274000Y-52415431D01*
X46307872Y-52416433D01*
X46336400Y-52416433D01*
X46336400Y-52346824D01*
X46307872Y-52346824D01*
X46262677Y-52345242D01*
X46214011Y-52336830D01*
X46169569Y-52312376D01*
X46136163Y-52255602D01*
X46121271Y-52179224D01*
X46115587Y-52095287D01*
X46113911Y-52017237D01*
X46113651Y-51957378D01*
X46113651Y-51930267D01*
X46114352Y-51842900D01*
X46116786Y-51769235D01*
X46123585Y-51690403D01*
X46139451Y-51619300D01*
X46172329Y-51567402D01*
X46213957Y-51545946D01*
X46258229Y-51539327D01*
X46284425Y-51538624D01*
X46303378Y-51538624D01*
X46353306Y-51541828D01*
X46393330Y-51553267D01*
X46431453Y-51583319D01*
X46458764Y-51635866D01*
X46477851Y-51716260D01*
X46488940Y-51804220D01*
X46495687Y-51885780D01*
X46499750Y-51948219D01*
X46504619Y-52022719D01*
X46512490Y-52120505D01*
X46521887Y-52202654D01*
X46538441Y-52290035D01*
X46561665Y-52354838D01*
X46593819Y-52400046D01*
X46637164Y-52428643D01*
X46678375Y-52440985D01*
X46728106Y-52446921D01*
X46766463Y-52447940D01*
X46854000Y-52447940D01*
X46854000Y-51460588D01*
X46819219Y-51460588D01*
G37*
G36*
X46457740Y-50922766D02*
G01*
X46078675Y-50162560D01*
X46078675Y-50262211D01*
X46441327Y-50982483D01*
X46441327Y-51144416D01*
X46078675Y-51144416D01*
X46078675Y-51214025D01*
X46854000Y-51214025D01*
X46854000Y-51144416D01*
X46476302Y-51144416D01*
X46476302Y-50982483D01*
X46854000Y-50232902D01*
X46854000Y-50127023D01*
X46457740Y-50922766D01*
G37*
G36*
X46819219Y-49042584D02*
G01*
X46819219Y-49960327D01*
X46768612Y-49960327D01*
X46719022Y-49959221D01*
X46677797Y-49954801D01*
X46634270Y-49940899D01*
X46595218Y-49905144D01*
X46569300Y-49841831D01*
X46555196Y-49766200D01*
X46547070Y-49692334D01*
X46540037Y-49601941D01*
X46535507Y-49531681D01*
X46528790Y-49435342D01*
X46520844Y-49351549D01*
X46511017Y-49279630D01*
X46493861Y-49201052D01*
X46470655Y-49140803D01*
X46430788Y-49088850D01*
X46388322Y-49064037D01*
X46349290Y-49054156D01*
X46303378Y-49051011D01*
X46284425Y-49051011D01*
X46240840Y-49053474D01*
X46192437Y-49065618D01*
X46154181Y-49090031D01*
X46119048Y-49141365D01*
X46096123Y-49220097D01*
X46085211Y-49305878D01*
X46080680Y-49385048D01*
X46078792Y-49478030D01*
X46078675Y-49512263D01*
X46078675Y-49539374D01*
X46079802Y-49638055D01*
X46083551Y-49722137D01*
X46093580Y-49813381D01*
X46110554Y-49883103D01*
X46143525Y-49943848D01*
X46180897Y-49974406D01*
X46229455Y-49991674D01*
X46274000Y-49997427D01*
X46307872Y-49998429D01*
X46336400Y-49998429D01*
X46336400Y-49928819D01*
X46307872Y-49928819D01*
X46262677Y-49927238D01*
X46214011Y-49918826D01*
X46169569Y-49894372D01*
X46136163Y-49837598D01*
X46121271Y-49761220D01*
X46115587Y-49677283D01*
X46113911Y-49599232D01*
X46113651Y-49539374D01*
X46113651Y-49512263D01*
X46114352Y-49424896D01*
X46116786Y-49351231D01*
X46123585Y-49272398D01*
X46139451Y-49201296D01*
X46172329Y-49149398D01*
X46213957Y-49127942D01*
X46258229Y-49121323D01*
X46284425Y-49120620D01*
X46303378Y-49120620D01*
X46353306Y-49123824D01*
X46393330Y-49135263D01*
X46431453Y-49165314D01*
X46458764Y-49217862D01*
X46477851Y-49298256D01*
X46488940Y-49386216D01*
X46495687Y-49467776D01*
X46499750Y-49530215D01*
X46504619Y-49604715D01*
X46512490Y-49702501D01*
X46521887Y-49784649D01*
X46538441Y-49872031D01*
X46561665Y-49936834D01*
X46593819Y-49982042D01*
X46637164Y-50010639D01*
X46678375Y-50022981D01*
X46728106Y-50028916D01*
X46766463Y-50029936D01*
X46854000Y-50029936D01*
X46854000Y-49042584D01*
X46819219Y-49042584D01*
G37*
D14*
%TO.C,J4*%
X138520110Y-58992648D02*
X138960110Y-58992648D01*
X138066000Y-61784000D02*
X138506000Y-61784000D01*
X138746000Y-61794000D02*
X139186000Y-61794000D01*
D15*
%TA.AperFunction,EtchedComponent*%
G36*
X138796443Y-61280178D02*
G01*
X138829541Y-61292801D01*
X138840298Y-61302794D01*
X138854779Y-61334988D01*
X138859764Y-61368960D01*
X138860473Y-61391185D01*
X138860473Y-61839639D01*
X138652573Y-61839639D01*
X138652573Y-61402982D01*
X138654291Y-61367500D01*
X138661055Y-61332764D01*
X138674286Y-61305700D01*
X138703846Y-61285206D01*
X138740748Y-61277845D01*
X138759600Y-61277148D01*
X138796443Y-61280178D01*
G37*
%TD.AperFunction*%
%TA.AperFunction,EtchedComponent*%
G36*
X138488441Y-61256103D02*
G01*
X138519388Y-61260906D01*
X138549810Y-61278537D01*
X138557172Y-61288261D01*
X138569386Y-61321440D01*
X138572046Y-61334252D01*
X138575979Y-61387595D01*
X138575979Y-61398195D01*
X138575979Y-61839639D01*
X138346195Y-61839639D01*
X138346195Y-61396314D01*
X138347574Y-61361885D01*
X138353173Y-61325881D01*
X138365579Y-61292991D01*
X138368250Y-61288603D01*
X138395388Y-61265462D01*
X138430891Y-61255941D01*
X138452880Y-61254751D01*
X138488441Y-61256103D01*
G37*
%TD.AperFunction*%
%TA.AperFunction,EtchedComponent*%
G36*
X138522989Y-58764980D02*
G01*
X138559427Y-58768812D01*
X138592839Y-58776305D01*
X138606753Y-58781329D01*
X138636743Y-58802460D01*
X138652929Y-58832865D01*
X138656164Y-58847324D01*
X138663515Y-58929218D01*
X138663515Y-59001538D01*
X138663515Y-59022055D01*
X138662584Y-59061146D01*
X138659142Y-59100387D01*
X138652103Y-59136838D01*
X138638645Y-59169810D01*
X138637015Y-59172337D01*
X138609543Y-59194726D01*
X138573302Y-59206131D01*
X138536550Y-59210701D01*
X138505710Y-59211661D01*
X138471167Y-59210242D01*
X138436898Y-59205001D01*
X138402383Y-59192589D01*
X138376628Y-59171312D01*
X138360579Y-59139115D01*
X138352020Y-59103307D01*
X138347651Y-59064647D01*
X138346225Y-59026067D01*
X138346195Y-59019148D01*
X138346195Y-58992648D01*
X138346547Y-58956386D01*
X138347762Y-58921043D01*
X138350367Y-58885508D01*
X138350640Y-58882885D01*
X138356021Y-58849067D01*
X138366163Y-58815216D01*
X138366882Y-58813471D01*
X138389851Y-58785243D01*
X138422528Y-58770863D01*
X138456583Y-58765101D01*
X138485536Y-58763890D01*
X138522989Y-58764980D01*
G37*
%TD.AperFunction*%
%TA.AperFunction,EtchedComponent*%
G36*
X138269600Y-57897622D02*
G01*
X139024567Y-57897622D01*
X139024567Y-62017411D01*
X138182100Y-62017411D01*
X138182100Y-61929911D01*
X138269600Y-61929911D01*
X138937067Y-61929911D01*
X138937067Y-61371694D01*
X138935145Y-61334255D01*
X138928239Y-61296316D01*
X138916311Y-61263548D01*
X138896889Y-61232867D01*
X138870273Y-61209230D01*
X138835623Y-61193329D01*
X138798079Y-61185688D01*
X138765755Y-61183969D01*
X138759600Y-61184228D01*
X138729617Y-61185487D01*
X138693159Y-61191651D01*
X138660241Y-61206754D01*
X138658386Y-61208247D01*
X138638153Y-61237059D01*
X138626813Y-61271587D01*
X138620385Y-61306951D01*
X138619747Y-61311855D01*
X138619865Y-61273194D01*
X138613738Y-61237212D01*
X138597251Y-61204032D01*
X138588801Y-61194911D01*
X138557761Y-61175833D01*
X138523259Y-61166114D01*
X138485709Y-61161925D01*
X138464506Y-61161401D01*
X138452880Y-61161960D01*
X138426589Y-61163223D01*
X138387959Y-61169951D01*
X138355366Y-61181637D01*
X138325510Y-61201064D01*
X138313540Y-61213205D01*
X138294316Y-61243029D01*
X138282001Y-61275699D01*
X138273891Y-61314504D01*
X138270287Y-61352650D01*
X138269600Y-61380585D01*
X138269600Y-61929911D01*
X138182100Y-61929911D01*
X138182100Y-60752612D01*
X138269600Y-60752612D01*
X138270330Y-60793217D01*
X138272518Y-60830232D01*
X138277304Y-60871452D01*
X138284369Y-60907062D01*
X138295855Y-60942389D01*
X138313404Y-60973393D01*
X138316275Y-60976925D01*
X138342466Y-61000786D01*
X138374191Y-61017829D01*
X138411452Y-61028055D01*
X138448596Y-61031411D01*
X138454248Y-61031464D01*
X138464506Y-61031464D01*
X138468781Y-61031464D01*
X138740110Y-61031464D01*
X138740110Y-60951792D01*
X138490665Y-60951792D01*
X138453148Y-60949902D01*
X138418046Y-60943114D01*
X138385829Y-60927687D01*
X138370986Y-60912298D01*
X138357913Y-60879841D01*
X138350940Y-60844834D01*
X138347381Y-60807612D01*
X138346219Y-60770811D01*
X138346195Y-60764238D01*
X138347061Y-60724834D01*
X138349657Y-60689457D01*
X138354874Y-60653274D01*
X138363722Y-60618634D01*
X138370815Y-60600620D01*
X138393098Y-60572490D01*
X138424944Y-60556081D01*
X138462629Y-60548579D01*
X138490665Y-60547277D01*
X138740110Y-60547277D01*
X138740110Y-60467776D01*
X138269600Y-60467776D01*
X138269600Y-60547277D01*
X138335937Y-60547277D01*
X138310799Y-60572602D01*
X138293536Y-60602671D01*
X138280914Y-60637737D01*
X138274182Y-60673507D01*
X138270746Y-60710433D01*
X138269624Y-60746265D01*
X138269600Y-60752612D01*
X138182100Y-60752612D01*
X138182100Y-60090445D01*
X138269600Y-60090445D01*
X138270586Y-60129000D01*
X138273543Y-60163623D01*
X138279485Y-60199049D01*
X138289562Y-60232984D01*
X138297640Y-60250644D01*
X138322060Y-60278053D01*
X138355829Y-60294041D01*
X138389817Y-60300792D01*
X138424328Y-60302619D01*
X138455445Y-60302619D01*
X138663515Y-60302619D01*
X138663515Y-60414433D01*
X138740110Y-60414433D01*
X138740110Y-60302619D01*
X138849531Y-60302619D01*
X138849531Y-60223118D01*
X138740110Y-60223118D01*
X138740110Y-59904602D01*
X138663515Y-59904602D01*
X138663515Y-60223118D01*
X138460061Y-60223118D01*
X138424915Y-60221171D01*
X138389288Y-60212515D01*
X138367908Y-60198498D01*
X138353065Y-60166615D01*
X138347552Y-60132461D01*
X138346195Y-60098310D01*
X138347399Y-60061839D01*
X138352139Y-60025821D01*
X138361411Y-59997267D01*
X138388387Y-59973254D01*
X138423602Y-59966612D01*
X138430141Y-59966492D01*
X138483484Y-59967689D01*
X138483484Y-59892805D01*
X138444835Y-59893581D01*
X138410528Y-59895911D01*
X138375089Y-59900755D01*
X138341644Y-59909233D01*
X138311146Y-59924605D01*
X138289237Y-59954391D01*
X138278729Y-59987162D01*
X138272887Y-60023066D01*
X138270250Y-60058495D01*
X138269600Y-60090445D01*
X138182100Y-60090445D01*
X138182100Y-59570014D01*
X138269600Y-59570014D01*
X138270586Y-59608568D01*
X138273543Y-59643192D01*
X138279485Y-59678617D01*
X138289562Y-59712552D01*
X138297640Y-59730213D01*
X138322060Y-59757621D01*
X138355829Y-59773610D01*
X138389817Y-59780360D01*
X138424328Y-59782187D01*
X138455445Y-59782187D01*
X138483484Y-59782187D01*
X138663515Y-59782187D01*
X138663515Y-59894002D01*
X138740110Y-59894002D01*
X138740110Y-59782187D01*
X138849531Y-59782187D01*
X138849531Y-59702686D01*
X138740110Y-59702686D01*
X138740110Y-59384169D01*
X138663515Y-59384169D01*
X138663515Y-59702686D01*
X138460061Y-59702686D01*
X138424915Y-59700739D01*
X138389288Y-59692084D01*
X138367908Y-59678067D01*
X138353065Y-59646183D01*
X138347552Y-59612030D01*
X138346195Y-59577878D01*
X138347399Y-59541407D01*
X138352139Y-59505390D01*
X138361411Y-59476835D01*
X138388387Y-59452822D01*
X138423602Y-59446181D01*
X138430141Y-59446060D01*
X138483484Y-59447257D01*
X138483484Y-59372372D01*
X138444835Y-59373149D01*
X138410528Y-59375478D01*
X138375089Y-59380322D01*
X138341644Y-59388801D01*
X138311146Y-59404173D01*
X138289237Y-59433959D01*
X138278729Y-59466730D01*
X138272887Y-59502634D01*
X138270250Y-59538064D01*
X138269600Y-59570014D01*
X138182100Y-59570014D01*
X138182100Y-58993674D01*
X138269600Y-58993674D01*
X138270228Y-59033456D01*
X138272112Y-59070226D01*
X138276231Y-59111950D01*
X138282313Y-59148965D01*
X138292201Y-59187169D01*
X138307307Y-59223171D01*
X138309778Y-59227561D01*
X138332724Y-59254275D01*
X138366257Y-59274427D01*
X138403425Y-59286479D01*
X138440339Y-59292839D01*
X138482655Y-59295852D01*
X138483484Y-59295864D01*
X138501094Y-59296120D01*
X138539514Y-59295002D01*
X138574376Y-59291648D01*
X138610551Y-59284909D01*
X138645963Y-59273481D01*
X138664883Y-59264319D01*
X138693025Y-59243293D01*
X138715411Y-59212792D01*
X138727565Y-59178917D01*
X138730536Y-59161908D01*
X138734890Y-59127850D01*
X138736691Y-59112840D01*
X138739776Y-59077989D01*
X138740110Y-59064284D01*
X138740110Y-58992648D01*
X138739822Y-58957148D01*
X138738716Y-58918295D01*
X138736781Y-58883530D01*
X138733474Y-58848136D01*
X138728313Y-58814497D01*
X138717474Y-58779155D01*
X138699489Y-58748353D01*
X138674357Y-58722093D01*
X138668473Y-58717386D01*
X138636824Y-58699535D01*
X138600926Y-58688571D01*
X138563519Y-58682765D01*
X138527003Y-58680601D01*
X138513917Y-58680457D01*
X138485536Y-58681200D01*
X138475558Y-58681461D01*
X138440923Y-58684475D01*
X138402866Y-58691066D01*
X138364879Y-58703120D01*
X138331150Y-58722895D01*
X138311317Y-58744742D01*
X138295062Y-58778567D01*
X138284307Y-58816755D01*
X138277585Y-58855061D01*
X138273674Y-58889950D01*
X138271067Y-58928610D01*
X138269763Y-58971043D01*
X138269600Y-58993674D01*
X138182100Y-58993674D01*
X138182100Y-57985122D01*
X138269600Y-57985122D01*
X138269600Y-58064794D01*
X138536998Y-58064794D01*
X138573179Y-58067551D01*
X138608609Y-58078751D01*
X138635008Y-58101021D01*
X138639922Y-58108904D01*
X138652364Y-58141408D01*
X138659621Y-58179285D01*
X138662686Y-58214391D01*
X138663515Y-58248416D01*
X138662710Y-58287932D01*
X138660294Y-58323517D01*
X138655439Y-58360065D01*
X138647205Y-58395282D01*
X138640605Y-58413744D01*
X138619698Y-58442505D01*
X138589433Y-58459282D01*
X138553425Y-58466952D01*
X138526568Y-58468283D01*
X138269600Y-58468283D01*
X138269600Y-58547784D01*
X138513917Y-58547784D01*
X138741136Y-58547784D01*
X138741136Y-58468283D01*
X138640605Y-58473754D01*
X138673377Y-58461052D01*
X138700939Y-58439928D01*
X138720497Y-58408168D01*
X138722842Y-58401434D01*
X138731189Y-58367693D01*
X138736316Y-58333205D01*
X138739284Y-58294486D01*
X138740110Y-58257135D01*
X138740110Y-58248416D01*
X138739629Y-58211593D01*
X138737939Y-58175328D01*
X138734219Y-58138423D01*
X138732416Y-58127027D01*
X138724001Y-58091796D01*
X138709528Y-58060220D01*
X138696513Y-58041200D01*
X138672928Y-58015820D01*
X138641647Y-57997685D01*
X138632570Y-57994867D01*
X138598162Y-57988205D01*
X138562461Y-57985360D01*
X138547769Y-57985122D01*
X138269600Y-57985122D01*
X138182100Y-57985122D01*
X138182100Y-57897622D01*
X138269600Y-57897622D01*
G37*
%TD.AperFunction*%
D14*
%TO.C,J3*%
X139011000Y-40066000D02*
X138601000Y-40066000D01*
X138990600Y-40894000D02*
X138580600Y-40894000D01*
X138987420Y-41756768D02*
X138577420Y-41756768D01*
X139291000Y-43326000D02*
X138881000Y-43326000D01*
D15*
%TA.AperFunction,EtchedComponent*%
G36*
X138852710Y-42980165D02*
G01*
X138891544Y-42990424D01*
X138914419Y-43004849D01*
X138935737Y-43041099D01*
X138943075Y-43081162D01*
X138944119Y-43107822D01*
X138944119Y-43621318D01*
X138656499Y-43621318D01*
X138656499Y-43159406D01*
X138657742Y-43115250D01*
X138662209Y-43073259D01*
X138672360Y-43033478D01*
X138682486Y-43014033D01*
X138716304Y-42990375D01*
X138754413Y-42981062D01*
X138798383Y-42977637D01*
X138810860Y-42977494D01*
X138852710Y-42980165D01*
G37*
%TD.AperFunction*%
%TA.AperFunction,EtchedComponent*%
G36*
X138633767Y-39816894D02*
G01*
X138641258Y-39818751D01*
X138676719Y-39838344D01*
X138682095Y-39843957D01*
X138701117Y-39878675D01*
X138708864Y-39904920D01*
X138714699Y-39943726D01*
X138715899Y-39955136D01*
X138718585Y-39996154D01*
X138719025Y-40022157D01*
X138719025Y-40083901D01*
X138718376Y-40123751D01*
X138716164Y-40163442D01*
X138712382Y-40198793D01*
X138703706Y-40238415D01*
X138687957Y-40269721D01*
X138658338Y-40295439D01*
X138644384Y-40301766D01*
X138618006Y-40307237D01*
X138593973Y-40309386D01*
X138593973Y-39812303D01*
X138633767Y-39816894D01*
G37*
%TD.AperFunction*%
%TA.AperFunction,EtchedComponent*%
G36*
X138558423Y-41480653D02*
G01*
X138600067Y-41485032D01*
X138638252Y-41493596D01*
X138654154Y-41499337D01*
X138688428Y-41523487D01*
X138706926Y-41558235D01*
X138710623Y-41574760D01*
X138719025Y-41668353D01*
X138719025Y-41751004D01*
X138719025Y-41774451D01*
X138717960Y-41819127D01*
X138714027Y-41863974D01*
X138705982Y-41905632D01*
X138690602Y-41943314D01*
X138688739Y-41946203D01*
X138657343Y-41971789D01*
X138615924Y-41984824D01*
X138573921Y-41990047D01*
X138538676Y-41991144D01*
X138499198Y-41989523D01*
X138460034Y-41983533D01*
X138420588Y-41969348D01*
X138391153Y-41945031D01*
X138372812Y-41908234D01*
X138363030Y-41867311D01*
X138358037Y-41823129D01*
X138356407Y-41779037D01*
X138356373Y-41771130D01*
X138356373Y-41740845D01*
X138356775Y-41699402D01*
X138358164Y-41659010D01*
X138361141Y-41618399D01*
X138361453Y-41615402D01*
X138367603Y-41576752D01*
X138379193Y-41538065D01*
X138380016Y-41536071D01*
X138406265Y-41503810D01*
X138443611Y-41487376D01*
X138482530Y-41480791D01*
X138515619Y-41479407D01*
X138558423Y-41480653D01*
G37*
%TD.AperFunction*%
%TA.AperFunction,EtchedComponent*%
G36*
X138588526Y-40635682D02*
G01*
X138630171Y-40639761D01*
X138670744Y-40648734D01*
X138682682Y-40653085D01*
X138716827Y-40676483D01*
X138733133Y-40712527D01*
X138733679Y-40715415D01*
X138738450Y-40754684D01*
X138739151Y-40761529D01*
X138741493Y-40800617D01*
X138741495Y-40801780D01*
X138742668Y-40872317D01*
X138742668Y-40912087D01*
X138742668Y-40915890D01*
X138740651Y-40955788D01*
X138740518Y-40957118D01*
X138739074Y-40996728D01*
X138738760Y-40999323D01*
X138732840Y-41039736D01*
X138731530Y-41048367D01*
X138719874Y-41086318D01*
X138690476Y-41115922D01*
X138679751Y-41121249D01*
X138639029Y-41132918D01*
X138599472Y-41138135D01*
X138557823Y-41140230D01*
X138540630Y-41140398D01*
X138500147Y-41139558D01*
X138480839Y-41138249D01*
X138441954Y-41130956D01*
X138432577Y-41128284D01*
X138396788Y-41108214D01*
X138376108Y-41079240D01*
X138363407Y-41044459D01*
X138356710Y-41005018D01*
X138356373Y-40992094D01*
X138356373Y-40868995D01*
X138356373Y-40850042D01*
X138356373Y-40756057D01*
X138363387Y-40716524D01*
X138373372Y-40688256D01*
X138398526Y-40658226D01*
X138425738Y-40645855D01*
X138466204Y-40637721D01*
X138508359Y-40634699D01*
X138522654Y-40634522D01*
X138545124Y-40634522D01*
X138588526Y-40635682D01*
G37*
%TD.AperFunction*%
%TA.AperFunction,EtchedComponent*%
G36*
X138542584Y-39617928D02*
G01*
X139131656Y-39617928D01*
X139131656Y-43824486D01*
X138168836Y-43824486D01*
X138168836Y-43724486D01*
X138268836Y-43724486D01*
X139031656Y-43724486D01*
X139031656Y-43098834D01*
X139030035Y-43054714D01*
X139025171Y-43015706D01*
X139015399Y-42976655D01*
X138998827Y-42940544D01*
X138985543Y-42922588D01*
X138953391Y-42897558D01*
X138914379Y-42882186D01*
X138872190Y-42874045D01*
X138830044Y-42871011D01*
X138814768Y-42870809D01*
X138810860Y-42870896D01*
X138774418Y-42871706D01*
X138735279Y-42874764D01*
X138701635Y-42879992D01*
X138662381Y-42890854D01*
X138627320Y-42912702D01*
X138623673Y-42916140D01*
X138599102Y-42947501D01*
X138582054Y-42985310D01*
X138573577Y-43024682D01*
X138569780Y-43067668D01*
X138568962Y-43104500D01*
X138568962Y-43621318D01*
X138268836Y-43621318D01*
X138268836Y-43724486D01*
X138168836Y-43724486D01*
X138168836Y-42741653D01*
X138268836Y-42741653D01*
X138807734Y-42741653D01*
X138807734Y-42650795D01*
X138708474Y-42657047D01*
X138745526Y-42640821D01*
X138774276Y-42610608D01*
X138780965Y-42599406D01*
X138795538Y-42560221D01*
X138802962Y-42518027D01*
X138805937Y-42478906D01*
X138806562Y-42447585D01*
X138805646Y-42402330D01*
X138802898Y-42361455D01*
X138797183Y-42318185D01*
X138787181Y-42275673D01*
X138771354Y-42237599D01*
X138769046Y-42233628D01*
X138740047Y-42203592D01*
X138700828Y-42185145D01*
X138656132Y-42175376D01*
X138610112Y-42171735D01*
X138593191Y-42171493D01*
X138563491Y-42173056D01*
X138563491Y-42262351D01*
X138606844Y-42264171D01*
X138645982Y-42270568D01*
X138682298Y-42286262D01*
X138688543Y-42291465D01*
X138708279Y-42326377D01*
X138716614Y-42368768D01*
X138718995Y-42412408D01*
X138719025Y-42418471D01*
X138719025Y-42445435D01*
X138717988Y-42485252D01*
X138714156Y-42525854D01*
X138706318Y-42564539D01*
X138691336Y-42601320D01*
X138689520Y-42604291D01*
X138657528Y-42632629D01*
X138615796Y-42646253D01*
X138572547Y-42650613D01*
X138560365Y-42650795D01*
X138268836Y-42650795D01*
X138268836Y-42741653D01*
X138168836Y-42741653D01*
X138168836Y-41742017D01*
X138268836Y-41742017D01*
X138269554Y-41787482D01*
X138271706Y-41829504D01*
X138276415Y-41877188D01*
X138283365Y-41919492D01*
X138294665Y-41963153D01*
X138311929Y-42004298D01*
X138314754Y-42009315D01*
X138340978Y-42039846D01*
X138379301Y-42062877D01*
X138421778Y-42076650D01*
X138463966Y-42083919D01*
X138512328Y-42087362D01*
X138533400Y-42087668D01*
X138577309Y-42086391D01*
X138593191Y-42084863D01*
X138617151Y-42082558D01*
X138658494Y-42074856D01*
X138698965Y-42061795D01*
X138720588Y-42051325D01*
X138752750Y-42027295D01*
X138778335Y-41992436D01*
X138792224Y-41953723D01*
X138795619Y-41934284D01*
X138800596Y-41895360D01*
X138802654Y-41878206D01*
X138806180Y-41838376D01*
X138806562Y-41822714D01*
X138806562Y-41740845D01*
X138806232Y-41700274D01*
X138804968Y-41655870D01*
X138802757Y-41616138D01*
X138798978Y-41575688D01*
X138793079Y-41537244D01*
X138780692Y-41496852D01*
X138760137Y-41461651D01*
X138731416Y-41431639D01*
X138724691Y-41426260D01*
X138688521Y-41405858D01*
X138647494Y-41393328D01*
X138604744Y-41386693D01*
X138563010Y-41384220D01*
X138548055Y-41384055D01*
X138515619Y-41384904D01*
X138504216Y-41385203D01*
X138464634Y-41388646D01*
X138421140Y-41396180D01*
X138377726Y-41409955D01*
X138339179Y-41432555D01*
X138316513Y-41457523D01*
X138297936Y-41496181D01*
X138285644Y-41539824D01*
X138277962Y-41583603D01*
X138273492Y-41623475D01*
X138270513Y-41667659D01*
X138269023Y-41716153D01*
X138268836Y-41742017D01*
X138168836Y-41742017D01*
X138168836Y-41232429D01*
X138268836Y-41232429D01*
X138548055Y-41232429D01*
X138814768Y-41232429D01*
X139031656Y-41232429D01*
X139031656Y-41141570D01*
X138747552Y-41141570D01*
X138778300Y-41113715D01*
X138795277Y-41076449D01*
X138796401Y-41072987D01*
X138806636Y-41031043D01*
X138811849Y-40991883D01*
X138814219Y-40948364D01*
X138814377Y-40932889D01*
X138814377Y-40873489D01*
X138813620Y-40828592D01*
X138811349Y-40787198D01*
X138806380Y-40740386D01*
X138799045Y-40699050D01*
X138787120Y-40656675D01*
X138768901Y-40617205D01*
X138765920Y-40612443D01*
X138738662Y-40583435D01*
X138699118Y-40561552D01*
X138655445Y-40548466D01*
X138612156Y-40541560D01*
X138573012Y-40538652D01*
X138541021Y-40537997D01*
X138522654Y-40538498D01*
X138499405Y-40539133D01*
X138452889Y-40543747D01*
X138412489Y-40551910D01*
X138372081Y-40566391D01*
X138336069Y-40589744D01*
X138317685Y-40610684D01*
X138298651Y-40648048D01*
X138286058Y-40688929D01*
X138278186Y-40729242D01*
X138272700Y-40775231D01*
X138270029Y-40816110D01*
X138268884Y-40860621D01*
X138268836Y-40872317D01*
X138268836Y-40940705D01*
X138269704Y-40980785D01*
X138272752Y-41020095D01*
X138279458Y-41059828D01*
X138282709Y-41072010D01*
X138298626Y-41108021D01*
X138326066Y-41138551D01*
X138330190Y-41141570D01*
X138268836Y-41141570D01*
X138268836Y-41232429D01*
X138168836Y-41232429D01*
X138168836Y-40024501D01*
X138268836Y-40024501D01*
X138269147Y-40069238D01*
X138270077Y-40110024D01*
X138272012Y-40153755D01*
X138275398Y-40197584D01*
X138280756Y-40238196D01*
X138281537Y-40242561D01*
X138293749Y-40283193D01*
X138314510Y-40319360D01*
X138343819Y-40351062D01*
X138350707Y-40356867D01*
X138388205Y-40378969D01*
X138431164Y-40392543D01*
X138476186Y-40399732D01*
X138520299Y-40402411D01*
X138536136Y-40402589D01*
X138541021Y-40402426D01*
X138582885Y-40401025D01*
X138624701Y-40396331D01*
X138668369Y-40386567D01*
X138704934Y-40372297D01*
X138738617Y-40349953D01*
X138750093Y-40338500D01*
X138772096Y-40305523D01*
X138788694Y-40262840D01*
X138798621Y-40218531D01*
X138803859Y-40176160D01*
X138806341Y-40128837D01*
X138806562Y-40108521D01*
X138806562Y-40054592D01*
X138806169Y-40013851D01*
X138804846Y-39973304D01*
X138803240Y-39945562D01*
X138799436Y-39906372D01*
X138792890Y-39867355D01*
X138791907Y-39862910D01*
X138779038Y-39824144D01*
X138757774Y-39790645D01*
X138728114Y-39762412D01*
X138721174Y-39757397D01*
X138684138Y-39738318D01*
X138642550Y-39726600D01*
X138599468Y-39720395D01*
X138593973Y-39720092D01*
X138557570Y-39718082D01*
X138542584Y-39717928D01*
X138506436Y-39719295D01*
X138506436Y-40311536D01*
X138464194Y-40308788D01*
X138424080Y-40298636D01*
X138409911Y-40291996D01*
X138381821Y-40263277D01*
X138366645Y-40225587D01*
X138362235Y-40206023D01*
X138356373Y-40149358D01*
X138356373Y-40056937D01*
X138356373Y-40014341D01*
X138356373Y-40000859D01*
X138356931Y-39959500D01*
X138358913Y-39921138D01*
X138364860Y-39882277D01*
X138369855Y-39864473D01*
X138389879Y-39830161D01*
X138391544Y-39828716D01*
X138428181Y-39814165D01*
X138431405Y-39813671D01*
X138431405Y-39719100D01*
X138389498Y-39723223D01*
X138350352Y-39738034D01*
X138320536Y-39763615D01*
X138300050Y-39799968D01*
X138298146Y-39805269D01*
X138286725Y-39845145D01*
X138278110Y-39889546D01*
X138272958Y-39931207D01*
X138269867Y-39976192D01*
X138268865Y-40016219D01*
X138268836Y-40024501D01*
X138168836Y-40024501D01*
X138168836Y-39617928D01*
X138542584Y-39617928D01*
G37*
%TD.AperFunction*%
%TD*%
D16*
%TO.P,J4,1,Pin_1*%
%TO.N,Net-(J1-Pin_2)*%
X143256000Y-59944000D03*
%TD*%
D17*
%TO.P,J3,1,Pin_1*%
%TO.N,Net-(J1-Pin_1)*%
X143256000Y-41656000D03*
%TD*%
D18*
%TO.P,REF\u002A\u002A,1*%
%TO.N,N/C*%
X114300000Y-41910000D03*
X111760000Y-41910000D03*
X114300000Y-44450000D03*
X111760000Y-44450000D03*
X114300000Y-46990000D03*
X111760000Y-46990000D03*
X114300000Y-49530000D03*
X111760000Y-49530000D03*
X114300000Y-52070000D03*
X111760000Y-52070000D03*
X114300000Y-54610000D03*
X111760000Y-54610000D03*
X114300000Y-57150000D03*
X111760000Y-57150000D03*
X114300000Y-59690000D03*
X111760000Y-59690000D03*
%TD*%
D19*
%TO.P,REF\u002A\u002A,1*%
%TO.N,N/C*%
X99060000Y-44450000D03*
X99060000Y-46990000D03*
X101600000Y-44450000D03*
X101600000Y-46990000D03*
X104140000Y-44450000D03*
X104140000Y-46990000D03*
X106680000Y-44450000D03*
X106680000Y-46990000D03*
X109220000Y-44450000D03*
X109220000Y-46990000D03*
X111760000Y-44450000D03*
X111760000Y-46990000D03*
X114300000Y-44450000D03*
X114300000Y-46990000D03*
X116840000Y-44450000D03*
X116840000Y-46990000D03*
%TD*%
D20*
%TO.P,REF\u002A\u002A,1*%
%TO.N,N/C*%
X106680000Y-59690000D03*
X109220000Y-59690000D03*
X106680000Y-57150000D03*
X109220000Y-57150000D03*
X106680000Y-54610000D03*
X109220000Y-54610000D03*
X106680000Y-52070000D03*
X109220000Y-52070000D03*
X106680000Y-49530000D03*
X109220000Y-49530000D03*
X106680000Y-46990000D03*
X109220000Y-46990000D03*
X106680000Y-44450000D03*
X109220000Y-44450000D03*
X106680000Y-41910000D03*
X109220000Y-41910000D03*
%TD*%
D18*
%TO.P,REF\u002A\u002A,1*%
%TO.N,N/C*%
X119380000Y-41910000D03*
X116840000Y-41910000D03*
X119380000Y-44450000D03*
X116840000Y-44450000D03*
X119380000Y-46990000D03*
X116840000Y-46990000D03*
X119380000Y-49530000D03*
X116840000Y-49530000D03*
X119380000Y-52070000D03*
X116840000Y-52070000D03*
X119380000Y-54610000D03*
X116840000Y-54610000D03*
X119380000Y-57150000D03*
X116840000Y-57150000D03*
X119380000Y-59690000D03*
X116840000Y-59690000D03*
%TD*%
D19*
%TO.P,REF\u002A\u002A,1*%
%TO.N,N/C*%
X114300000Y-44450000D03*
X114300000Y-46990000D03*
X116840000Y-44450000D03*
X116840000Y-46990000D03*
X119380000Y-44450000D03*
X119380000Y-46990000D03*
X121920000Y-44450000D03*
X121920000Y-46990000D03*
X124460000Y-44450000D03*
X124460000Y-46990000D03*
X127000000Y-44450000D03*
X127000000Y-46990000D03*
X129540000Y-44450000D03*
X129540000Y-46990000D03*
X132080000Y-44450000D03*
X132080000Y-46990000D03*
%TD*%
D18*
%TO.P,REF\u002A\u002A,1*%
%TO.N,N/C*%
X124460000Y-41910000D03*
X121920000Y-41910000D03*
X124460000Y-44450000D03*
X121920000Y-44450000D03*
X124460000Y-46990000D03*
X121920000Y-46990000D03*
X124460000Y-49530000D03*
X121920000Y-49530000D03*
X124460000Y-52070000D03*
X121920000Y-52070000D03*
X124460000Y-54610000D03*
X121920000Y-54610000D03*
X124460000Y-57150000D03*
X121920000Y-57150000D03*
X124460000Y-59690000D03*
X121920000Y-59690000D03*
%TD*%
D20*
%TO.P,REF\u002A\u002A,1*%
%TO.N,N/C*%
X101600000Y-59690000D03*
X104140000Y-59690000D03*
X101600000Y-57150000D03*
X104140000Y-57150000D03*
X101600000Y-54610000D03*
X104140000Y-54610000D03*
X101600000Y-52070000D03*
X104140000Y-52070000D03*
X101600000Y-49530000D03*
X104140000Y-49530000D03*
X101600000Y-46990000D03*
X104140000Y-46990000D03*
X101600000Y-44450000D03*
X104140000Y-44450000D03*
X101600000Y-41910000D03*
X104140000Y-41910000D03*
%TD*%
D21*
%TO.P,J2,1,Pin_1*%
%TO.N,Net-(J2-Pin_1)*%
X28201300Y-48892994D03*
X28201300Y-48892994D03*
D22*
X28201300Y-52702994D03*
X28201300Y-52702994D03*
D21*
X30741300Y-48892994D03*
X30741300Y-48892994D03*
D22*
X30741300Y-52702994D03*
X30741300Y-52702994D03*
D23*
X32321300Y-50787994D03*
D21*
X33281300Y-48892994D03*
X33281300Y-48892994D03*
D22*
X33281300Y-52702994D03*
X33281300Y-52702994D03*
D21*
X35821300Y-48892994D03*
X35821300Y-48892994D03*
D22*
X35821300Y-52702994D03*
X35821300Y-52702994D03*
D21*
X38361300Y-48892994D03*
X38361300Y-48892994D03*
D22*
X38361300Y-52702994D03*
X38361300Y-52702994D03*
%TD*%
D18*
%TO.P,REF\u002A\u002A,1*%
%TO.N,N/C*%
X129540000Y-41910000D03*
X127000000Y-41910000D03*
X129540000Y-44450000D03*
X127000000Y-44450000D03*
X129540000Y-46990000D03*
X127000000Y-46990000D03*
X129540000Y-49530000D03*
X127000000Y-49530000D03*
X129540000Y-52070000D03*
X127000000Y-52070000D03*
X129540000Y-54610000D03*
X127000000Y-54610000D03*
X129540000Y-57150000D03*
X127000000Y-57150000D03*
X129540000Y-59690000D03*
X127000000Y-59690000D03*
%TD*%
D24*
%TO.P,J1,1,Pin_1*%
%TO.N,Net-(J1-Pin_1)*%
X139344450Y-49655000D03*
D25*
%TO.P,J1,2,Pin_2*%
%TO.N,Net-(J1-Pin_2)*%
X139344450Y-52195000D03*
D26*
%TO.P,J1,3*%
%TO.N,N/C*%
X139344450Y-47115000D03*
D27*
X146964450Y-48385000D03*
X145694450Y-48385000D03*
X144424450Y-48385000D03*
X143154450Y-48385000D03*
X141884450Y-48385000D03*
X146964450Y-53465000D03*
X145694450Y-53465000D03*
X144424450Y-53465000D03*
X143154450Y-53465000D03*
X141884450Y-53465000D03*
D26*
X139344450Y-54735000D03*
%TD*%
D28*
%TO.P,R1,1*%
%TO.N,Net-(J2-Pin_1)*%
X45056000Y-55880494D03*
D29*
X45056000Y-51784494D03*
%TO.P,R1,2*%
%TO.N,Net-(J1-Pin_1)*%
X45056000Y-49784494D03*
D28*
X45056000Y-45720494D03*
%TD*%
D19*
%TO.P,REF\u002A\u002A,1*%
%TO.N,N/C*%
X99060000Y-49530000D03*
X99060000Y-52070000D03*
X101600000Y-49530000D03*
X101600000Y-52070000D03*
X104140000Y-49530000D03*
X104140000Y-52070000D03*
X106680000Y-49530000D03*
X106680000Y-52070000D03*
X109220000Y-49530000D03*
X109220000Y-52070000D03*
X111760000Y-49530000D03*
X111760000Y-52070000D03*
X114300000Y-49530000D03*
X114300000Y-52070000D03*
X116840000Y-49530000D03*
X116840000Y-52070000D03*
%TD*%
%TO.P,REF\u002A\u002A,1*%
%TO.N,N/C*%
X99060000Y-54610000D03*
X99060000Y-57150000D03*
X101600000Y-54610000D03*
X101600000Y-57150000D03*
X104140000Y-54610000D03*
X104140000Y-57150000D03*
X106680000Y-54610000D03*
X106680000Y-57150000D03*
X109220000Y-54610000D03*
X109220000Y-57150000D03*
X111760000Y-54610000D03*
X111760000Y-57150000D03*
X114300000Y-54610000D03*
X114300000Y-57150000D03*
X116840000Y-54610000D03*
X116840000Y-57150000D03*
%TD*%
%TO.P,REF\u002A\u002A,1*%
%TO.N,N/C*%
X114300000Y-54610000D03*
X114300000Y-57150000D03*
X116840000Y-54610000D03*
X116840000Y-57150000D03*
X119380000Y-54610000D03*
X119380000Y-57150000D03*
X121920000Y-54610000D03*
X121920000Y-57150000D03*
X124460000Y-54610000D03*
X124460000Y-57150000D03*
X127000000Y-54610000D03*
X127000000Y-57150000D03*
X129540000Y-54610000D03*
X129540000Y-57150000D03*
X132080000Y-54610000D03*
X132080000Y-57150000D03*
%TD*%
D30*
%TO.P,SW1,1*%
%TO.N,Net-(J1-Pin_1)*%
X48260000Y-46990494D03*
X48260000Y-49530494D03*
X50800000Y-43180494D03*
X50800000Y-45720494D03*
X50800000Y-48260494D03*
X50800000Y-50800494D03*
X53340000Y-41910494D03*
X53340000Y-44450494D03*
X53340000Y-46990494D03*
X53340000Y-49530494D03*
X55880000Y-43180494D03*
X55880000Y-45720494D03*
X55880000Y-48260494D03*
X55880000Y-50800494D03*
X58420000Y-41910494D03*
X58420000Y-44450494D03*
X58420000Y-46990494D03*
X58420000Y-49530494D03*
X60960000Y-43180494D03*
D31*
X61976000Y-45720494D03*
D32*
X61976000Y-50800494D03*
D31*
X61976000Y-55753494D03*
D30*
X63500000Y-41910494D03*
X64643000Y-49530494D03*
X64770000Y-44450494D03*
X66040000Y-41910494D03*
X68072000Y-45720494D03*
X68453000Y-49530494D03*
X68580000Y-41910494D03*
X71120000Y-41910494D03*
X73279000Y-49530494D03*
X73660000Y-41910494D03*
X74422000Y-45720494D03*
X75692000Y-49530494D03*
X76200000Y-41910494D03*
X78740000Y-41910494D03*
X81280000Y-41910494D03*
X81280000Y-44450494D03*
X81280000Y-46990494D03*
X81280000Y-49530494D03*
X83820000Y-43180494D03*
X83820000Y-45720494D03*
X83820000Y-48260494D03*
X83820000Y-50800494D03*
X86360000Y-41910494D03*
X86360000Y-44450494D03*
X86360000Y-46990494D03*
X86360000Y-49530494D03*
X88900000Y-43180494D03*
X88900000Y-45720494D03*
X88900000Y-48260494D03*
X91440000Y-41910494D03*
X91440000Y-44450494D03*
X91440000Y-46990494D03*
X91440000Y-49530494D03*
X93980000Y-43180494D03*
X93980000Y-45720494D03*
X93980000Y-48260494D03*
X93980000Y-50800494D03*
D33*
%TO.P,SW1,2*%
%TO.N,Net-(J1-Pin_2)*%
X48260000Y-52070494D03*
X48260000Y-54610494D03*
X50800000Y-53340494D03*
X50800000Y-55880494D03*
X50800000Y-58420494D03*
X53340000Y-52070494D03*
X53340000Y-54610494D03*
X53340000Y-57150494D03*
X53340000Y-59690494D03*
X55880000Y-53340494D03*
X55880000Y-55880494D03*
X55880000Y-58420494D03*
X58420000Y-52070494D03*
X58420000Y-54610494D03*
X58420000Y-57150494D03*
X58420000Y-59690494D03*
X60960000Y-58420494D03*
X63500000Y-59690494D03*
X64643000Y-52070494D03*
X64770000Y-57150494D03*
X66040000Y-59690494D03*
X68072000Y-55880494D03*
X68453000Y-52070494D03*
X68580000Y-59690494D03*
D34*
X70776000Y-45720494D03*
D35*
X70776000Y-50800494D03*
D34*
X70776000Y-55753494D03*
D33*
X71120000Y-59690494D03*
X73279000Y-52070494D03*
X73660000Y-59690494D03*
X74422000Y-55880494D03*
X75692000Y-52070494D03*
X76200000Y-59690494D03*
X78740000Y-59690494D03*
X81280000Y-52070494D03*
X81280000Y-54610494D03*
X81280000Y-57150494D03*
X81280000Y-59690494D03*
X83820000Y-53340494D03*
X83820000Y-55880494D03*
X83820000Y-58420494D03*
X86360000Y-52070494D03*
X86360000Y-54610494D03*
X86360000Y-57150494D03*
X86360000Y-59690494D03*
X88900000Y-50800494D03*
X88900000Y-53340494D03*
X88900000Y-55880494D03*
X88900000Y-58420494D03*
X91440000Y-52070494D03*
X91440000Y-54610494D03*
X91440000Y-57150494D03*
X91440000Y-59690494D03*
X93980000Y-53340494D03*
X93980000Y-55880494D03*
X93980000Y-58420494D03*
D36*
%TO.P,SW1,3*%
%TO.N,N/C*%
X78076000Y-45720494D03*
D37*
X78076000Y-50800494D03*
D36*
X78076000Y-55753494D03*
%TD*%
D19*
%TO.P,REF\u002A\u002A,1*%
%TO.N,N/C*%
X114300000Y-49530000D03*
X114300000Y-52070000D03*
X116840000Y-49530000D03*
X116840000Y-52070000D03*
X119380000Y-49530000D03*
X119380000Y-52070000D03*
X121920000Y-49530000D03*
X121920000Y-52070000D03*
X124460000Y-49530000D03*
X124460000Y-52070000D03*
X127000000Y-49530000D03*
X127000000Y-52070000D03*
X129540000Y-49530000D03*
X129540000Y-52070000D03*
X132080000Y-49530000D03*
X132080000Y-52070000D03*
%TD*%
D38*
%TO.N,Net-(J1-Pin_1)*%
X63905571Y-45720494D02*
X62694420Y-45720494D01*
X65596631Y-48184294D02*
X64842600Y-48184294D01*
X47655296Y-43121197D02*
X45056000Y-45720494D01*
X81280000Y-41910494D02*
X81280000Y-49530494D01*
X75626456Y-46773037D02*
X75915505Y-46483988D01*
X58166000Y-39370000D02*
X56711481Y-39370000D01*
X60960000Y-43986073D02*
X60960000Y-43180494D01*
X58420000Y-41910494D02*
X58420000Y-49530494D01*
X58166000Y-39370000D02*
X57404000Y-39370000D01*
X66290400Y-47490525D02*
X66290400Y-47447694D01*
X65003980Y-55719113D02*
X66006113Y-54716980D01*
X62201779Y-51664873D02*
X63339861Y-52802955D01*
X74883089Y-47080949D02*
X74844316Y-47119723D01*
X86360000Y-41910494D02*
X86360000Y-49530494D01*
X55880000Y-43180494D02*
X55880000Y-50800494D01*
X63064818Y-48920674D02*
X62255660Y-49729833D01*
X45056000Y-49784494D02*
X45056000Y-45720494D01*
X75692000Y-49163994D02*
X75692000Y-49530494D01*
X76806000Y-42945000D02*
X76806000Y-44152425D01*
X88900000Y-43180494D02*
X88900000Y-48260494D01*
X50800000Y-48260494D02*
X50800000Y-50800494D01*
X75432845Y-48538339D02*
X74844316Y-47949810D01*
X65632552Y-53467494D02*
X64944200Y-53467494D01*
X128270000Y-39370000D02*
X127762000Y-39370000D01*
X53340000Y-41910494D02*
X53340000Y-49530494D01*
X64982300Y-55753494D02*
X61976000Y-55753494D01*
X76298000Y-45560565D02*
X76298000Y-45378846D01*
X93980000Y-43180494D02*
X93980000Y-50800494D01*
X50800000Y-48260494D02*
X50800000Y-43180494D01*
X91440000Y-41910494D02*
X91440000Y-49530494D01*
X76503000Y-42213494D02*
X76200000Y-41910494D01*
X66239600Y-54074541D02*
X66239600Y-54153294D01*
X127762000Y-39370000D02*
X58166000Y-39370000D01*
X139344450Y-49655000D02*
X138555000Y-49655000D01*
X83820000Y-43180494D02*
X83820000Y-50800494D01*
X63500000Y-42545494D02*
X63500000Y-41910494D01*
X63949012Y-43629506D02*
X64770000Y-44450494D01*
X65591900Y-46418994D02*
X66056913Y-46884007D01*
X76298000Y-45560565D02*
G75*
G02*
X75915519Y-46484002I-1305900J-35D01*
G01*
X66239600Y-54153294D02*
G75*
G02*
X66006122Y-54716989I-797200J-6D01*
G01*
X66056913Y-46884007D02*
G75*
G02*
X66290396Y-47447694I-563713J-563693D01*
G01*
X66087199Y-47981093D02*
G75*
G02*
X65596631Y-48184308I-490599J490593D01*
G01*
X61468000Y-45212494D02*
G75*
G03*
X62694420Y-45720487I1226400J1226394D01*
G01*
X65003980Y-55719113D02*
G75*
G03*
X64995007Y-55740794I21720J-21687D01*
G01*
X74672400Y-47534767D02*
G75*
G03*
X74844291Y-47949835I587000J-33D01*
G01*
X66290400Y-47490525D02*
G75*
G02*
X66087194Y-47981088I-693800J25D01*
G01*
X76503000Y-42213494D02*
G75*
G02*
X76806001Y-42945000I-731500J-731506D01*
G01*
X66061800Y-53645294D02*
G75*
G02*
X66239584Y-54074541I-429200J-429206D01*
G01*
X75254773Y-46926994D02*
G75*
G03*
X74883110Y-47080970I27J-525606D01*
G01*
X63339861Y-52802955D02*
G75*
G03*
X64944200Y-53467489I1604339J1604355D01*
G01*
X60960000Y-43986073D02*
G75*
G03*
X61467991Y-45212503I1734400J-27D01*
G01*
X64995000Y-55740794D02*
G75*
G02*
X64982300Y-55753500I-12700J-6D01*
G01*
X66061800Y-53645294D02*
G75*
G03*
X65632552Y-53467516I-429200J-429206D01*
G01*
X75626456Y-46773037D02*
G75*
G02*
X75254773Y-46926958I-371656J371737D01*
G01*
X75432844Y-48538340D02*
G75*
G02*
X75692006Y-49163994I-625644J-625660D01*
G01*
X63500000Y-42545494D02*
G75*
G03*
X63949014Y-43629504I1533000J-6D01*
G01*
X65591900Y-46418994D02*
G75*
G03*
X63905571Y-45720508I-1686300J-1686306D01*
G01*
X74844316Y-47119723D02*
G75*
G03*
X74672388Y-47534767I415084J-415077D01*
G01*
X76552000Y-44765636D02*
G75*
G03*
X76298030Y-45378846I613200J-613164D01*
G01*
X76806000Y-44152425D02*
G75*
G02*
X76551985Y-44765621I-867200J25D01*
G01*
X56711481Y-39370000D02*
G75*
G03*
X47655300Y-43121201I19J-12807400D01*
G01*
X138555000Y-49655000D02*
G75*
G02*
X134620000Y-45720000I0J3935000D01*
G01*
X64842600Y-48184294D02*
G75*
G03*
X63064831Y-48920687I0J-2514106D01*
G01*
X134620000Y-45720000D02*
G75*
G03*
X128270000Y-39370000I-6350000J0D01*
G01*
%TO.N,Net-(J1-Pin_2)*%
X74890100Y-55880494D02*
X74422000Y-55880494D01*
X71643210Y-46228494D02*
X72136400Y-46228494D01*
X73875164Y-47107658D02*
X73912900Y-47145394D01*
X73742592Y-54752901D02*
X73377000Y-55118494D01*
X88900000Y-50800494D02*
X88900000Y-58420494D01*
X86360000Y-52070494D02*
X86360000Y-59690494D01*
X76351352Y-56873646D02*
X75689196Y-56211490D01*
X73964549Y-59610944D02*
X74976671Y-58598822D01*
X73333586Y-46883329D02*
X73062251Y-46611994D01*
X58420000Y-59690494D02*
X58420000Y-52070494D01*
X91440000Y-59690494D02*
X91440000Y-52070494D01*
X83820000Y-53340494D02*
X83820000Y-58420494D01*
X63949012Y-57971481D02*
X64770000Y-57150494D01*
X55880000Y-53340494D02*
X55880000Y-58420494D01*
X74012000Y-54102494D02*
X74012000Y-53990901D01*
X63500000Y-59055494D02*
X63500000Y-59690494D01*
X73552853Y-48255494D02*
X73033415Y-48255494D01*
X75713800Y-58293494D02*
X75822310Y-58293494D01*
X72083888Y-52936382D02*
X71068742Y-51921236D01*
X81280000Y-52070494D02*
X81280000Y-59690494D01*
X76602800Y-57513004D02*
X76602800Y-57480694D01*
X71843974Y-55753494D02*
X70776000Y-55753494D01*
X71136005Y-49422239D02*
X71786093Y-48772151D01*
X73059500Y-53340494D02*
X73361592Y-53340494D01*
X74062800Y-47745547D02*
X74062800Y-47507284D01*
X73772500Y-59690494D02*
X73660000Y-59690494D01*
X93980000Y-53340494D02*
X93980000Y-58420494D01*
X53340000Y-59690494D02*
X53340000Y-52070494D01*
X71030000Y-45974494D02*
X70776000Y-45720494D01*
X75713800Y-58293494D02*
G75*
G03*
X74976682Y-58598833I0J-1042406D01*
G01*
X73377000Y-55118494D02*
G75*
G02*
X71843974Y-55753485I-1533000J1532994D01*
G01*
X73875164Y-47107658D02*
G75*
G03*
X73604375Y-46995498I-270764J-270742D01*
G01*
X73062251Y-46611994D02*
G75*
G03*
X72136400Y-46228481I-925851J-925806D01*
G01*
X75689196Y-56211490D02*
G75*
G03*
X74890100Y-55880498I-799096J-799110D01*
G01*
X73964548Y-59610943D02*
G75*
G02*
X73772500Y-59690494I-192048J192043D01*
G01*
X76602800Y-57513004D02*
G75*
G02*
X76374200Y-58064894I-780500J4D01*
G01*
X74062800Y-47745547D02*
G75*
G02*
X73913427Y-48106121I-510000J47D01*
G01*
X63949012Y-57971481D02*
G75*
G03*
X63499988Y-59055494I1083988J-1084019D01*
G01*
X72083888Y-52936382D02*
G75*
G03*
X73059500Y-53340502I975612J975582D01*
G01*
X73033415Y-48255494D02*
G75*
G03*
X71786080Y-48772138I-15J-1764006D01*
G01*
X76374200Y-58064894D02*
G75*
G02*
X75822310Y-58293500I-551900J551894D01*
G01*
X73912900Y-47145394D02*
G75*
G02*
X74062808Y-47507284I-361900J-361906D01*
G01*
X73821500Y-53530994D02*
G75*
G03*
X73361592Y-53340499I-459900J-459906D01*
G01*
X73333586Y-46883329D02*
G75*
G03*
X73604375Y-46995499I270814J270829D01*
G01*
X71030000Y-45974494D02*
G75*
G03*
X71643210Y-46228491I613200J613194D01*
G01*
X73913439Y-48106133D02*
G75*
G02*
X73552853Y-48255517I-360639J360633D01*
G01*
X74012000Y-54102494D02*
G75*
G02*
X73742592Y-54752901I-919800J-6D01*
G01*
X73821500Y-53530994D02*
G75*
G02*
X74012001Y-53990901I-459900J-459906D01*
G01*
X76351352Y-56873646D02*
G75*
G02*
X76602802Y-57480694I-607052J-607054D01*
G01*
%TO.N,Net-(J2-Pin_1)*%
X45056000Y-55880494D02*
X45056000Y-55457994D01*
X43180000Y-53340000D02*
X43180000Y-54004494D01*
X32321300Y-50787994D02*
X40627994Y-50787994D01*
X45056000Y-51784494D02*
X45056000Y-55880494D01*
X40627994Y-50787994D02*
G75*
G02*
X43180006Y-53340000I6J-2552006D01*
G01*
X43180000Y-54004494D02*
G75*
G03*
X45056000Y-55880500I1876000J-6D01*
G01*
%TD*%
M02*
