%TF.GenerationSoftware,KiCad,Pcbnew,8.0.0*%
%TF.CreationDate,2024-02-25T09:59:23-08:00*%
%TF.ProjectId,JumperlessProbe,4a756d70-6572-46c6-9573-7350726f6265,rev?*%
%TF.SameCoordinates,Original*%
%TF.FileFunction,Drillmap*%
%TF.FilePolarity,Positive*%
%FSLAX45Y45*%
G04 Gerber Fmt 4.5, Leading zero omitted, Abs format (unit mm)*
G04 Created by KiCad (PCBNEW 8.0.0) date 2024-02-25 09:59:23*
%MOMM*%
%LPD*%
G01*
G04 APERTURE LIST*
%ADD10C,0.100000*%
%ADD11C,0.120000*%
%ADD12C,0.200000*%
%ADD13C,0.150000*%
%ADD14C,0.390000*%
G04 APERTURE END LIST*
D10*
X4728686Y-4144913D02*
G75*
G02*
X3546245Y-4637980I-1299686J1452463D01*
G01*
X14315445Y-6350049D02*
X5588000Y-6350049D01*
X3546245Y-5522119D02*
G75*
G02*
X4728686Y-6015185I-117245J-1945531D01*
G01*
X3225778Y-5499469D02*
G75*
G02*
X2504445Y-5080099I100806J1003436D01*
G01*
X14823445Y-5842000D02*
G75*
G02*
X14315445Y-6350005I-508005J0D01*
G01*
X14315445Y-3810049D02*
G75*
G02*
X14823391Y-4318000I-5J-507951D01*
G01*
X4728686Y-4144913D02*
G75*
G02*
X5588000Y-3810050I859314J-935137D01*
G01*
X2504445Y-5080099D02*
G75*
G02*
X3225778Y-4660729I822143J-584072D01*
G01*
X3225778Y-4660729D02*
G75*
G02*
X3546245Y-4637980I574242J-5820821D01*
G01*
X5588000Y-6350049D02*
G75*
G02*
X4728686Y-6015185I0J1269999D01*
G01*
X5588000Y-3810049D02*
X14315445Y-3810049D01*
X3546245Y-5522119D02*
G75*
G02*
X3225778Y-5499370I253755J5843309D01*
G01*
X14823445Y-4318000D02*
X14823445Y-5842000D01*
D11*
X5942330Y-5420409D02*
X5942330Y-5179109D01*
X5943600Y-4749849D02*
X5943600Y-4991149D01*
X6023610Y-5351829D02*
X6023610Y-5179109D01*
X6024880Y-4818430D02*
X6024880Y-4991149D01*
X6536690Y-5364529D02*
X6036310Y-5364529D01*
X6536690Y-5445809D02*
X5967730Y-5445809D01*
X6537960Y-4724449D02*
X5969000Y-4724449D01*
X6537960Y-4805729D02*
X6037580Y-4805730D01*
X6628130Y-5763309D02*
X6628130Y-5527089D01*
X6629400Y-4406949D02*
X6629400Y-4643169D01*
X6629400Y-4889549D02*
X6629400Y-5280709D01*
X6709410Y-5694729D02*
X6709410Y-5527089D01*
X6710680Y-4475529D02*
X6710680Y-4643169D01*
X6710680Y-4889549D02*
X6710680Y-5280709D01*
X6767830Y-5364529D02*
X7334250Y-5364529D01*
X6767830Y-5445809D02*
X7334250Y-5445809D01*
X6769100Y-4724449D02*
X7335520Y-4724449D01*
X6769100Y-4805729D02*
X7335520Y-4805729D01*
X6866890Y-5707429D02*
X6722110Y-5707429D01*
X6866890Y-5788709D02*
X6653530Y-5788709D01*
X6868160Y-4381549D02*
X6654800Y-4381549D01*
X6868160Y-4462829D02*
X6723380Y-4462829D01*
X7075170Y-5707569D02*
X7580630Y-5707429D01*
X7075170Y-5788849D02*
X7580630Y-5788709D01*
X7076440Y-4381409D02*
X7581900Y-4381549D01*
X7076440Y-4462689D02*
X7581900Y-4462829D01*
X7542530Y-5364529D02*
X7895590Y-5364529D01*
X7542530Y-5445809D02*
X7895590Y-5445809D01*
X7543800Y-4724449D02*
X7896860Y-4724449D01*
X7543800Y-4805729D02*
X7896860Y-4805729D01*
X7786370Y-4462829D02*
X7932420Y-4462829D01*
X7786370Y-5707429D02*
X7931150Y-5707429D01*
X7786370Y-5788709D02*
X7999730Y-5788709D01*
X7787640Y-4381549D02*
X8001000Y-4381549D01*
X7943850Y-5694729D02*
X7943850Y-5527089D01*
X7945120Y-4475529D02*
X7945120Y-4643169D01*
X7945120Y-5298489D02*
X7945120Y-4861609D01*
X8025130Y-5763309D02*
X8025130Y-5527089D01*
X8026400Y-4406949D02*
X8026400Y-4643169D01*
X8026400Y-5298489D02*
X8026400Y-4861609D01*
X5942330Y-5179109D02*
G75*
G02*
X6023610Y-5179109I40640J0D01*
G01*
X5943600Y-4749849D02*
G75*
G02*
X5969000Y-4724449I25400J0D01*
G01*
X5967730Y-5445809D02*
G75*
G02*
X5942330Y-5420409I0J25400D01*
G01*
X6024880Y-4991149D02*
G75*
G02*
X5943600Y-4991149I-40640J0D01*
G01*
X6024880Y-4818430D02*
G75*
G02*
X6037580Y-4805730I12700J0D01*
G01*
X6036310Y-5364529D02*
G75*
G02*
X6023610Y-5351829I0J12700D01*
G01*
X6536690Y-5364529D02*
G75*
G02*
X6536690Y-5445809I0J-40640D01*
G01*
X6537960Y-4724449D02*
G75*
G02*
X6537960Y-4805729I0J-40640D01*
G01*
X6628130Y-5527089D02*
G75*
G02*
X6709410Y-5527089I40640J0D01*
G01*
X6629400Y-4406949D02*
G75*
G02*
X6654800Y-4381549I25400J0D01*
G01*
X6629400Y-4889549D02*
G75*
G02*
X6710680Y-4889549I40640J0D01*
G01*
X6653530Y-5788709D02*
G75*
G02*
X6628130Y-5763309I0J25400D01*
G01*
X6710680Y-4475529D02*
G75*
G02*
X6723380Y-4462829I12700J0D01*
G01*
X6710680Y-4643169D02*
G75*
G02*
X6629400Y-4643169I-40640J0D01*
G01*
X6710680Y-5280709D02*
G75*
G02*
X6629400Y-5280709I-40640J0D01*
G01*
X6722110Y-5707429D02*
G75*
G02*
X6709410Y-5694729I0J12700D01*
G01*
X6767830Y-5445809D02*
G75*
G02*
X6767830Y-5364529I0J40640D01*
G01*
X6769100Y-4805729D02*
G75*
G02*
X6769100Y-4724449I0J40640D01*
G01*
X6866890Y-5707429D02*
G75*
G02*
X6866890Y-5788709I0J-40640D01*
G01*
X6868160Y-4381549D02*
G75*
G02*
X6868160Y-4462829I0J-40640D01*
G01*
X7075170Y-5788849D02*
G75*
G02*
X7075170Y-5707569I0J40640D01*
G01*
X7076440Y-4462689D02*
G75*
G02*
X7076440Y-4381409I0J40640D01*
G01*
X7334250Y-5364529D02*
G75*
G02*
X7334250Y-5445809I0J-40640D01*
G01*
X7335520Y-4724449D02*
G75*
G02*
X7335520Y-4805729I0J-40640D01*
G01*
X7542530Y-5445809D02*
G75*
G02*
X7542530Y-5364529I0J40640D01*
G01*
X7543800Y-4805729D02*
G75*
G02*
X7543800Y-4724449I0J40640D01*
G01*
X7580630Y-5707429D02*
G75*
G02*
X7580630Y-5788709I0J-40640D01*
G01*
X7581900Y-4381549D02*
G75*
G02*
X7581900Y-4462829I0J-40640D01*
G01*
X7786370Y-4462829D02*
G75*
G02*
X7787640Y-4381530I1270J40640D01*
G01*
X7786370Y-5788709D02*
G75*
G02*
X7786370Y-5707429I0J40640D01*
G01*
X7895590Y-5364529D02*
G75*
G02*
X7895590Y-5445809I0J-40640D01*
G01*
X7896860Y-4724449D02*
G75*
G02*
X7896860Y-4805729I0J-40640D01*
G01*
X7932420Y-4462829D02*
G75*
G02*
X7945120Y-4475529I0J-12700D01*
G01*
X7943850Y-5527089D02*
G75*
G02*
X8025130Y-5527089I40640J0D01*
G01*
X7943850Y-5694729D02*
G75*
G02*
X7931150Y-5707429I-12700J0D01*
G01*
X7945120Y-4861609D02*
G75*
G02*
X8026400Y-4861609I40640J0D01*
G01*
X8001000Y-4381549D02*
G75*
G02*
X8026400Y-4406949I0J-25400D01*
G01*
X8025130Y-5763309D02*
G75*
G02*
X7999730Y-5788709I-25400J0D01*
G01*
X8026400Y-4643169D02*
G75*
G02*
X7945120Y-4643169I-40640J0D01*
G01*
X8026400Y-5298489D02*
G75*
G02*
X7945120Y-5298489I-40640J0D01*
G01*
D12*
D10*
X14153445Y-4803500D02*
X14223445Y-4873500D01*
X14223445Y-4803500D02*
X14153445Y-4873500D01*
X14153445Y-5311500D02*
X14223445Y-5381500D01*
X14223445Y-5311500D02*
X14153445Y-5381500D01*
X14280445Y-4803500D02*
X14350445Y-4873500D01*
X14350445Y-4803500D02*
X14280445Y-4873500D01*
X14280445Y-5311500D02*
X14350445Y-5381500D01*
X14350445Y-5311500D02*
X14280445Y-5381500D01*
X14407445Y-4803500D02*
X14477445Y-4873500D01*
X14477445Y-4803500D02*
X14407445Y-4873500D01*
X14407445Y-5311500D02*
X14477445Y-5381500D01*
X14477445Y-5311500D02*
X14407445Y-5381500D01*
X14534445Y-4803500D02*
X14604445Y-4873500D01*
X14604445Y-4803500D02*
X14534445Y-4873500D01*
X14534445Y-5311500D02*
X14604445Y-5381500D01*
X14604445Y-5311500D02*
X14534445Y-5381500D01*
X14661445Y-4803500D02*
X14731445Y-4873500D01*
X14731445Y-4803500D02*
X14661445Y-4873500D01*
X14661445Y-5311500D02*
X14731445Y-5381500D01*
X14731445Y-5311500D02*
X14661445Y-5381500D01*
X13974445Y-4711500D02*
G75*
G02*
X13894445Y-4711500I-40000J0D01*
G01*
X13894445Y-4711500D02*
G75*
G02*
X13974445Y-4711500I40000J0D01*
G01*
X13974445Y-5473500D02*
G75*
G02*
X13894445Y-5473500I-40000J0D01*
G01*
X13894445Y-5473500D02*
G75*
G02*
X13974445Y-5473500I40000J0D01*
G01*
X6197600Y-5037549D02*
X6197600Y-5122549D01*
X6155100Y-5080049D02*
X6240100Y-5080049D01*
X6155100Y-4922549D02*
X6155100Y-5237549D01*
X6240100Y-5237549D02*
G75*
G02*
X6155100Y-5237549I-42500J0D01*
G01*
X6240100Y-5237549D02*
X6240100Y-4922549D01*
X6240100Y-4922549D02*
G75*
G03*
X6155100Y-4922549I-42500J0D01*
G01*
X7077600Y-5037549D02*
X7077600Y-5122549D01*
X7035100Y-5080049D02*
X7120100Y-5080049D01*
X7035100Y-4922549D02*
X7035100Y-5237549D01*
X7120100Y-5237549D02*
G75*
G02*
X7035100Y-5237549I-42500J0D01*
G01*
X7120100Y-5237549D02*
X7120100Y-4922549D01*
X7120100Y-4922549D02*
G75*
G03*
X7035100Y-4922549I-42500J0D01*
G01*
X7807600Y-5037549D02*
X7807600Y-5122549D01*
X7765100Y-5080049D02*
X7850100Y-5080049D01*
X7765100Y-4922549D02*
X7765100Y-5237549D01*
X7850100Y-5237549D02*
G75*
G02*
X7765100Y-5237549I-42500J0D01*
G01*
X7850100Y-5237549D02*
X7850100Y-4922549D01*
X7850100Y-4922549D02*
G75*
G03*
X7765100Y-4922549I-42500J0D01*
G01*
X9906000Y-4402500D02*
X9906000Y-4487500D01*
X9863500Y-4445000D02*
X9948500Y-4445000D01*
X9906000Y-4656500D02*
X9906000Y-4741500D01*
X9863500Y-4699000D02*
X9948500Y-4699000D01*
X9906000Y-4910500D02*
X9906000Y-4995500D01*
X9863500Y-4953000D02*
X9948500Y-4953000D01*
X9906000Y-5164500D02*
X9906000Y-5249500D01*
X9863500Y-5207000D02*
X9948500Y-5207000D01*
X9906000Y-5418500D02*
X9906000Y-5503500D01*
X9863500Y-5461000D02*
X9948500Y-5461000D01*
X9906000Y-5672500D02*
X9906000Y-5757500D01*
X9863500Y-5715000D02*
X9948500Y-5715000D01*
X10160000Y-4148500D02*
X10160000Y-4233500D01*
X10117500Y-4191000D02*
X10202500Y-4191000D01*
X10160000Y-4402500D02*
X10160000Y-4487500D01*
X10117500Y-4445000D02*
X10202500Y-4445000D01*
X10160000Y-4402500D02*
X10160000Y-4487500D01*
X10117500Y-4445000D02*
X10202500Y-4445000D01*
X10160000Y-4656500D02*
X10160000Y-4741500D01*
X10117500Y-4699000D02*
X10202500Y-4699000D01*
X10160000Y-4656500D02*
X10160000Y-4741500D01*
X10117500Y-4699000D02*
X10202500Y-4699000D01*
X10160000Y-4910500D02*
X10160000Y-4995500D01*
X10117500Y-4953000D02*
X10202500Y-4953000D01*
X10160000Y-4910500D02*
X10160000Y-4995500D01*
X10117500Y-4953000D02*
X10202500Y-4953000D01*
X10160000Y-5164500D02*
X10160000Y-5249500D01*
X10117500Y-5207000D02*
X10202500Y-5207000D01*
X10160000Y-5164500D02*
X10160000Y-5249500D01*
X10117500Y-5207000D02*
X10202500Y-5207000D01*
X10160000Y-5418500D02*
X10160000Y-5503500D01*
X10117500Y-5461000D02*
X10202500Y-5461000D01*
X10160000Y-5418500D02*
X10160000Y-5503500D01*
X10117500Y-5461000D02*
X10202500Y-5461000D01*
X10160000Y-5672500D02*
X10160000Y-5757500D01*
X10117500Y-5715000D02*
X10202500Y-5715000D01*
X10160000Y-5672500D02*
X10160000Y-5757500D01*
X10117500Y-5715000D02*
X10202500Y-5715000D01*
X10160000Y-5926500D02*
X10160000Y-6011500D01*
X10117500Y-5969000D02*
X10202500Y-5969000D01*
X10414000Y-4148500D02*
X10414000Y-4233500D01*
X10371500Y-4191000D02*
X10456500Y-4191000D01*
X10414000Y-4402500D02*
X10414000Y-4487500D01*
X10371500Y-4445000D02*
X10456500Y-4445000D01*
X10414000Y-4402500D02*
X10414000Y-4487500D01*
X10371500Y-4445000D02*
X10456500Y-4445000D01*
X10414000Y-4656500D02*
X10414000Y-4741500D01*
X10371500Y-4699000D02*
X10456500Y-4699000D01*
X10414000Y-4656500D02*
X10414000Y-4741500D01*
X10371500Y-4699000D02*
X10456500Y-4699000D01*
X10414000Y-4910500D02*
X10414000Y-4995500D01*
X10371500Y-4953000D02*
X10456500Y-4953000D01*
X10414000Y-4910500D02*
X10414000Y-4995500D01*
X10371500Y-4953000D02*
X10456500Y-4953000D01*
X10414000Y-5164500D02*
X10414000Y-5249500D01*
X10371500Y-5207000D02*
X10456500Y-5207000D01*
X10414000Y-5164500D02*
X10414000Y-5249500D01*
X10371500Y-5207000D02*
X10456500Y-5207000D01*
X10414000Y-5418500D02*
X10414000Y-5503500D01*
X10371500Y-5461000D02*
X10456500Y-5461000D01*
X10414000Y-5418500D02*
X10414000Y-5503500D01*
X10371500Y-5461000D02*
X10456500Y-5461000D01*
X10414000Y-5672500D02*
X10414000Y-5757500D01*
X10371500Y-5715000D02*
X10456500Y-5715000D01*
X10414000Y-5672500D02*
X10414000Y-5757500D01*
X10371500Y-5715000D02*
X10456500Y-5715000D01*
X10414000Y-5926500D02*
X10414000Y-6011500D01*
X10371500Y-5969000D02*
X10456500Y-5969000D01*
X10668000Y-4148500D02*
X10668000Y-4233500D01*
X10625500Y-4191000D02*
X10710500Y-4191000D01*
X10668000Y-4402500D02*
X10668000Y-4487500D01*
X10625500Y-4445000D02*
X10710500Y-4445000D01*
X10668000Y-4402500D02*
X10668000Y-4487500D01*
X10625500Y-4445000D02*
X10710500Y-4445000D01*
X10668000Y-4656500D02*
X10668000Y-4741500D01*
X10625500Y-4699000D02*
X10710500Y-4699000D01*
X10668000Y-4656500D02*
X10668000Y-4741500D01*
X10625500Y-4699000D02*
X10710500Y-4699000D01*
X10668000Y-4910500D02*
X10668000Y-4995500D01*
X10625500Y-4953000D02*
X10710500Y-4953000D01*
X10668000Y-4910500D02*
X10668000Y-4995500D01*
X10625500Y-4953000D02*
X10710500Y-4953000D01*
X10668000Y-5164500D02*
X10668000Y-5249500D01*
X10625500Y-5207000D02*
X10710500Y-5207000D01*
X10668000Y-5164500D02*
X10668000Y-5249500D01*
X10625500Y-5207000D02*
X10710500Y-5207000D01*
X10668000Y-5418500D02*
X10668000Y-5503500D01*
X10625500Y-5461000D02*
X10710500Y-5461000D01*
X10668000Y-5418500D02*
X10668000Y-5503500D01*
X10625500Y-5461000D02*
X10710500Y-5461000D01*
X10668000Y-5672500D02*
X10668000Y-5757500D01*
X10625500Y-5715000D02*
X10710500Y-5715000D01*
X10668000Y-5672500D02*
X10668000Y-5757500D01*
X10625500Y-5715000D02*
X10710500Y-5715000D01*
X10668000Y-5926500D02*
X10668000Y-6011500D01*
X10625500Y-5969000D02*
X10710500Y-5969000D01*
X10922000Y-4148500D02*
X10922000Y-4233500D01*
X10879500Y-4191000D02*
X10964500Y-4191000D01*
X10922000Y-4402500D02*
X10922000Y-4487500D01*
X10879500Y-4445000D02*
X10964500Y-4445000D01*
X10922000Y-4402500D02*
X10922000Y-4487500D01*
X10879500Y-4445000D02*
X10964500Y-4445000D01*
X10922000Y-4656500D02*
X10922000Y-4741500D01*
X10879500Y-4699000D02*
X10964500Y-4699000D01*
X10922000Y-4656500D02*
X10922000Y-4741500D01*
X10879500Y-4699000D02*
X10964500Y-4699000D01*
X10922000Y-4910500D02*
X10922000Y-4995500D01*
X10879500Y-4953000D02*
X10964500Y-4953000D01*
X10922000Y-4910500D02*
X10922000Y-4995500D01*
X10879500Y-4953000D02*
X10964500Y-4953000D01*
X10922000Y-5164500D02*
X10922000Y-5249500D01*
X10879500Y-5207000D02*
X10964500Y-5207000D01*
X10922000Y-5164500D02*
X10922000Y-5249500D01*
X10879500Y-5207000D02*
X10964500Y-5207000D01*
X10922000Y-5418500D02*
X10922000Y-5503500D01*
X10879500Y-5461000D02*
X10964500Y-5461000D01*
X10922000Y-5418500D02*
X10922000Y-5503500D01*
X10879500Y-5461000D02*
X10964500Y-5461000D01*
X10922000Y-5672500D02*
X10922000Y-5757500D01*
X10879500Y-5715000D02*
X10964500Y-5715000D01*
X10922000Y-5672500D02*
X10922000Y-5757500D01*
X10879500Y-5715000D02*
X10964500Y-5715000D01*
X10922000Y-5926500D02*
X10922000Y-6011500D01*
X10879500Y-5969000D02*
X10964500Y-5969000D01*
X11176000Y-4148500D02*
X11176000Y-4233500D01*
X11133500Y-4191000D02*
X11218500Y-4191000D01*
X11176000Y-4402500D02*
X11176000Y-4487500D01*
X11133500Y-4445000D02*
X11218500Y-4445000D01*
X11176000Y-4402500D02*
X11176000Y-4487500D01*
X11133500Y-4445000D02*
X11218500Y-4445000D01*
X11176000Y-4656500D02*
X11176000Y-4741500D01*
X11133500Y-4699000D02*
X11218500Y-4699000D01*
X11176000Y-4656500D02*
X11176000Y-4741500D01*
X11133500Y-4699000D02*
X11218500Y-4699000D01*
X11176000Y-4910500D02*
X11176000Y-4995500D01*
X11133500Y-4953000D02*
X11218500Y-4953000D01*
X11176000Y-4910500D02*
X11176000Y-4995500D01*
X11133500Y-4953000D02*
X11218500Y-4953000D01*
X11176000Y-5164500D02*
X11176000Y-5249500D01*
X11133500Y-5207000D02*
X11218500Y-5207000D01*
X11176000Y-5164500D02*
X11176000Y-5249500D01*
X11133500Y-5207000D02*
X11218500Y-5207000D01*
X11176000Y-5418500D02*
X11176000Y-5503500D01*
X11133500Y-5461000D02*
X11218500Y-5461000D01*
X11176000Y-5418500D02*
X11176000Y-5503500D01*
X11133500Y-5461000D02*
X11218500Y-5461000D01*
X11176000Y-5672500D02*
X11176000Y-5757500D01*
X11133500Y-5715000D02*
X11218500Y-5715000D01*
X11176000Y-5672500D02*
X11176000Y-5757500D01*
X11133500Y-5715000D02*
X11218500Y-5715000D01*
X11176000Y-5926500D02*
X11176000Y-6011500D01*
X11133500Y-5969000D02*
X11218500Y-5969000D01*
X11430000Y-4148500D02*
X11430000Y-4233500D01*
X11387500Y-4191000D02*
X11472500Y-4191000D01*
X11430000Y-4402500D02*
X11430000Y-4487500D01*
X11387500Y-4445000D02*
X11472500Y-4445000D01*
X11430000Y-4402500D02*
X11430000Y-4487500D01*
X11387500Y-4445000D02*
X11472500Y-4445000D01*
X11430000Y-4402500D02*
X11430000Y-4487500D01*
X11387500Y-4445000D02*
X11472500Y-4445000D01*
X11430000Y-4656500D02*
X11430000Y-4741500D01*
X11387500Y-4699000D02*
X11472500Y-4699000D01*
X11430000Y-4656500D02*
X11430000Y-4741500D01*
X11387500Y-4699000D02*
X11472500Y-4699000D01*
X11430000Y-4656500D02*
X11430000Y-4741500D01*
X11387500Y-4699000D02*
X11472500Y-4699000D01*
X11430000Y-4910500D02*
X11430000Y-4995500D01*
X11387500Y-4953000D02*
X11472500Y-4953000D01*
X11430000Y-4910500D02*
X11430000Y-4995500D01*
X11387500Y-4953000D02*
X11472500Y-4953000D01*
X11430000Y-4910500D02*
X11430000Y-4995500D01*
X11387500Y-4953000D02*
X11472500Y-4953000D01*
X11430000Y-5164500D02*
X11430000Y-5249500D01*
X11387500Y-5207000D02*
X11472500Y-5207000D01*
X11430000Y-5164500D02*
X11430000Y-5249500D01*
X11387500Y-5207000D02*
X11472500Y-5207000D01*
X11430000Y-5164500D02*
X11430000Y-5249500D01*
X11387500Y-5207000D02*
X11472500Y-5207000D01*
X11430000Y-5418500D02*
X11430000Y-5503500D01*
X11387500Y-5461000D02*
X11472500Y-5461000D01*
X11430000Y-5418500D02*
X11430000Y-5503500D01*
X11387500Y-5461000D02*
X11472500Y-5461000D01*
X11430000Y-5418500D02*
X11430000Y-5503500D01*
X11387500Y-5461000D02*
X11472500Y-5461000D01*
X11430000Y-5672500D02*
X11430000Y-5757500D01*
X11387500Y-5715000D02*
X11472500Y-5715000D01*
X11430000Y-5672500D02*
X11430000Y-5757500D01*
X11387500Y-5715000D02*
X11472500Y-5715000D01*
X11430000Y-5672500D02*
X11430000Y-5757500D01*
X11387500Y-5715000D02*
X11472500Y-5715000D01*
X11430000Y-5926500D02*
X11430000Y-6011500D01*
X11387500Y-5969000D02*
X11472500Y-5969000D01*
X11684000Y-4148500D02*
X11684000Y-4233500D01*
X11641500Y-4191000D02*
X11726500Y-4191000D01*
X11684000Y-4402500D02*
X11684000Y-4487500D01*
X11641500Y-4445000D02*
X11726500Y-4445000D01*
X11684000Y-4402500D02*
X11684000Y-4487500D01*
X11641500Y-4445000D02*
X11726500Y-4445000D01*
X11684000Y-4402500D02*
X11684000Y-4487500D01*
X11641500Y-4445000D02*
X11726500Y-4445000D01*
X11684000Y-4656500D02*
X11684000Y-4741500D01*
X11641500Y-4699000D02*
X11726500Y-4699000D01*
X11684000Y-4656500D02*
X11684000Y-4741500D01*
X11641500Y-4699000D02*
X11726500Y-4699000D01*
X11684000Y-4656500D02*
X11684000Y-4741500D01*
X11641500Y-4699000D02*
X11726500Y-4699000D01*
X11684000Y-4910500D02*
X11684000Y-4995500D01*
X11641500Y-4953000D02*
X11726500Y-4953000D01*
X11684000Y-4910500D02*
X11684000Y-4995500D01*
X11641500Y-4953000D02*
X11726500Y-4953000D01*
X11684000Y-4910500D02*
X11684000Y-4995500D01*
X11641500Y-4953000D02*
X11726500Y-4953000D01*
X11684000Y-5164500D02*
X11684000Y-5249500D01*
X11641500Y-5207000D02*
X11726500Y-5207000D01*
X11684000Y-5164500D02*
X11684000Y-5249500D01*
X11641500Y-5207000D02*
X11726500Y-5207000D01*
X11684000Y-5164500D02*
X11684000Y-5249500D01*
X11641500Y-5207000D02*
X11726500Y-5207000D01*
X11684000Y-5418500D02*
X11684000Y-5503500D01*
X11641500Y-5461000D02*
X11726500Y-5461000D01*
X11684000Y-5418500D02*
X11684000Y-5503500D01*
X11641500Y-5461000D02*
X11726500Y-5461000D01*
X11684000Y-5418500D02*
X11684000Y-5503500D01*
X11641500Y-5461000D02*
X11726500Y-5461000D01*
X11684000Y-5672500D02*
X11684000Y-5757500D01*
X11641500Y-5715000D02*
X11726500Y-5715000D01*
X11684000Y-5672500D02*
X11684000Y-5757500D01*
X11641500Y-5715000D02*
X11726500Y-5715000D01*
X11684000Y-5672500D02*
X11684000Y-5757500D01*
X11641500Y-5715000D02*
X11726500Y-5715000D01*
X11684000Y-5926500D02*
X11684000Y-6011500D01*
X11641500Y-5969000D02*
X11726500Y-5969000D01*
X11938000Y-4148500D02*
X11938000Y-4233500D01*
X11895500Y-4191000D02*
X11980500Y-4191000D01*
X11938000Y-4402500D02*
X11938000Y-4487500D01*
X11895500Y-4445000D02*
X11980500Y-4445000D01*
X11938000Y-4402500D02*
X11938000Y-4487500D01*
X11895500Y-4445000D02*
X11980500Y-4445000D01*
X11938000Y-4656500D02*
X11938000Y-4741500D01*
X11895500Y-4699000D02*
X11980500Y-4699000D01*
X11938000Y-4656500D02*
X11938000Y-4741500D01*
X11895500Y-4699000D02*
X11980500Y-4699000D01*
X11938000Y-4910500D02*
X11938000Y-4995500D01*
X11895500Y-4953000D02*
X11980500Y-4953000D01*
X11938000Y-4910500D02*
X11938000Y-4995500D01*
X11895500Y-4953000D02*
X11980500Y-4953000D01*
X11938000Y-5164500D02*
X11938000Y-5249500D01*
X11895500Y-5207000D02*
X11980500Y-5207000D01*
X11938000Y-5164500D02*
X11938000Y-5249500D01*
X11895500Y-5207000D02*
X11980500Y-5207000D01*
X11938000Y-5418500D02*
X11938000Y-5503500D01*
X11895500Y-5461000D02*
X11980500Y-5461000D01*
X11938000Y-5418500D02*
X11938000Y-5503500D01*
X11895500Y-5461000D02*
X11980500Y-5461000D01*
X11938000Y-5672500D02*
X11938000Y-5757500D01*
X11895500Y-5715000D02*
X11980500Y-5715000D01*
X11938000Y-5672500D02*
X11938000Y-5757500D01*
X11895500Y-5715000D02*
X11980500Y-5715000D01*
X11938000Y-5926500D02*
X11938000Y-6011500D01*
X11895500Y-5969000D02*
X11980500Y-5969000D01*
X12192000Y-4148500D02*
X12192000Y-4233500D01*
X12149500Y-4191000D02*
X12234500Y-4191000D01*
X12192000Y-4402500D02*
X12192000Y-4487500D01*
X12149500Y-4445000D02*
X12234500Y-4445000D01*
X12192000Y-4402500D02*
X12192000Y-4487500D01*
X12149500Y-4445000D02*
X12234500Y-4445000D01*
X12192000Y-4656500D02*
X12192000Y-4741500D01*
X12149500Y-4699000D02*
X12234500Y-4699000D01*
X12192000Y-4656500D02*
X12192000Y-4741500D01*
X12149500Y-4699000D02*
X12234500Y-4699000D01*
X12192000Y-4910500D02*
X12192000Y-4995500D01*
X12149500Y-4953000D02*
X12234500Y-4953000D01*
X12192000Y-4910500D02*
X12192000Y-4995500D01*
X12149500Y-4953000D02*
X12234500Y-4953000D01*
X12192000Y-5164500D02*
X12192000Y-5249500D01*
X12149500Y-5207000D02*
X12234500Y-5207000D01*
X12192000Y-5164500D02*
X12192000Y-5249500D01*
X12149500Y-5207000D02*
X12234500Y-5207000D01*
X12192000Y-5418500D02*
X12192000Y-5503500D01*
X12149500Y-5461000D02*
X12234500Y-5461000D01*
X12192000Y-5418500D02*
X12192000Y-5503500D01*
X12149500Y-5461000D02*
X12234500Y-5461000D01*
X12192000Y-5672500D02*
X12192000Y-5757500D01*
X12149500Y-5715000D02*
X12234500Y-5715000D01*
X12192000Y-5672500D02*
X12192000Y-5757500D01*
X12149500Y-5715000D02*
X12234500Y-5715000D01*
X12192000Y-5926500D02*
X12192000Y-6011500D01*
X12149500Y-5969000D02*
X12234500Y-5969000D01*
X12446000Y-4148500D02*
X12446000Y-4233500D01*
X12403500Y-4191000D02*
X12488500Y-4191000D01*
X12446000Y-4402500D02*
X12446000Y-4487500D01*
X12403500Y-4445000D02*
X12488500Y-4445000D01*
X12446000Y-4402500D02*
X12446000Y-4487500D01*
X12403500Y-4445000D02*
X12488500Y-4445000D01*
X12446000Y-4656500D02*
X12446000Y-4741500D01*
X12403500Y-4699000D02*
X12488500Y-4699000D01*
X12446000Y-4656500D02*
X12446000Y-4741500D01*
X12403500Y-4699000D02*
X12488500Y-4699000D01*
X12446000Y-4910500D02*
X12446000Y-4995500D01*
X12403500Y-4953000D02*
X12488500Y-4953000D01*
X12446000Y-4910500D02*
X12446000Y-4995500D01*
X12403500Y-4953000D02*
X12488500Y-4953000D01*
X12446000Y-5164500D02*
X12446000Y-5249500D01*
X12403500Y-5207000D02*
X12488500Y-5207000D01*
X12446000Y-5164500D02*
X12446000Y-5249500D01*
X12403500Y-5207000D02*
X12488500Y-5207000D01*
X12446000Y-5418500D02*
X12446000Y-5503500D01*
X12403500Y-5461000D02*
X12488500Y-5461000D01*
X12446000Y-5418500D02*
X12446000Y-5503500D01*
X12403500Y-5461000D02*
X12488500Y-5461000D01*
X12446000Y-5672500D02*
X12446000Y-5757500D01*
X12403500Y-5715000D02*
X12488500Y-5715000D01*
X12446000Y-5672500D02*
X12446000Y-5757500D01*
X12403500Y-5715000D02*
X12488500Y-5715000D01*
X12446000Y-5926500D02*
X12446000Y-6011500D01*
X12403500Y-5969000D02*
X12488500Y-5969000D01*
X12700000Y-4148500D02*
X12700000Y-4233500D01*
X12657500Y-4191000D02*
X12742500Y-4191000D01*
X12700000Y-4402500D02*
X12700000Y-4487500D01*
X12657500Y-4445000D02*
X12742500Y-4445000D01*
X12700000Y-4402500D02*
X12700000Y-4487500D01*
X12657500Y-4445000D02*
X12742500Y-4445000D01*
X12700000Y-4656500D02*
X12700000Y-4741500D01*
X12657500Y-4699000D02*
X12742500Y-4699000D01*
X12700000Y-4656500D02*
X12700000Y-4741500D01*
X12657500Y-4699000D02*
X12742500Y-4699000D01*
X12700000Y-4910500D02*
X12700000Y-4995500D01*
X12657500Y-4953000D02*
X12742500Y-4953000D01*
X12700000Y-4910500D02*
X12700000Y-4995500D01*
X12657500Y-4953000D02*
X12742500Y-4953000D01*
X12700000Y-5164500D02*
X12700000Y-5249500D01*
X12657500Y-5207000D02*
X12742500Y-5207000D01*
X12700000Y-5164500D02*
X12700000Y-5249500D01*
X12657500Y-5207000D02*
X12742500Y-5207000D01*
X12700000Y-5418500D02*
X12700000Y-5503500D01*
X12657500Y-5461000D02*
X12742500Y-5461000D01*
X12700000Y-5418500D02*
X12700000Y-5503500D01*
X12657500Y-5461000D02*
X12742500Y-5461000D01*
X12700000Y-5672500D02*
X12700000Y-5757500D01*
X12657500Y-5715000D02*
X12742500Y-5715000D01*
X12700000Y-5672500D02*
X12700000Y-5757500D01*
X12657500Y-5715000D02*
X12742500Y-5715000D01*
X12700000Y-5926500D02*
X12700000Y-6011500D01*
X12657500Y-5969000D02*
X12742500Y-5969000D01*
X12954000Y-4148500D02*
X12954000Y-4233500D01*
X12911500Y-4191000D02*
X12996500Y-4191000D01*
X12954000Y-4402500D02*
X12954000Y-4487500D01*
X12911500Y-4445000D02*
X12996500Y-4445000D01*
X12954000Y-4402500D02*
X12954000Y-4487500D01*
X12911500Y-4445000D02*
X12996500Y-4445000D01*
X12954000Y-4656500D02*
X12954000Y-4741500D01*
X12911500Y-4699000D02*
X12996500Y-4699000D01*
X12954000Y-4656500D02*
X12954000Y-4741500D01*
X12911500Y-4699000D02*
X12996500Y-4699000D01*
X12954000Y-4910500D02*
X12954000Y-4995500D01*
X12911500Y-4953000D02*
X12996500Y-4953000D01*
X12954000Y-4910500D02*
X12954000Y-4995500D01*
X12911500Y-4953000D02*
X12996500Y-4953000D01*
X12954000Y-5164500D02*
X12954000Y-5249500D01*
X12911500Y-5207000D02*
X12996500Y-5207000D01*
X12954000Y-5164500D02*
X12954000Y-5249500D01*
X12911500Y-5207000D02*
X12996500Y-5207000D01*
X12954000Y-5418500D02*
X12954000Y-5503500D01*
X12911500Y-5461000D02*
X12996500Y-5461000D01*
X12954000Y-5418500D02*
X12954000Y-5503500D01*
X12911500Y-5461000D02*
X12996500Y-5461000D01*
X12954000Y-5672500D02*
X12954000Y-5757500D01*
X12911500Y-5715000D02*
X12996500Y-5715000D01*
X12954000Y-5672500D02*
X12954000Y-5757500D01*
X12911500Y-5715000D02*
X12996500Y-5715000D01*
X12954000Y-5926500D02*
X12954000Y-6011500D01*
X12911500Y-5969000D02*
X12996500Y-5969000D01*
X13208000Y-4402500D02*
X13208000Y-4487500D01*
X13165500Y-4445000D02*
X13250500Y-4445000D01*
X13208000Y-4656500D02*
X13208000Y-4741500D01*
X13165500Y-4699000D02*
X13250500Y-4699000D01*
X13208000Y-4910500D02*
X13208000Y-4995500D01*
X13165500Y-4953000D02*
X13250500Y-4953000D01*
X13208000Y-5164500D02*
X13208000Y-5249500D01*
X13165500Y-5207000D02*
X13250500Y-5207000D01*
X13208000Y-5418500D02*
X13208000Y-5503500D01*
X13165500Y-5461000D02*
X13250500Y-5461000D01*
X13208000Y-5672500D02*
X13208000Y-5757500D01*
X13165500Y-5715000D02*
X13250500Y-5715000D01*
X2855486Y-4924655D02*
X2855486Y-4853944D01*
X2784774Y-4853944D01*
X2784774Y-4924655D01*
X2855486Y-4924655D01*
X2855486Y-5305655D02*
X2855486Y-5234944D01*
X2784774Y-5234944D01*
X2784774Y-5305655D01*
X2855486Y-5305655D01*
X3109486Y-4924655D02*
X3109486Y-4853944D01*
X3038774Y-4853944D01*
X3038774Y-4924655D01*
X3109486Y-4924655D01*
X3109486Y-5305655D02*
X3109486Y-5234944D01*
X3038774Y-5234944D01*
X3038774Y-5305655D01*
X3109486Y-5305655D01*
X3363486Y-4924655D02*
X3363486Y-4853944D01*
X3292774Y-4853944D01*
X3292774Y-4924655D01*
X3363486Y-4924655D01*
X3363486Y-5305655D02*
X3363486Y-5234944D01*
X3292774Y-5234944D01*
X3292774Y-5305655D01*
X3363486Y-5305655D01*
X3617486Y-4924655D02*
X3617486Y-4853944D01*
X3546774Y-4853944D01*
X3546774Y-4924655D01*
X3617486Y-4924655D01*
X3617486Y-5305655D02*
X3617486Y-5234944D01*
X3546774Y-5234944D01*
X3546774Y-5305655D01*
X3617486Y-5305655D01*
X3871486Y-4924655D02*
X3871486Y-4853944D01*
X3800774Y-4853944D01*
X3800774Y-4924655D01*
X3871486Y-4924655D01*
X3871486Y-5305655D02*
X3871486Y-5234944D01*
X3800774Y-5234944D01*
X3800774Y-5305655D01*
X3871486Y-5305655D01*
X4540956Y-4607405D02*
X4540956Y-4536694D01*
X4470244Y-4536694D01*
X4470244Y-4607405D01*
X4540956Y-4607405D01*
X4540956Y-5623405D02*
X4540956Y-5552694D01*
X4470244Y-5552694D01*
X4470244Y-5623405D01*
X4540956Y-5623405D01*
X4861356Y-4734405D02*
X4861356Y-4663694D01*
X4790644Y-4663694D01*
X4790644Y-4734405D01*
X4861356Y-4734405D01*
X4861356Y-4988405D02*
X4861356Y-4917694D01*
X4790644Y-4917694D01*
X4790644Y-4988405D01*
X4861356Y-4988405D01*
X4861356Y-5242405D02*
X4861356Y-5171694D01*
X4790644Y-5171694D01*
X4790644Y-5242405D01*
X4861356Y-5242405D01*
X4861356Y-5496405D02*
X4861356Y-5425694D01*
X4790644Y-5425694D01*
X4790644Y-5496405D01*
X4861356Y-5496405D01*
X5115356Y-4353405D02*
X5115356Y-4282694D01*
X5044644Y-4282694D01*
X5044644Y-4353405D01*
X5115356Y-4353405D01*
X5115356Y-4607405D02*
X5115356Y-4536694D01*
X5044644Y-4536694D01*
X5044644Y-4607405D01*
X5115356Y-4607405D01*
X5115356Y-4861405D02*
X5115356Y-4790694D01*
X5044644Y-4790694D01*
X5044644Y-4861405D01*
X5115356Y-4861405D01*
X5115356Y-5115405D02*
X5115356Y-5044694D01*
X5044644Y-5044694D01*
X5044644Y-5115405D01*
X5115356Y-5115405D01*
X5115356Y-5369405D02*
X5115356Y-5298694D01*
X5044644Y-5298694D01*
X5044644Y-5369405D01*
X5115356Y-5369405D01*
X5115356Y-5623405D02*
X5115356Y-5552694D01*
X5044644Y-5552694D01*
X5044644Y-5623405D01*
X5115356Y-5623405D01*
X5115356Y-5877405D02*
X5115356Y-5806694D01*
X5044644Y-5806694D01*
X5044644Y-5877405D01*
X5115356Y-5877405D01*
X5369356Y-4226405D02*
X5369356Y-4155694D01*
X5298644Y-4155694D01*
X5298644Y-4226405D01*
X5369356Y-4226405D01*
X5369356Y-4480405D02*
X5369356Y-4409694D01*
X5298644Y-4409694D01*
X5298644Y-4480405D01*
X5369356Y-4480405D01*
X5369356Y-4734405D02*
X5369356Y-4663694D01*
X5298644Y-4663694D01*
X5298644Y-4734405D01*
X5369356Y-4734405D01*
X5369356Y-4988405D02*
X5369356Y-4917694D01*
X5298644Y-4917694D01*
X5298644Y-4988405D01*
X5369356Y-4988405D01*
X5369356Y-5242405D02*
X5369356Y-5171694D01*
X5298644Y-5171694D01*
X5298644Y-5242405D01*
X5369356Y-5242405D01*
X5369356Y-5496405D02*
X5369356Y-5425694D01*
X5298644Y-5425694D01*
X5298644Y-5496405D01*
X5369356Y-5496405D01*
X5369356Y-5750405D02*
X5369356Y-5679694D01*
X5298644Y-5679694D01*
X5298644Y-5750405D01*
X5369356Y-5750405D01*
X5369356Y-6004405D02*
X5369356Y-5933694D01*
X5298644Y-5933694D01*
X5298644Y-6004405D01*
X5369356Y-6004405D01*
X5623356Y-4353405D02*
X5623356Y-4282694D01*
X5552644Y-4282694D01*
X5552644Y-4353405D01*
X5623356Y-4353405D01*
X5623356Y-4607405D02*
X5623356Y-4536694D01*
X5552644Y-4536694D01*
X5552644Y-4607405D01*
X5623356Y-4607405D01*
X5623356Y-4861405D02*
X5623356Y-4790694D01*
X5552644Y-4790694D01*
X5552644Y-4861405D01*
X5623356Y-4861405D01*
X5623356Y-5115405D02*
X5623356Y-5044694D01*
X5552644Y-5044694D01*
X5552644Y-5115405D01*
X5623356Y-5115405D01*
X5623356Y-5369405D02*
X5623356Y-5298694D01*
X5552644Y-5298694D01*
X5552644Y-5369405D01*
X5623356Y-5369405D01*
X5623356Y-5623405D02*
X5623356Y-5552694D01*
X5552644Y-5552694D01*
X5552644Y-5623405D01*
X5623356Y-5623405D01*
X5623356Y-5877405D02*
X5623356Y-5806694D01*
X5552644Y-5806694D01*
X5552644Y-5877405D01*
X5623356Y-5877405D01*
X5877356Y-4226405D02*
X5877356Y-4155694D01*
X5806644Y-4155694D01*
X5806644Y-4226405D01*
X5877356Y-4226405D01*
X5877356Y-4480405D02*
X5877356Y-4409694D01*
X5806644Y-4409694D01*
X5806644Y-4480405D01*
X5877356Y-4480405D01*
X5877356Y-4734405D02*
X5877356Y-4663694D01*
X5806644Y-4663694D01*
X5806644Y-4734405D01*
X5877356Y-4734405D01*
X5877356Y-4988405D02*
X5877356Y-4917694D01*
X5806644Y-4917694D01*
X5806644Y-4988405D01*
X5877356Y-4988405D01*
X5877356Y-5242405D02*
X5877356Y-5171694D01*
X5806644Y-5171694D01*
X5806644Y-5242405D01*
X5877356Y-5242405D01*
X5877356Y-5496405D02*
X5877356Y-5425694D01*
X5806644Y-5425694D01*
X5806644Y-5496405D01*
X5877356Y-5496405D01*
X5877356Y-5750405D02*
X5877356Y-5679694D01*
X5806644Y-5679694D01*
X5806644Y-5750405D01*
X5877356Y-5750405D01*
X5877356Y-6004405D02*
X5877356Y-5933694D01*
X5806644Y-5933694D01*
X5806644Y-6004405D01*
X5877356Y-6004405D01*
X6131356Y-4353405D02*
X6131356Y-4282694D01*
X6060644Y-4282694D01*
X6060644Y-4353405D01*
X6131356Y-4353405D01*
X6131356Y-5877405D02*
X6131356Y-5806694D01*
X6060644Y-5806694D01*
X6060644Y-5877405D01*
X6131356Y-5877405D01*
X6385356Y-4226405D02*
X6385356Y-4155694D01*
X6314644Y-4155694D01*
X6314644Y-4226405D01*
X6385356Y-4226405D01*
X6385356Y-6004405D02*
X6385356Y-5933694D01*
X6314644Y-5933694D01*
X6314644Y-6004405D01*
X6385356Y-6004405D01*
X6499656Y-4988405D02*
X6499656Y-4917694D01*
X6428944Y-4917694D01*
X6428944Y-4988405D01*
X6499656Y-4988405D01*
X6499656Y-5242405D02*
X6499656Y-5171694D01*
X6428944Y-5171694D01*
X6428944Y-5242405D01*
X6499656Y-5242405D01*
X6512356Y-4480405D02*
X6512356Y-4409694D01*
X6441644Y-4409694D01*
X6441644Y-4480405D01*
X6512356Y-4480405D01*
X6512356Y-5750405D02*
X6512356Y-5679694D01*
X6441644Y-5679694D01*
X6441644Y-5750405D01*
X6512356Y-5750405D01*
X6639356Y-4226405D02*
X6639356Y-4155694D01*
X6568644Y-4155694D01*
X6568644Y-4226405D01*
X6639356Y-4226405D01*
X6639356Y-6004405D02*
X6639356Y-5933694D01*
X6568644Y-5933694D01*
X6568644Y-6004405D01*
X6639356Y-6004405D01*
X6867956Y-4612485D02*
X6867956Y-4541774D01*
X6797244Y-4541774D01*
X6797244Y-4612485D01*
X6867956Y-4612485D01*
X6870496Y-5620865D02*
X6870496Y-5550154D01*
X6799784Y-5550154D01*
X6799784Y-5620865D01*
X6870496Y-5620865D01*
X6880656Y-4988405D02*
X6880656Y-4917694D01*
X6809944Y-4917694D01*
X6809944Y-4988405D01*
X6880656Y-4988405D01*
X6880656Y-5242405D02*
X6880656Y-5171694D01*
X6809944Y-5171694D01*
X6809944Y-5242405D01*
X6880656Y-5242405D01*
X6893356Y-4226405D02*
X6893356Y-4155694D01*
X6822644Y-4155694D01*
X6822644Y-4226405D01*
X6893356Y-4226405D01*
X6893356Y-6004405D02*
X6893356Y-5933694D01*
X6822644Y-5933694D01*
X6822644Y-6004405D01*
X6893356Y-6004405D01*
X7147356Y-4226405D02*
X7147356Y-4155694D01*
X7076644Y-4155694D01*
X7076644Y-4226405D01*
X7147356Y-4226405D01*
X7147356Y-6004405D02*
X7147356Y-5933694D01*
X7076644Y-5933694D01*
X7076644Y-6004405D01*
X7147356Y-6004405D01*
X7363256Y-4988405D02*
X7363256Y-4917694D01*
X7292544Y-4917694D01*
X7292544Y-4988405D01*
X7363256Y-4988405D01*
X7363256Y-5242405D02*
X7363256Y-5171694D01*
X7292544Y-5171694D01*
X7292544Y-5242405D01*
X7363256Y-5242405D01*
X7401356Y-4226405D02*
X7401356Y-4155694D01*
X7330644Y-4155694D01*
X7330644Y-4226405D01*
X7401356Y-4226405D01*
X7401356Y-6004405D02*
X7401356Y-5933694D01*
X7330644Y-5933694D01*
X7330644Y-6004405D01*
X7401356Y-6004405D01*
X7477556Y-4607405D02*
X7477556Y-4536694D01*
X7406844Y-4536694D01*
X7406844Y-4607405D01*
X7477556Y-4607405D01*
X7477556Y-5623405D02*
X7477556Y-5552694D01*
X7406844Y-5552694D01*
X7406844Y-5623405D01*
X7477556Y-5623405D01*
X7604556Y-4988405D02*
X7604556Y-4917694D01*
X7533844Y-4917694D01*
X7533844Y-4988405D01*
X7604556Y-4988405D01*
X7604556Y-5242405D02*
X7604556Y-5171694D01*
X7533844Y-5171694D01*
X7533844Y-5242405D01*
X7604556Y-5242405D01*
X7655356Y-4226405D02*
X7655356Y-4155694D01*
X7584644Y-4155694D01*
X7584644Y-4226405D01*
X7655356Y-4226405D01*
X7655356Y-6004405D02*
X7655356Y-5933694D01*
X7584644Y-5933694D01*
X7584644Y-6004405D01*
X7655356Y-6004405D01*
X7909356Y-4226405D02*
X7909356Y-4155694D01*
X7838644Y-4155694D01*
X7838644Y-4226405D01*
X7909356Y-4226405D01*
X7909356Y-6004405D02*
X7909356Y-5933694D01*
X7838644Y-5933694D01*
X7838644Y-6004405D01*
X7909356Y-6004405D01*
X8163356Y-4226405D02*
X8163356Y-4155694D01*
X8092644Y-4155694D01*
X8092644Y-4226405D01*
X8163356Y-4226405D01*
X8163356Y-4480405D02*
X8163356Y-4409694D01*
X8092644Y-4409694D01*
X8092644Y-4480405D01*
X8163356Y-4480405D01*
X8163356Y-4734405D02*
X8163356Y-4663694D01*
X8092644Y-4663694D01*
X8092644Y-4734405D01*
X8163356Y-4734405D01*
X8163356Y-4988405D02*
X8163356Y-4917694D01*
X8092644Y-4917694D01*
X8092644Y-4988405D01*
X8163356Y-4988405D01*
X8163356Y-5242405D02*
X8163356Y-5171694D01*
X8092644Y-5171694D01*
X8092644Y-5242405D01*
X8163356Y-5242405D01*
X8163356Y-5496405D02*
X8163356Y-5425694D01*
X8092644Y-5425694D01*
X8092644Y-5496405D01*
X8163356Y-5496405D01*
X8163356Y-5750405D02*
X8163356Y-5679694D01*
X8092644Y-5679694D01*
X8092644Y-5750405D01*
X8163356Y-5750405D01*
X8163356Y-6004405D02*
X8163356Y-5933694D01*
X8092644Y-5933694D01*
X8092644Y-6004405D01*
X8163356Y-6004405D01*
X8417356Y-4353405D02*
X8417356Y-4282694D01*
X8346644Y-4282694D01*
X8346644Y-4353405D01*
X8417356Y-4353405D01*
X8417356Y-4607405D02*
X8417356Y-4536694D01*
X8346644Y-4536694D01*
X8346644Y-4607405D01*
X8417356Y-4607405D01*
X8417356Y-4861405D02*
X8417356Y-4790694D01*
X8346644Y-4790694D01*
X8346644Y-4861405D01*
X8417356Y-4861405D01*
X8417356Y-5115405D02*
X8417356Y-5044694D01*
X8346644Y-5044694D01*
X8346644Y-5115405D01*
X8417356Y-5115405D01*
X8417356Y-5369405D02*
X8417356Y-5298694D01*
X8346644Y-5298694D01*
X8346644Y-5369405D01*
X8417356Y-5369405D01*
X8417356Y-5623405D02*
X8417356Y-5552694D01*
X8346644Y-5552694D01*
X8346644Y-5623405D01*
X8417356Y-5623405D01*
X8417356Y-5877405D02*
X8417356Y-5806694D01*
X8346644Y-5806694D01*
X8346644Y-5877405D01*
X8417356Y-5877405D01*
X8671356Y-4226405D02*
X8671356Y-4155694D01*
X8600644Y-4155694D01*
X8600644Y-4226405D01*
X8671356Y-4226405D01*
X8671356Y-4480405D02*
X8671356Y-4409694D01*
X8600644Y-4409694D01*
X8600644Y-4480405D01*
X8671356Y-4480405D01*
X8671356Y-4734405D02*
X8671356Y-4663694D01*
X8600644Y-4663694D01*
X8600644Y-4734405D01*
X8671356Y-4734405D01*
X8671356Y-4988405D02*
X8671356Y-4917694D01*
X8600644Y-4917694D01*
X8600644Y-4988405D01*
X8671356Y-4988405D01*
X8671356Y-5242405D02*
X8671356Y-5171694D01*
X8600644Y-5171694D01*
X8600644Y-5242405D01*
X8671356Y-5242405D01*
X8671356Y-5496405D02*
X8671356Y-5425694D01*
X8600644Y-5425694D01*
X8600644Y-5496405D01*
X8671356Y-5496405D01*
X8671356Y-5750405D02*
X8671356Y-5679694D01*
X8600644Y-5679694D01*
X8600644Y-5750405D01*
X8671356Y-5750405D01*
X8671356Y-6004405D02*
X8671356Y-5933694D01*
X8600644Y-5933694D01*
X8600644Y-6004405D01*
X8671356Y-6004405D01*
X8925356Y-4353405D02*
X8925356Y-4282694D01*
X8854644Y-4282694D01*
X8854644Y-4353405D01*
X8925356Y-4353405D01*
X8925356Y-4607405D02*
X8925356Y-4536694D01*
X8854644Y-4536694D01*
X8854644Y-4607405D01*
X8925356Y-4607405D01*
X8925356Y-4861405D02*
X8925356Y-4790694D01*
X8854644Y-4790694D01*
X8854644Y-4861405D01*
X8925356Y-4861405D01*
X8925356Y-5115405D02*
X8925356Y-5044694D01*
X8854644Y-5044694D01*
X8854644Y-5115405D01*
X8925356Y-5115405D01*
X8925356Y-5369405D02*
X8925356Y-5298694D01*
X8854644Y-5298694D01*
X8854644Y-5369405D01*
X8925356Y-5369405D01*
X8925356Y-5623405D02*
X8925356Y-5552694D01*
X8854644Y-5552694D01*
X8854644Y-5623405D01*
X8925356Y-5623405D01*
X8925356Y-5877405D02*
X8925356Y-5806694D01*
X8854644Y-5806694D01*
X8854644Y-5877405D01*
X8925356Y-5877405D01*
X9179356Y-4226405D02*
X9179356Y-4155694D01*
X9108644Y-4155694D01*
X9108644Y-4226405D01*
X9179356Y-4226405D01*
X9179356Y-4480405D02*
X9179356Y-4409694D01*
X9108644Y-4409694D01*
X9108644Y-4480405D01*
X9179356Y-4480405D01*
X9179356Y-4734405D02*
X9179356Y-4663694D01*
X9108644Y-4663694D01*
X9108644Y-4734405D01*
X9179356Y-4734405D01*
X9179356Y-4988405D02*
X9179356Y-4917694D01*
X9108644Y-4917694D01*
X9108644Y-4988405D01*
X9179356Y-4988405D01*
X9179356Y-5242405D02*
X9179356Y-5171694D01*
X9108644Y-5171694D01*
X9108644Y-5242405D01*
X9179356Y-5242405D01*
X9179356Y-5496405D02*
X9179356Y-5425694D01*
X9108644Y-5425694D01*
X9108644Y-5496405D01*
X9179356Y-5496405D01*
X9179356Y-5750405D02*
X9179356Y-5679694D01*
X9108644Y-5679694D01*
X9108644Y-5750405D01*
X9179356Y-5750405D01*
X9179356Y-6004405D02*
X9179356Y-5933694D01*
X9108644Y-5933694D01*
X9108644Y-6004405D01*
X9179356Y-6004405D01*
X9433356Y-4353405D02*
X9433356Y-4282694D01*
X9362644Y-4282694D01*
X9362644Y-4353405D01*
X9433356Y-4353405D01*
X9433356Y-4607405D02*
X9433356Y-4536694D01*
X9362644Y-4536694D01*
X9362644Y-4607405D01*
X9433356Y-4607405D01*
X9433356Y-4861405D02*
X9433356Y-4790694D01*
X9362644Y-4790694D01*
X9362644Y-4861405D01*
X9433356Y-4861405D01*
X9433356Y-5115405D02*
X9433356Y-5044694D01*
X9362644Y-5044694D01*
X9362644Y-5115405D01*
X9433356Y-5115405D01*
X9433356Y-5369405D02*
X9433356Y-5298694D01*
X9362644Y-5298694D01*
X9362644Y-5369405D01*
X9433356Y-5369405D01*
X9433356Y-5623405D02*
X9433356Y-5552694D01*
X9362644Y-5552694D01*
X9362644Y-5623405D01*
X9433356Y-5623405D01*
X9433356Y-5877405D02*
X9433356Y-5806694D01*
X9362644Y-5806694D01*
X9362644Y-5877405D01*
X9433356Y-5877405D01*
X13969801Y-5000856D02*
X13969801Y-4930144D01*
X13899089Y-4930144D01*
X13899089Y-5000856D01*
X13969801Y-5000856D01*
X13969801Y-5254856D02*
X13969801Y-5184144D01*
X13899089Y-5184144D01*
X13899089Y-5254856D01*
X13969801Y-5254856D01*
D13*
X6197600Y-4664829D02*
X6272600Y-4589829D01*
X6197600Y-4514829D01*
X6122600Y-4589829D01*
X6197600Y-4664829D01*
X6197600Y-5650349D02*
X6272600Y-5575349D01*
X6197600Y-5500349D01*
X6122600Y-5575349D01*
X6197600Y-5650349D01*
X7077600Y-4667369D02*
X7152600Y-4592369D01*
X7077600Y-4517369D01*
X7002600Y-4592369D01*
X7077600Y-4667369D01*
X7077600Y-5650349D02*
X7152600Y-5575349D01*
X7077600Y-5500349D01*
X7002600Y-5575349D01*
X7077600Y-5650349D01*
X7807600Y-4667369D02*
X7882600Y-4592369D01*
X7807600Y-4517369D01*
X7732600Y-4592369D01*
X7807600Y-4667369D01*
X7807600Y-5650349D02*
X7882600Y-5575349D01*
X7807600Y-5500349D01*
X7732600Y-5575349D01*
X7807600Y-5650349D01*
D14*
X14130600Y-3970600D02*
X14520600Y-4360600D01*
X14520600Y-3970600D02*
X14130600Y-4360600D01*
X14520600Y-4165600D02*
G75*
G02*
X14130600Y-4165600I-195000J0D01*
G01*
X14130600Y-4165600D02*
G75*
G02*
X14520600Y-4165600I195000J0D01*
G01*
X14130600Y-5799400D02*
X14520600Y-6189400D01*
X14520600Y-5799400D02*
X14130600Y-6189400D01*
X14520600Y-5994400D02*
G75*
G02*
X14130600Y-5994400I-195000J0D01*
G01*
X14130600Y-5994400D02*
G75*
G02*
X14520600Y-5994400I195000J0D01*
G01*
D12*
X2760222Y-6666533D02*
X2760222Y-6466533D01*
X2760222Y-6466533D02*
X2807841Y-6466533D01*
X2807841Y-6466533D02*
X2836412Y-6476057D01*
X2836412Y-6476057D02*
X2855460Y-6495105D01*
X2855460Y-6495105D02*
X2864984Y-6514152D01*
X2864984Y-6514152D02*
X2874507Y-6552247D01*
X2874507Y-6552247D02*
X2874507Y-6580819D01*
X2874507Y-6580819D02*
X2864984Y-6618914D01*
X2864984Y-6618914D02*
X2855460Y-6637962D01*
X2855460Y-6637962D02*
X2836412Y-6657009D01*
X2836412Y-6657009D02*
X2807841Y-6666533D01*
X2807841Y-6666533D02*
X2760222Y-6666533D01*
X2960222Y-6666533D02*
X2960222Y-6533200D01*
X2960222Y-6571295D02*
X2969746Y-6552247D01*
X2969746Y-6552247D02*
X2979269Y-6542724D01*
X2979269Y-6542724D02*
X2998317Y-6533200D01*
X2998317Y-6533200D02*
X3017365Y-6533200D01*
X3084031Y-6666533D02*
X3084031Y-6533200D01*
X3084031Y-6466533D02*
X3074507Y-6476057D01*
X3074507Y-6476057D02*
X3084031Y-6485581D01*
X3084031Y-6485581D02*
X3093555Y-6476057D01*
X3093555Y-6476057D02*
X3084031Y-6466533D01*
X3084031Y-6466533D02*
X3084031Y-6485581D01*
X3207841Y-6666533D02*
X3188793Y-6657009D01*
X3188793Y-6657009D02*
X3179269Y-6637962D01*
X3179269Y-6637962D02*
X3179269Y-6466533D01*
X3312603Y-6666533D02*
X3293555Y-6657009D01*
X3293555Y-6657009D02*
X3284031Y-6637962D01*
X3284031Y-6637962D02*
X3284031Y-6466533D01*
X3541174Y-6666533D02*
X3541174Y-6466533D01*
X3541174Y-6466533D02*
X3607841Y-6609390D01*
X3607841Y-6609390D02*
X3674507Y-6466533D01*
X3674507Y-6466533D02*
X3674507Y-6666533D01*
X3855460Y-6666533D02*
X3855460Y-6561771D01*
X3855460Y-6561771D02*
X3845936Y-6542724D01*
X3845936Y-6542724D02*
X3826888Y-6533200D01*
X3826888Y-6533200D02*
X3788793Y-6533200D01*
X3788793Y-6533200D02*
X3769746Y-6542724D01*
X3855460Y-6657009D02*
X3836412Y-6666533D01*
X3836412Y-6666533D02*
X3788793Y-6666533D01*
X3788793Y-6666533D02*
X3769746Y-6657009D01*
X3769746Y-6657009D02*
X3760222Y-6637962D01*
X3760222Y-6637962D02*
X3760222Y-6618914D01*
X3760222Y-6618914D02*
X3769746Y-6599866D01*
X3769746Y-6599866D02*
X3788793Y-6590343D01*
X3788793Y-6590343D02*
X3836412Y-6590343D01*
X3836412Y-6590343D02*
X3855460Y-6580819D01*
X3950698Y-6533200D02*
X3950698Y-6733200D01*
X3950698Y-6542724D02*
X3969746Y-6533200D01*
X3969746Y-6533200D02*
X4007841Y-6533200D01*
X4007841Y-6533200D02*
X4026888Y-6542724D01*
X4026888Y-6542724D02*
X4036412Y-6552247D01*
X4036412Y-6552247D02*
X4045936Y-6571295D01*
X4045936Y-6571295D02*
X4045936Y-6628438D01*
X4045936Y-6628438D02*
X4036412Y-6647485D01*
X4036412Y-6647485D02*
X4026888Y-6657009D01*
X4026888Y-6657009D02*
X4007841Y-6666533D01*
X4007841Y-6666533D02*
X3969746Y-6666533D01*
X3969746Y-6666533D02*
X3950698Y-6657009D01*
X4131650Y-6647485D02*
X4141174Y-6657009D01*
X4141174Y-6657009D02*
X4131650Y-6666533D01*
X4131650Y-6666533D02*
X4122127Y-6657009D01*
X4122127Y-6657009D02*
X4131650Y-6647485D01*
X4131650Y-6647485D02*
X4131650Y-6666533D01*
X4131650Y-6542724D02*
X4141174Y-6552247D01*
X4141174Y-6552247D02*
X4131650Y-6561771D01*
X4131650Y-6561771D02*
X4122127Y-6552247D01*
X4122127Y-6552247D02*
X4131650Y-6542724D01*
X4131650Y-6542724D02*
X4131650Y-6561771D01*
D10*
X2429445Y-6960049D02*
X2499445Y-7030049D01*
X2499445Y-6960049D02*
X2429445Y-7030049D01*
D12*
X2798317Y-6886533D02*
X2817365Y-6886533D01*
X2817365Y-6886533D02*
X2836412Y-6896057D01*
X2836412Y-6896057D02*
X2845936Y-6905581D01*
X2845936Y-6905581D02*
X2855460Y-6924628D01*
X2855460Y-6924628D02*
X2864984Y-6962724D01*
X2864984Y-6962724D02*
X2864984Y-7010343D01*
X2864984Y-7010343D02*
X2855460Y-7048438D01*
X2855460Y-7048438D02*
X2845936Y-7067485D01*
X2845936Y-7067485D02*
X2836412Y-7077009D01*
X2836412Y-7077009D02*
X2817365Y-7086533D01*
X2817365Y-7086533D02*
X2798317Y-7086533D01*
X2798317Y-7086533D02*
X2779269Y-7077009D01*
X2779269Y-7077009D02*
X2769746Y-7067485D01*
X2769746Y-7067485D02*
X2760222Y-7048438D01*
X2760222Y-7048438D02*
X2750698Y-7010343D01*
X2750698Y-7010343D02*
X2750698Y-6962724D01*
X2750698Y-6962724D02*
X2760222Y-6924628D01*
X2760222Y-6924628D02*
X2769746Y-6905581D01*
X2769746Y-6905581D02*
X2779269Y-6896057D01*
X2779269Y-6896057D02*
X2798317Y-6886533D01*
X2950698Y-7067485D02*
X2960222Y-7077009D01*
X2960222Y-7077009D02*
X2950698Y-7086533D01*
X2950698Y-7086533D02*
X2941174Y-7077009D01*
X2941174Y-7077009D02*
X2950698Y-7067485D01*
X2950698Y-7067485D02*
X2950698Y-7086533D01*
X3026888Y-6886533D02*
X3160222Y-6886533D01*
X3160222Y-6886533D02*
X3074507Y-7086533D01*
X3274507Y-6886533D02*
X3293555Y-6886533D01*
X3293555Y-6886533D02*
X3312603Y-6896057D01*
X3312603Y-6896057D02*
X3322127Y-6905581D01*
X3322127Y-6905581D02*
X3331650Y-6924628D01*
X3331650Y-6924628D02*
X3341174Y-6962724D01*
X3341174Y-6962724D02*
X3341174Y-7010343D01*
X3341174Y-7010343D02*
X3331650Y-7048438D01*
X3331650Y-7048438D02*
X3322127Y-7067485D01*
X3322127Y-7067485D02*
X3312603Y-7077009D01*
X3312603Y-7077009D02*
X3293555Y-7086533D01*
X3293555Y-7086533D02*
X3274507Y-7086533D01*
X3274507Y-7086533D02*
X3255460Y-7077009D01*
X3255460Y-7077009D02*
X3245936Y-7067485D01*
X3245936Y-7067485D02*
X3236412Y-7048438D01*
X3236412Y-7048438D02*
X3226888Y-7010343D01*
X3226888Y-7010343D02*
X3226888Y-6962724D01*
X3226888Y-6962724D02*
X3236412Y-6924628D01*
X3236412Y-6924628D02*
X3245936Y-6905581D01*
X3245936Y-6905581D02*
X3255460Y-6896057D01*
X3255460Y-6896057D02*
X3274507Y-6886533D01*
X3464984Y-6886533D02*
X3484031Y-6886533D01*
X3484031Y-6886533D02*
X3503079Y-6896057D01*
X3503079Y-6896057D02*
X3512603Y-6905581D01*
X3512603Y-6905581D02*
X3522127Y-6924628D01*
X3522127Y-6924628D02*
X3531650Y-6962724D01*
X3531650Y-6962724D02*
X3531650Y-7010343D01*
X3531650Y-7010343D02*
X3522127Y-7048438D01*
X3522127Y-7048438D02*
X3512603Y-7067485D01*
X3512603Y-7067485D02*
X3503079Y-7077009D01*
X3503079Y-7077009D02*
X3484031Y-7086533D01*
X3484031Y-7086533D02*
X3464984Y-7086533D01*
X3464984Y-7086533D02*
X3445936Y-7077009D01*
X3445936Y-7077009D02*
X3436412Y-7067485D01*
X3436412Y-7067485D02*
X3426888Y-7048438D01*
X3426888Y-7048438D02*
X3417365Y-7010343D01*
X3417365Y-7010343D02*
X3417365Y-6962724D01*
X3417365Y-6962724D02*
X3426888Y-6924628D01*
X3426888Y-6924628D02*
X3436412Y-6905581D01*
X3436412Y-6905581D02*
X3445936Y-6896057D01*
X3445936Y-6896057D02*
X3464984Y-6886533D01*
X3617365Y-7086533D02*
X3617365Y-6953200D01*
X3617365Y-6972247D02*
X3626888Y-6962724D01*
X3626888Y-6962724D02*
X3645936Y-6953200D01*
X3645936Y-6953200D02*
X3674508Y-6953200D01*
X3674508Y-6953200D02*
X3693555Y-6962724D01*
X3693555Y-6962724D02*
X3703079Y-6981771D01*
X3703079Y-6981771D02*
X3703079Y-7086533D01*
X3703079Y-6981771D02*
X3712603Y-6962724D01*
X3712603Y-6962724D02*
X3731650Y-6953200D01*
X3731650Y-6953200D02*
X3760222Y-6953200D01*
X3760222Y-6953200D02*
X3779269Y-6962724D01*
X3779269Y-6962724D02*
X3788793Y-6981771D01*
X3788793Y-6981771D02*
X3788793Y-7086533D01*
X3884031Y-7086533D02*
X3884031Y-6953200D01*
X3884031Y-6972247D02*
X3893555Y-6962724D01*
X3893555Y-6962724D02*
X3912603Y-6953200D01*
X3912603Y-6953200D02*
X3941174Y-6953200D01*
X3941174Y-6953200D02*
X3960222Y-6962724D01*
X3960222Y-6962724D02*
X3969746Y-6981771D01*
X3969746Y-6981771D02*
X3969746Y-7086533D01*
X3969746Y-6981771D02*
X3979269Y-6962724D01*
X3979269Y-6962724D02*
X3998317Y-6953200D01*
X3998317Y-6953200D02*
X4026888Y-6953200D01*
X4026888Y-6953200D02*
X4045936Y-6962724D01*
X4045936Y-6962724D02*
X4055460Y-6981771D01*
X4055460Y-6981771D02*
X4055460Y-7086533D01*
X4445936Y-6877009D02*
X4274508Y-7134152D01*
X4703079Y-6886533D02*
X4722127Y-6886533D01*
X4722127Y-6886533D02*
X4741174Y-6896057D01*
X4741174Y-6896057D02*
X4750698Y-6905581D01*
X4750698Y-6905581D02*
X4760222Y-6924628D01*
X4760222Y-6924628D02*
X4769746Y-6962724D01*
X4769746Y-6962724D02*
X4769746Y-7010343D01*
X4769746Y-7010343D02*
X4760222Y-7048438D01*
X4760222Y-7048438D02*
X4750698Y-7067485D01*
X4750698Y-7067485D02*
X4741174Y-7077009D01*
X4741174Y-7077009D02*
X4722127Y-7086533D01*
X4722127Y-7086533D02*
X4703079Y-7086533D01*
X4703079Y-7086533D02*
X4684032Y-7077009D01*
X4684032Y-7077009D02*
X4674508Y-7067485D01*
X4674508Y-7067485D02*
X4664984Y-7048438D01*
X4664984Y-7048438D02*
X4655460Y-7010343D01*
X4655460Y-7010343D02*
X4655460Y-6962724D01*
X4655460Y-6962724D02*
X4664984Y-6924628D01*
X4664984Y-6924628D02*
X4674508Y-6905581D01*
X4674508Y-6905581D02*
X4684032Y-6896057D01*
X4684032Y-6896057D02*
X4703079Y-6886533D01*
X4855460Y-7067485D02*
X4864984Y-7077009D01*
X4864984Y-7077009D02*
X4855460Y-7086533D01*
X4855460Y-7086533D02*
X4845936Y-7077009D01*
X4845936Y-7077009D02*
X4855460Y-7067485D01*
X4855460Y-7067485D02*
X4855460Y-7086533D01*
X4988793Y-6886533D02*
X5007841Y-6886533D01*
X5007841Y-6886533D02*
X5026889Y-6896057D01*
X5026889Y-6896057D02*
X5036413Y-6905581D01*
X5036413Y-6905581D02*
X5045936Y-6924628D01*
X5045936Y-6924628D02*
X5055460Y-6962724D01*
X5055460Y-6962724D02*
X5055460Y-7010343D01*
X5055460Y-7010343D02*
X5045936Y-7048438D01*
X5045936Y-7048438D02*
X5036413Y-7067485D01*
X5036413Y-7067485D02*
X5026889Y-7077009D01*
X5026889Y-7077009D02*
X5007841Y-7086533D01*
X5007841Y-7086533D02*
X4988793Y-7086533D01*
X4988793Y-7086533D02*
X4969746Y-7077009D01*
X4969746Y-7077009D02*
X4960222Y-7067485D01*
X4960222Y-7067485D02*
X4950698Y-7048438D01*
X4950698Y-7048438D02*
X4941174Y-7010343D01*
X4941174Y-7010343D02*
X4941174Y-6962724D01*
X4941174Y-6962724D02*
X4950698Y-6924628D01*
X4950698Y-6924628D02*
X4960222Y-6905581D01*
X4960222Y-6905581D02*
X4969746Y-6896057D01*
X4969746Y-6896057D02*
X4988793Y-6886533D01*
X5131651Y-6905581D02*
X5141174Y-6896057D01*
X5141174Y-6896057D02*
X5160222Y-6886533D01*
X5160222Y-6886533D02*
X5207841Y-6886533D01*
X5207841Y-6886533D02*
X5226889Y-6896057D01*
X5226889Y-6896057D02*
X5236413Y-6905581D01*
X5236413Y-6905581D02*
X5245936Y-6924628D01*
X5245936Y-6924628D02*
X5245936Y-6943676D01*
X5245936Y-6943676D02*
X5236413Y-6972247D01*
X5236413Y-6972247D02*
X5122127Y-7086533D01*
X5122127Y-7086533D02*
X5245936Y-7086533D01*
X5312603Y-6886533D02*
X5445936Y-6886533D01*
X5445936Y-6886533D02*
X5360222Y-7086533D01*
X5607841Y-6886533D02*
X5569746Y-6886533D01*
X5569746Y-6886533D02*
X5550698Y-6896057D01*
X5550698Y-6896057D02*
X5541174Y-6905581D01*
X5541174Y-6905581D02*
X5522127Y-6934152D01*
X5522127Y-6934152D02*
X5512603Y-6972247D01*
X5512603Y-6972247D02*
X5512603Y-7048438D01*
X5512603Y-7048438D02*
X5522127Y-7067485D01*
X5522127Y-7067485D02*
X5531651Y-7077009D01*
X5531651Y-7077009D02*
X5550698Y-7086533D01*
X5550698Y-7086533D02*
X5588794Y-7086533D01*
X5588794Y-7086533D02*
X5607841Y-7077009D01*
X5607841Y-7077009D02*
X5617365Y-7067485D01*
X5617365Y-7067485D02*
X5626889Y-7048438D01*
X5626889Y-7048438D02*
X5626889Y-7000819D01*
X5626889Y-7000819D02*
X5617365Y-6981771D01*
X5617365Y-6981771D02*
X5607841Y-6972247D01*
X5607841Y-6972247D02*
X5588794Y-6962724D01*
X5588794Y-6962724D02*
X5550698Y-6962724D01*
X5550698Y-6962724D02*
X5531651Y-6972247D01*
X5531651Y-6972247D02*
X5522127Y-6981771D01*
X5522127Y-6981771D02*
X5512603Y-7000819D01*
X5703079Y-6886533D02*
X5703079Y-6924628D01*
X5779270Y-6886533D02*
X5779270Y-6924628D01*
X6074508Y-7162724D02*
X6064984Y-7153200D01*
X6064984Y-7153200D02*
X6045936Y-7124628D01*
X6045936Y-7124628D02*
X6036413Y-7105581D01*
X6036413Y-7105581D02*
X6026889Y-7077009D01*
X6026889Y-7077009D02*
X6017365Y-7029390D01*
X6017365Y-7029390D02*
X6017365Y-6991295D01*
X6017365Y-6991295D02*
X6026889Y-6943676D01*
X6026889Y-6943676D02*
X6036413Y-6915105D01*
X6036413Y-6915105D02*
X6045936Y-6896057D01*
X6045936Y-6896057D02*
X6064984Y-6867485D01*
X6064984Y-6867485D02*
X6074508Y-6857962D01*
X6255460Y-7086533D02*
X6141174Y-7086533D01*
X6198317Y-7086533D02*
X6198317Y-6886533D01*
X6198317Y-6886533D02*
X6179270Y-6915105D01*
X6179270Y-6915105D02*
X6160222Y-6934152D01*
X6160222Y-6934152D02*
X6141174Y-6943676D01*
X6379270Y-6886533D02*
X6398317Y-6886533D01*
X6398317Y-6886533D02*
X6417365Y-6896057D01*
X6417365Y-6896057D02*
X6426889Y-6905581D01*
X6426889Y-6905581D02*
X6436413Y-6924628D01*
X6436413Y-6924628D02*
X6445936Y-6962724D01*
X6445936Y-6962724D02*
X6445936Y-7010343D01*
X6445936Y-7010343D02*
X6436413Y-7048438D01*
X6436413Y-7048438D02*
X6426889Y-7067485D01*
X6426889Y-7067485D02*
X6417365Y-7077009D01*
X6417365Y-7077009D02*
X6398317Y-7086533D01*
X6398317Y-7086533D02*
X6379270Y-7086533D01*
X6379270Y-7086533D02*
X6360222Y-7077009D01*
X6360222Y-7077009D02*
X6350698Y-7067485D01*
X6350698Y-7067485D02*
X6341174Y-7048438D01*
X6341174Y-7048438D02*
X6331651Y-7010343D01*
X6331651Y-7010343D02*
X6331651Y-6962724D01*
X6331651Y-6962724D02*
X6341174Y-6924628D01*
X6341174Y-6924628D02*
X6350698Y-6905581D01*
X6350698Y-6905581D02*
X6360222Y-6896057D01*
X6360222Y-6896057D02*
X6379270Y-6886533D01*
X6684032Y-7086533D02*
X6684032Y-6886533D01*
X6769746Y-7086533D02*
X6769746Y-6981771D01*
X6769746Y-6981771D02*
X6760222Y-6962724D01*
X6760222Y-6962724D02*
X6741175Y-6953200D01*
X6741175Y-6953200D02*
X6712603Y-6953200D01*
X6712603Y-6953200D02*
X6693555Y-6962724D01*
X6693555Y-6962724D02*
X6684032Y-6972247D01*
X6893555Y-7086533D02*
X6874508Y-7077009D01*
X6874508Y-7077009D02*
X6864984Y-7067485D01*
X6864984Y-7067485D02*
X6855460Y-7048438D01*
X6855460Y-7048438D02*
X6855460Y-6991295D01*
X6855460Y-6991295D02*
X6864984Y-6972247D01*
X6864984Y-6972247D02*
X6874508Y-6962724D01*
X6874508Y-6962724D02*
X6893555Y-6953200D01*
X6893555Y-6953200D02*
X6922127Y-6953200D01*
X6922127Y-6953200D02*
X6941175Y-6962724D01*
X6941175Y-6962724D02*
X6950698Y-6972247D01*
X6950698Y-6972247D02*
X6960222Y-6991295D01*
X6960222Y-6991295D02*
X6960222Y-7048438D01*
X6960222Y-7048438D02*
X6950698Y-7067485D01*
X6950698Y-7067485D02*
X6941175Y-7077009D01*
X6941175Y-7077009D02*
X6922127Y-7086533D01*
X6922127Y-7086533D02*
X6893555Y-7086533D01*
X7074508Y-7086533D02*
X7055460Y-7077009D01*
X7055460Y-7077009D02*
X7045936Y-7057962D01*
X7045936Y-7057962D02*
X7045936Y-6886533D01*
X7226889Y-7077009D02*
X7207841Y-7086533D01*
X7207841Y-7086533D02*
X7169746Y-7086533D01*
X7169746Y-7086533D02*
X7150698Y-7077009D01*
X7150698Y-7077009D02*
X7141175Y-7057962D01*
X7141175Y-7057962D02*
X7141175Y-6981771D01*
X7141175Y-6981771D02*
X7150698Y-6962724D01*
X7150698Y-6962724D02*
X7169746Y-6953200D01*
X7169746Y-6953200D02*
X7207841Y-6953200D01*
X7207841Y-6953200D02*
X7226889Y-6962724D01*
X7226889Y-6962724D02*
X7236413Y-6981771D01*
X7236413Y-6981771D02*
X7236413Y-7000819D01*
X7236413Y-7000819D02*
X7141175Y-7019866D01*
X7312603Y-7077009D02*
X7331651Y-7086533D01*
X7331651Y-7086533D02*
X7369746Y-7086533D01*
X7369746Y-7086533D02*
X7388794Y-7077009D01*
X7388794Y-7077009D02*
X7398317Y-7057962D01*
X7398317Y-7057962D02*
X7398317Y-7048438D01*
X7398317Y-7048438D02*
X7388794Y-7029390D01*
X7388794Y-7029390D02*
X7369746Y-7019866D01*
X7369746Y-7019866D02*
X7341175Y-7019866D01*
X7341175Y-7019866D02*
X7322127Y-7010343D01*
X7322127Y-7010343D02*
X7312603Y-6991295D01*
X7312603Y-6991295D02*
X7312603Y-6981771D01*
X7312603Y-6981771D02*
X7322127Y-6962724D01*
X7322127Y-6962724D02*
X7341175Y-6953200D01*
X7341175Y-6953200D02*
X7369746Y-6953200D01*
X7369746Y-6953200D02*
X7388794Y-6962724D01*
X7464984Y-7162724D02*
X7474508Y-7153200D01*
X7474508Y-7153200D02*
X7493556Y-7124628D01*
X7493556Y-7124628D02*
X7503079Y-7105581D01*
X7503079Y-7105581D02*
X7512603Y-7077009D01*
X7512603Y-7077009D02*
X7522127Y-7029390D01*
X7522127Y-7029390D02*
X7522127Y-6991295D01*
X7522127Y-6991295D02*
X7512603Y-6943676D01*
X7512603Y-6943676D02*
X7503079Y-6915105D01*
X7503079Y-6915105D02*
X7493556Y-6896057D01*
X7493556Y-6896057D02*
X7474508Y-6867485D01*
X7474508Y-6867485D02*
X7464984Y-6857962D01*
D10*
X2499445Y-7259049D02*
G75*
G02*
X2419445Y-7259049I-40000J0D01*
G01*
X2419445Y-7259049D02*
G75*
G02*
X2499445Y-7259049I40000J0D01*
G01*
D12*
X2798317Y-7150533D02*
X2817365Y-7150533D01*
X2817365Y-7150533D02*
X2836412Y-7160057D01*
X2836412Y-7160057D02*
X2845936Y-7169581D01*
X2845936Y-7169581D02*
X2855460Y-7188628D01*
X2855460Y-7188628D02*
X2864984Y-7226724D01*
X2864984Y-7226724D02*
X2864984Y-7274343D01*
X2864984Y-7274343D02*
X2855460Y-7312438D01*
X2855460Y-7312438D02*
X2845936Y-7331485D01*
X2845936Y-7331485D02*
X2836412Y-7341009D01*
X2836412Y-7341009D02*
X2817365Y-7350533D01*
X2817365Y-7350533D02*
X2798317Y-7350533D01*
X2798317Y-7350533D02*
X2779269Y-7341009D01*
X2779269Y-7341009D02*
X2769746Y-7331485D01*
X2769746Y-7331485D02*
X2760222Y-7312438D01*
X2760222Y-7312438D02*
X2750698Y-7274343D01*
X2750698Y-7274343D02*
X2750698Y-7226724D01*
X2750698Y-7226724D02*
X2760222Y-7188628D01*
X2760222Y-7188628D02*
X2769746Y-7169581D01*
X2769746Y-7169581D02*
X2779269Y-7160057D01*
X2779269Y-7160057D02*
X2798317Y-7150533D01*
X2950698Y-7331485D02*
X2960222Y-7341009D01*
X2960222Y-7341009D02*
X2950698Y-7350533D01*
X2950698Y-7350533D02*
X2941174Y-7341009D01*
X2941174Y-7341009D02*
X2950698Y-7331485D01*
X2950698Y-7331485D02*
X2950698Y-7350533D01*
X3074507Y-7236247D02*
X3055460Y-7226724D01*
X3055460Y-7226724D02*
X3045936Y-7217200D01*
X3045936Y-7217200D02*
X3036412Y-7198152D01*
X3036412Y-7198152D02*
X3036412Y-7188628D01*
X3036412Y-7188628D02*
X3045936Y-7169581D01*
X3045936Y-7169581D02*
X3055460Y-7160057D01*
X3055460Y-7160057D02*
X3074507Y-7150533D01*
X3074507Y-7150533D02*
X3112603Y-7150533D01*
X3112603Y-7150533D02*
X3131650Y-7160057D01*
X3131650Y-7160057D02*
X3141174Y-7169581D01*
X3141174Y-7169581D02*
X3150698Y-7188628D01*
X3150698Y-7188628D02*
X3150698Y-7198152D01*
X3150698Y-7198152D02*
X3141174Y-7217200D01*
X3141174Y-7217200D02*
X3131650Y-7226724D01*
X3131650Y-7226724D02*
X3112603Y-7236247D01*
X3112603Y-7236247D02*
X3074507Y-7236247D01*
X3074507Y-7236247D02*
X3055460Y-7245771D01*
X3055460Y-7245771D02*
X3045936Y-7255295D01*
X3045936Y-7255295D02*
X3036412Y-7274343D01*
X3036412Y-7274343D02*
X3036412Y-7312438D01*
X3036412Y-7312438D02*
X3045936Y-7331485D01*
X3045936Y-7331485D02*
X3055460Y-7341009D01*
X3055460Y-7341009D02*
X3074507Y-7350533D01*
X3074507Y-7350533D02*
X3112603Y-7350533D01*
X3112603Y-7350533D02*
X3131650Y-7341009D01*
X3131650Y-7341009D02*
X3141174Y-7331485D01*
X3141174Y-7331485D02*
X3150698Y-7312438D01*
X3150698Y-7312438D02*
X3150698Y-7274343D01*
X3150698Y-7274343D02*
X3141174Y-7255295D01*
X3141174Y-7255295D02*
X3131650Y-7245771D01*
X3131650Y-7245771D02*
X3112603Y-7236247D01*
X3274507Y-7150533D02*
X3293555Y-7150533D01*
X3293555Y-7150533D02*
X3312603Y-7160057D01*
X3312603Y-7160057D02*
X3322127Y-7169581D01*
X3322127Y-7169581D02*
X3331650Y-7188628D01*
X3331650Y-7188628D02*
X3341174Y-7226724D01*
X3341174Y-7226724D02*
X3341174Y-7274343D01*
X3341174Y-7274343D02*
X3331650Y-7312438D01*
X3331650Y-7312438D02*
X3322127Y-7331485D01*
X3322127Y-7331485D02*
X3312603Y-7341009D01*
X3312603Y-7341009D02*
X3293555Y-7350533D01*
X3293555Y-7350533D02*
X3274507Y-7350533D01*
X3274507Y-7350533D02*
X3255460Y-7341009D01*
X3255460Y-7341009D02*
X3245936Y-7331485D01*
X3245936Y-7331485D02*
X3236412Y-7312438D01*
X3236412Y-7312438D02*
X3226888Y-7274343D01*
X3226888Y-7274343D02*
X3226888Y-7226724D01*
X3226888Y-7226724D02*
X3236412Y-7188628D01*
X3236412Y-7188628D02*
X3245936Y-7169581D01*
X3245936Y-7169581D02*
X3255460Y-7160057D01*
X3255460Y-7160057D02*
X3274507Y-7150533D01*
X3464984Y-7150533D02*
X3484031Y-7150533D01*
X3484031Y-7150533D02*
X3503079Y-7160057D01*
X3503079Y-7160057D02*
X3512603Y-7169581D01*
X3512603Y-7169581D02*
X3522127Y-7188628D01*
X3522127Y-7188628D02*
X3531650Y-7226724D01*
X3531650Y-7226724D02*
X3531650Y-7274343D01*
X3531650Y-7274343D02*
X3522127Y-7312438D01*
X3522127Y-7312438D02*
X3512603Y-7331485D01*
X3512603Y-7331485D02*
X3503079Y-7341009D01*
X3503079Y-7341009D02*
X3484031Y-7350533D01*
X3484031Y-7350533D02*
X3464984Y-7350533D01*
X3464984Y-7350533D02*
X3445936Y-7341009D01*
X3445936Y-7341009D02*
X3436412Y-7331485D01*
X3436412Y-7331485D02*
X3426888Y-7312438D01*
X3426888Y-7312438D02*
X3417365Y-7274343D01*
X3417365Y-7274343D02*
X3417365Y-7226724D01*
X3417365Y-7226724D02*
X3426888Y-7188628D01*
X3426888Y-7188628D02*
X3436412Y-7169581D01*
X3436412Y-7169581D02*
X3445936Y-7160057D01*
X3445936Y-7160057D02*
X3464984Y-7150533D01*
X3617365Y-7350533D02*
X3617365Y-7217200D01*
X3617365Y-7236247D02*
X3626888Y-7226724D01*
X3626888Y-7226724D02*
X3645936Y-7217200D01*
X3645936Y-7217200D02*
X3674508Y-7217200D01*
X3674508Y-7217200D02*
X3693555Y-7226724D01*
X3693555Y-7226724D02*
X3703079Y-7245771D01*
X3703079Y-7245771D02*
X3703079Y-7350533D01*
X3703079Y-7245771D02*
X3712603Y-7226724D01*
X3712603Y-7226724D02*
X3731650Y-7217200D01*
X3731650Y-7217200D02*
X3760222Y-7217200D01*
X3760222Y-7217200D02*
X3779269Y-7226724D01*
X3779269Y-7226724D02*
X3788793Y-7245771D01*
X3788793Y-7245771D02*
X3788793Y-7350533D01*
X3884031Y-7350533D02*
X3884031Y-7217200D01*
X3884031Y-7236247D02*
X3893555Y-7226724D01*
X3893555Y-7226724D02*
X3912603Y-7217200D01*
X3912603Y-7217200D02*
X3941174Y-7217200D01*
X3941174Y-7217200D02*
X3960222Y-7226724D01*
X3960222Y-7226724D02*
X3969746Y-7245771D01*
X3969746Y-7245771D02*
X3969746Y-7350533D01*
X3969746Y-7245771D02*
X3979269Y-7226724D01*
X3979269Y-7226724D02*
X3998317Y-7217200D01*
X3998317Y-7217200D02*
X4026888Y-7217200D01*
X4026888Y-7217200D02*
X4045936Y-7226724D01*
X4045936Y-7226724D02*
X4055460Y-7245771D01*
X4055460Y-7245771D02*
X4055460Y-7350533D01*
X4445936Y-7141009D02*
X4274508Y-7398152D01*
X4703079Y-7150533D02*
X4722127Y-7150533D01*
X4722127Y-7150533D02*
X4741174Y-7160057D01*
X4741174Y-7160057D02*
X4750698Y-7169581D01*
X4750698Y-7169581D02*
X4760222Y-7188628D01*
X4760222Y-7188628D02*
X4769746Y-7226724D01*
X4769746Y-7226724D02*
X4769746Y-7274343D01*
X4769746Y-7274343D02*
X4760222Y-7312438D01*
X4760222Y-7312438D02*
X4750698Y-7331485D01*
X4750698Y-7331485D02*
X4741174Y-7341009D01*
X4741174Y-7341009D02*
X4722127Y-7350533D01*
X4722127Y-7350533D02*
X4703079Y-7350533D01*
X4703079Y-7350533D02*
X4684032Y-7341009D01*
X4684032Y-7341009D02*
X4674508Y-7331485D01*
X4674508Y-7331485D02*
X4664984Y-7312438D01*
X4664984Y-7312438D02*
X4655460Y-7274343D01*
X4655460Y-7274343D02*
X4655460Y-7226724D01*
X4655460Y-7226724D02*
X4664984Y-7188628D01*
X4664984Y-7188628D02*
X4674508Y-7169581D01*
X4674508Y-7169581D02*
X4684032Y-7160057D01*
X4684032Y-7160057D02*
X4703079Y-7150533D01*
X4855460Y-7331485D02*
X4864984Y-7341009D01*
X4864984Y-7341009D02*
X4855460Y-7350533D01*
X4855460Y-7350533D02*
X4845936Y-7341009D01*
X4845936Y-7341009D02*
X4855460Y-7331485D01*
X4855460Y-7331485D02*
X4855460Y-7350533D01*
X4988793Y-7150533D02*
X5007841Y-7150533D01*
X5007841Y-7150533D02*
X5026889Y-7160057D01*
X5026889Y-7160057D02*
X5036413Y-7169581D01*
X5036413Y-7169581D02*
X5045936Y-7188628D01*
X5045936Y-7188628D02*
X5055460Y-7226724D01*
X5055460Y-7226724D02*
X5055460Y-7274343D01*
X5055460Y-7274343D02*
X5045936Y-7312438D01*
X5045936Y-7312438D02*
X5036413Y-7331485D01*
X5036413Y-7331485D02*
X5026889Y-7341009D01*
X5026889Y-7341009D02*
X5007841Y-7350533D01*
X5007841Y-7350533D02*
X4988793Y-7350533D01*
X4988793Y-7350533D02*
X4969746Y-7341009D01*
X4969746Y-7341009D02*
X4960222Y-7331485D01*
X4960222Y-7331485D02*
X4950698Y-7312438D01*
X4950698Y-7312438D02*
X4941174Y-7274343D01*
X4941174Y-7274343D02*
X4941174Y-7226724D01*
X4941174Y-7226724D02*
X4950698Y-7188628D01*
X4950698Y-7188628D02*
X4960222Y-7169581D01*
X4960222Y-7169581D02*
X4969746Y-7160057D01*
X4969746Y-7160057D02*
X4988793Y-7150533D01*
X5122127Y-7150533D02*
X5245936Y-7150533D01*
X5245936Y-7150533D02*
X5179270Y-7226724D01*
X5179270Y-7226724D02*
X5207841Y-7226724D01*
X5207841Y-7226724D02*
X5226889Y-7236247D01*
X5226889Y-7236247D02*
X5236413Y-7245771D01*
X5236413Y-7245771D02*
X5245936Y-7264819D01*
X5245936Y-7264819D02*
X5245936Y-7312438D01*
X5245936Y-7312438D02*
X5236413Y-7331485D01*
X5236413Y-7331485D02*
X5226889Y-7341009D01*
X5226889Y-7341009D02*
X5207841Y-7350533D01*
X5207841Y-7350533D02*
X5150698Y-7350533D01*
X5150698Y-7350533D02*
X5131651Y-7341009D01*
X5131651Y-7341009D02*
X5122127Y-7331485D01*
X5436413Y-7350533D02*
X5322127Y-7350533D01*
X5379270Y-7350533D02*
X5379270Y-7150533D01*
X5379270Y-7150533D02*
X5360222Y-7179105D01*
X5360222Y-7179105D02*
X5341174Y-7198152D01*
X5341174Y-7198152D02*
X5322127Y-7207676D01*
X5617365Y-7150533D02*
X5522127Y-7150533D01*
X5522127Y-7150533D02*
X5512603Y-7245771D01*
X5512603Y-7245771D02*
X5522127Y-7236247D01*
X5522127Y-7236247D02*
X5541174Y-7226724D01*
X5541174Y-7226724D02*
X5588794Y-7226724D01*
X5588794Y-7226724D02*
X5607841Y-7236247D01*
X5607841Y-7236247D02*
X5617365Y-7245771D01*
X5617365Y-7245771D02*
X5626889Y-7264819D01*
X5626889Y-7264819D02*
X5626889Y-7312438D01*
X5626889Y-7312438D02*
X5617365Y-7331485D01*
X5617365Y-7331485D02*
X5607841Y-7341009D01*
X5607841Y-7341009D02*
X5588794Y-7350533D01*
X5588794Y-7350533D02*
X5541174Y-7350533D01*
X5541174Y-7350533D02*
X5522127Y-7341009D01*
X5522127Y-7341009D02*
X5512603Y-7331485D01*
X5703079Y-7150533D02*
X5703079Y-7188628D01*
X5779270Y-7150533D02*
X5779270Y-7188628D01*
X6074508Y-7426724D02*
X6064984Y-7417200D01*
X6064984Y-7417200D02*
X6045936Y-7388628D01*
X6045936Y-7388628D02*
X6036413Y-7369581D01*
X6036413Y-7369581D02*
X6026889Y-7341009D01*
X6026889Y-7341009D02*
X6017365Y-7293390D01*
X6017365Y-7293390D02*
X6017365Y-7255295D01*
X6017365Y-7255295D02*
X6026889Y-7207676D01*
X6026889Y-7207676D02*
X6036413Y-7179105D01*
X6036413Y-7179105D02*
X6045936Y-7160057D01*
X6045936Y-7160057D02*
X6064984Y-7131485D01*
X6064984Y-7131485D02*
X6074508Y-7121962D01*
X6141174Y-7169581D02*
X6150698Y-7160057D01*
X6150698Y-7160057D02*
X6169746Y-7150533D01*
X6169746Y-7150533D02*
X6217365Y-7150533D01*
X6217365Y-7150533D02*
X6236413Y-7160057D01*
X6236413Y-7160057D02*
X6245936Y-7169581D01*
X6245936Y-7169581D02*
X6255460Y-7188628D01*
X6255460Y-7188628D02*
X6255460Y-7207676D01*
X6255460Y-7207676D02*
X6245936Y-7236247D01*
X6245936Y-7236247D02*
X6131651Y-7350533D01*
X6131651Y-7350533D02*
X6255460Y-7350533D01*
X6493555Y-7350533D02*
X6493555Y-7150533D01*
X6579270Y-7350533D02*
X6579270Y-7245771D01*
X6579270Y-7245771D02*
X6569746Y-7226724D01*
X6569746Y-7226724D02*
X6550698Y-7217200D01*
X6550698Y-7217200D02*
X6522127Y-7217200D01*
X6522127Y-7217200D02*
X6503079Y-7226724D01*
X6503079Y-7226724D02*
X6493555Y-7236247D01*
X6703079Y-7350533D02*
X6684032Y-7341009D01*
X6684032Y-7341009D02*
X6674508Y-7331485D01*
X6674508Y-7331485D02*
X6664984Y-7312438D01*
X6664984Y-7312438D02*
X6664984Y-7255295D01*
X6664984Y-7255295D02*
X6674508Y-7236247D01*
X6674508Y-7236247D02*
X6684032Y-7226724D01*
X6684032Y-7226724D02*
X6703079Y-7217200D01*
X6703079Y-7217200D02*
X6731651Y-7217200D01*
X6731651Y-7217200D02*
X6750698Y-7226724D01*
X6750698Y-7226724D02*
X6760222Y-7236247D01*
X6760222Y-7236247D02*
X6769746Y-7255295D01*
X6769746Y-7255295D02*
X6769746Y-7312438D01*
X6769746Y-7312438D02*
X6760222Y-7331485D01*
X6760222Y-7331485D02*
X6750698Y-7341009D01*
X6750698Y-7341009D02*
X6731651Y-7350533D01*
X6731651Y-7350533D02*
X6703079Y-7350533D01*
X6884032Y-7350533D02*
X6864984Y-7341009D01*
X6864984Y-7341009D02*
X6855460Y-7321962D01*
X6855460Y-7321962D02*
X6855460Y-7150533D01*
X7036413Y-7341009D02*
X7017365Y-7350533D01*
X7017365Y-7350533D02*
X6979270Y-7350533D01*
X6979270Y-7350533D02*
X6960222Y-7341009D01*
X6960222Y-7341009D02*
X6950698Y-7321962D01*
X6950698Y-7321962D02*
X6950698Y-7245771D01*
X6950698Y-7245771D02*
X6960222Y-7226724D01*
X6960222Y-7226724D02*
X6979270Y-7217200D01*
X6979270Y-7217200D02*
X7017365Y-7217200D01*
X7017365Y-7217200D02*
X7036413Y-7226724D01*
X7036413Y-7226724D02*
X7045936Y-7245771D01*
X7045936Y-7245771D02*
X7045936Y-7264819D01*
X7045936Y-7264819D02*
X6950698Y-7283866D01*
X7122127Y-7341009D02*
X7141175Y-7350533D01*
X7141175Y-7350533D02*
X7179270Y-7350533D01*
X7179270Y-7350533D02*
X7198317Y-7341009D01*
X7198317Y-7341009D02*
X7207841Y-7321962D01*
X7207841Y-7321962D02*
X7207841Y-7312438D01*
X7207841Y-7312438D02*
X7198317Y-7293390D01*
X7198317Y-7293390D02*
X7179270Y-7283866D01*
X7179270Y-7283866D02*
X7150698Y-7283866D01*
X7150698Y-7283866D02*
X7131651Y-7274343D01*
X7131651Y-7274343D02*
X7122127Y-7255295D01*
X7122127Y-7255295D02*
X7122127Y-7245771D01*
X7122127Y-7245771D02*
X7131651Y-7226724D01*
X7131651Y-7226724D02*
X7150698Y-7217200D01*
X7150698Y-7217200D02*
X7179270Y-7217200D01*
X7179270Y-7217200D02*
X7198317Y-7226724D01*
X7274508Y-7426724D02*
X7284032Y-7417200D01*
X7284032Y-7417200D02*
X7303079Y-7388628D01*
X7303079Y-7388628D02*
X7312603Y-7369581D01*
X7312603Y-7369581D02*
X7322127Y-7341009D01*
X7322127Y-7341009D02*
X7331651Y-7293390D01*
X7331651Y-7293390D02*
X7331651Y-7255295D01*
X7331651Y-7255295D02*
X7322127Y-7207676D01*
X7322127Y-7207676D02*
X7312603Y-7179105D01*
X7312603Y-7179105D02*
X7303079Y-7160057D01*
X7303079Y-7160057D02*
X7284032Y-7131485D01*
X7284032Y-7131485D02*
X7274508Y-7121962D01*
D10*
X2456945Y-7480549D02*
X2456945Y-7565549D01*
X2414445Y-7523049D02*
X2499445Y-7523049D01*
D12*
X2798317Y-7414533D02*
X2817365Y-7414533D01*
X2817365Y-7414533D02*
X2836412Y-7424057D01*
X2836412Y-7424057D02*
X2845936Y-7433581D01*
X2845936Y-7433581D02*
X2855460Y-7452628D01*
X2855460Y-7452628D02*
X2864984Y-7490724D01*
X2864984Y-7490724D02*
X2864984Y-7538343D01*
X2864984Y-7538343D02*
X2855460Y-7576438D01*
X2855460Y-7576438D02*
X2845936Y-7595485D01*
X2845936Y-7595485D02*
X2836412Y-7605009D01*
X2836412Y-7605009D02*
X2817365Y-7614533D01*
X2817365Y-7614533D02*
X2798317Y-7614533D01*
X2798317Y-7614533D02*
X2779269Y-7605009D01*
X2779269Y-7605009D02*
X2769746Y-7595485D01*
X2769746Y-7595485D02*
X2760222Y-7576438D01*
X2760222Y-7576438D02*
X2750698Y-7538343D01*
X2750698Y-7538343D02*
X2750698Y-7490724D01*
X2750698Y-7490724D02*
X2760222Y-7452628D01*
X2760222Y-7452628D02*
X2769746Y-7433581D01*
X2769746Y-7433581D02*
X2779269Y-7424057D01*
X2779269Y-7424057D02*
X2798317Y-7414533D01*
X2950698Y-7595485D02*
X2960222Y-7605009D01*
X2960222Y-7605009D02*
X2950698Y-7614533D01*
X2950698Y-7614533D02*
X2941174Y-7605009D01*
X2941174Y-7605009D02*
X2950698Y-7595485D01*
X2950698Y-7595485D02*
X2950698Y-7614533D01*
X3074507Y-7500247D02*
X3055460Y-7490724D01*
X3055460Y-7490724D02*
X3045936Y-7481200D01*
X3045936Y-7481200D02*
X3036412Y-7462152D01*
X3036412Y-7462152D02*
X3036412Y-7452628D01*
X3036412Y-7452628D02*
X3045936Y-7433581D01*
X3045936Y-7433581D02*
X3055460Y-7424057D01*
X3055460Y-7424057D02*
X3074507Y-7414533D01*
X3074507Y-7414533D02*
X3112603Y-7414533D01*
X3112603Y-7414533D02*
X3131650Y-7424057D01*
X3131650Y-7424057D02*
X3141174Y-7433581D01*
X3141174Y-7433581D02*
X3150698Y-7452628D01*
X3150698Y-7452628D02*
X3150698Y-7462152D01*
X3150698Y-7462152D02*
X3141174Y-7481200D01*
X3141174Y-7481200D02*
X3131650Y-7490724D01*
X3131650Y-7490724D02*
X3112603Y-7500247D01*
X3112603Y-7500247D02*
X3074507Y-7500247D01*
X3074507Y-7500247D02*
X3055460Y-7509771D01*
X3055460Y-7509771D02*
X3045936Y-7519295D01*
X3045936Y-7519295D02*
X3036412Y-7538343D01*
X3036412Y-7538343D02*
X3036412Y-7576438D01*
X3036412Y-7576438D02*
X3045936Y-7595485D01*
X3045936Y-7595485D02*
X3055460Y-7605009D01*
X3055460Y-7605009D02*
X3074507Y-7614533D01*
X3074507Y-7614533D02*
X3112603Y-7614533D01*
X3112603Y-7614533D02*
X3131650Y-7605009D01*
X3131650Y-7605009D02*
X3141174Y-7595485D01*
X3141174Y-7595485D02*
X3150698Y-7576438D01*
X3150698Y-7576438D02*
X3150698Y-7538343D01*
X3150698Y-7538343D02*
X3141174Y-7519295D01*
X3141174Y-7519295D02*
X3131650Y-7509771D01*
X3131650Y-7509771D02*
X3112603Y-7500247D01*
X3331650Y-7414533D02*
X3236412Y-7414533D01*
X3236412Y-7414533D02*
X3226888Y-7509771D01*
X3226888Y-7509771D02*
X3236412Y-7500247D01*
X3236412Y-7500247D02*
X3255460Y-7490724D01*
X3255460Y-7490724D02*
X3303079Y-7490724D01*
X3303079Y-7490724D02*
X3322127Y-7500247D01*
X3322127Y-7500247D02*
X3331650Y-7509771D01*
X3331650Y-7509771D02*
X3341174Y-7528819D01*
X3341174Y-7528819D02*
X3341174Y-7576438D01*
X3341174Y-7576438D02*
X3331650Y-7595485D01*
X3331650Y-7595485D02*
X3322127Y-7605009D01*
X3322127Y-7605009D02*
X3303079Y-7614533D01*
X3303079Y-7614533D02*
X3255460Y-7614533D01*
X3255460Y-7614533D02*
X3236412Y-7605009D01*
X3236412Y-7605009D02*
X3226888Y-7595485D01*
X3464984Y-7414533D02*
X3484031Y-7414533D01*
X3484031Y-7414533D02*
X3503079Y-7424057D01*
X3503079Y-7424057D02*
X3512603Y-7433581D01*
X3512603Y-7433581D02*
X3522127Y-7452628D01*
X3522127Y-7452628D02*
X3531650Y-7490724D01*
X3531650Y-7490724D02*
X3531650Y-7538343D01*
X3531650Y-7538343D02*
X3522127Y-7576438D01*
X3522127Y-7576438D02*
X3512603Y-7595485D01*
X3512603Y-7595485D02*
X3503079Y-7605009D01*
X3503079Y-7605009D02*
X3484031Y-7614533D01*
X3484031Y-7614533D02*
X3464984Y-7614533D01*
X3464984Y-7614533D02*
X3445936Y-7605009D01*
X3445936Y-7605009D02*
X3436412Y-7595485D01*
X3436412Y-7595485D02*
X3426888Y-7576438D01*
X3426888Y-7576438D02*
X3417365Y-7538343D01*
X3417365Y-7538343D02*
X3417365Y-7490724D01*
X3417365Y-7490724D02*
X3426888Y-7452628D01*
X3426888Y-7452628D02*
X3436412Y-7433581D01*
X3436412Y-7433581D02*
X3445936Y-7424057D01*
X3445936Y-7424057D02*
X3464984Y-7414533D01*
X3617365Y-7614533D02*
X3617365Y-7481200D01*
X3617365Y-7500247D02*
X3626888Y-7490724D01*
X3626888Y-7490724D02*
X3645936Y-7481200D01*
X3645936Y-7481200D02*
X3674508Y-7481200D01*
X3674508Y-7481200D02*
X3693555Y-7490724D01*
X3693555Y-7490724D02*
X3703079Y-7509771D01*
X3703079Y-7509771D02*
X3703079Y-7614533D01*
X3703079Y-7509771D02*
X3712603Y-7490724D01*
X3712603Y-7490724D02*
X3731650Y-7481200D01*
X3731650Y-7481200D02*
X3760222Y-7481200D01*
X3760222Y-7481200D02*
X3779269Y-7490724D01*
X3779269Y-7490724D02*
X3788793Y-7509771D01*
X3788793Y-7509771D02*
X3788793Y-7614533D01*
X3884031Y-7614533D02*
X3884031Y-7481200D01*
X3884031Y-7500247D02*
X3893555Y-7490724D01*
X3893555Y-7490724D02*
X3912603Y-7481200D01*
X3912603Y-7481200D02*
X3941174Y-7481200D01*
X3941174Y-7481200D02*
X3960222Y-7490724D01*
X3960222Y-7490724D02*
X3969746Y-7509771D01*
X3969746Y-7509771D02*
X3969746Y-7614533D01*
X3969746Y-7509771D02*
X3979269Y-7490724D01*
X3979269Y-7490724D02*
X3998317Y-7481200D01*
X3998317Y-7481200D02*
X4026888Y-7481200D01*
X4026888Y-7481200D02*
X4045936Y-7490724D01*
X4045936Y-7490724D02*
X4055460Y-7509771D01*
X4055460Y-7509771D02*
X4055460Y-7614533D01*
X4445936Y-7405009D02*
X4274508Y-7662152D01*
X4703079Y-7414533D02*
X4722127Y-7414533D01*
X4722127Y-7414533D02*
X4741174Y-7424057D01*
X4741174Y-7424057D02*
X4750698Y-7433581D01*
X4750698Y-7433581D02*
X4760222Y-7452628D01*
X4760222Y-7452628D02*
X4769746Y-7490724D01*
X4769746Y-7490724D02*
X4769746Y-7538343D01*
X4769746Y-7538343D02*
X4760222Y-7576438D01*
X4760222Y-7576438D02*
X4750698Y-7595485D01*
X4750698Y-7595485D02*
X4741174Y-7605009D01*
X4741174Y-7605009D02*
X4722127Y-7614533D01*
X4722127Y-7614533D02*
X4703079Y-7614533D01*
X4703079Y-7614533D02*
X4684032Y-7605009D01*
X4684032Y-7605009D02*
X4674508Y-7595485D01*
X4674508Y-7595485D02*
X4664984Y-7576438D01*
X4664984Y-7576438D02*
X4655460Y-7538343D01*
X4655460Y-7538343D02*
X4655460Y-7490724D01*
X4655460Y-7490724D02*
X4664984Y-7452628D01*
X4664984Y-7452628D02*
X4674508Y-7433581D01*
X4674508Y-7433581D02*
X4684032Y-7424057D01*
X4684032Y-7424057D02*
X4703079Y-7414533D01*
X4855460Y-7595485D02*
X4864984Y-7605009D01*
X4864984Y-7605009D02*
X4855460Y-7614533D01*
X4855460Y-7614533D02*
X4845936Y-7605009D01*
X4845936Y-7605009D02*
X4855460Y-7595485D01*
X4855460Y-7595485D02*
X4855460Y-7614533D01*
X4988793Y-7414533D02*
X5007841Y-7414533D01*
X5007841Y-7414533D02*
X5026889Y-7424057D01*
X5026889Y-7424057D02*
X5036413Y-7433581D01*
X5036413Y-7433581D02*
X5045936Y-7452628D01*
X5045936Y-7452628D02*
X5055460Y-7490724D01*
X5055460Y-7490724D02*
X5055460Y-7538343D01*
X5055460Y-7538343D02*
X5045936Y-7576438D01*
X5045936Y-7576438D02*
X5036413Y-7595485D01*
X5036413Y-7595485D02*
X5026889Y-7605009D01*
X5026889Y-7605009D02*
X5007841Y-7614533D01*
X5007841Y-7614533D02*
X4988793Y-7614533D01*
X4988793Y-7614533D02*
X4969746Y-7605009D01*
X4969746Y-7605009D02*
X4960222Y-7595485D01*
X4960222Y-7595485D02*
X4950698Y-7576438D01*
X4950698Y-7576438D02*
X4941174Y-7538343D01*
X4941174Y-7538343D02*
X4941174Y-7490724D01*
X4941174Y-7490724D02*
X4950698Y-7452628D01*
X4950698Y-7452628D02*
X4960222Y-7433581D01*
X4960222Y-7433581D02*
X4969746Y-7424057D01*
X4969746Y-7424057D02*
X4988793Y-7414533D01*
X5122127Y-7414533D02*
X5245936Y-7414533D01*
X5245936Y-7414533D02*
X5179270Y-7490724D01*
X5179270Y-7490724D02*
X5207841Y-7490724D01*
X5207841Y-7490724D02*
X5226889Y-7500247D01*
X5226889Y-7500247D02*
X5236413Y-7509771D01*
X5236413Y-7509771D02*
X5245936Y-7528819D01*
X5245936Y-7528819D02*
X5245936Y-7576438D01*
X5245936Y-7576438D02*
X5236413Y-7595485D01*
X5236413Y-7595485D02*
X5226889Y-7605009D01*
X5226889Y-7605009D02*
X5207841Y-7614533D01*
X5207841Y-7614533D02*
X5150698Y-7614533D01*
X5150698Y-7614533D02*
X5131651Y-7605009D01*
X5131651Y-7605009D02*
X5122127Y-7595485D01*
X5312603Y-7414533D02*
X5436413Y-7414533D01*
X5436413Y-7414533D02*
X5369746Y-7490724D01*
X5369746Y-7490724D02*
X5398317Y-7490724D01*
X5398317Y-7490724D02*
X5417365Y-7500247D01*
X5417365Y-7500247D02*
X5426889Y-7509771D01*
X5426889Y-7509771D02*
X5436413Y-7528819D01*
X5436413Y-7528819D02*
X5436413Y-7576438D01*
X5436413Y-7576438D02*
X5426889Y-7595485D01*
X5426889Y-7595485D02*
X5417365Y-7605009D01*
X5417365Y-7605009D02*
X5398317Y-7614533D01*
X5398317Y-7614533D02*
X5341174Y-7614533D01*
X5341174Y-7614533D02*
X5322127Y-7605009D01*
X5322127Y-7605009D02*
X5312603Y-7595485D01*
X5617365Y-7414533D02*
X5522127Y-7414533D01*
X5522127Y-7414533D02*
X5512603Y-7509771D01*
X5512603Y-7509771D02*
X5522127Y-7500247D01*
X5522127Y-7500247D02*
X5541174Y-7490724D01*
X5541174Y-7490724D02*
X5588794Y-7490724D01*
X5588794Y-7490724D02*
X5607841Y-7500247D01*
X5607841Y-7500247D02*
X5617365Y-7509771D01*
X5617365Y-7509771D02*
X5626889Y-7528819D01*
X5626889Y-7528819D02*
X5626889Y-7576438D01*
X5626889Y-7576438D02*
X5617365Y-7595485D01*
X5617365Y-7595485D02*
X5607841Y-7605009D01*
X5607841Y-7605009D02*
X5588794Y-7614533D01*
X5588794Y-7614533D02*
X5541174Y-7614533D01*
X5541174Y-7614533D02*
X5522127Y-7605009D01*
X5522127Y-7605009D02*
X5512603Y-7595485D01*
X5703079Y-7414533D02*
X5703079Y-7452628D01*
X5779270Y-7414533D02*
X5779270Y-7452628D01*
X6074508Y-7690724D02*
X6064984Y-7681200D01*
X6064984Y-7681200D02*
X6045936Y-7652628D01*
X6045936Y-7652628D02*
X6036413Y-7633581D01*
X6036413Y-7633581D02*
X6026889Y-7605009D01*
X6026889Y-7605009D02*
X6017365Y-7557390D01*
X6017365Y-7557390D02*
X6017365Y-7519295D01*
X6017365Y-7519295D02*
X6026889Y-7471676D01*
X6026889Y-7471676D02*
X6036413Y-7443105D01*
X6036413Y-7443105D02*
X6045936Y-7424057D01*
X6045936Y-7424057D02*
X6064984Y-7395485D01*
X6064984Y-7395485D02*
X6074508Y-7385962D01*
X6255460Y-7614533D02*
X6141174Y-7614533D01*
X6198317Y-7614533D02*
X6198317Y-7414533D01*
X6198317Y-7414533D02*
X6179270Y-7443105D01*
X6179270Y-7443105D02*
X6160222Y-7462152D01*
X6160222Y-7462152D02*
X6141174Y-7471676D01*
X6350698Y-7614533D02*
X6388793Y-7614533D01*
X6388793Y-7614533D02*
X6407841Y-7605009D01*
X6407841Y-7605009D02*
X6417365Y-7595485D01*
X6417365Y-7595485D02*
X6436413Y-7566914D01*
X6436413Y-7566914D02*
X6445936Y-7528819D01*
X6445936Y-7528819D02*
X6445936Y-7452628D01*
X6445936Y-7452628D02*
X6436413Y-7433581D01*
X6436413Y-7433581D02*
X6426889Y-7424057D01*
X6426889Y-7424057D02*
X6407841Y-7414533D01*
X6407841Y-7414533D02*
X6369746Y-7414533D01*
X6369746Y-7414533D02*
X6350698Y-7424057D01*
X6350698Y-7424057D02*
X6341174Y-7433581D01*
X6341174Y-7433581D02*
X6331651Y-7452628D01*
X6331651Y-7452628D02*
X6331651Y-7500247D01*
X6331651Y-7500247D02*
X6341174Y-7519295D01*
X6341174Y-7519295D02*
X6350698Y-7528819D01*
X6350698Y-7528819D02*
X6369746Y-7538343D01*
X6369746Y-7538343D02*
X6407841Y-7538343D01*
X6407841Y-7538343D02*
X6426889Y-7528819D01*
X6426889Y-7528819D02*
X6436413Y-7519295D01*
X6436413Y-7519295D02*
X6445936Y-7500247D01*
X6522127Y-7433581D02*
X6531651Y-7424057D01*
X6531651Y-7424057D02*
X6550698Y-7414533D01*
X6550698Y-7414533D02*
X6598317Y-7414533D01*
X6598317Y-7414533D02*
X6617365Y-7424057D01*
X6617365Y-7424057D02*
X6626889Y-7433581D01*
X6626889Y-7433581D02*
X6636413Y-7452628D01*
X6636413Y-7452628D02*
X6636413Y-7471676D01*
X6636413Y-7471676D02*
X6626889Y-7500247D01*
X6626889Y-7500247D02*
X6512603Y-7614533D01*
X6512603Y-7614533D02*
X6636413Y-7614533D01*
X6874508Y-7614533D02*
X6874508Y-7414533D01*
X6960222Y-7614533D02*
X6960222Y-7509771D01*
X6960222Y-7509771D02*
X6950698Y-7490724D01*
X6950698Y-7490724D02*
X6931651Y-7481200D01*
X6931651Y-7481200D02*
X6903079Y-7481200D01*
X6903079Y-7481200D02*
X6884032Y-7490724D01*
X6884032Y-7490724D02*
X6874508Y-7500247D01*
X7084032Y-7614533D02*
X7064984Y-7605009D01*
X7064984Y-7605009D02*
X7055460Y-7595485D01*
X7055460Y-7595485D02*
X7045936Y-7576438D01*
X7045936Y-7576438D02*
X7045936Y-7519295D01*
X7045936Y-7519295D02*
X7055460Y-7500247D01*
X7055460Y-7500247D02*
X7064984Y-7490724D01*
X7064984Y-7490724D02*
X7084032Y-7481200D01*
X7084032Y-7481200D02*
X7112603Y-7481200D01*
X7112603Y-7481200D02*
X7131651Y-7490724D01*
X7131651Y-7490724D02*
X7141175Y-7500247D01*
X7141175Y-7500247D02*
X7150698Y-7519295D01*
X7150698Y-7519295D02*
X7150698Y-7576438D01*
X7150698Y-7576438D02*
X7141175Y-7595485D01*
X7141175Y-7595485D02*
X7131651Y-7605009D01*
X7131651Y-7605009D02*
X7112603Y-7614533D01*
X7112603Y-7614533D02*
X7084032Y-7614533D01*
X7264984Y-7614533D02*
X7245936Y-7605009D01*
X7245936Y-7605009D02*
X7236413Y-7585962D01*
X7236413Y-7585962D02*
X7236413Y-7414533D01*
X7417365Y-7605009D02*
X7398317Y-7614533D01*
X7398317Y-7614533D02*
X7360222Y-7614533D01*
X7360222Y-7614533D02*
X7341175Y-7605009D01*
X7341175Y-7605009D02*
X7331651Y-7585962D01*
X7331651Y-7585962D02*
X7331651Y-7509771D01*
X7331651Y-7509771D02*
X7341175Y-7490724D01*
X7341175Y-7490724D02*
X7360222Y-7481200D01*
X7360222Y-7481200D02*
X7398317Y-7481200D01*
X7398317Y-7481200D02*
X7417365Y-7490724D01*
X7417365Y-7490724D02*
X7426889Y-7509771D01*
X7426889Y-7509771D02*
X7426889Y-7528819D01*
X7426889Y-7528819D02*
X7331651Y-7547866D01*
X7503079Y-7605009D02*
X7522127Y-7614533D01*
X7522127Y-7614533D02*
X7560222Y-7614533D01*
X7560222Y-7614533D02*
X7579270Y-7605009D01*
X7579270Y-7605009D02*
X7588794Y-7585962D01*
X7588794Y-7585962D02*
X7588794Y-7576438D01*
X7588794Y-7576438D02*
X7579270Y-7557390D01*
X7579270Y-7557390D02*
X7560222Y-7547866D01*
X7560222Y-7547866D02*
X7531651Y-7547866D01*
X7531651Y-7547866D02*
X7512603Y-7538343D01*
X7512603Y-7538343D02*
X7503079Y-7519295D01*
X7503079Y-7519295D02*
X7503079Y-7509771D01*
X7503079Y-7509771D02*
X7512603Y-7490724D01*
X7512603Y-7490724D02*
X7531651Y-7481200D01*
X7531651Y-7481200D02*
X7560222Y-7481200D01*
X7560222Y-7481200D02*
X7579270Y-7490724D01*
X7826889Y-7538343D02*
X7979270Y-7538343D01*
X7903079Y-7614533D02*
X7903079Y-7462152D01*
X8207841Y-7414533D02*
X8331651Y-7414533D01*
X8331651Y-7414533D02*
X8264984Y-7490724D01*
X8264984Y-7490724D02*
X8293556Y-7490724D01*
X8293556Y-7490724D02*
X8312603Y-7500247D01*
X8312603Y-7500247D02*
X8322127Y-7509771D01*
X8322127Y-7509771D02*
X8331651Y-7528819D01*
X8331651Y-7528819D02*
X8331651Y-7576438D01*
X8331651Y-7576438D02*
X8322127Y-7595485D01*
X8322127Y-7595485D02*
X8312603Y-7605009D01*
X8312603Y-7605009D02*
X8293556Y-7614533D01*
X8293556Y-7614533D02*
X8236413Y-7614533D01*
X8236413Y-7614533D02*
X8217365Y-7605009D01*
X8217365Y-7605009D02*
X8207841Y-7595485D01*
X8560222Y-7605009D02*
X8579270Y-7614533D01*
X8579270Y-7614533D02*
X8617365Y-7614533D01*
X8617365Y-7614533D02*
X8636413Y-7605009D01*
X8636413Y-7605009D02*
X8645937Y-7585962D01*
X8645937Y-7585962D02*
X8645937Y-7576438D01*
X8645937Y-7576438D02*
X8636413Y-7557390D01*
X8636413Y-7557390D02*
X8617365Y-7547866D01*
X8617365Y-7547866D02*
X8588794Y-7547866D01*
X8588794Y-7547866D02*
X8569746Y-7538343D01*
X8569746Y-7538343D02*
X8560222Y-7519295D01*
X8560222Y-7519295D02*
X8560222Y-7509771D01*
X8560222Y-7509771D02*
X8569746Y-7490724D01*
X8569746Y-7490724D02*
X8588794Y-7481200D01*
X8588794Y-7481200D02*
X8617365Y-7481200D01*
X8617365Y-7481200D02*
X8636413Y-7490724D01*
X8760222Y-7614533D02*
X8741175Y-7605009D01*
X8741175Y-7605009D02*
X8731651Y-7585962D01*
X8731651Y-7585962D02*
X8731651Y-7414533D01*
X8864984Y-7614533D02*
X8845937Y-7605009D01*
X8845937Y-7605009D02*
X8836413Y-7595485D01*
X8836413Y-7595485D02*
X8826889Y-7576438D01*
X8826889Y-7576438D02*
X8826889Y-7519295D01*
X8826889Y-7519295D02*
X8836413Y-7500247D01*
X8836413Y-7500247D02*
X8845937Y-7490724D01*
X8845937Y-7490724D02*
X8864984Y-7481200D01*
X8864984Y-7481200D02*
X8893556Y-7481200D01*
X8893556Y-7481200D02*
X8912603Y-7490724D01*
X8912603Y-7490724D02*
X8922127Y-7500247D01*
X8922127Y-7500247D02*
X8931651Y-7519295D01*
X8931651Y-7519295D02*
X8931651Y-7576438D01*
X8931651Y-7576438D02*
X8922127Y-7595485D01*
X8922127Y-7595485D02*
X8912603Y-7605009D01*
X8912603Y-7605009D02*
X8893556Y-7614533D01*
X8893556Y-7614533D02*
X8864984Y-7614533D01*
X8988794Y-7481200D02*
X9064984Y-7481200D01*
X9017365Y-7414533D02*
X9017365Y-7585962D01*
X9017365Y-7585962D02*
X9026889Y-7605009D01*
X9026889Y-7605009D02*
X9045937Y-7614533D01*
X9045937Y-7614533D02*
X9064984Y-7614533D01*
X9122127Y-7605009D02*
X9141175Y-7614533D01*
X9141175Y-7614533D02*
X9179270Y-7614533D01*
X9179270Y-7614533D02*
X9198318Y-7605009D01*
X9198318Y-7605009D02*
X9207842Y-7585962D01*
X9207842Y-7585962D02*
X9207842Y-7576438D01*
X9207842Y-7576438D02*
X9198318Y-7557390D01*
X9198318Y-7557390D02*
X9179270Y-7547866D01*
X9179270Y-7547866D02*
X9150699Y-7547866D01*
X9150699Y-7547866D02*
X9131651Y-7538343D01*
X9131651Y-7538343D02*
X9122127Y-7519295D01*
X9122127Y-7519295D02*
X9122127Y-7509771D01*
X9122127Y-7509771D02*
X9131651Y-7490724D01*
X9131651Y-7490724D02*
X9150699Y-7481200D01*
X9150699Y-7481200D02*
X9179270Y-7481200D01*
X9179270Y-7481200D02*
X9198318Y-7490724D01*
X9274508Y-7690724D02*
X9284032Y-7681200D01*
X9284032Y-7681200D02*
X9303080Y-7652628D01*
X9303080Y-7652628D02*
X9312603Y-7633581D01*
X9312603Y-7633581D02*
X9322127Y-7605009D01*
X9322127Y-7605009D02*
X9331651Y-7557390D01*
X9331651Y-7557390D02*
X9331651Y-7519295D01*
X9331651Y-7519295D02*
X9322127Y-7471676D01*
X9322127Y-7471676D02*
X9312603Y-7443105D01*
X9312603Y-7443105D02*
X9303080Y-7424057D01*
X9303080Y-7424057D02*
X9284032Y-7395485D01*
X9284032Y-7395485D02*
X9274508Y-7385962D01*
D10*
X2484801Y-7822405D02*
X2484801Y-7751694D01*
X2414089Y-7751694D01*
X2414089Y-7822405D01*
X2484801Y-7822405D01*
D12*
X2864984Y-7878533D02*
X2750698Y-7878533D01*
X2807841Y-7878533D02*
X2807841Y-7678533D01*
X2807841Y-7678533D02*
X2788793Y-7707105D01*
X2788793Y-7707105D02*
X2769746Y-7726152D01*
X2769746Y-7726152D02*
X2750698Y-7735676D01*
X2950698Y-7859485D02*
X2960222Y-7869009D01*
X2960222Y-7869009D02*
X2950698Y-7878533D01*
X2950698Y-7878533D02*
X2941174Y-7869009D01*
X2941174Y-7869009D02*
X2950698Y-7859485D01*
X2950698Y-7859485D02*
X2950698Y-7878533D01*
X3084031Y-7678533D02*
X3103079Y-7678533D01*
X3103079Y-7678533D02*
X3122127Y-7688057D01*
X3122127Y-7688057D02*
X3131650Y-7697581D01*
X3131650Y-7697581D02*
X3141174Y-7716628D01*
X3141174Y-7716628D02*
X3150698Y-7754724D01*
X3150698Y-7754724D02*
X3150698Y-7802343D01*
X3150698Y-7802343D02*
X3141174Y-7840438D01*
X3141174Y-7840438D02*
X3131650Y-7859485D01*
X3131650Y-7859485D02*
X3122127Y-7869009D01*
X3122127Y-7869009D02*
X3103079Y-7878533D01*
X3103079Y-7878533D02*
X3084031Y-7878533D01*
X3084031Y-7878533D02*
X3064984Y-7869009D01*
X3064984Y-7869009D02*
X3055460Y-7859485D01*
X3055460Y-7859485D02*
X3045936Y-7840438D01*
X3045936Y-7840438D02*
X3036412Y-7802343D01*
X3036412Y-7802343D02*
X3036412Y-7754724D01*
X3036412Y-7754724D02*
X3045936Y-7716628D01*
X3045936Y-7716628D02*
X3055460Y-7697581D01*
X3055460Y-7697581D02*
X3064984Y-7688057D01*
X3064984Y-7688057D02*
X3084031Y-7678533D01*
X3274507Y-7678533D02*
X3293555Y-7678533D01*
X3293555Y-7678533D02*
X3312603Y-7688057D01*
X3312603Y-7688057D02*
X3322127Y-7697581D01*
X3322127Y-7697581D02*
X3331650Y-7716628D01*
X3331650Y-7716628D02*
X3341174Y-7754724D01*
X3341174Y-7754724D02*
X3341174Y-7802343D01*
X3341174Y-7802343D02*
X3331650Y-7840438D01*
X3331650Y-7840438D02*
X3322127Y-7859485D01*
X3322127Y-7859485D02*
X3312603Y-7869009D01*
X3312603Y-7869009D02*
X3293555Y-7878533D01*
X3293555Y-7878533D02*
X3274507Y-7878533D01*
X3274507Y-7878533D02*
X3255460Y-7869009D01*
X3255460Y-7869009D02*
X3245936Y-7859485D01*
X3245936Y-7859485D02*
X3236412Y-7840438D01*
X3236412Y-7840438D02*
X3226888Y-7802343D01*
X3226888Y-7802343D02*
X3226888Y-7754724D01*
X3226888Y-7754724D02*
X3236412Y-7716628D01*
X3236412Y-7716628D02*
X3245936Y-7697581D01*
X3245936Y-7697581D02*
X3255460Y-7688057D01*
X3255460Y-7688057D02*
X3274507Y-7678533D01*
X3464984Y-7678533D02*
X3484031Y-7678533D01*
X3484031Y-7678533D02*
X3503079Y-7688057D01*
X3503079Y-7688057D02*
X3512603Y-7697581D01*
X3512603Y-7697581D02*
X3522127Y-7716628D01*
X3522127Y-7716628D02*
X3531650Y-7754724D01*
X3531650Y-7754724D02*
X3531650Y-7802343D01*
X3531650Y-7802343D02*
X3522127Y-7840438D01*
X3522127Y-7840438D02*
X3512603Y-7859485D01*
X3512603Y-7859485D02*
X3503079Y-7869009D01*
X3503079Y-7869009D02*
X3484031Y-7878533D01*
X3484031Y-7878533D02*
X3464984Y-7878533D01*
X3464984Y-7878533D02*
X3445936Y-7869009D01*
X3445936Y-7869009D02*
X3436412Y-7859485D01*
X3436412Y-7859485D02*
X3426888Y-7840438D01*
X3426888Y-7840438D02*
X3417365Y-7802343D01*
X3417365Y-7802343D02*
X3417365Y-7754724D01*
X3417365Y-7754724D02*
X3426888Y-7716628D01*
X3426888Y-7716628D02*
X3436412Y-7697581D01*
X3436412Y-7697581D02*
X3445936Y-7688057D01*
X3445936Y-7688057D02*
X3464984Y-7678533D01*
X3617365Y-7878533D02*
X3617365Y-7745200D01*
X3617365Y-7764247D02*
X3626888Y-7754724D01*
X3626888Y-7754724D02*
X3645936Y-7745200D01*
X3645936Y-7745200D02*
X3674508Y-7745200D01*
X3674508Y-7745200D02*
X3693555Y-7754724D01*
X3693555Y-7754724D02*
X3703079Y-7773771D01*
X3703079Y-7773771D02*
X3703079Y-7878533D01*
X3703079Y-7773771D02*
X3712603Y-7754724D01*
X3712603Y-7754724D02*
X3731650Y-7745200D01*
X3731650Y-7745200D02*
X3760222Y-7745200D01*
X3760222Y-7745200D02*
X3779269Y-7754724D01*
X3779269Y-7754724D02*
X3788793Y-7773771D01*
X3788793Y-7773771D02*
X3788793Y-7878533D01*
X3884031Y-7878533D02*
X3884031Y-7745200D01*
X3884031Y-7764247D02*
X3893555Y-7754724D01*
X3893555Y-7754724D02*
X3912603Y-7745200D01*
X3912603Y-7745200D02*
X3941174Y-7745200D01*
X3941174Y-7745200D02*
X3960222Y-7754724D01*
X3960222Y-7754724D02*
X3969746Y-7773771D01*
X3969746Y-7773771D02*
X3969746Y-7878533D01*
X3969746Y-7773771D02*
X3979269Y-7754724D01*
X3979269Y-7754724D02*
X3998317Y-7745200D01*
X3998317Y-7745200D02*
X4026888Y-7745200D01*
X4026888Y-7745200D02*
X4045936Y-7754724D01*
X4045936Y-7754724D02*
X4055460Y-7773771D01*
X4055460Y-7773771D02*
X4055460Y-7878533D01*
X4445936Y-7669009D02*
X4274508Y-7926152D01*
X4703079Y-7678533D02*
X4722127Y-7678533D01*
X4722127Y-7678533D02*
X4741174Y-7688057D01*
X4741174Y-7688057D02*
X4750698Y-7697581D01*
X4750698Y-7697581D02*
X4760222Y-7716628D01*
X4760222Y-7716628D02*
X4769746Y-7754724D01*
X4769746Y-7754724D02*
X4769746Y-7802343D01*
X4769746Y-7802343D02*
X4760222Y-7840438D01*
X4760222Y-7840438D02*
X4750698Y-7859485D01*
X4750698Y-7859485D02*
X4741174Y-7869009D01*
X4741174Y-7869009D02*
X4722127Y-7878533D01*
X4722127Y-7878533D02*
X4703079Y-7878533D01*
X4703079Y-7878533D02*
X4684032Y-7869009D01*
X4684032Y-7869009D02*
X4674508Y-7859485D01*
X4674508Y-7859485D02*
X4664984Y-7840438D01*
X4664984Y-7840438D02*
X4655460Y-7802343D01*
X4655460Y-7802343D02*
X4655460Y-7754724D01*
X4655460Y-7754724D02*
X4664984Y-7716628D01*
X4664984Y-7716628D02*
X4674508Y-7697581D01*
X4674508Y-7697581D02*
X4684032Y-7688057D01*
X4684032Y-7688057D02*
X4703079Y-7678533D01*
X4855460Y-7859485D02*
X4864984Y-7869009D01*
X4864984Y-7869009D02*
X4855460Y-7878533D01*
X4855460Y-7878533D02*
X4845936Y-7869009D01*
X4845936Y-7869009D02*
X4855460Y-7859485D01*
X4855460Y-7859485D02*
X4855460Y-7878533D01*
X4988793Y-7678533D02*
X5007841Y-7678533D01*
X5007841Y-7678533D02*
X5026889Y-7688057D01*
X5026889Y-7688057D02*
X5036413Y-7697581D01*
X5036413Y-7697581D02*
X5045936Y-7716628D01*
X5045936Y-7716628D02*
X5055460Y-7754724D01*
X5055460Y-7754724D02*
X5055460Y-7802343D01*
X5055460Y-7802343D02*
X5045936Y-7840438D01*
X5045936Y-7840438D02*
X5036413Y-7859485D01*
X5036413Y-7859485D02*
X5026889Y-7869009D01*
X5026889Y-7869009D02*
X5007841Y-7878533D01*
X5007841Y-7878533D02*
X4988793Y-7878533D01*
X4988793Y-7878533D02*
X4969746Y-7869009D01*
X4969746Y-7869009D02*
X4960222Y-7859485D01*
X4960222Y-7859485D02*
X4950698Y-7840438D01*
X4950698Y-7840438D02*
X4941174Y-7802343D01*
X4941174Y-7802343D02*
X4941174Y-7754724D01*
X4941174Y-7754724D02*
X4950698Y-7716628D01*
X4950698Y-7716628D02*
X4960222Y-7697581D01*
X4960222Y-7697581D02*
X4969746Y-7688057D01*
X4969746Y-7688057D02*
X4988793Y-7678533D01*
X5122127Y-7678533D02*
X5245936Y-7678533D01*
X5245936Y-7678533D02*
X5179270Y-7754724D01*
X5179270Y-7754724D02*
X5207841Y-7754724D01*
X5207841Y-7754724D02*
X5226889Y-7764247D01*
X5226889Y-7764247D02*
X5236413Y-7773771D01*
X5236413Y-7773771D02*
X5245936Y-7792819D01*
X5245936Y-7792819D02*
X5245936Y-7840438D01*
X5245936Y-7840438D02*
X5236413Y-7859485D01*
X5236413Y-7859485D02*
X5226889Y-7869009D01*
X5226889Y-7869009D02*
X5207841Y-7878533D01*
X5207841Y-7878533D02*
X5150698Y-7878533D01*
X5150698Y-7878533D02*
X5131651Y-7869009D01*
X5131651Y-7869009D02*
X5122127Y-7859485D01*
X5341174Y-7878533D02*
X5379270Y-7878533D01*
X5379270Y-7878533D02*
X5398317Y-7869009D01*
X5398317Y-7869009D02*
X5407841Y-7859485D01*
X5407841Y-7859485D02*
X5426889Y-7830914D01*
X5426889Y-7830914D02*
X5436413Y-7792819D01*
X5436413Y-7792819D02*
X5436413Y-7716628D01*
X5436413Y-7716628D02*
X5426889Y-7697581D01*
X5426889Y-7697581D02*
X5417365Y-7688057D01*
X5417365Y-7688057D02*
X5398317Y-7678533D01*
X5398317Y-7678533D02*
X5360222Y-7678533D01*
X5360222Y-7678533D02*
X5341174Y-7688057D01*
X5341174Y-7688057D02*
X5331651Y-7697581D01*
X5331651Y-7697581D02*
X5322127Y-7716628D01*
X5322127Y-7716628D02*
X5322127Y-7764247D01*
X5322127Y-7764247D02*
X5331651Y-7783295D01*
X5331651Y-7783295D02*
X5341174Y-7792819D01*
X5341174Y-7792819D02*
X5360222Y-7802343D01*
X5360222Y-7802343D02*
X5398317Y-7802343D01*
X5398317Y-7802343D02*
X5417365Y-7792819D01*
X5417365Y-7792819D02*
X5426889Y-7783295D01*
X5426889Y-7783295D02*
X5436413Y-7764247D01*
X5607841Y-7745200D02*
X5607841Y-7878533D01*
X5560222Y-7669009D02*
X5512603Y-7811866D01*
X5512603Y-7811866D02*
X5636412Y-7811866D01*
X5703079Y-7678533D02*
X5703079Y-7716628D01*
X5779270Y-7678533D02*
X5779270Y-7716628D01*
X6074508Y-7954724D02*
X6064984Y-7945200D01*
X6064984Y-7945200D02*
X6045936Y-7916628D01*
X6045936Y-7916628D02*
X6036413Y-7897581D01*
X6036413Y-7897581D02*
X6026889Y-7869009D01*
X6026889Y-7869009D02*
X6017365Y-7821390D01*
X6017365Y-7821390D02*
X6017365Y-7783295D01*
X6017365Y-7783295D02*
X6026889Y-7735676D01*
X6026889Y-7735676D02*
X6036413Y-7707105D01*
X6036413Y-7707105D02*
X6045936Y-7688057D01*
X6045936Y-7688057D02*
X6064984Y-7659485D01*
X6064984Y-7659485D02*
X6074508Y-7649962D01*
X6255460Y-7878533D02*
X6141174Y-7878533D01*
X6198317Y-7878533D02*
X6198317Y-7678533D01*
X6198317Y-7678533D02*
X6179270Y-7707105D01*
X6179270Y-7707105D02*
X6160222Y-7726152D01*
X6160222Y-7726152D02*
X6141174Y-7735676D01*
X6331651Y-7697581D02*
X6341174Y-7688057D01*
X6341174Y-7688057D02*
X6360222Y-7678533D01*
X6360222Y-7678533D02*
X6407841Y-7678533D01*
X6407841Y-7678533D02*
X6426889Y-7688057D01*
X6426889Y-7688057D02*
X6436413Y-7697581D01*
X6436413Y-7697581D02*
X6445936Y-7716628D01*
X6445936Y-7716628D02*
X6445936Y-7735676D01*
X6445936Y-7735676D02*
X6436413Y-7764247D01*
X6436413Y-7764247D02*
X6322127Y-7878533D01*
X6322127Y-7878533D02*
X6445936Y-7878533D01*
X6512603Y-7678533D02*
X6636413Y-7678533D01*
X6636413Y-7678533D02*
X6569746Y-7754724D01*
X6569746Y-7754724D02*
X6598317Y-7754724D01*
X6598317Y-7754724D02*
X6617365Y-7764247D01*
X6617365Y-7764247D02*
X6626889Y-7773771D01*
X6626889Y-7773771D02*
X6636413Y-7792819D01*
X6636413Y-7792819D02*
X6636413Y-7840438D01*
X6636413Y-7840438D02*
X6626889Y-7859485D01*
X6626889Y-7859485D02*
X6617365Y-7869009D01*
X6617365Y-7869009D02*
X6598317Y-7878533D01*
X6598317Y-7878533D02*
X6541174Y-7878533D01*
X6541174Y-7878533D02*
X6522127Y-7869009D01*
X6522127Y-7869009D02*
X6512603Y-7859485D01*
X6874508Y-7878533D02*
X6874508Y-7678533D01*
X6960222Y-7878533D02*
X6960222Y-7773771D01*
X6960222Y-7773771D02*
X6950698Y-7754724D01*
X6950698Y-7754724D02*
X6931651Y-7745200D01*
X6931651Y-7745200D02*
X6903079Y-7745200D01*
X6903079Y-7745200D02*
X6884032Y-7754724D01*
X6884032Y-7754724D02*
X6874508Y-7764247D01*
X7084032Y-7878533D02*
X7064984Y-7869009D01*
X7064984Y-7869009D02*
X7055460Y-7859485D01*
X7055460Y-7859485D02*
X7045936Y-7840438D01*
X7045936Y-7840438D02*
X7045936Y-7783295D01*
X7045936Y-7783295D02*
X7055460Y-7764247D01*
X7055460Y-7764247D02*
X7064984Y-7754724D01*
X7064984Y-7754724D02*
X7084032Y-7745200D01*
X7084032Y-7745200D02*
X7112603Y-7745200D01*
X7112603Y-7745200D02*
X7131651Y-7754724D01*
X7131651Y-7754724D02*
X7141175Y-7764247D01*
X7141175Y-7764247D02*
X7150698Y-7783295D01*
X7150698Y-7783295D02*
X7150698Y-7840438D01*
X7150698Y-7840438D02*
X7141175Y-7859485D01*
X7141175Y-7859485D02*
X7131651Y-7869009D01*
X7131651Y-7869009D02*
X7112603Y-7878533D01*
X7112603Y-7878533D02*
X7084032Y-7878533D01*
X7264984Y-7878533D02*
X7245936Y-7869009D01*
X7245936Y-7869009D02*
X7236413Y-7849962D01*
X7236413Y-7849962D02*
X7236413Y-7678533D01*
X7417365Y-7869009D02*
X7398317Y-7878533D01*
X7398317Y-7878533D02*
X7360222Y-7878533D01*
X7360222Y-7878533D02*
X7341175Y-7869009D01*
X7341175Y-7869009D02*
X7331651Y-7849962D01*
X7331651Y-7849962D02*
X7331651Y-7773771D01*
X7331651Y-7773771D02*
X7341175Y-7754724D01*
X7341175Y-7754724D02*
X7360222Y-7745200D01*
X7360222Y-7745200D02*
X7398317Y-7745200D01*
X7398317Y-7745200D02*
X7417365Y-7754724D01*
X7417365Y-7754724D02*
X7426889Y-7773771D01*
X7426889Y-7773771D02*
X7426889Y-7792819D01*
X7426889Y-7792819D02*
X7331651Y-7811866D01*
X7503079Y-7869009D02*
X7522127Y-7878533D01*
X7522127Y-7878533D02*
X7560222Y-7878533D01*
X7560222Y-7878533D02*
X7579270Y-7869009D01*
X7579270Y-7869009D02*
X7588794Y-7849962D01*
X7588794Y-7849962D02*
X7588794Y-7840438D01*
X7588794Y-7840438D02*
X7579270Y-7821390D01*
X7579270Y-7821390D02*
X7560222Y-7811866D01*
X7560222Y-7811866D02*
X7531651Y-7811866D01*
X7531651Y-7811866D02*
X7512603Y-7802343D01*
X7512603Y-7802343D02*
X7503079Y-7783295D01*
X7503079Y-7783295D02*
X7503079Y-7773771D01*
X7503079Y-7773771D02*
X7512603Y-7754724D01*
X7512603Y-7754724D02*
X7531651Y-7745200D01*
X7531651Y-7745200D02*
X7560222Y-7745200D01*
X7560222Y-7745200D02*
X7579270Y-7754724D01*
X7655460Y-7954724D02*
X7664984Y-7945200D01*
X7664984Y-7945200D02*
X7684032Y-7916628D01*
X7684032Y-7916628D02*
X7693556Y-7897581D01*
X7693556Y-7897581D02*
X7703079Y-7869009D01*
X7703079Y-7869009D02*
X7712603Y-7821390D01*
X7712603Y-7821390D02*
X7712603Y-7783295D01*
X7712603Y-7783295D02*
X7703079Y-7735676D01*
X7703079Y-7735676D02*
X7693556Y-7707105D01*
X7693556Y-7707105D02*
X7684032Y-7688057D01*
X7684032Y-7688057D02*
X7664984Y-7659485D01*
X7664984Y-7659485D02*
X7655460Y-7649962D01*
D13*
X2424445Y-8126049D02*
X2499445Y-8051049D01*
X2424445Y-7976049D01*
X2349445Y-8051049D01*
X2424445Y-8126049D01*
D12*
X2864984Y-8142533D02*
X2750698Y-8142533D01*
X2807841Y-8142533D02*
X2807841Y-7942533D01*
X2807841Y-7942533D02*
X2788793Y-7971105D01*
X2788793Y-7971105D02*
X2769746Y-7990152D01*
X2769746Y-7990152D02*
X2750698Y-7999676D01*
X2950698Y-8123485D02*
X2960222Y-8133009D01*
X2960222Y-8133009D02*
X2950698Y-8142533D01*
X2950698Y-8142533D02*
X2941174Y-8133009D01*
X2941174Y-8133009D02*
X2950698Y-8123485D01*
X2950698Y-8123485D02*
X2950698Y-8142533D01*
X3141174Y-7942533D02*
X3045936Y-7942533D01*
X3045936Y-7942533D02*
X3036412Y-8037771D01*
X3036412Y-8037771D02*
X3045936Y-8028247D01*
X3045936Y-8028247D02*
X3064984Y-8018724D01*
X3064984Y-8018724D02*
X3112603Y-8018724D01*
X3112603Y-8018724D02*
X3131650Y-8028247D01*
X3131650Y-8028247D02*
X3141174Y-8037771D01*
X3141174Y-8037771D02*
X3150698Y-8056819D01*
X3150698Y-8056819D02*
X3150698Y-8104438D01*
X3150698Y-8104438D02*
X3141174Y-8123485D01*
X3141174Y-8123485D02*
X3131650Y-8133009D01*
X3131650Y-8133009D02*
X3112603Y-8142533D01*
X3112603Y-8142533D02*
X3064984Y-8142533D01*
X3064984Y-8142533D02*
X3045936Y-8133009D01*
X3045936Y-8133009D02*
X3036412Y-8123485D01*
X3274507Y-7942533D02*
X3293555Y-7942533D01*
X3293555Y-7942533D02*
X3312603Y-7952057D01*
X3312603Y-7952057D02*
X3322127Y-7961581D01*
X3322127Y-7961581D02*
X3331650Y-7980628D01*
X3331650Y-7980628D02*
X3341174Y-8018724D01*
X3341174Y-8018724D02*
X3341174Y-8066343D01*
X3341174Y-8066343D02*
X3331650Y-8104438D01*
X3331650Y-8104438D02*
X3322127Y-8123485D01*
X3322127Y-8123485D02*
X3312603Y-8133009D01*
X3312603Y-8133009D02*
X3293555Y-8142533D01*
X3293555Y-8142533D02*
X3274507Y-8142533D01*
X3274507Y-8142533D02*
X3255460Y-8133009D01*
X3255460Y-8133009D02*
X3245936Y-8123485D01*
X3245936Y-8123485D02*
X3236412Y-8104438D01*
X3236412Y-8104438D02*
X3226888Y-8066343D01*
X3226888Y-8066343D02*
X3226888Y-8018724D01*
X3226888Y-8018724D02*
X3236412Y-7980628D01*
X3236412Y-7980628D02*
X3245936Y-7961581D01*
X3245936Y-7961581D02*
X3255460Y-7952057D01*
X3255460Y-7952057D02*
X3274507Y-7942533D01*
X3464984Y-7942533D02*
X3484031Y-7942533D01*
X3484031Y-7942533D02*
X3503079Y-7952057D01*
X3503079Y-7952057D02*
X3512603Y-7961581D01*
X3512603Y-7961581D02*
X3522127Y-7980628D01*
X3522127Y-7980628D02*
X3531650Y-8018724D01*
X3531650Y-8018724D02*
X3531650Y-8066343D01*
X3531650Y-8066343D02*
X3522127Y-8104438D01*
X3522127Y-8104438D02*
X3512603Y-8123485D01*
X3512603Y-8123485D02*
X3503079Y-8133009D01*
X3503079Y-8133009D02*
X3484031Y-8142533D01*
X3484031Y-8142533D02*
X3464984Y-8142533D01*
X3464984Y-8142533D02*
X3445936Y-8133009D01*
X3445936Y-8133009D02*
X3436412Y-8123485D01*
X3436412Y-8123485D02*
X3426888Y-8104438D01*
X3426888Y-8104438D02*
X3417365Y-8066343D01*
X3417365Y-8066343D02*
X3417365Y-8018724D01*
X3417365Y-8018724D02*
X3426888Y-7980628D01*
X3426888Y-7980628D02*
X3436412Y-7961581D01*
X3436412Y-7961581D02*
X3445936Y-7952057D01*
X3445936Y-7952057D02*
X3464984Y-7942533D01*
X3617365Y-8142533D02*
X3617365Y-8009200D01*
X3617365Y-8028247D02*
X3626888Y-8018724D01*
X3626888Y-8018724D02*
X3645936Y-8009200D01*
X3645936Y-8009200D02*
X3674508Y-8009200D01*
X3674508Y-8009200D02*
X3693555Y-8018724D01*
X3693555Y-8018724D02*
X3703079Y-8037771D01*
X3703079Y-8037771D02*
X3703079Y-8142533D01*
X3703079Y-8037771D02*
X3712603Y-8018724D01*
X3712603Y-8018724D02*
X3731650Y-8009200D01*
X3731650Y-8009200D02*
X3760222Y-8009200D01*
X3760222Y-8009200D02*
X3779269Y-8018724D01*
X3779269Y-8018724D02*
X3788793Y-8037771D01*
X3788793Y-8037771D02*
X3788793Y-8142533D01*
X3884031Y-8142533D02*
X3884031Y-8009200D01*
X3884031Y-8028247D02*
X3893555Y-8018724D01*
X3893555Y-8018724D02*
X3912603Y-8009200D01*
X3912603Y-8009200D02*
X3941174Y-8009200D01*
X3941174Y-8009200D02*
X3960222Y-8018724D01*
X3960222Y-8018724D02*
X3969746Y-8037771D01*
X3969746Y-8037771D02*
X3969746Y-8142533D01*
X3969746Y-8037771D02*
X3979269Y-8018724D01*
X3979269Y-8018724D02*
X3998317Y-8009200D01*
X3998317Y-8009200D02*
X4026888Y-8009200D01*
X4026888Y-8009200D02*
X4045936Y-8018724D01*
X4045936Y-8018724D02*
X4055460Y-8037771D01*
X4055460Y-8037771D02*
X4055460Y-8142533D01*
X4445936Y-7933009D02*
X4274508Y-8190152D01*
X4703079Y-7942533D02*
X4722127Y-7942533D01*
X4722127Y-7942533D02*
X4741174Y-7952057D01*
X4741174Y-7952057D02*
X4750698Y-7961581D01*
X4750698Y-7961581D02*
X4760222Y-7980628D01*
X4760222Y-7980628D02*
X4769746Y-8018724D01*
X4769746Y-8018724D02*
X4769746Y-8066343D01*
X4769746Y-8066343D02*
X4760222Y-8104438D01*
X4760222Y-8104438D02*
X4750698Y-8123485D01*
X4750698Y-8123485D02*
X4741174Y-8133009D01*
X4741174Y-8133009D02*
X4722127Y-8142533D01*
X4722127Y-8142533D02*
X4703079Y-8142533D01*
X4703079Y-8142533D02*
X4684032Y-8133009D01*
X4684032Y-8133009D02*
X4674508Y-8123485D01*
X4674508Y-8123485D02*
X4664984Y-8104438D01*
X4664984Y-8104438D02*
X4655460Y-8066343D01*
X4655460Y-8066343D02*
X4655460Y-8018724D01*
X4655460Y-8018724D02*
X4664984Y-7980628D01*
X4664984Y-7980628D02*
X4674508Y-7961581D01*
X4674508Y-7961581D02*
X4684032Y-7952057D01*
X4684032Y-7952057D02*
X4703079Y-7942533D01*
X4855460Y-8123485D02*
X4864984Y-8133009D01*
X4864984Y-8133009D02*
X4855460Y-8142533D01*
X4855460Y-8142533D02*
X4845936Y-8133009D01*
X4845936Y-8133009D02*
X4855460Y-8123485D01*
X4855460Y-8123485D02*
X4855460Y-8142533D01*
X4988793Y-7942533D02*
X5007841Y-7942533D01*
X5007841Y-7942533D02*
X5026889Y-7952057D01*
X5026889Y-7952057D02*
X5036413Y-7961581D01*
X5036413Y-7961581D02*
X5045936Y-7980628D01*
X5045936Y-7980628D02*
X5055460Y-8018724D01*
X5055460Y-8018724D02*
X5055460Y-8066343D01*
X5055460Y-8066343D02*
X5045936Y-8104438D01*
X5045936Y-8104438D02*
X5036413Y-8123485D01*
X5036413Y-8123485D02*
X5026889Y-8133009D01*
X5026889Y-8133009D02*
X5007841Y-8142533D01*
X5007841Y-8142533D02*
X4988793Y-8142533D01*
X4988793Y-8142533D02*
X4969746Y-8133009D01*
X4969746Y-8133009D02*
X4960222Y-8123485D01*
X4960222Y-8123485D02*
X4950698Y-8104438D01*
X4950698Y-8104438D02*
X4941174Y-8066343D01*
X4941174Y-8066343D02*
X4941174Y-8018724D01*
X4941174Y-8018724D02*
X4950698Y-7980628D01*
X4950698Y-7980628D02*
X4960222Y-7961581D01*
X4960222Y-7961581D02*
X4969746Y-7952057D01*
X4969746Y-7952057D02*
X4988793Y-7942533D01*
X5236413Y-7942533D02*
X5141174Y-7942533D01*
X5141174Y-7942533D02*
X5131651Y-8037771D01*
X5131651Y-8037771D02*
X5141174Y-8028247D01*
X5141174Y-8028247D02*
X5160222Y-8018724D01*
X5160222Y-8018724D02*
X5207841Y-8018724D01*
X5207841Y-8018724D02*
X5226889Y-8028247D01*
X5226889Y-8028247D02*
X5236413Y-8037771D01*
X5236413Y-8037771D02*
X5245936Y-8056819D01*
X5245936Y-8056819D02*
X5245936Y-8104438D01*
X5245936Y-8104438D02*
X5236413Y-8123485D01*
X5236413Y-8123485D02*
X5226889Y-8133009D01*
X5226889Y-8133009D02*
X5207841Y-8142533D01*
X5207841Y-8142533D02*
X5160222Y-8142533D01*
X5160222Y-8142533D02*
X5141174Y-8133009D01*
X5141174Y-8133009D02*
X5131651Y-8123485D01*
X5341174Y-8142533D02*
X5379270Y-8142533D01*
X5379270Y-8142533D02*
X5398317Y-8133009D01*
X5398317Y-8133009D02*
X5407841Y-8123485D01*
X5407841Y-8123485D02*
X5426889Y-8094914D01*
X5426889Y-8094914D02*
X5436413Y-8056819D01*
X5436413Y-8056819D02*
X5436413Y-7980628D01*
X5436413Y-7980628D02*
X5426889Y-7961581D01*
X5426889Y-7961581D02*
X5417365Y-7952057D01*
X5417365Y-7952057D02*
X5398317Y-7942533D01*
X5398317Y-7942533D02*
X5360222Y-7942533D01*
X5360222Y-7942533D02*
X5341174Y-7952057D01*
X5341174Y-7952057D02*
X5331651Y-7961581D01*
X5331651Y-7961581D02*
X5322127Y-7980628D01*
X5322127Y-7980628D02*
X5322127Y-8028247D01*
X5322127Y-8028247D02*
X5331651Y-8047295D01*
X5331651Y-8047295D02*
X5341174Y-8056819D01*
X5341174Y-8056819D02*
X5360222Y-8066343D01*
X5360222Y-8066343D02*
X5398317Y-8066343D01*
X5398317Y-8066343D02*
X5417365Y-8056819D01*
X5417365Y-8056819D02*
X5426889Y-8047295D01*
X5426889Y-8047295D02*
X5436413Y-8028247D01*
X5626889Y-8142533D02*
X5512603Y-8142533D01*
X5569746Y-8142533D02*
X5569746Y-7942533D01*
X5569746Y-7942533D02*
X5550698Y-7971105D01*
X5550698Y-7971105D02*
X5531651Y-7990152D01*
X5531651Y-7990152D02*
X5512603Y-7999676D01*
X5703079Y-7942533D02*
X5703079Y-7980628D01*
X5779270Y-7942533D02*
X5779270Y-7980628D01*
X6074508Y-8218724D02*
X6064984Y-8209200D01*
X6064984Y-8209200D02*
X6045936Y-8180628D01*
X6045936Y-8180628D02*
X6036413Y-8161581D01*
X6036413Y-8161581D02*
X6026889Y-8133009D01*
X6026889Y-8133009D02*
X6017365Y-8085390D01*
X6017365Y-8085390D02*
X6017365Y-8047295D01*
X6017365Y-8047295D02*
X6026889Y-7999676D01*
X6026889Y-7999676D02*
X6036413Y-7971105D01*
X6036413Y-7971105D02*
X6045936Y-7952057D01*
X6045936Y-7952057D02*
X6064984Y-7923485D01*
X6064984Y-7923485D02*
X6074508Y-7913962D01*
X6236413Y-7942533D02*
X6198317Y-7942533D01*
X6198317Y-7942533D02*
X6179270Y-7952057D01*
X6179270Y-7952057D02*
X6169746Y-7961581D01*
X6169746Y-7961581D02*
X6150698Y-7990152D01*
X6150698Y-7990152D02*
X6141174Y-8028247D01*
X6141174Y-8028247D02*
X6141174Y-8104438D01*
X6141174Y-8104438D02*
X6150698Y-8123485D01*
X6150698Y-8123485D02*
X6160222Y-8133009D01*
X6160222Y-8133009D02*
X6179270Y-8142533D01*
X6179270Y-8142533D02*
X6217365Y-8142533D01*
X6217365Y-8142533D02*
X6236413Y-8133009D01*
X6236413Y-8133009D02*
X6245936Y-8123485D01*
X6245936Y-8123485D02*
X6255460Y-8104438D01*
X6255460Y-8104438D02*
X6255460Y-8056819D01*
X6255460Y-8056819D02*
X6245936Y-8037771D01*
X6245936Y-8037771D02*
X6236413Y-8028247D01*
X6236413Y-8028247D02*
X6217365Y-8018724D01*
X6217365Y-8018724D02*
X6179270Y-8018724D01*
X6179270Y-8018724D02*
X6160222Y-8028247D01*
X6160222Y-8028247D02*
X6150698Y-8037771D01*
X6150698Y-8037771D02*
X6141174Y-8056819D01*
X6493555Y-8142533D02*
X6493555Y-7942533D01*
X6579270Y-8142533D02*
X6579270Y-8037771D01*
X6579270Y-8037771D02*
X6569746Y-8018724D01*
X6569746Y-8018724D02*
X6550698Y-8009200D01*
X6550698Y-8009200D02*
X6522127Y-8009200D01*
X6522127Y-8009200D02*
X6503079Y-8018724D01*
X6503079Y-8018724D02*
X6493555Y-8028247D01*
X6703079Y-8142533D02*
X6684032Y-8133009D01*
X6684032Y-8133009D02*
X6674508Y-8123485D01*
X6674508Y-8123485D02*
X6664984Y-8104438D01*
X6664984Y-8104438D02*
X6664984Y-8047295D01*
X6664984Y-8047295D02*
X6674508Y-8028247D01*
X6674508Y-8028247D02*
X6684032Y-8018724D01*
X6684032Y-8018724D02*
X6703079Y-8009200D01*
X6703079Y-8009200D02*
X6731651Y-8009200D01*
X6731651Y-8009200D02*
X6750698Y-8018724D01*
X6750698Y-8018724D02*
X6760222Y-8028247D01*
X6760222Y-8028247D02*
X6769746Y-8047295D01*
X6769746Y-8047295D02*
X6769746Y-8104438D01*
X6769746Y-8104438D02*
X6760222Y-8123485D01*
X6760222Y-8123485D02*
X6750698Y-8133009D01*
X6750698Y-8133009D02*
X6731651Y-8142533D01*
X6731651Y-8142533D02*
X6703079Y-8142533D01*
X6884032Y-8142533D02*
X6864984Y-8133009D01*
X6864984Y-8133009D02*
X6855460Y-8113962D01*
X6855460Y-8113962D02*
X6855460Y-7942533D01*
X7036413Y-8133009D02*
X7017365Y-8142533D01*
X7017365Y-8142533D02*
X6979270Y-8142533D01*
X6979270Y-8142533D02*
X6960222Y-8133009D01*
X6960222Y-8133009D02*
X6950698Y-8113962D01*
X6950698Y-8113962D02*
X6950698Y-8037771D01*
X6950698Y-8037771D02*
X6960222Y-8018724D01*
X6960222Y-8018724D02*
X6979270Y-8009200D01*
X6979270Y-8009200D02*
X7017365Y-8009200D01*
X7017365Y-8009200D02*
X7036413Y-8018724D01*
X7036413Y-8018724D02*
X7045936Y-8037771D01*
X7045936Y-8037771D02*
X7045936Y-8056819D01*
X7045936Y-8056819D02*
X6950698Y-8075866D01*
X7122127Y-8133009D02*
X7141175Y-8142533D01*
X7141175Y-8142533D02*
X7179270Y-8142533D01*
X7179270Y-8142533D02*
X7198317Y-8133009D01*
X7198317Y-8133009D02*
X7207841Y-8113962D01*
X7207841Y-8113962D02*
X7207841Y-8104438D01*
X7207841Y-8104438D02*
X7198317Y-8085390D01*
X7198317Y-8085390D02*
X7179270Y-8075866D01*
X7179270Y-8075866D02*
X7150698Y-8075866D01*
X7150698Y-8075866D02*
X7131651Y-8066343D01*
X7131651Y-8066343D02*
X7122127Y-8047295D01*
X7122127Y-8047295D02*
X7122127Y-8037771D01*
X7122127Y-8037771D02*
X7131651Y-8018724D01*
X7131651Y-8018724D02*
X7150698Y-8009200D01*
X7150698Y-8009200D02*
X7179270Y-8009200D01*
X7179270Y-8009200D02*
X7198317Y-8018724D01*
X7274508Y-8218724D02*
X7284032Y-8209200D01*
X7284032Y-8209200D02*
X7303079Y-8180628D01*
X7303079Y-8180628D02*
X7312603Y-8161581D01*
X7312603Y-8161581D02*
X7322127Y-8133009D01*
X7322127Y-8133009D02*
X7331651Y-8085390D01*
X7331651Y-8085390D02*
X7331651Y-8047295D01*
X7331651Y-8047295D02*
X7322127Y-7999676D01*
X7322127Y-7999676D02*
X7312603Y-7971105D01*
X7312603Y-7971105D02*
X7303079Y-7952057D01*
X7303079Y-7952057D02*
X7284032Y-7923485D01*
X7284032Y-7923485D02*
X7274508Y-7913962D01*
X2299445Y-8221049D02*
X2499445Y-8421049D01*
X2499445Y-8221049D02*
X2299445Y-8421049D01*
X2499445Y-8321049D02*
G75*
G02*
X2299445Y-8321049I-100000J0D01*
G01*
X2299445Y-8321049D02*
G75*
G02*
X2499445Y-8321049I100000J0D01*
G01*
X2741174Y-8212533D02*
X2864984Y-8212533D01*
X2864984Y-8212533D02*
X2798317Y-8288724D01*
X2798317Y-8288724D02*
X2826888Y-8288724D01*
X2826888Y-8288724D02*
X2845936Y-8298247D01*
X2845936Y-8298247D02*
X2855460Y-8307771D01*
X2855460Y-8307771D02*
X2864984Y-8326819D01*
X2864984Y-8326819D02*
X2864984Y-8374438D01*
X2864984Y-8374438D02*
X2855460Y-8393486D01*
X2855460Y-8393486D02*
X2845936Y-8403009D01*
X2845936Y-8403009D02*
X2826888Y-8412533D01*
X2826888Y-8412533D02*
X2769746Y-8412533D01*
X2769746Y-8412533D02*
X2750698Y-8403009D01*
X2750698Y-8403009D02*
X2741174Y-8393486D01*
X2950698Y-8393486D02*
X2960222Y-8403009D01*
X2960222Y-8403009D02*
X2950698Y-8412533D01*
X2950698Y-8412533D02*
X2941174Y-8403009D01*
X2941174Y-8403009D02*
X2950698Y-8393486D01*
X2950698Y-8393486D02*
X2950698Y-8412533D01*
X3055460Y-8412533D02*
X3093555Y-8412533D01*
X3093555Y-8412533D02*
X3112603Y-8403009D01*
X3112603Y-8403009D02*
X3122127Y-8393486D01*
X3122127Y-8393486D02*
X3141174Y-8364914D01*
X3141174Y-8364914D02*
X3150698Y-8326819D01*
X3150698Y-8326819D02*
X3150698Y-8250628D01*
X3150698Y-8250628D02*
X3141174Y-8231581D01*
X3141174Y-8231581D02*
X3131650Y-8222057D01*
X3131650Y-8222057D02*
X3112603Y-8212533D01*
X3112603Y-8212533D02*
X3074507Y-8212533D01*
X3074507Y-8212533D02*
X3055460Y-8222057D01*
X3055460Y-8222057D02*
X3045936Y-8231581D01*
X3045936Y-8231581D02*
X3036412Y-8250628D01*
X3036412Y-8250628D02*
X3036412Y-8298247D01*
X3036412Y-8298247D02*
X3045936Y-8317295D01*
X3045936Y-8317295D02*
X3055460Y-8326819D01*
X3055460Y-8326819D02*
X3074507Y-8336343D01*
X3074507Y-8336343D02*
X3112603Y-8336343D01*
X3112603Y-8336343D02*
X3131650Y-8326819D01*
X3131650Y-8326819D02*
X3141174Y-8317295D01*
X3141174Y-8317295D02*
X3150698Y-8298247D01*
X3274507Y-8212533D02*
X3293555Y-8212533D01*
X3293555Y-8212533D02*
X3312603Y-8222057D01*
X3312603Y-8222057D02*
X3322127Y-8231581D01*
X3322127Y-8231581D02*
X3331650Y-8250628D01*
X3331650Y-8250628D02*
X3341174Y-8288724D01*
X3341174Y-8288724D02*
X3341174Y-8336343D01*
X3341174Y-8336343D02*
X3331650Y-8374438D01*
X3331650Y-8374438D02*
X3322127Y-8393486D01*
X3322127Y-8393486D02*
X3312603Y-8403009D01*
X3312603Y-8403009D02*
X3293555Y-8412533D01*
X3293555Y-8412533D02*
X3274507Y-8412533D01*
X3274507Y-8412533D02*
X3255460Y-8403009D01*
X3255460Y-8403009D02*
X3245936Y-8393486D01*
X3245936Y-8393486D02*
X3236412Y-8374438D01*
X3236412Y-8374438D02*
X3226888Y-8336343D01*
X3226888Y-8336343D02*
X3226888Y-8288724D01*
X3226888Y-8288724D02*
X3236412Y-8250628D01*
X3236412Y-8250628D02*
X3245936Y-8231581D01*
X3245936Y-8231581D02*
X3255460Y-8222057D01*
X3255460Y-8222057D02*
X3274507Y-8212533D01*
X3464984Y-8212533D02*
X3484031Y-8212533D01*
X3484031Y-8212533D02*
X3503079Y-8222057D01*
X3503079Y-8222057D02*
X3512603Y-8231581D01*
X3512603Y-8231581D02*
X3522127Y-8250628D01*
X3522127Y-8250628D02*
X3531650Y-8288724D01*
X3531650Y-8288724D02*
X3531650Y-8336343D01*
X3531650Y-8336343D02*
X3522127Y-8374438D01*
X3522127Y-8374438D02*
X3512603Y-8393486D01*
X3512603Y-8393486D02*
X3503079Y-8403009D01*
X3503079Y-8403009D02*
X3484031Y-8412533D01*
X3484031Y-8412533D02*
X3464984Y-8412533D01*
X3464984Y-8412533D02*
X3445936Y-8403009D01*
X3445936Y-8403009D02*
X3436412Y-8393486D01*
X3436412Y-8393486D02*
X3426888Y-8374438D01*
X3426888Y-8374438D02*
X3417365Y-8336343D01*
X3417365Y-8336343D02*
X3417365Y-8288724D01*
X3417365Y-8288724D02*
X3426888Y-8250628D01*
X3426888Y-8250628D02*
X3436412Y-8231581D01*
X3436412Y-8231581D02*
X3445936Y-8222057D01*
X3445936Y-8222057D02*
X3464984Y-8212533D01*
X3617365Y-8412533D02*
X3617365Y-8279200D01*
X3617365Y-8298247D02*
X3626888Y-8288724D01*
X3626888Y-8288724D02*
X3645936Y-8279200D01*
X3645936Y-8279200D02*
X3674508Y-8279200D01*
X3674508Y-8279200D02*
X3693555Y-8288724D01*
X3693555Y-8288724D02*
X3703079Y-8307771D01*
X3703079Y-8307771D02*
X3703079Y-8412533D01*
X3703079Y-8307771D02*
X3712603Y-8288724D01*
X3712603Y-8288724D02*
X3731650Y-8279200D01*
X3731650Y-8279200D02*
X3760222Y-8279200D01*
X3760222Y-8279200D02*
X3779269Y-8288724D01*
X3779269Y-8288724D02*
X3788793Y-8307771D01*
X3788793Y-8307771D02*
X3788793Y-8412533D01*
X3884031Y-8412533D02*
X3884031Y-8279200D01*
X3884031Y-8298247D02*
X3893555Y-8288724D01*
X3893555Y-8288724D02*
X3912603Y-8279200D01*
X3912603Y-8279200D02*
X3941174Y-8279200D01*
X3941174Y-8279200D02*
X3960222Y-8288724D01*
X3960222Y-8288724D02*
X3969746Y-8307771D01*
X3969746Y-8307771D02*
X3969746Y-8412533D01*
X3969746Y-8307771D02*
X3979269Y-8288724D01*
X3979269Y-8288724D02*
X3998317Y-8279200D01*
X3998317Y-8279200D02*
X4026888Y-8279200D01*
X4026888Y-8279200D02*
X4045936Y-8288724D01*
X4045936Y-8288724D02*
X4055460Y-8307771D01*
X4055460Y-8307771D02*
X4055460Y-8412533D01*
X4445936Y-8203009D02*
X4274508Y-8460152D01*
X4703079Y-8212533D02*
X4722127Y-8212533D01*
X4722127Y-8212533D02*
X4741174Y-8222057D01*
X4741174Y-8222057D02*
X4750698Y-8231581D01*
X4750698Y-8231581D02*
X4760222Y-8250628D01*
X4760222Y-8250628D02*
X4769746Y-8288724D01*
X4769746Y-8288724D02*
X4769746Y-8336343D01*
X4769746Y-8336343D02*
X4760222Y-8374438D01*
X4760222Y-8374438D02*
X4750698Y-8393486D01*
X4750698Y-8393486D02*
X4741174Y-8403009D01*
X4741174Y-8403009D02*
X4722127Y-8412533D01*
X4722127Y-8412533D02*
X4703079Y-8412533D01*
X4703079Y-8412533D02*
X4684032Y-8403009D01*
X4684032Y-8403009D02*
X4674508Y-8393486D01*
X4674508Y-8393486D02*
X4664984Y-8374438D01*
X4664984Y-8374438D02*
X4655460Y-8336343D01*
X4655460Y-8336343D02*
X4655460Y-8288724D01*
X4655460Y-8288724D02*
X4664984Y-8250628D01*
X4664984Y-8250628D02*
X4674508Y-8231581D01*
X4674508Y-8231581D02*
X4684032Y-8222057D01*
X4684032Y-8222057D02*
X4703079Y-8212533D01*
X4855460Y-8393486D02*
X4864984Y-8403009D01*
X4864984Y-8403009D02*
X4855460Y-8412533D01*
X4855460Y-8412533D02*
X4845936Y-8403009D01*
X4845936Y-8403009D02*
X4855460Y-8393486D01*
X4855460Y-8393486D02*
X4855460Y-8412533D01*
X5055460Y-8412533D02*
X4941174Y-8412533D01*
X4998317Y-8412533D02*
X4998317Y-8212533D01*
X4998317Y-8212533D02*
X4979270Y-8241105D01*
X4979270Y-8241105D02*
X4960222Y-8260152D01*
X4960222Y-8260152D02*
X4941174Y-8269676D01*
X5236413Y-8212533D02*
X5141174Y-8212533D01*
X5141174Y-8212533D02*
X5131651Y-8307771D01*
X5131651Y-8307771D02*
X5141174Y-8298247D01*
X5141174Y-8298247D02*
X5160222Y-8288724D01*
X5160222Y-8288724D02*
X5207841Y-8288724D01*
X5207841Y-8288724D02*
X5226889Y-8298247D01*
X5226889Y-8298247D02*
X5236413Y-8307771D01*
X5236413Y-8307771D02*
X5245936Y-8326819D01*
X5245936Y-8326819D02*
X5245936Y-8374438D01*
X5245936Y-8374438D02*
X5236413Y-8393486D01*
X5236413Y-8393486D02*
X5226889Y-8403009D01*
X5226889Y-8403009D02*
X5207841Y-8412533D01*
X5207841Y-8412533D02*
X5160222Y-8412533D01*
X5160222Y-8412533D02*
X5141174Y-8403009D01*
X5141174Y-8403009D02*
X5131651Y-8393486D01*
X5312603Y-8212533D02*
X5436413Y-8212533D01*
X5436413Y-8212533D02*
X5369746Y-8288724D01*
X5369746Y-8288724D02*
X5398317Y-8288724D01*
X5398317Y-8288724D02*
X5417365Y-8298247D01*
X5417365Y-8298247D02*
X5426889Y-8307771D01*
X5426889Y-8307771D02*
X5436413Y-8326819D01*
X5436413Y-8326819D02*
X5436413Y-8374438D01*
X5436413Y-8374438D02*
X5426889Y-8393486D01*
X5426889Y-8393486D02*
X5417365Y-8403009D01*
X5417365Y-8403009D02*
X5398317Y-8412533D01*
X5398317Y-8412533D02*
X5341174Y-8412533D01*
X5341174Y-8412533D02*
X5322127Y-8403009D01*
X5322127Y-8403009D02*
X5312603Y-8393486D01*
X5617365Y-8212533D02*
X5522127Y-8212533D01*
X5522127Y-8212533D02*
X5512603Y-8307771D01*
X5512603Y-8307771D02*
X5522127Y-8298247D01*
X5522127Y-8298247D02*
X5541174Y-8288724D01*
X5541174Y-8288724D02*
X5588794Y-8288724D01*
X5588794Y-8288724D02*
X5607841Y-8298247D01*
X5607841Y-8298247D02*
X5617365Y-8307771D01*
X5617365Y-8307771D02*
X5626889Y-8326819D01*
X5626889Y-8326819D02*
X5626889Y-8374438D01*
X5626889Y-8374438D02*
X5617365Y-8393486D01*
X5617365Y-8393486D02*
X5607841Y-8403009D01*
X5607841Y-8403009D02*
X5588794Y-8412533D01*
X5588794Y-8412533D02*
X5541174Y-8412533D01*
X5541174Y-8412533D02*
X5522127Y-8403009D01*
X5522127Y-8403009D02*
X5512603Y-8393486D01*
X5703079Y-8212533D02*
X5703079Y-8250628D01*
X5779270Y-8212533D02*
X5779270Y-8250628D01*
X6074508Y-8488724D02*
X6064984Y-8479200D01*
X6064984Y-8479200D02*
X6045936Y-8450628D01*
X6045936Y-8450628D02*
X6036413Y-8431581D01*
X6036413Y-8431581D02*
X6026889Y-8403009D01*
X6026889Y-8403009D02*
X6017365Y-8355390D01*
X6017365Y-8355390D02*
X6017365Y-8317295D01*
X6017365Y-8317295D02*
X6026889Y-8269676D01*
X6026889Y-8269676D02*
X6036413Y-8241105D01*
X6036413Y-8241105D02*
X6045936Y-8222057D01*
X6045936Y-8222057D02*
X6064984Y-8193485D01*
X6064984Y-8193485D02*
X6074508Y-8183962D01*
X6141174Y-8231581D02*
X6150698Y-8222057D01*
X6150698Y-8222057D02*
X6169746Y-8212533D01*
X6169746Y-8212533D02*
X6217365Y-8212533D01*
X6217365Y-8212533D02*
X6236413Y-8222057D01*
X6236413Y-8222057D02*
X6245936Y-8231581D01*
X6245936Y-8231581D02*
X6255460Y-8250628D01*
X6255460Y-8250628D02*
X6255460Y-8269676D01*
X6255460Y-8269676D02*
X6245936Y-8298247D01*
X6245936Y-8298247D02*
X6131651Y-8412533D01*
X6131651Y-8412533D02*
X6255460Y-8412533D01*
X6493555Y-8412533D02*
X6493555Y-8212533D01*
X6579270Y-8412533D02*
X6579270Y-8307771D01*
X6579270Y-8307771D02*
X6569746Y-8288724D01*
X6569746Y-8288724D02*
X6550698Y-8279200D01*
X6550698Y-8279200D02*
X6522127Y-8279200D01*
X6522127Y-8279200D02*
X6503079Y-8288724D01*
X6503079Y-8288724D02*
X6493555Y-8298247D01*
X6703079Y-8412533D02*
X6684032Y-8403009D01*
X6684032Y-8403009D02*
X6674508Y-8393486D01*
X6674508Y-8393486D02*
X6664984Y-8374438D01*
X6664984Y-8374438D02*
X6664984Y-8317295D01*
X6664984Y-8317295D02*
X6674508Y-8298247D01*
X6674508Y-8298247D02*
X6684032Y-8288724D01*
X6684032Y-8288724D02*
X6703079Y-8279200D01*
X6703079Y-8279200D02*
X6731651Y-8279200D01*
X6731651Y-8279200D02*
X6750698Y-8288724D01*
X6750698Y-8288724D02*
X6760222Y-8298247D01*
X6760222Y-8298247D02*
X6769746Y-8317295D01*
X6769746Y-8317295D02*
X6769746Y-8374438D01*
X6769746Y-8374438D02*
X6760222Y-8393486D01*
X6760222Y-8393486D02*
X6750698Y-8403009D01*
X6750698Y-8403009D02*
X6731651Y-8412533D01*
X6731651Y-8412533D02*
X6703079Y-8412533D01*
X6884032Y-8412533D02*
X6864984Y-8403009D01*
X6864984Y-8403009D02*
X6855460Y-8383962D01*
X6855460Y-8383962D02*
X6855460Y-8212533D01*
X7036413Y-8403009D02*
X7017365Y-8412533D01*
X7017365Y-8412533D02*
X6979270Y-8412533D01*
X6979270Y-8412533D02*
X6960222Y-8403009D01*
X6960222Y-8403009D02*
X6950698Y-8383962D01*
X6950698Y-8383962D02*
X6950698Y-8307771D01*
X6950698Y-8307771D02*
X6960222Y-8288724D01*
X6960222Y-8288724D02*
X6979270Y-8279200D01*
X6979270Y-8279200D02*
X7017365Y-8279200D01*
X7017365Y-8279200D02*
X7036413Y-8288724D01*
X7036413Y-8288724D02*
X7045936Y-8307771D01*
X7045936Y-8307771D02*
X7045936Y-8326819D01*
X7045936Y-8326819D02*
X6950698Y-8345866D01*
X7122127Y-8403009D02*
X7141175Y-8412533D01*
X7141175Y-8412533D02*
X7179270Y-8412533D01*
X7179270Y-8412533D02*
X7198317Y-8403009D01*
X7198317Y-8403009D02*
X7207841Y-8383962D01*
X7207841Y-8383962D02*
X7207841Y-8374438D01*
X7207841Y-8374438D02*
X7198317Y-8355390D01*
X7198317Y-8355390D02*
X7179270Y-8345866D01*
X7179270Y-8345866D02*
X7150698Y-8345866D01*
X7150698Y-8345866D02*
X7131651Y-8336343D01*
X7131651Y-8336343D02*
X7122127Y-8317295D01*
X7122127Y-8317295D02*
X7122127Y-8307771D01*
X7122127Y-8307771D02*
X7131651Y-8288724D01*
X7131651Y-8288724D02*
X7150698Y-8279200D01*
X7150698Y-8279200D02*
X7179270Y-8279200D01*
X7179270Y-8279200D02*
X7198317Y-8288724D01*
X7274508Y-8488724D02*
X7284032Y-8479200D01*
X7284032Y-8479200D02*
X7303079Y-8450628D01*
X7303079Y-8450628D02*
X7312603Y-8431581D01*
X7312603Y-8431581D02*
X7322127Y-8403009D01*
X7322127Y-8403009D02*
X7331651Y-8355390D01*
X7331651Y-8355390D02*
X7331651Y-8317295D01*
X7331651Y-8317295D02*
X7322127Y-8269676D01*
X7322127Y-8269676D02*
X7312603Y-8241105D01*
X7312603Y-8241105D02*
X7303079Y-8222057D01*
X7303079Y-8222057D02*
X7284032Y-8193485D01*
X7284032Y-8193485D02*
X7274508Y-8183962D01*
M02*
