M48
; DRILL file {KiCad 8.0.0} date 2024-02-24T11:24:57-0800
; FORMAT={-:-/ absolute / metric / decimal}
; #@! TF.CreationDate,2024-02-24T11:24:57-08:00
; #@! TF.GenerationSoftware,Kicad,Pcbnew,8.0.0
; #@! TF.FileFunction,Plated,1,2,PTH
FMAT,2
METRIC
; #@! TA.AperFunction,Plated,PTH,ComponentDrill
T1C0.700
; #@! TA.AperFunction,Plated,PTH,ComponentDrill
T2C0.800
; #@! TA.AperFunction,Plated,PTH,ComponentDrill
T3C0.850
; #@! TA.AperFunction,Plated,PTH,ComponentDrill
T4C1.000
; #@! TA.AperFunction,Plated,PTH,ComponentDrill
T5C1.500
; #@! TA.AperFunction,Plated,PTH,ComponentDrill
T6C3.900
%
G90
G05
T1
X141.884Y-48.385
X141.884Y-53.465
X143.154Y-48.385
X143.154Y-53.465
X144.424Y-48.385
X144.424Y-53.465
X145.694Y-48.385
X145.694Y-53.465
X146.964Y-48.385
X146.964Y-53.465
T2
X139.344Y-47.115
X139.344Y-54.735
T3
X99.06Y-44.45
X99.06Y-46.99
X99.06Y-49.53
X99.06Y-52.07
X99.06Y-54.61
X99.06Y-57.15
X101.6Y-41.91
X101.6Y-44.45
X101.6Y-44.45
X101.6Y-46.99
X101.6Y-46.99
X101.6Y-49.53
X101.6Y-49.53
X101.6Y-52.07
X101.6Y-52.07
X101.6Y-54.61
X101.6Y-54.61
X101.6Y-57.15
X101.6Y-57.15
X101.6Y-59.69
X104.14Y-41.91
X104.14Y-44.45
X104.14Y-44.45
X104.14Y-46.99
X104.14Y-46.99
X104.14Y-49.53
X104.14Y-49.53
X104.14Y-52.07
X104.14Y-52.07
X104.14Y-54.61
X104.14Y-54.61
X104.14Y-57.15
X104.14Y-57.15
X104.14Y-59.69
X106.68Y-41.91
X106.68Y-44.45
X106.68Y-44.45
X106.68Y-46.99
X106.68Y-46.99
X106.68Y-49.53
X106.68Y-49.53
X106.68Y-52.07
X106.68Y-52.07
X106.68Y-54.61
X106.68Y-54.61
X106.68Y-57.15
X106.68Y-57.15
X106.68Y-59.69
X109.22Y-41.91
X109.22Y-44.45
X109.22Y-44.45
X109.22Y-46.99
X109.22Y-46.99
X109.22Y-49.53
X109.22Y-49.53
X109.22Y-52.07
X109.22Y-52.07
X109.22Y-54.61
X109.22Y-54.61
X109.22Y-57.15
X109.22Y-57.15
X109.22Y-59.69
X111.76Y-41.91
X111.76Y-44.45
X111.76Y-44.45
X111.76Y-46.99
X111.76Y-46.99
X111.76Y-49.53
X111.76Y-49.53
X111.76Y-52.07
X111.76Y-52.07
X111.76Y-54.61
X111.76Y-54.61
X111.76Y-57.15
X111.76Y-57.15
X111.76Y-59.69
X114.3Y-41.91
X114.3Y-44.45
X114.3Y-44.45
X114.3Y-44.45
X114.3Y-46.99
X114.3Y-46.99
X114.3Y-46.99
X114.3Y-49.53
X114.3Y-49.53
X114.3Y-49.53
X114.3Y-52.07
X114.3Y-52.07
X114.3Y-52.07
X114.3Y-54.61
X114.3Y-54.61
X114.3Y-54.61
X114.3Y-57.15
X114.3Y-57.15
X114.3Y-57.15
X114.3Y-59.69
X116.84Y-41.91
X116.84Y-44.45
X116.84Y-44.45
X116.84Y-44.45
X116.84Y-46.99
X116.84Y-46.99
X116.84Y-46.99
X116.84Y-49.53
X116.84Y-49.53
X116.84Y-49.53
X116.84Y-52.07
X116.84Y-52.07
X116.84Y-52.07
X116.84Y-54.61
X116.84Y-54.61
X116.84Y-54.61
X116.84Y-57.15
X116.84Y-57.15
X116.84Y-57.15
X116.84Y-59.69
X119.38Y-41.91
X119.38Y-44.45
X119.38Y-44.45
X119.38Y-46.99
X119.38Y-46.99
X119.38Y-49.53
X119.38Y-49.53
X119.38Y-52.07
X119.38Y-52.07
X119.38Y-54.61
X119.38Y-54.61
X119.38Y-57.15
X119.38Y-57.15
X119.38Y-59.69
X121.92Y-41.91
X121.92Y-44.45
X121.92Y-44.45
X121.92Y-46.99
X121.92Y-46.99
X121.92Y-49.53
X121.92Y-49.53
X121.92Y-52.07
X121.92Y-52.07
X121.92Y-54.61
X121.92Y-54.61
X121.92Y-57.15
X121.92Y-57.15
X121.92Y-59.69
X124.46Y-41.91
X124.46Y-44.45
X124.46Y-44.45
X124.46Y-46.99
X124.46Y-46.99
X124.46Y-49.53
X124.46Y-49.53
X124.46Y-52.07
X124.46Y-52.07
X124.46Y-54.61
X124.46Y-54.61
X124.46Y-57.15
X124.46Y-57.15
X124.46Y-59.69
X127.0Y-41.91
X127.0Y-44.45
X127.0Y-44.45
X127.0Y-46.99
X127.0Y-46.99
X127.0Y-49.53
X127.0Y-49.53
X127.0Y-52.07
X127.0Y-52.07
X127.0Y-54.61
X127.0Y-54.61
X127.0Y-57.15
X127.0Y-57.15
X127.0Y-59.69
X129.54Y-41.91
X129.54Y-44.45
X129.54Y-44.45
X129.54Y-46.99
X129.54Y-46.99
X129.54Y-49.53
X129.54Y-49.53
X129.54Y-52.07
X129.54Y-52.07
X129.54Y-54.61
X129.54Y-54.61
X129.54Y-57.15
X129.54Y-57.15
X129.54Y-59.69
X132.08Y-44.45
X132.08Y-46.99
X132.08Y-49.53
X132.08Y-52.07
X132.08Y-54.61
X132.08Y-57.15
T4
X28.201Y-48.893
X28.201Y-48.893
X28.201Y-52.703
X28.201Y-52.703
X30.741Y-48.893
X30.741Y-48.893
X30.741Y-52.703
X30.741Y-52.703
X33.281Y-48.893
X33.281Y-48.893
X33.281Y-52.703
X33.281Y-52.703
X35.821Y-48.893
X35.821Y-48.893
X35.821Y-52.703
X35.821Y-52.703
X38.361Y-48.893
X38.361Y-48.893
X38.361Y-52.703
X38.361Y-52.703
X45.056Y-45.72
X45.056Y-55.88
X48.26Y-46.99
X48.26Y-49.53
X48.26Y-52.07
X48.26Y-54.61
X50.8Y-43.18
X50.8Y-45.72
X50.8Y-48.26
X50.8Y-50.8
X50.8Y-53.34
X50.8Y-55.88
X50.8Y-58.42
X53.34Y-41.91
X53.34Y-44.45
X53.34Y-46.99
X53.34Y-49.53
X53.34Y-52.07
X53.34Y-54.61
X53.34Y-57.15
X53.34Y-59.69
X55.88Y-43.18
X55.88Y-45.72
X55.88Y-48.26
X55.88Y-50.8
X55.88Y-53.34
X55.88Y-55.88
X55.88Y-58.42
X58.42Y-41.91
X58.42Y-44.45
X58.42Y-46.99
X58.42Y-49.53
X58.42Y-52.07
X58.42Y-54.61
X58.42Y-57.15
X58.42Y-59.69
X60.96Y-43.18
X60.96Y-58.42
X63.5Y-41.91
X63.5Y-59.69
X64.643Y-49.53
X64.643Y-52.07
X64.77Y-44.45
X64.77Y-57.15
X66.04Y-41.91
X66.04Y-59.69
X68.072Y-45.72
X68.072Y-55.88
X68.453Y-49.53
X68.453Y-52.07
X68.58Y-41.91
X68.58Y-59.69
X71.12Y-41.91
X71.12Y-59.69
X73.279Y-49.53
X73.279Y-52.07
X73.66Y-41.91
X73.66Y-59.69
X74.422Y-45.72
X74.422Y-55.88
X75.692Y-49.53
X75.692Y-52.07
X76.2Y-41.91
X76.2Y-59.69
X78.74Y-41.91
X78.74Y-59.69
X81.28Y-41.91
X81.28Y-44.45
X81.28Y-46.99
X81.28Y-49.53
X81.28Y-52.07
X81.28Y-54.61
X81.28Y-57.15
X81.28Y-59.69
X83.82Y-43.18
X83.82Y-45.72
X83.82Y-48.26
X83.82Y-50.8
X83.82Y-53.34
X83.82Y-55.88
X83.82Y-58.42
X86.36Y-41.91
X86.36Y-44.45
X86.36Y-46.99
X86.36Y-49.53
X86.36Y-52.07
X86.36Y-54.61
X86.36Y-57.15
X86.36Y-59.69
X88.9Y-43.18
X88.9Y-45.72
X88.9Y-48.26
X88.9Y-50.8
X88.9Y-53.34
X88.9Y-55.88
X88.9Y-58.42
X91.44Y-41.91
X91.44Y-44.45
X91.44Y-46.99
X91.44Y-49.53
X91.44Y-52.07
X91.44Y-54.61
X91.44Y-57.15
X91.44Y-59.69
X93.98Y-43.18
X93.98Y-45.72
X93.98Y-48.26
X93.98Y-50.8
X93.98Y-53.34
X93.98Y-55.88
X93.98Y-58.42
X139.344Y-49.655
X139.344Y-52.195
T5
X61.976Y-45.72
X61.976Y-55.753
X70.776Y-45.72
X70.776Y-55.753
X78.076Y-45.72
X78.076Y-55.753
T6
X143.256Y-41.656
X143.256Y-59.944
T3
X61.976Y-49.225G85X61.976Y-52.375
G05
X70.776Y-49.225G85X70.776Y-52.375
G05
X78.076Y-49.225G85X78.076Y-52.375
G05
M30
